<?xml version="1.0" standalone="no"?>
<!DOCTYPE svg PUBLIC "-//W3C//DTD SVG 1.1//EN" "http://www.w3.org/Graphics/SVG/1.1/DTD/svg11.dtd" >
<svg xmlns="http://www.w3.org/2000/svg">
<metadata></metadata>
<defs>
<font id="modern_twosxtn_itc_stdmedium" horiz-adv-x="1259" >
<font-face units-per-em="2048" ascent="1638" descent="-410" />
<missing-glyph horiz-adv-x="583" />
<glyph unicode="&#xfb01;" horiz-adv-x="1345" d="M43 922v43h186q7 218 131 330t351 112q187 0 290 -72.5t103 -165.5q0 -65 -36 -101t-91 -36q-60 0 -95.5 32.5t-35.5 80.5q0 50 37 84q35 30 35 43q0 33 -55 62.5t-142 29.5q-97 0 -161 -44t-79 -124q-4 -29 -8 -231h641v-770q0 -38 2 -56t11 -40t28.5 -32t54 -19 t88.5 -13v-35h-602v35q32 2 57.5 6t43.5 11.5t31 13.5t21 18t12.5 20t6 25.5t2 27t0.5 31.5v11v585q0 40 -4.5 62.5t-14 39.5t-34 24t-55.5 9.5t-88 2.5h-201v-723v-6q0 -27 0.5 -39t3.5 -31t9.5 -28t19 -21t31.5 -18t46.5 -12t65.5 -9v-35h-596v35q43 3 73 8.5t50 16.5 t30.5 20.5t15.5 30.5t6 36.5t1 47.5v727h-186z" />
<glyph unicode="&#xfb02;" horiz-adv-x="1339" d="M43 922v43h186q7 218 131 330t351 112q153 0 247 -43q55 8 156 29v-1198q0 -38 3.5 -59.5t13 -41t30.5 -29.5t53 -17.5t84 -12.5v-35h-600v35q37 3 63 8t45 10.5t31 16.5t19 20t10 28.5t3.5 33.5t0.5 43v882q-51 31 -51 92q0 30 8 52.5t17.5 33t17.5 21.5t8 20 q0 13 -13 28t-49 27.5t-87 12.5q-97 0 -161 -44t-79 -124q-4 -29 -8 -231h232v-43h-232v-723v-6q0 -27 0.5 -39t3.5 -31t9.5 -28t19 -21t31.5 -18t46.5 -12t65.5 -9v-35h-596v35q43 3 73 8.5t50 16.5t30.5 20.5t15.5 30.5t6 36.5t1 47.5v727h-186z" />
<glyph horiz-adv-x="2048" />
<glyph horiz-adv-x="2048" />
<glyph unicode="&#xd;" horiz-adv-x="2048" />
<glyph unicode=" "  horiz-adv-x="583" />
<glyph unicode="&#x09;" horiz-adv-x="583" />
<glyph unicode="&#xa0;" horiz-adv-x="583" />
<glyph unicode="!" horiz-adv-x="651" d="M170 129q0 59 43 100t106 41t105.5 -41t42.5 -100t-43 -101t-105 -42q-63 0 -106 42t-43 101zM184 1176q0 106 39 161.5t107 55.5q69 0 110 -57t41 -156q0 -98 -56.5 -314.5t-64.5 -322.5q-8 -132 -8 -181h-53q0 202 -18 297q-14 71 -41.5 188t-41.5 193.5t-14 135.5z " />
<glyph unicode="&#x22;" horiz-adv-x="940" d="M205 1266q0 127 100 127q101 0 101 -129q0 -40 -15 -113l-59 -289h-56l-57 289q-14 68 -14 115zM535 1266q0 127 100 127t100 -129q0 -45 -14 -113l-59 -289h-56l-57 289q-14 68 -14 115z" />
<glyph unicode="#" horiz-adv-x="1269" d="M76 829v136h327l86 405h134l-84 -405h329l82 405h135l-84 -405h193v-136h-223l-74 -358h297v-135h-326l-84 -399h-135l84 399h-327l-84 -399h-136l84 399h-192v135h223l74 358h-299zM436 471h328l72 358h-328z" />
<glyph unicode="$" horiz-adv-x="1337" d="M111 319q0 59 37 98.5t92 39.5q53 0 91 -38.5t38 -94.5q0 -42 -29 -86q-35 -50 -35 -60q0 -17 23 -40.5t62 -46t102 -38.5t133 -16v561q-61 17 -103.5 30t-94 32.5t-85.5 39.5t-69 48t-55.5 59.5t-33 73t-12.5 90.5q0 162 126 272t327 127v203h63v-201 q202 -7 326.5 -93.5t124.5 -195.5q0 -64 -31.5 -99.5t-77.5 -35.5q-49 0 -82 33.5t-33 87.5q0 55 29 86q37 42 37 53q0 21 -33 48t-103.5 49.5t-156.5 23.5v-467q16 -4 71 -19t72.5 -20t52.5 -15.5t55 -18.5t36 -17q215 -113 215 -328q0 -179 -140.5 -304t-361.5 -144v-232 h-63v230h-9q-128 0 -246.5 48.5t-188.5 124t-70 152.5zM352 1104q0 -95 65 -142t208 -83v448q-134 -10 -203.5 -74t-69.5 -149zM688 41q148 15 244 94t96 189q0 35 -8.5 64.5t-19 50t-34.5 39t-41 29t-53 23t-55.5 17.5t-64 16.5t-64.5 16.5v-539z" />
<glyph unicode="%" horiz-adv-x="1894" d="M82 993q0 80 35 153.5t91.5 124.5t128 81t144.5 30t144.5 -30t127.5 -81t91 -124.5t35 -153.5q0 -81 -35 -154t-91.5 -123.5t-128 -80t-143.5 -29.5q-71 0 -142.5 29.5t-128.5 79.5t-92.5 123.5t-35.5 154.5zM305 993q0 -183 40 -263.5t136 -80.5q97 0 135.5 81t38.5 263 q0 184 -39 265t-135 81q-95 0 -135.5 -81.5t-40.5 -264.5zM549 -35l676 1419h116l-673 -1419h-119zM1016 373q0 80 35 153t91.5 123.5t128 80.5t144.5 30q97 0 188 -49.5t150 -140t59 -197.5q0 -108 -60 -199t-150.5 -140.5t-186.5 -49.5q-72 0 -143.5 30t-128 80.5t-92 124 t-35.5 154.5zM1239 373q0 -183 39.5 -264.5t136.5 -81.5q96 0 135 81.5t39 264.5q0 184 -39 264t-135 80q-97 0 -136.5 -80.5t-39.5 -263.5z" />
<glyph unicode="&#x26;" horiz-adv-x="1650" d="M84 373q0 89 28 158.5t83.5 120t124 86t163.5 65.5q-73 169 -73 276q0 138 92 226t223 88q132 0 207.5 -72.5t75.5 -171.5q0 -114 -65.5 -185.5t-199.5 -129.5q68 -127 167 -277t161 -225q26 47 54.5 116.5t48.5 126t48.5 117.5t58 102t74.5 68t99 27q66 0 111 -45.5 t45 -106.5q0 -64 -37.5 -103.5t-85.5 -39.5q-37 0 -63.5 13t-38 29t-26 29t-30.5 13q-41 0 -66.5 -39.5t-69.5 -146.5t-93 -191q148 -215 270 -215q67 0 106.5 76t39.5 211v33h40v-35q0 -398 -309 -398q-90 0 -156 34.5t-147 115.5q-179 -150 -389 -150q-198 0 -334.5 119 t-136.5 281zM330 500q0 -113 46.5 -212.5t130.5 -160.5t185 -61q64 0 124 23t99 65q-54 70 -103 136.5t-87.5 124t-68 101.5t-57 89.5t-40.5 67.5t-32.5 57t-20.5 36q-37 -17 -62 -34t-54 -47.5t-44.5 -77t-15.5 -107.5zM590 1196q0 -118 133 -326q106 36 163.5 108.5 t57.5 166.5q0 88 -56 146.5t-136 58.5q-72 0 -117 -44t-45 -110z" />
<glyph unicode="'" horiz-adv-x="561" d="M180 1266q0 127 101 127q100 0 100 -129q0 -54 -12 -113l-60 -289h-55l-57 289q-17 83 -17 115z" />
<glyph unicode="(" horiz-adv-x="704" d="M82 532q0 249 51.5 426t165.5 299q149 159 358 162v-39q-100 -13 -165 -59.5t-105.5 -142.5t-57 -236.5t-16.5 -353.5q0 -104 1.5 -182.5t6 -160t13 -141t21.5 -118.5t31.5 -100t44 -78t58.5 -60.5t75 -40t93 -22.5v-39q-213 6 -358 161q-114 122 -165.5 299t-51.5 426z " />
<glyph unicode=")" horiz-adv-x="704" d="M47 -315q132 17 206.5 100t106 246.5t31.5 445.5q0 119 -2 205t-8 175.5t-17 151.5t-29 122.5t-43.5 100t-60.5 72t-80.5 51t-103.5 25.5v39q210 -3 359 -162q115 -122 166 -298.5t51 -426.5t-51 -426.5t-166 -298.5q-145 -155 -359 -161v39z" />
<glyph unicode="*" horiz-adv-x="884" d="M129 930q0 19 24.5 44t67.5 34q20 4 74 5t88 11l12 -20q-19 -18 -49 -67t-60.5 -80.5t-66.5 -31.5q-90 0 -90 105zM129 1161q0 105 90 105q36 0 66.5 -31t61 -80.5t48.5 -67.5l-10 -18q-33 9 -87 9.5t-75 4.5q-41 8 -67.5 32.5t-26.5 45.5zM354 1305q0 38 25.5 62 t60.5 24t60.5 -24t25.5 -62q0 -46 -32.5 -107t-40.5 -92h-23q-8 31 -42 92t-34 107zM358 788q0 47 33 106.5t41 90.5h23q8 -31 40.5 -91t32.5 -106q0 -39 -26 -63.5t-60 -24.5t-59 24t-25 64zM487 1087q20 18 49.5 66.5t60 79.5t67.5 31q88 0 88 -103q0 -17 -25.5 -43 t-67.5 -35q-23 -5 -76.5 -6t-84.5 -10zM489 1008l13 20q33 -9 93.5 -10t92.5 -14q29 -11 48.5 -32.5t19.5 -37.5q0 -103 -90 -103q-36 0 -66.5 31t-61.5 79.5t-49 66.5z" />
<glyph unicode="+" d="M96 643v127h469v471h127v-471h471v-127h-469v-473h-127v473h-471z" />
<glyph unicode="," horiz-adv-x="555" d="M125 125q0 40 38.5 78.5t110.5 38.5q51 0 99.5 -49t48.5 -127q0 -99 -59 -191.5t-175 -159.5l-20 35q83 52 125.5 100.5t42.5 98.5q0 26 -7.5 37.5t-27.5 11.5q-1 0 -17 -5t-20 -5q-139 0 -139 137z" />
<glyph unicode="-" horiz-adv-x="428" d="M0 408v147h428v-147h-428z" />
<glyph unicode="." horiz-adv-x="583" d="M143 129q0 58 44 99.5t106 41.5q63 0 105 -41t42 -100t-42.5 -101t-104.5 -42t-106 42.5t-44 100.5z" />
<glyph unicode="/" horiz-adv-x="931" d="M-41 -147l737 1658h133l-731 -1658h-139z" />
<glyph unicode="0" d="M78 682q0 159 48 295.5t126 226t177 139.5t202 50t201 -50t176.5 -139t126 -225.5t47.5 -296.5q0 -161 -48 -298t-126.5 -225t-176.5 -137t-200 -49t-200.5 49.5t-177 137.5t-127 224.5t-48.5 297.5zM362 682q0 -170 13 -289.5t43.5 -206.5t83 -128.5t129.5 -41.5 t129.5 42t82 129.5t42 206t12.5 288.5q0 345 -58.5 506.5t-207.5 161.5q-77 0 -129.5 -42t-83 -129t-43.5 -207t-13 -290z" />
<glyph unicode="1" horiz-adv-x="1427" d="M242 0v35q201 17 245 27q82 18 109 67q25 45 25 156v655q0 193 -31.5 226t-213.5 36q-55 1 -87 2q-9 0 -23.5 -1t-23.5 -1v37q169 6 285 41t196 109h158v-1100q0 -36 1.5 -63t8.5 -50.5t13 -40t22 -31t28 -23.5t40 -16.5t47.5 -11.5t61 -7.5t71.5 -5.5t86 -5v-35h-1018z " />
<glyph unicode="2" horiz-adv-x="1234" d="M102 0q0 50 14 91.5t52 96.5q41 57 100.5 113t117 100t120 92t114.5 100t94.5 111.5t66.5 138t24 169.5q0 160 -73.5 249t-207.5 89q-113 0 -202 -66.5t-89 -132.5q0 -27 15.5 -35.5t46 -11.5t47.5 -12q30 -15 48 -47.5t18 -69.5q0 -56 -42.5 -95.5t-91.5 -39.5 q-76 0 -122 52.5t-46 131.5q0 148 135.5 258.5t333.5 110.5q146 0 265.5 -56.5t184.5 -149t65 -198.5q0 -74 -28.5 -139.5t-75.5 -114t-109.5 -95t-129.5 -82.5t-136.5 -76t-129 -76t-108.5 -82.5t-74 -94.5h508q51 0 89 6t65 20.5t44.5 31t30.5 47t20 59t15 74.5h35 l-29 -467h-975z" />
<glyph unicode="3" horiz-adv-x="1206" d="M90 276q0 81 43.5 128t104.5 47q60 0 98.5 -40t38.5 -98q0 -51 -25.5 -81t-60.5 -35q-4 -1 -12.5 -1.5t-12.5 -1.5t-9.5 -3t-8 -5.5t-4.5 -9t-2 -14.5q0 -15 17.5 -38.5t50 -48t89.5 -42t125 -17.5q297 0 297 357q0 181 -65 261.5t-203 80.5q-43 0 -100.5 -11.5 t-65.5 -11.5q-49 0 -49 37q0 41 53 41q7 0 46.5 -6t78.5 -6q123 0 195.5 80t72.5 219q0 140 -68 216.5t-196 76.5q-105 0 -178.5 -48.5t-73.5 -103.5q0 -15 15.5 -22.5t38 -13t45 -14.5t38 -35.5t15.5 -68.5q0 -58 -38.5 -95.5t-98.5 -37.5q-69 0 -113.5 52.5t-44.5 123.5 q0 127 120 216.5t320 89.5q112 0 206.5 -27.5t156 -73.5t95.5 -103t34 -118q0 -52 -12.5 -94.5t-32.5 -73.5t-53.5 -55.5t-66.5 -40.5t-80 -29t-86 -20t-93 -15q236 -11 354.5 -98.5t118.5 -263.5q0 -121 -78 -215t-206.5 -143.5t-282.5 -49.5q-192 0 -319.5 91t-127.5 212z " />
<glyph unicode="4" horiz-adv-x="1308" d="M61 453q32 44 143.5 192t253.5 341t290 403h213v-893h299l-29 -95h-270v-161v-2v-56t4 -42.5t9 -34.5t18 -23.5t29 -18.5t44.5 -11.5t60.5 -10t82 -6.5v-35h-739v35q38 4 65 6.5t51.5 8t40 8.5t30 11.5t22 13.5t14 19t9 22t4.5 29t2 33.5v42.5v11v161h-613zM162 496h545 v741q-50 -65 -100 -134t-99.5 -138.5t-71.5 -100.5q-2 -3 -274 -368z" />
<glyph unicode="5" horiz-adv-x="1218" d="M106 289q0 71 46 123.5t116 52.5q59 0 97 -37.5t38 -93.5q0 -50 -25.5 -83t-64.5 -44q-1 0 -11.5 -2.5t-13.5 -3.5t-11 -5t-10.5 -8.5t-5.5 -12t-3 -17.5q0 -50 71.5 -96t182.5 -46q317 0 317 459q0 189 -72.5 292t-205.5 103q-58 0 -131 -41q-37 -20 -66 -43.5t-53 -55 t-38 -55t-36 -65.5l-45 11q55 376 78 761q221 -34 361 -34q190 0 387 45q-9 -133 -128 -215t-296 -82q-125 0 -293 47q-38 -314 -51 -430q70 102 159 151t219 49q142 0 257.5 -64.5t177 -165.5t61.5 -214q0 -98 -45 -189t-122 -158.5t-185.5 -108t-229.5 -40.5 q-184 0 -305 92t-121 224z" />
<glyph unicode="6" horiz-adv-x="1241" d="M92 659q0 145 47 278.5t130 234.5t205.5 161t264.5 60q99 0 188 -33.5t146 -97t57 -142.5q0 -68 -42 -112.5t-109 -44.5q-58 0 -95.5 37t-37.5 100q0 75 67 112q3 2 11.5 6t13.5 7t9.5 7.5t4.5 8.5q0 37 -62.5 73t-154.5 36q-130 0 -213.5 -68t-115.5 -199 q-39 -165 -39 -350q0 -15 1 -39t1 -39q49 102 126 151.5t201 49.5q83 0 166 -31.5t149.5 -86t108 -138t41.5 -178.5q0 -83 -39.5 -164t-107.5 -144t-167.5 -102t-211.5 -39q-108 0 -206 46.5t-173 131.5t-119.5 217t-44.5 291zM371 426q0 -200 71 -305t197 -105 q133 0 195.5 97.5t62.5 298.5q0 204 -54.5 302.5t-185.5 98.5q-133 0 -209.5 -102.5t-76.5 -284.5z" />
<glyph unicode="7" horiz-adv-x="1118" d="M76 903l26 463h1000l20 -49q-243 -287 -342.5 -511.5t-99.5 -506.5q0 -25 1 -66t1 -67q0 -92 -33 -142.5t-117 -50.5q-76 0 -118.5 50t-42.5 143q0 177 129 400.5t413 563.5h-538q-34 0 -51.5 -0.5t-44 -2.5t-40 -6t-32.5 -11.5t-29 -19t-23 -28.5t-20 -39.5t-13.5 -52.5 t-10.5 -67h-35z" />
<glyph unicode="8" horiz-adv-x="1222" d="M72 367q0 138 113 229t339 121q-201 15 -307 101t-106 226q0 139 140.5 244t358.5 105q215 0 357.5 -104t142.5 -245q0 -140 -105.5 -226t-306.5 -101q225 -30 338 -120.5t113 -229.5q0 -111 -71.5 -202t-195 -141.5t-272.5 -50.5q-148 0 -271 50.5t-195 141.5t-72 202z M356 348q0 -168 60 -250t194 -82t194 82t60 250q0 172 -60.5 259t-193.5 87t-193.5 -86.5t-60.5 -259.5zM369 1044q0 -147 65 -227t176 -80q112 0 177 80.5t65 226.5q0 151 -61.5 228.5t-180.5 77.5q-117 0 -179 -78t-62 -228z" />
<glyph unicode="9" horiz-adv-x="1232" d="M76 938q0 118 69 222.5t189.5 168.5t261.5 64q155 0 280.5 -84.5t199 -240.5t73.5 -355q0 -154 -49 -291.5t-133.5 -236t-203 -155.5t-253.5 -57q-162 0 -276.5 76.5t-114.5 190.5q0 69 40.5 114t104.5 45q60 0 99.5 -37.5t39.5 -97.5q0 -75 -69 -112q-37 -18 -37 -29 q0 -36 60.5 -71.5t156.5 -35.5q195 0 277.5 150.5t82.5 470.5q0 10 -1 39t-1 39q-94 -205 -325 -205q-120 0 -227.5 54.5t-175.5 154t-68 219.5zM340 950q0 -204 57.5 -300.5t186.5 -96.5q128 0 204 100.5t76 290.5q0 192 -71 299t-201 107q-134 0 -193 -99t-59 -301z" />
<glyph unicode=":" horiz-adv-x="589" d="M143 645q0 59 43.5 101t106.5 42q62 0 104.5 -42t42.5 -101t-42 -100t-105 -41q-62 0 -106 41.5t-44 99.5zM150 129q0 58 42.5 99.5t104.5 41.5q63 0 106 -41t43 -100t-43 -101t-106 -42q-62 0 -104.5 42.5t-42.5 100.5z" />
<glyph unicode=";" horiz-adv-x="559" d="M123 645q0 59 43 101t106 42q62 0 105 -42t43 -101t-42.5 -100t-105.5 -41q-62 0 -105.5 41.5t-43.5 99.5zM129 125q0 40 39 78.5t111 38.5q51 0 99 -49t48 -127q0 -98 -59 -191.5t-174 -159.5l-21 35q82 53 125 101t43 98q0 26 -7.5 37.5t-27.5 11.5q-1 0 -17 -5t-20 -5 q-139 0 -139 137z" />
<glyph unicode="&#x3c;" d="M96 645v127l1067 455v-127l-917 -391l917 -394v-127z" />
<glyph unicode="=" d="M96 489v127h1067v-127h-1067zM96 797v127h1067v-127h-1067z" />
<glyph unicode="&#x3e;" d="M96 188v127l918 394l-918 391v127l1067 -455v-127z" />
<glyph unicode="?" horiz-adv-x="1032" d="M68 1067q0 94 58 169.5t155 116t211 40.5q202 0 331 -92t129 -222q0 -82 -47.5 -154.5t-128.5 -117.5q-198 -110 -279 -174.5t-81 -132.5q0 -52 22.5 -77.5t55.5 -25.5q30 0 47 15t34 49l39 -6q-20 -50 -48.5 -75.5t-73.5 -25.5q-46 0 -81.5 37.5t-35.5 108.5 q0 83 110 229q13 17 45.5 58t43.5 56.5t34 48t31.5 51.5t20.5 47t16 54.5t4 55.5q0 6 0.5 28.5t0 29.5t-3 23t-7.5 31q-20 60 -70.5 99t-107.5 39q-54 0 -98.5 -11.5t-71.5 -29t-45.5 -38.5t-25.5 -38.5t-7 -30.5q0 -28 16 -33q27 -8 45 -16t38 -23t30 -39t10 -57 q0 -50 -41 -95.5t-115 -45.5q-71 0 -115 47.5t-44 126.5zM346 129q0 58 44 99.5t106 41.5q63 0 105 -41t42 -100t-42.5 -101t-104.5 -42t-106 42.5t-44 100.5z" />
<glyph unicode="@" horiz-adv-x="1460" d="M102 614q0 107 54.5 212.5t148 189.5t230.5 136t290 52q237 0 385 -112.5t148 -278.5q0 -90 -32 -172.5t-82 -138t-112 -88.5t-122 -33q-41 0 -72 10.5t-49.5 25t-31.5 40t-18.5 47t-11.5 53.5q-46 -86 -97 -132t-128 -46q-99 0 -169.5 75.5t-70.5 186.5q0 102 60 194.5 t150 145.5t180 53q93 0 153 -78q26 -36 45 -36q10 0 20 4.5t17 10t16.5 18t14.5 20t16 24.5t15 23h28q-14 -76 -41.5 -198.5t-42 -201t-14.5 -131.5q0 -65 61 -65q35 0 75 31.5t75.5 85t58.5 133t23 166.5q0 147 -115 234t-315 87q-140 0 -258.5 -46.5t-198 -125.5 t-124 -184t-44.5 -221q0 -170 112.5 -273.5t291.5 -103.5q190 0 319 123l45 -23q-61 -64 -168.5 -103.5t-208.5 -39.5q-222 0 -364 129.5t-142 320.5zM526 545q0 -59 26 -91t73 -32q60 0 117.5 68.5t91.5 173t34 206.5q0 62 -29 94.5t-73 32.5q-65 0 -122.5 -80t-87.5 -183 t-30 -189z" />
<glyph unicode="A" horiz-adv-x="1583" d="M-6 0v35q66 13 109 31.5t89.5 61t88.5 118t88 194.5l374 961h134l456 -1135q23 -57 35 -86t31.5 -57.5t29.5 -38.5t39.5 -22t50 -15.5t72.5 -11.5v-35h-673v35q44 6 71 11.5t55.5 14.5t42 23t13.5 33t-2 35.5t-7 33t-8 25.5t-10.5 27t-9.5 24l-115 287h-475l-59 -164 q-47 -129 -47 -207q0 -125 211 -143v-35h-584zM489 592h441l-228 561z" />
<glyph unicode="B" horiz-adv-x="1484" d="M66 0v35q34 2 60.5 5t48.5 7.5t38 7.5t28 11t20 12.5t13.5 17t8.5 19t4.5 23.5t1.5 27v33v9v952v9q0 31 -0.5 44.5t-4.5 34t-12.5 29t-23.5 20t-40 16.5t-59 10.5t-83 8.5v35h776q245 0 376.5 -87.5t131.5 -223.5q0 -89 -53.5 -159t-149.5 -103q-103 -37 -324 -48 q140 -5 242.5 -25.5t177.5 -62.5t112.5 -109.5t37.5 -162.5q0 -118 -71 -208t-198 -138q-102 -39 -336 -39h-722zM549 199q0 -88 44 -122t171 -34q344 0 344 326q0 75 -12.5 132t-39 95t-60.5 63t-83.5 38.5t-100 18.5t-118.5 5h-145v-522zM549 764h133q99 0 166.5 12.5 t118 43.5t74.5 87t24 140q0 140 -77.5 208t-235.5 68q-87 0 -130.5 -16t-58 -47t-14.5 -91v-405z" />
<glyph unicode="C" horiz-adv-x="1347" d="M88 674q0 184 88.5 350t239.5 267.5t323 101.5q134 0 256 -78q5 -3 21 -13.5t22 -13.5t17.5 -9.5t19.5 -8.5t15 -2q44 0 84 110h30l4 -555h-34q-142 527 -424 527q-186 0 -281.5 -182t-95.5 -537q0 -318 90.5 -466.5t296.5 -148.5q178 0 293.5 122.5t128.5 355.5h43 q-12 -184 -72 -291q-129 -230 -428 -230q-170 0 -317.5 96.5t-233.5 258t-86 346.5z" />
<glyph unicode="D" horiz-adv-x="1564" d="M66 0v35q34 2 60.5 5t48.5 7.5t38 7.5t28 11t20 12.5t13.5 17t8.5 19t4.5 23.5t1.5 27v33v9v952v9q0 31 -0.5 44.5t-4.5 34t-12.5 29t-23.5 20t-40 16.5t-59 10.5t-83 8.5v35h645q151 0 264 -27q221 -56 360.5 -239t139.5 -420q0 -194 -89.5 -352t-248.5 -244 q-71 -38 -151 -57t-138.5 -23t-153.5 -4h-628zM549 213q0 -84 10 -108q18 -45 97 -56q39 -6 100 -6q126 0 210.5 37.5t133.5 119.5t69.5 196.5t20.5 283.5q0 170 -21.5 286t-72 198.5t-137 120.5t-214.5 38q-38 0 -65.5 -1.5t-48.5 -6.5t-34.5 -9t-23 -16t-14.5 -20 t-7 -28.5t-2.5 -33t-0.5 -41.5v-954z" />
<glyph unicode="E" horiz-adv-x="1388" d="M63 0v35q112 8 159 26.5t56 44t9 93.5v8v952q0 79 -10 102q-18 41 -95 56q-43 9 -119 14v35h1194v-496h-34q-40 237 -149.5 345t-311.5 108q-73 0 -111 -5t-64 -23t-33 -48.5t-7 -87.5v-405h39q79 0 133.5 17.5t84.5 40t49 73t24.5 86t13.5 108.5h35v-712h-35 q-10 171 -79 257.5t-226 86.5h-39v-455v-23v-41t1 -34.5t3.5 -30.5t7.5 -23.5t12 -20.5t18 -15t25.5 -12t33.5 -7t43 -5t54 -1q224 0 348.5 126.5t163.5 385.5h33l-4 -555h-1223z" />
<glyph unicode="F" horiz-adv-x="1280" d="M63 0v35q35 2 61.5 5t49 8t38 7.5t28 11.5t20.5 13.5t13.5 18t8 19.5t4 25.5t1.5 28.5v35v952q0 79 -10 102q-18 41 -95 56q-43 9 -119 14v35h1184l4 -496h-34q-32 222 -142.5 337.5t-292.5 115.5q-41 0 -66 -0.5t-52 -3t-41.5 -7t-30 -13t-22.5 -19.5t-13 -28.5t-8 -39 t-2 -51.5v-420h63q50 0 89.5 8.5t67.5 22.5t49 38t34 48.5t21.5 62t13 70t8.5 80.5h33v-715h-33q-11 102 -27.5 165t-54.5 102q-31 32 -87.5 53.5t-113.5 21.5h-63v-493q0 -39 1 -56t9.5 -39.5t23 -31t45.5 -19t73 -15t110 -9.5v-35h-746z" />
<glyph unicode="G" horiz-adv-x="1579" d="M88 676q0 184 91 349.5t245.5 266.5t329.5 101q152 0 276 -80q3 -2 13 -8.5t13.5 -9t12 -7.5t12.5 -7.5t11 -6t11.5 -5.5t10.5 -4t11 -2.5t10 -0.5q22 0 39 26.5t39 79.5q3 7 4 10h34l4 -540h-34q-77 262 -190 387t-277 125q-195 0 -288 -164.5t-93 -505.5 q0 -334 89 -499t273 -165q153 0 239.5 94.5t86.5 280.5v92v6q0 28 -0.5 40.5t-3 32t-7.5 27.5t-15.5 20.5t-25.5 17.5t-38 11.5t-52.5 10t-70.5 6.5v35h688v-35q-33 -2 -58.5 -4.5t-46.5 -7.5t-36.5 -8t-27.5 -11t-19.5 -12.5t-13 -16.5t-8 -18.5t-4 -23.5t-1.5 -26.5v-31.5 v-12v-497h-35q-31 101 -53.5 145.5t-56.5 44.5q-15 0 -41 -21t-61 -50.5t-80.5 -59.5t-113.5 -51t-145 -21q-105 0 -204.5 39t-178.5 107.5t-139 156.5t-92.5 192t-32.5 208z" />
<glyph unicode="H" horiz-adv-x="1654" d="M66 0v35q34 2 60.5 5t48.5 7.5t38 7.5t28 11t20 12.5t13.5 17t8.5 19t4.5 23.5t1.5 27v33v9v952v9q0 31 -0.5 44.5t-4.5 34t-12.5 29t-23.5 20t-40 16.5t-59 10.5t-83 8.5v35h692v-35q-146 -11 -182 -46q-25 -23 -27 -87v-39v-405h553v405v33.5t-1.5 28t-4 25.5t-7.5 20 t-12.5 18t-19 13.5t-27 12t-36 8.5t-46 8t-57.5 5v35h696v-35q-57 -4 -95 -8.5t-63.5 -15.5t-38.5 -19.5t-19.5 -30.5t-7.5 -37.5t-1 -51.5v-9v-952v-9q0 -36 1 -52t7.5 -37.5t19.5 -30t38.5 -19.5t63.5 -15.5t95 -8.5v-35h-696v35q32 3 57 5.5t46 7.5t36 8t26.5 11.5t19 13 t13 17t8 19.5t4 25t1.5 28.5v34.5v506h-553v-506q0 -27 0.5 -38.5t2 -30.5t5.5 -27t10.5 -20t17.5 -17t26 -12.5t36.5 -10.5t48 -7t62.5 -7v-35h-692z" />
<glyph unicode="I" horiz-adv-x="827" d="M61 0v35q35 2 61.5 5t49 8t38 7.5t28 11.5t20.5 13.5t13.5 18t8 19.5t4 25.5t1.5 28.5v35v952q0 79 -10 102q-18 41 -95 56q-43 9 -119 14v35h705v-35q-153 -11 -191 -42q-28 -23 -30 -83v-47v-952v-9q0 -36 1 -52t7.5 -37.5t19 -30t38 -19.5t62.5 -15.5t93 -8.5v-35 h-705z" />
<glyph unicode="J" horiz-adv-x="1159" d="M25 297q0 92 49 144.5t119 52.5q68 0 110.5 -42.5t42.5 -101.5q0 -56 -36.5 -93.5t-104.5 -37.5h-19q-26 0 -26 -47q0 -60 70 -108t173 -48q82 0 141.5 39t82.5 109q22 67 22 307v688v12q0 27 -0.5 39t-3.5 30.5t-8.5 26.5t-17.5 20t-29 16.5t-42.5 11t-59.5 10t-80 6.5 v35h731v-35q-44 -3 -76 -6.5t-57 -10t-41 -11t-27.5 -17t-17 -20t-8 -26.5t-3 -30.5t-0.5 -39.5v-11v-670q0 -141 -26 -268q-20 -97 -143.5 -172.5t-288.5 -75.5q-105 0 -188 27t-134 73t-77.5 103t-26.5 121z" />
<glyph unicode="K" horiz-adv-x="1619" d="M66 0v35q34 2 60.5 5t48.5 7.5t38 7.5t28 11t20 12.5t13.5 17t8.5 19t4.5 23.5t1.5 27v33v9v952v9q0 31 -0.5 44.5t-4.5 34t-12.5 29t-23.5 20t-40 16.5t-59 10.5t-83 8.5v35h708v-35q-43 -3 -74.5 -6.5t-55.5 -10t-40 -11.5t-27 -17t-16.5 -20t-8 -27.5t-3 -32.5 t-0.5 -41v-6v-500l319 295q104 95 150.5 154t46.5 106q0 25 -10 44t-25.5 31t-41.5 20.5t-50 13t-59 8.5v35h663v-35q-132 -19 -234.5 -75.5t-260.5 -202.5l-115 -107l385 -678q68 -118 93 -149q48 -57 128 -74q33 -7 80 -10v-35h-711v35q100 10 146.5 25.5t46.5 48.5 q0 25 -51 112l-312 549l-188 -168v-397q0 -27 0.5 -38.5t2 -30.5t5.5 -27t10.5 -20t17.5 -17t26 -12.5t36.5 -10.5t48 -7t62.5 -7v-35h-692z" />
<glyph unicode="L" horiz-adv-x="1310" d="M66 0v35q43 3 74 6.5t55 10t39.5 11.5t26.5 17t16.5 20t8 27.5t3 32.5t0.5 41v6v952v9q0 31 -0.5 44.5t-4.5 34t-12.5 29t-23.5 20t-40 16.5t-59 10.5t-83 8.5v35h722v-35q-46 -3 -79 -6.5t-59 -10t-43 -11t-28.5 -16.5t-17 -20t-8.5 -27t-3.5 -31t-0.5 -40v-3.5v-3v-3.5 v-966q0 -48 3.5 -70.5t20 -44t51.5 -28.5t97 -7q214 0 340.5 130t161.5 386h34v-559h-1191z" />
<glyph unicode="M" horiz-adv-x="1826" d="M57 0v35q70 12 114.5 33t79 65t49.5 118.5t15 188.5v719q0 78 -9 101q-17 39 -91 55q-48 10 -141 16v35h530l326 -967l319 967h514v-35q-43 -3 -75 -6.5t-56.5 -10t-40.5 -11.5t-27 -17t-16.5 -20t-8 -27.5t-3 -31.5t-0.5 -39v-9v-952v-6q0 -28 0.5 -40.5t3 -32t8 -27.5 t16.5 -20t27 -17t40.5 -11.5t56 -10.5t75.5 -7v-35h-710v35q43 3 74 6.5t55 10t39.5 11.5t26.5 17t16.5 20t8 27.5t3 32.5t0.5 41v6v1069l-426 -1296h-47l-432 1296v-836q0 -73 4 -123t18.5 -105t40.5 -88.5t73 -58t114 -30.5v-35h-564z" />
<glyph unicode="N" horiz-adv-x="1529" d="M45 0v35q62 10 105.5 29t71 57.5t43 72.5t22.5 102.5t8.5 116.5t1.5 144v623q-56 74 -110.5 108t-141.5 43v35h436l699 -1016v516q0 107 -6.5 175.5t-22.5 122.5t-48 85.5t-77.5 51t-116.5 30.5v35h580v-35q-60 -12 -102.5 -31t-70.5 -50t-44 -63t-24.5 -87.5t-10.5 -104 t-2 -129.5v-891h-107l-776 1133v-551v-54q-1 -27 -1 -53q1 -13 1 -25q0 -37 1.5 -71t5 -64t9.5 -57t16 -50.5t23.5 -43.5t33 -37t44.5 -29.5t57.5 -22t71.5 -15.5v-35h-569z" />
<glyph unicode="O" horiz-adv-x="1476" d="M88 682q0 136 51 265.5t137 227.5t207.5 158t253.5 60q133 0 255 -60t208.5 -158t137.5 -227.5t51 -265.5t-51 -265.5t-137.5 -227t-208.5 -157t-255 -59.5q-132 0 -253.5 59.5t-207.5 157t-137 227t-51 265.5zM373 682q0 -344 85.5 -505t278.5 -161q194 0 280.5 161.5 t86.5 504.5t-86.5 505.5t-280.5 162.5q-193 0 -278.5 -162t-85.5 -506z" />
<glyph unicode="P" horiz-adv-x="1374" d="M66 0v35q43 3 74 6.5t55 10t39.5 11.5t26.5 17t16.5 20t8 27.5t3 32.5t0.5 41v6v952v6q0 28 -0.5 40.5t-3 32t-8 27.5t-16.5 20.5t-26.5 17.5t-39.5 11.5t-55.5 10t-73.5 6.5v35h682q275 0 413 -80q79 -46 122.5 -117t43.5 -153q0 -171 -153.5 -270t-446.5 -99h-178v-440 q0 -79 11 -102q18 -40 97 -55q49 -9 142 -15v-35h-733zM549 690h158q174 0 254.5 71t80.5 249q0 159 -74 236t-227 77q-85 0 -125 -12t-53.5 -38t-13.5 -81v-502z" />
<glyph unicode="Q" horiz-adv-x="1488" d="M94 682q0 136 51 265.5t137 227.5t207.5 158t253.5 60q133 0 255 -60t208.5 -158t137.5 -227.5t51 -265.5q0 -203 -107.5 -380t-279.5 -267q45 -178 137 -178q91 0 132.5 75.5t41.5 227.5h35q0 -8 1 -21.5t1 -21.5q0 -107 -15 -183t-59 -137q-41 -58 -105 -92.5 t-130 -34.5q-71 0 -129.5 33.5t-90.5 91.5q-9 16 -15.5 33.5t-10.5 30t-7 32.5t-4 27.5t-2.5 29.5t-1.5 25h-43q-132 0 -253.5 59.5t-207.5 157t-137 227t-51 265.5zM379 682q0 -269 50.5 -423t164.5 -212q-62 68 -62 160q0 84 57.5 138t151.5 54q50 0 89 -17.5t62 -40.5 t42 -63t27 -67t19 -70q3 -13 5 -20q125 151 125 561q0 343 -86.5 505.5t-280.5 162.5q-192 0 -278 -162.5t-86 -505.5zM571 205q0 -77 56 -136q49 -52 134 -52q11 0 23 1q9 64 9 146q0 102 -21.5 144t-85.5 42q-47 0 -81 -39.5t-34 -105.5z" />
<glyph unicode="R" horiz-adv-x="1638" d="M66 0v35q34 2 60.5 5t48.5 7.5t38 7.5t28 11t20 12.5t13.5 17t8.5 19t4.5 23.5t1.5 27v33v9v952v9q0 31 -0.5 44.5t-4.5 34t-12.5 29t-23.5 20t-40 16.5t-59 10.5t-83 8.5v35h655q194 0 312 -21.5t200 -89.5q52 -42 81 -99t29 -114q0 -93 -56 -166t-157 -110 q-100 -38 -313 -53q69 -4 117.5 -9.5t99 -17t84.5 -29t65 -45t50 -66t31.5 -91t15.5 -119.5q8 -147 30.5 -205.5t84.5 -58.5q127 0 127 286h37q0 -92 -11 -153.5t-41.5 -112.5t-90 -75.5t-150.5 -24.5q-107 0 -178 58t-78 159q-2 33 -6 94q-4 62 -6 90.5t-7 75t-12 65.5 t-18.5 49.5t-28 42t-39.5 28t-54.5 22t-71.5 10t-91 4.5h-127v-483q0 -80 11 -103q18 -39 96 -54q47 -9 135 -15v-35h-725zM549 733h127q75 0 129 6.5t104.5 26t81.5 53t49.5 89t18.5 132.5q0 69 -23 128.5t-61 93.5q-42 37 -101.5 49t-150.5 12q-43 0 -66 -1t-46 -6 t-32.5 -13t-17.5 -25.5t-10 -39t-2 -56.5v-449z" />
<glyph unicode="S" horiz-adv-x="1273" d="M104 -14v630h35q76 -304 200 -452t323 -148q143 0 238 84.5t95 206.5q0 75 -42.5 126.5t-119.5 82t-158 51t-186.5 50.5t-177.5 65q-96 46 -148 128.5t-52 180.5q0 101 61 193.5t169 150.5t234 58q153 0 295 -84q7 -4 20 -11.5t20 -11.5t16.5 -9t16 -7t11.5 -2 q17 0 30.5 13.5t20.5 28.5t22 51q2 4 2.5 6t2 5t2.5 6h35v-524h-35q-49 181 -98 268q-63 110 -156 169t-202 59q-128 0 -207.5 -71t-79.5 -165q0 -90 65.5 -139.5t208.5 -87.5q192 -54 322 -94q137 -42 213 -138t76 -217q0 -191 -149.5 -328t-360.5 -137q-177 0 -347 105 q-5 3 -16 10t-16 10.5t-13.5 8.5t-13.5 7.5t-12 5.5t-12.5 4t-10.5 1q-8 0 -14.5 -3t-13 -11t-11 -14.5t-11.5 -21.5t-11 -25t-12 -31t-13 -33h-35z" />
<glyph unicode="T" horiz-adv-x="1228" d="M27 795v571h1173v-571h-35q-37 252 -126.5 390t-221.5 138h-72v-1116q0 -78 10 -101q18 -39 97 -55q52 -10 154 -16v-35h-785v35q68 4 111.5 8.5t74 15.5t45.5 19.5t23 31t9 38.5t1 54v5v1116h-73q-132 0 -221 -137.5t-128 -390.5h-36z" />
<glyph unicode="U" horiz-adv-x="1527" d="M25 1331v35h712v-35q-160 -11 -200 -44q-27 -22 -29 -82v-46v-710q0 -99 5.5 -157t23.5 -97q74 -164 309 -164q174 0 268 100q56 60 72 125.5t16 183.5v400q0 114 -5.5 185t-20.5 131t-44.5 93t-75 53.5t-114.5 28.5v35h565v-35q-44 -6 -79 -17.5t-60.5 -31.5t-44 -41 t-30.5 -56t-19.5 -66.5t-11 -82t-4.5 -92.5t-1 -108v-396q0 -61 -2.5 -98t-15 -87.5t-37.5 -92.5q-108 -189 -411 -189q-358 0 -492 197q-51 75 -51 270v719v9q0 31 -0.5 44.5t-4.5 34t-12.5 29t-23.5 20t-40 16.5t-59 10.5t-83 8.5z" />
<glyph unicode="V" horiz-adv-x="1515" d="M-14 1331v35h678v-35q-100 -11 -147.5 -33t-47.5 -67q0 -26 43 -144l305 -856l248 643q82 211 82 289q0 82 -50.5 117.5t-160.5 50.5v35h594v-35q-67 -9 -119.5 -34.5t-91 -60t-75 -95.5t-63.5 -121t-65 -156l-342 -889h-123l-385 1039q-66 179 -90 221q-32 55 -83 74 q-32 11 -107 22z" />
<glyph unicode="W" horiz-adv-x="2039" d="M0 1331v35h637v-35q-86 -9 -122 -29.5t-36 -68.5q0 -27 29 -119l244 -803l219 740l-41 133q-19 61 -37 88.5t-51 40.5t-101 18v35h643v-35q-103 -8 -147.5 -27.5t-44.5 -66.5q0 -25 31 -135l231 -791l176 549q24 75 35.5 112.5t22 88.5t10.5 88q0 90 -53.5 132t-161.5 50 v35h557v-35q-88 -16 -140.5 -50.5t-98 -116t-93.5 -236.5l-299 -953h-113l-292 981l-291 -981h-119l-344 1110q-37 120 -55 152q-32 54 -102 76q-37 10 -93 18z" />
<glyph unicode="X" horiz-adv-x="1521" d="M14 0v35q58 12 106.5 34t87.5 49.5t81.5 74.5t78 94t87.5 123l184 270l-287 453q-20 32 -24.5 39t-20.5 31.5t-20.5 29t-19 22t-22 21t-23 15t-28 14t-31.5 9.5t-39 10t-46 7v35h684v-35q-162 -20 -162 -78q0 -43 57 -129l189 -293l110 168q35 53 52 81.5t32 68t15 72.5 q0 98 -191 110v35h582v-35q-123 -24 -229 -111t-234 -280l-104 -158l321 -510q35 -55 53.5 -82.5t43 -58t41.5 -43t44 -26t55 -18.5t70 -9v-35h-704v35q109 15 137 27q39 16 39 47q0 5 -5 20t-21 49t-40 72l-241 379l-164 -242q-98 -146 -98 -229q0 -52 51.5 -84t152.5 -39 v-35h-600z" />
<glyph unicode="Y" horiz-adv-x="1388" d="M-14 1331v35h665v-35q-31 -3 -44.5 -5t-38 -6t-36 -8.5t-25 -11t-19 -16.5t-5.5 -22q0 -51 33 -115l238 -461l168 287q90 155 90 225q0 63 -48.5 90.5t-136.5 38.5v39h576v-35q-82 -18 -144 -49t-113 -83t-85.5 -101.5t-85.5 -134.5l-197 -334v-422v-5q0 -26 0.5 -37.5 t2.5 -29.5t7 -26t13 -20t22 -17t33 -12.5t46 -11t61 -7t79 -6.5v-35h-786v35q45 3 78.5 6.5t60.5 6.5t45.5 10.5t32.5 12.5t22 17t13 20t7 26.5t2.5 30t0.5 37.5v5v393l-262 502q-38 74 -56.5 105t-49.5 60t-65.5 40.5t-98.5 23.5z" />
<glyph unicode="Z" horiz-adv-x="1265" d="M82 14l790 1309h-143q-240 0 -357.5 -102.5t-168.5 -356.5h-37v502h1001l11 -14l-785 -1309h189q136 0 228 23.5t162 83t113 159t70 254.5h35v-563h-1090z" />
<glyph unicode="[" horiz-adv-x="872" d="M158 -354v1747h458v-39q-143 -12 -177 -24q-45 -15 -58 -59q-10 -36 -10 -153v-1198q0 -157 29 -187t187 -45q6 -1 9.5 -1t9 -1t10.5 -1v-39h-458z" />
<glyph unicode="\" horiz-adv-x="931" d="M-41 1511h133l737 -1658h-139z" />
<glyph unicode="]" horiz-adv-x="872" d="M256 -315q144 14 175 24q46 14 60 56q11 36 11 155v1198q0 53 -0.5 80.5t-6.5 56.5t-13.5 40.5t-26 24.5t-40 16.5t-60.5 8t-82 8.5q-11 0 -17 1v39h459v-1747h-459v39z" />
<glyph unicode="^" d="M111 512l456 854h127l455 -854h-127l-391 735l-393 -735h-127z" />
<glyph unicode="_" horiz-adv-x="1024" d="M-12 -154h1048v-102h-1048v102z" />
<glyph unicode="`" horiz-adv-x="1058" d="M211 1315q0 37 25 58.5t61 21.5q15 0 29 -3.5t24 -7t23 -15t19.5 -17.5t20.5 -24.5t18.5 -25.5t21.5 -32t22 -33q74 -110 209 -135l-4 -33q-112 13 -217.5 47.5t-178.5 88t-73 110.5z" />
<glyph unicode="a" horiz-adv-x="1118" d="M68 209q0 94 71.5 166.5t210.5 118.5q53 17 175 42.5t151 32.5v125q0 54 -3.5 89t-14.5 69.5t-32 53.5t-56.5 30.5t-86.5 11.5q-80 0 -134 -31.5t-54 -64.5q0 -13 12.5 -24.5t27.5 -20t27.5 -30t12.5 -52.5q0 -44 -38.5 -77.5t-84.5 -33.5q-63 0 -99 35.5t-36 95.5 q0 97 105 171.5t282 74.5q95 0 177 -21t130 -57q63 -47 86 -109.5t23 -156.5v-489q0 -63 10.5 -88t42.5 -25q94 0 100 217h41q0 -145 -50.5 -217t-180.5 -72q-112 0 -159 58t-50 166q-105 -224 -350 -224q-116 0 -186 67t-70 169zM332 227q0 -174 114 -174q40 0 87 30.5 t81 82.5q29 45 43 102t16.5 97t2.5 110v53q-90 -15 -149 -34.5t-105.5 -53.5t-68 -86t-21.5 -127z" />
<glyph unicode="b" horiz-adv-x="1318" d="M37 1331v35q214 3 430 27v-635q48 116 123.5 173.5t187.5 57.5q123 0 229.5 -68t168 -180t61.5 -237q0 -104 -39.5 -201.5t-105 -169.5t-156 -115t-188.5 -43q-146 0 -285 152q-4 4 -16 18t-18 19.5t-16.5 13.5t-21.5 11.5t-24 3.5q-14 0 -25.5 -6t-22 -22.5t-17.5 -30 t-16.5 -44t-14 -47.5t-15.5 -57h-33v1241q0 25 -9.5 43t-23.5 28.5t-40.5 17.5t-50 9.5t-62.5 5.5zM469 477q0 -221 67 -340t191 -119q126 0 182 115.5t56 351.5q0 232 -52 343.5t-174 111.5q-115 0 -192.5 -118t-77.5 -345z" />
<glyph unicode="c" horiz-adv-x="1067" d="M82 461q0 152 77 275.5t196.5 189t252.5 65.5q85 0 157 -25t118.5 -65.5t72 -90.5t25.5 -101q0 -66 -38.5 -106t-84.5 -40q-64 0 -99.5 34.5t-35.5 90.5q0 70 59 109l9 6t9 5.5t7.5 5.5t6.5 7t3.5 7t1.5 8q0 37 -51 74.5t-143 37.5q-154 0 -212.5 -113t-58.5 -360 q0 -157 31 -270q52 -187 260 -187q54 0 105.5 20.5t96 60.5t73 109.5t32.5 158.5h41q-3 -99 -35 -175.5t-85.5 -123t-119 -70t-139.5 -23.5q-121 0 -224 43.5t-169 114t-102.5 156t-36.5 172.5z" />
<glyph unicode="d" horiz-adv-x="1333" d="M84 477q0 142 65.5 260.5t173.5 185t232 66.5q207 0 287 -213v385q0 85 -11 109q-18 39 -91 52q-35 6 -89 9v35q253 6 434 27v-1192v-9q0 -32 1 -46t6 -35t16.5 -30t32 -20t52.5 -16.5t79 -9.5v-35q-26 -1 -102 -2.5t-158.5 -5t-169.5 -10.5v208q-82 -215 -297 -215 q-99 0 -186 41t-147 109.5t-94 160t-34 191.5zM356 473q0 -229 55.5 -342t174.5 -113q73 0 135 56.5t92 156.5q27 86 27 254q0 219 -65 337t-185 118q-234 0 -234 -467z" />
<glyph unicode="e" horiz-adv-x="1091" d="M84 492q0 86 36.5 174t99.5 160t158.5 117.5t203.5 45.5q187 0 310.5 -122.5t123.5 -305.5v-47h-668q-6 -75 -6 -86q0 -210 65 -311t211 -101q148 0 241 80t118 232h41q-20 -166 -132 -260.5t-286 -94.5q-140 0 -257.5 64.5t-188 184t-70.5 270.5zM352 557h248h32h52 t35 4t26.5 11t14 21.5t9 35t1.5 53.5q0 264 -192 264q-119 0 -168.5 -95t-57.5 -294z" />
<glyph unicode="f" horiz-adv-x="790" d="M43 0v35q69 6 106.5 15.5t56 31t22 43.5t3.5 70v727h-188v43h188q7 101 23.5 165.5t62.5 124.5q56 73 138.5 112.5t181.5 39.5q123 0 200.5 -57.5t77.5 -139.5q0 -51 -34.5 -84.5t-92.5 -33.5q-52 0 -85 31.5t-33 78.5q0 38 20 64q29 41 29 49q0 19 -24 34t-62 15 q-160 0 -160 -197q0 -134 2 -202h270v-43h-270v-727q0 -28 0.5 -41t4 -33t11 -28.5t21 -20t35 -17.5t52.5 -11.5t73 -8.5v-35h-629z" />
<glyph unicode="g" horiz-adv-x="1136" d="M57 -246q0 45 17 80t44.5 56.5t70 36.5t84.5 22t98 12q-43 3 -75.5 9t-67 20t-56 34.5t-35.5 55t-14 80.5q0 95 66 149.5t200 57.5q-130 31 -196 110.5t-66 184.5q0 137 127 233t319 96q159 0 304 -90q-37 72 -37 135q0 66 42 113t111 47q54 0 92.5 -35.5t38.5 -91.5 q0 -48 -32.5 -79.5t-75.5 -31.5q-36 0 -55 15q-39 26 -46 26q-9 0 -16.5 -9t-7.5 -21q0 -21 12 -39q65 -94 90 -151.5t25 -112.5q0 -143 -133 -237.5t-336 -94.5q-19 0 -47 1t-47 1q-102 0 -151.5 -18t-49.5 -70q0 -50 50.5 -67t160.5 -17h225q205 0 308.5 -72t103.5 -227 q0 -76 -35.5 -141t-104.5 -117t-183.5 -81.5t-260.5 -29.5q-204 0 -332.5 71t-128.5 187zM197 -240q0 -100 90 -160.5t264 -60.5q199 0 306.5 64.5t107.5 171.5q0 36 -11 62t-37 43t-56 27.5t-80 16t-96.5 7t-117.5 1.5q-62 0 -102 -1.5t-87 -7t-76 -17t-55 -30t-38 -47.5 t-12 -69zM385 662q0 -69 7 -116t26 -88t57.5 -61t97.5 -20q48 0 82 14t54 37t31.5 61t15.5 77.5t4 95.5q0 144 -38.5 215t-148.5 71t-149 -71t-39 -215z" />
<glyph unicode="h" horiz-adv-x="1392" d="M43 0v35q69 6 106.5 15.5t56 31t22 43.5t3.5 70v966v9q0 28 -0.5 40.5t-2.5 32t-6.5 27.5t-14 20t-22.5 16.5t-33.5 10.5t-46.5 9t-62 5v35q248 6 432 27v-697q118 295 397 295q102 0 181 -51q24 -15 42 -33t29.5 -33.5t19 -42.5t11.5 -42t6 -51.5t2 -51.5v-61v-430 q0 -28 0.5 -40t3.5 -32t10 -28.5t20 -21t33 -18t49 -11.5t69 -9v-35h-605v35q44 3 75 9.5t50 18.5t30 22t15.5 31t5.5 34t1 42v3.5v3.5v551q0 79 -35 120t-101 41q-92 0 -168.5 -73.5t-115.5 -204.5q-25 -85 -25 -299v-135q0 -70 5 -87q13 -46 86 -64q36 -9 91 -13l-2 -35 h-612z" />
<glyph unicode="i" horiz-adv-x="737" d="M70 0v35q69 6 106.5 15.5t56 31t22 43.5t3.5 70v567v9q0 28 -0.5 40.5t-2.5 31.5t-6.5 27t-14 20t-22.5 17t-33.5 11t-46.5 9t-62 5v33q187 0 432 22v-792q0 -24 0.5 -35.5t2.5 -29.5t7 -26t13.5 -20t22.5 -18t33.5 -13t46.5 -11t62 -7v-35h-620zM248 1253 q0 52 40.5 90.5t100.5 38.5q61 0 102 -38t41 -91t-42.5 -91t-100.5 -38t-99.5 38t-41.5 91z" />
<glyph unicode="j" horiz-adv-x="757" d="M-178 -279q0 61 40.5 102.5t100.5 41.5q58 0 94.5 -36t36.5 -89q0 -51 -31 -78q-6 -6 -18 -17t-17.5 -16.5t-10.5 -14.5t-5 -17q0 -23 36.5 -40.5t90.5 -17.5q53 0 98 24t68 66q21 38 28 100.5t7 168.5v927q0 58 -51 79t-162 28v33q213 3 457 22v-985q0 -109 -12 -183.5 t-54 -142.5q-55 -87 -153 -133.5t-218 -46.5q-145 0 -235 66t-90 159zM324 1251q0 53 41 91t100 38q61 0 102 -38t41 -91t-42.5 -91t-100.5 -38q-57 0 -99 37.5t-42 91.5z" />
<glyph unicode="k" horiz-adv-x="1327" d="M47 0v35q46 4 77 9.5t52.5 15.5t33 19.5t17.5 29.5t7.5 37t1.5 49v1032q0 25 -9.5 43t-24 29t-40.5 17.5t-51 9.5t-64 5v35q252 6 432 27v-908l117 88q31 23 178 162q68 65 68 109q0 23 -8.5 38t-34.5 24.5t-42 13t-64 10.5q-5 1 -8 1.5t-8 1t-9 1.5v37h594l-2 -35 q-75 -7 -126 -20t-107.5 -47.5t-99.5 -70t-130 -114.5l299 -494q50 -81 65 -97q32 -35 103 -48q28 -5 73 -10l-2 -35h-616v37q15 2 37.5 3.5t33 2.5t25 3.5t20.5 5.5t13 8.5t9.5 13t2.5 18.5q0 35 -26 78l-222 367l-133 -113v-229q0 -38 2 -56.5t10.5 -40t27 -31.5t51 -18.5 t83.5 -13.5v-35h-606z" />
<glyph unicode="l" horiz-adv-x="706" d="M45 0v35q69 6 106.5 15.5t56 31t22 43.5t3.5 70v1032q0 59 -45 79t-143 25v35q252 6 432 27v-1198q0 -32 1 -47t6.5 -36t16.5 -30t32 -20.5t53.5 -17t79.5 -9.5v-35h-621z" />
<glyph unicode="m" horiz-adv-x="2072" d="M66 0v35q69 6 106.5 15.5t56 31t22 43.5t3.5 70v567v35.5t-1 29t-3.5 26t-7 20t-11 18t-17 13t-24 11t-32 7t-41 6.5t-51.5 4v33q288 5 432 22v-293q54 147 153 222t236 75q107 0 182 -63q48 -39 66.5 -91t29.5 -137q96 291 396 291q66 0 128 -27t99 -73q24 -32 36 -70.5 t13.5 -66t1.5 -84.5v-19v-456q0 -32 1 -47t6.5 -36t16.5 -30t32 -20.5t53.5 -17t79.5 -9.5v-35h-609v35q43 3 74 9t50 18t30 21.5t15.5 30t5.5 33.5t1 41v11v463q0 125 -7 158q-14 72 -77 86q-20 5 -45 5q-131 0 -209 -116q-52 -74 -70 -176.5t-18 -256.5v-163 q0 -25 0.5 -34t2 -28.5t6 -27.5t13 -21.5t21.5 -19.5t32 -14t45.5 -12t60.5 -7v-35h-600v35q37 3 65 9t47 12t31.5 19t19 21.5t9.5 27.5t3.5 30.5t0.5 35.5v9v538q0 87 -30 130.5t-99 43.5q-95 0 -169 -76.5t-106 -211.5q-24 -96 -24 -279v-145q0 -72 10 -95q23 -51 130 -65 q17 -3 36 -4v-35h-608z" />
<glyph unicode="n" horiz-adv-x="1429" d="M78 932v33q284 6 438 22v-299q50 149 153 226t244 77q104 0 187 -57q21 -15 37.5 -34t27 -35t17.5 -43.5t10.5 -44t5.5 -53t2 -54v-62.5v-413q0 -32 1.5 -49t7.5 -37t17.5 -29.5t33 -19.5t52.5 -15.5t77 -9.5v-35h-609v35q37 3 65 9t47 12t31.5 19t19 21.5t9.5 27.5 t3.5 30.5t0.5 35.5v9v434q0 12 0.5 41.5t0 42t-1.5 38t-3 37.5t-6.5 32t-11 30t-16.5 23t-23 19t-30.5 10.5t-39.5 4.5q-104 0 -182.5 -84t-107.5 -231q-19 -97 -19 -264v-133v-11q0 -25 0.5 -36.5t3.5 -30t10 -27.5t19.5 -21t32.5 -18t48.5 -11.5t67.5 -8.5v-35h-614v35 q40 3 69.5 9t50 11.5t33.5 17.5t20 20.5t10.5 28.5t4 32.5t0.5 40.5v630q0 26 -10.5 45t-26 30t-43 18t-52 9.5t-62.5 4.5z" />
<glyph unicode="o" horiz-adv-x="1210" d="M82 481q0 140 77 259t197 185t250 66q128 0 248 -65t198 -184.5t78 -260.5q0 -106 -46 -202t-120 -162t-168 -105t-190 -39q-129 0 -249 65t-197.5 184t-77.5 259zM354 481q0 -247 57 -356t195 -109q137 0 194.5 110.5t57.5 354.5q0 246 -57.5 356.5t-194.5 110.5 t-194.5 -110t-57.5 -357z" />
<glyph unicode="p" horiz-adv-x="1325" d="M35 -434q51 4 86 10t57.5 17t35 21t18.5 31t7 36t1 47v1097q0 59 -44.5 79.5t-144.5 27.5v33q215 3 432 22v-209q48 108 121 159.5t184 51.5q124 0 229 -69t164.5 -183t59.5 -245q0 -114 -41 -213.5t-108 -165t-151 -103t-171 -37.5q-108 0 -174.5 49t-112.5 150v-444 q0 -22 0.5 -32t2 -27t5.5 -25t11 -20t18.5 -17.5t27.5 -13.5t38 -12t50.5 -8t65.5 -7v-33h-667v33zM483 483q0 -225 65.5 -342.5t190.5 -117.5q53 0 102.5 34t78.5 93q49 100 49 337q0 228 -51.5 340.5t-174.5 112.5q-56 0 -108 -33t-88 -94q-64 -110 -64 -330z" />
<glyph unicode="q" horiz-adv-x="1296" d="M82 459q0 140 68.5 263t182 195t240.5 72q92 0 173 -51.5t112 -95.5q42 -64 98 -64q12 0 21 2t17 8t13.5 12t11 18t9 21.5t8 28t7.5 31.5t8.5 37t9.5 41h35v-1249q0 -25 0.5 -36t3 -29.5t7.5 -26.5t15 -20.5t25.5 -18.5t37.5 -13t52 -11t70 -7v-33h-670v33q46 3 79.5 9 t57 12t38.5 18t23 21t12 28.5t4.5 32.5t0.5 41v473q-44 -117 -116 -171.5t-191 -54.5q-96 0 -182.5 41t-147.5 108t-97 155t-36 180zM354 481q0 -233 53.5 -344.5t174.5 -111.5q116 0 192 115t76 347q0 226 -66 342.5t-190 116.5q-127 0 -183.5 -113.5t-56.5 -351.5z" />
<glyph unicode="r" horiz-adv-x="999" d="M68 932v33q242 3 442 22v-215q43 112 113.5 164.5t177.5 52.5q76 0 132 -48t56 -124q0 -56 -39.5 -97.5t-97.5 -41.5q-56 0 -91.5 35.5t-35.5 83.5q0 67 31 86q6 3 6 8q0 7 -11 11.5t-20 4.5q-105 0 -163 -118.5t-58 -354.5v-239q0 -24 0.5 -35.5t2.5 -29.5t7.5 -26 t14.5 -20t23.5 -18t35.5 -13t49.5 -11t65.5 -7v-35h-629v35q46 4 77 9.5t52 15.5t32.5 19.5t17 29.5t6.5 36.5t1 49.5v630q0 59 -46.5 79.5t-151.5 27.5z" />
<glyph unicode="s" horiz-adv-x="1001" d="M92 -18v434h35q58 -198 154.5 -299t210.5 -101q34 0 55.5 2t52 12t57.5 29q35 26 57.5 61.5t22.5 63.5q0 37 -13 65.5t-33.5 48t-64 39.5t-85 34.5t-116.5 38.5q-25 8 -38 12q-126 40 -185 105.5t-59 177.5q0 34 14.5 71t46 73.5t75 65t107 46.5t136.5 18 q26 0 78.5 -12.5t104.5 -34.5q4 -2 15.5 -7.5t15 -6.5t12.5 -4.5t12 -2t10.5 2.5t11 6t9 12.5t10.5 18.5t10 26h35v-350h-35q-32 155 -117.5 239t-208.5 84q-80 0 -135 -42t-55 -99q0 -37 25 -65.5t72.5 -50t97 -37t120 -38t119.5 -43.5q189 -80 189 -264 q0 -139 -114 -238.5t-290 -99.5q-129 0 -235 64q-12 7 -29 17.5t-26.5 16.5t-19.5 10.5t-16 4.5q-29 0 -61 -104h-35z" />
<glyph unicode="t" horiz-adv-x="811" d="M37 922v36q100 3 167 32.5t105 88.5t56 130t26 177h78v-421h297v-43h-297v-725q0 -152 127 -152q39 0 68.5 12.5t48.5 38t31.5 53t19.5 69t9.5 74.5t4.5 81h41v-37q0 -363 -303 -363q-127 0 -207 62q-25 19 -41.5 44t-25 46t-12.5 62.5t-4.5 65t-0.5 83.5v37v549h-188z " />
<glyph unicode="u" horiz-adv-x="1421" d="M55 932v33q302 5 445 22v-704q0 -117 29.5 -177.5t99.5 -60.5q51 0 103 31t98.5 90t76 161t29.5 228v207v7q0 28 -0.5 40.5t-2.5 32t-7 27.5t-14.5 20t-23 17t-34.5 11.5t-48.5 9.5t-64.5 5v33q272 6 439 22v-792q0 -32 1 -48t7 -36.5t17 -30t32.5 -20t53 -16t77.5 -9.5 v-35q-234 0 -432 -18v292q-65 -151 -159.5 -226t-233.5 -75q-91 0 -159.5 40t-100.5 112q-14 32 -21.5 71.5t-8.5 66t-1 75.5l4 424q1 26 0 47.5t-3.5 38t-11 29.5t-21.5 22t-36 15.5t-54 10.5t-75 7z" />
<glyph unicode="v" horiz-adv-x="1155" d="M-6 928v35h577v-35q-76 -8 -113.5 -22.5t-37.5 -41.5q0 -26 47 -143l207 -514l153 375q70 173 70 239q0 59 -35 81.5t-108 25.5v35h424v-35q-35 -4 -64.5 -14.5t-49.5 -18.5t-43 -37t-33 -39t-32.5 -58t-28 -61.5t-32.5 -79.5q-14 -33 -21 -51l-243 -587h-119l-287 708 q-10 24 -23.5 59.5t-20 50.5t-17.5 38.5t-19.5 32t-23 21.5t-32 18t-40.5 10t-55 8z" />
<glyph unicode="w" horiz-adv-x="1802" d="M14 936v27h580l-2 -39q-63 -6 -101 -23.5t-38 -42.5q0 -14 4 -27t11 -29t9 -22l215 -551l172 426l-65 162q-2 4 -5 12q-13 31 -23.5 45t-45 29t-100.5 25v35h606l-2 -41q-119 -13 -145 -22q-36 -15 -37 -46q0 -16 4 -29.5t11.5 -31t10.5 -25.5l211 -543l137 350 q84 211 84 275q0 63 -182 78l-2 35h483l-2 -39q-51 -6 -86 -14t-63.5 -25t-46.5 -33.5t-37.5 -52t-33 -67t-37.5 -90.5q-20 -50 -32 -79l-233 -563h-117l-231 604l-240 -604h-119l-293 766q-6 17 -32 59q-6 8 -16.5 27t-18.5 27.5t-25.5 21t-48.5 20.5t-78 15z" />
<glyph unicode="x" horiz-adv-x="1202" d="M0 0v35q44 6 78.5 15.5t68.5 31.5t57.5 41t59.5 61.5t61 75.5t74 100l86 119l-209 305q-34 50 -56 74t-65.5 44t-109.5 26v35h602v-35q-71 -7 -103 -17.5t-32 -36.5q0 -3 4.5 -14.5t15.5 -31t25 -40.5l143 -204l105 143q59 79 59 127q0 39 -32.5 53t-106.5 21v35h432v-35 q-30 -4 -54 -9t-47.5 -17t-39.5 -19.5t-38 -28.5l-33 -31.5t-36.5 -42t-36 -45t-41.5 -55.5l-102 -137l254 -371q53 -79 93 -105t126 -32v-35h-616v35q40 3 61 5.5t44 9.5t32.5 19.5t9.5 32.5q0 25 -55 101l-164 233l-115 -160q-82 -114 -82 -163q0 -40 40 -56t110 -22v-35 h-467z" />
<glyph unicode="y" horiz-adv-x="1155" d="M-6 928v35h594v-35q-77 -5 -117.5 -19.5t-40.5 -46.5q0 -13 4.5 -28t14 -39t12.5 -31l221 -561l143 358q72 181 72 250q0 27 -8.5 46.5t-20.5 31.5t-33 20t-39 11.5t-46 7.5v35h426v-35q-45 -7 -80 -24.5t-62 -41.5t-52 -65.5t-45.5 -85.5t-47.5 -113l-309 -780 q-65 -164 -139.5 -243t-190.5 -79q-89 0 -146 52t-57 124q0 64 39 106t96 42q56 0 89.5 -34.5t33.5 -74.5q0 -31 -6.5 -52t-15 -29.5t-15 -15.5t-6.5 -13q0 -11 12.5 -17t28.5 -6q15 0 51 12q63 20 99.5 72.5t72.5 149.5l45 118h-41l-323 824q-2 5 -6 16q-31 78 -53 103 q-42 45 -154 55z" />
<glyph unicode="z" horiz-adv-x="995" d="M68 45l581 877h-90q-178 0 -270.5 -79t-122.5 -274h-35v396h760l37 -47l-584 -875h90q218 0 325 88.5t130 298.5h35v-430h-826z" />
<glyph unicode="{" horiz-adv-x="684" d="M37 467v41q96 17 161.5 71t65.5 144q0 52 -23.5 154t-23.5 155q0 159 113 262.5t284 124.5v-43q-94 -32 -143 -85t-49 -144q0 -52 23.5 -154t23.5 -155q0 -121 -81.5 -208.5t-209.5 -140.5q291 -138 291 -352q0 -52 -23.5 -154.5t-23.5 -154.5q0 -170 190 -221v-51 q-175 19 -285 126t-110 277q0 50 23.5 146.5t23.5 146.5q0 90 -65.5 144t-161.5 71z" />
<glyph unicode="|" horiz-adv-x="442" d="M158 -410v1776h127v-1776h-127z" />
<glyph unicode="}" horiz-adv-x="684" d="M70 1376v43q171 -21 284 -124.5t113 -262.5q0 -53 -23.5 -155t-23.5 -154q0 -90 65.5 -144t161.5 -71v-41q-96 -17 -161.5 -71t-65.5 -144q0 -50 23.5 -146.5t23.5 -146.5q0 -170 -110 -277t-285 -126v51q190 51 190 221q0 52 -23.5 154.5t-23.5 154.5q0 214 291 352 q-128 53 -209.5 140.5t-81.5 208.5q0 53 23.5 155t23.5 154q0 91 -49 144t-143 85z" />
<glyph unicode="~" d="M82 553q4 50 13.5 93t29.5 85t47.5 71.5t70 47.5t95.5 18q66 0 155 -29t161 -63t151 -63t129 -29q84 0 124 48.5t52 135.5h68q-10 -140 -75 -228.5t-196 -88.5q-70 0 -152.5 28t-146 62t-143 62t-143.5 28q-78 0 -116.5 -47t-55.5 -131h-68z" />
<glyph unicode="&#xa0;" />
<glyph unicode="&#xa1;" horiz-adv-x="651" d="M170 848q0 59 44 101t105 42q62 0 105 -41.5t43 -101.5q0 -59 -42.5 -100t-105.5 -41q-62 0 -105.5 41.5t-43.5 99.5zM184 -199q0 59 14 135.5t41.5 192.5t41.5 188q18 92 18 297h53q0 -69 6 -180q4 -76 35 -197t59.5 -240.5t28.5 -199.5q0 -100 -40 -156.5t-111 -56.5 q-68 0 -107 55.5t-39 161.5z" />
<glyph unicode="&#xa2;" horiz-adv-x="1290" d="M195 674q0 137 63 251.5t164.5 183.5t222.5 89v174h64v-166h12q111 0 198.5 -43.5t131 -107.5t43.5 -133q0 -66 -38.5 -106t-84.5 -40q-64 0 -99.5 34.5t-35.5 90.5q0 70 59 109l9 6t9 5.5t7.5 5.5t6.5 7t3.5 7t1.5 8q0 38 -52 76t-143 38q-2 0 -14 -1t-14 -1v-925 q18 -3 49 -3q55 0 106.5 20.5t96 60.5t72.5 109t32 157h41q-6 -193 -114 -292.5t-283 -99.5v-194h-64v199q-102 14 -188.5 61.5t-142.5 114.5t-87.5 146t-31.5 159zM467 688q0 -198 42.5 -302t135.5 -136v899q-100 -34 -139 -141t-39 -320z" />
<glyph unicode="&#xa3;" horiz-adv-x="1255" d="M-57 125q0 72 74.5 131t191.5 59q156 0 297 -65q55 59 55 131q0 26 -3.5 53t-7 44.5t-14 51t-14.5 44.5t-20.5 53.5t-20.5 52.5h-375l35 96h312q-25 87 -25 160q0 191 109 323t272 132q135 0 224 -78.5t89 -188.5q0 -65 -36 -123.5t-101 -58.5q-58 0 -90.5 29t-32.5 80 q0 22 19.5 54t50.5 46q2 1 8.5 4t10 4.5t9.5 5t9 6t8 6.5t8 8t6.5 9.5t5 11.5t3 13.5t1.5 15.5q0 53 -61.5 90t-134.5 37q-81 0 -158.5 -67.5t-77.5 -149.5q0 -45 14 -92.5t30 -79t51.5 -95.5t54.5 -102h424l-41 -92l-367 -4q1 -7 3.5 -28.5t2.5 -35.5q0 -99 -34 -149 q-90 -136 -160 -231q52 -23 139.5 -64t126 -58t90 -32.5t90.5 -15.5q62 0 125.5 45.5t63.5 93.5q-2 10 -2 12q0 62 45 62q30 0 30 -39q0 -31 -34.5 -76t-90 -88t-138 -73t-165.5 -30q-215 0 -430 129q-64 -56 -147.5 -85t-134.5 -29q-78 0 -125 34.5t-47 102.5zM-25 121 q0 -49 36 -69.5t106 -20.5q112 0 241 94q-23 10 -67 31.5t-62.5 29.5t-51.5 15.5t-68 7.5q-65 0 -99.5 -30.5t-34.5 -57.5z" />
<glyph unicode="&#xa4;" d="M197 354l137 131q-84 117 -84 240q0 133 84 240l-137 133l57 57l133 -135q117 86 244 86q128 0 239 -86l136 135l57 -57l-137 -133q86 -113 86 -240q0 -118 -86 -240l137 -131l-57 -57l-134 135q-114 -88 -241 -88q-135 0 -244 88l-133 -135zM328 727q0 -123 89.5 -213 t213.5 -90q123 0 212 89.5t89 213.5q0 128 -91.5 213.5t-207.5 85.5q-130 0 -217.5 -88.5t-87.5 -210.5z" />
<glyph unicode="&#xa5;" d="M-74 1331v35h666v-35q-31 -3 -44.5 -5t-38 -6t-36 -8.5t-25 -11t-19 -16.5t-5.5 -22q0 -51 33 -115l161 -313h162l82 139q90 155 90 225q0 63 -48 90.5t-136 38.5v39h575v-35q-66 -14 -120.5 -39.5t-94.5 -55t-79 -76t-67 -89t-67 -108.5l-75 -129h217v-58h-252l-86 -147 v-19h338v-57h-338v-346v-5q0 -26 0.5 -37.5t2.5 -29.5t7 -26t13 -20t22 -17t33 -12.5t46 -11t61 -7t79 -6.5v-35h-786v35q45 3 78.5 6.5t60.5 6.5t45.5 10.5t32.5 12.5t22 17t13 20t7 26.5t2.5 30t0.5 37.5v5v346h-344v57h338l-86 166h-252v58h221l-139 268 q-26 50 -39.5 74.5t-33 52.5t-34.5 40t-40.5 26t-53 21t-70.5 15zM647 776l47 -90l54 90h-101z" />
<glyph unicode="&#xa6;" horiz-adv-x="442" d="M158 344h127v-698h-127v698zM158 694v699h127v-699h-127z" />
<glyph unicode="&#xa7;" horiz-adv-x="1110" d="M127 133q0 66 38.5 103.5t86.5 37.5q55 0 88 -30.5t33 -73.5q0 -32 -29 -57q-4 -3 -17 -14t-18 -15.5t-10.5 -13.5t-5.5 -17q0 -39 65.5 -67.5t182.5 -28.5q93 0 161 47.5t68 136.5q0 69 -62.5 107t-228.5 92q-76 26 -128 49t-99.5 55.5t-70.5 74t-23 93.5 q0 50 12.5 89.5t38 68.5t54 49.5t71.5 42.5q-137 86 -137 217q0 136 109.5 226t264.5 90q160 0 253.5 -65t93.5 -142q0 -63 -37 -98t-86 -35q-51 0 -84 29.5t-33 70.5q0 38 27 62q2 2 10.5 9t11.5 10.5t8.5 9.5t7.5 11t2 11q0 15 -15.5 33t-57.5 34.5t-101 16.5 q-78 0 -133 -43.5t-55 -118.5q0 -89 162 -150q25 -9 70.5 -25.5t83.5 -30t71 -26.5q86 -33 142.5 -102t56.5 -143q0 -85 -34.5 -137t-115.5 -107q137 -91 137 -225q0 -98 -65.5 -176t-159 -116t-190.5 -38q-84 0 -155 14t-118 36.5t-79.5 51.5t-47 58.5t-14.5 58.5zM330 741 q0 -46 38.5 -76.5t114.5 -58.5q72 -25 175 -68.5t122 -50.5q23 24 30 44.5t7 56.5q0 32 -17.5 59t-50 49t-88.5 46t-122 47t-161 55h-1q-27 -20 -37 -42.5t-10 -60.5z" />
<glyph unicode="&#xa8;" horiz-adv-x="1140" d="M233 1243q0 56 41 96.5t99 40.5q59 0 99 -40.5t40 -96.5q0 -57 -41 -97t-98 -40q-56 0 -98 40.5t-42 96.5zM627 1243q0 55 40 96t99 41t99 -40.5t40 -96.5q0 -57 -41 -97t-98 -40t-98 40.5t-41 96.5z" />
<glyph unicode="&#xa9;" horiz-adv-x="1585" d="M82 682q0 145 56.5 276.5t151.5 226.5t226.5 151.5t276.5 56.5q193 0 356.5 -95t258.5 -259t95 -357t-95 -357t-258.5 -259t-356.5 -95q-145 0 -276.5 56.5t-226.5 151.5t-151.5 226.5t-56.5 276.5zM145 682q0 -175 87 -324t236.5 -236t324.5 -87t323.5 87t235 236 t86.5 324t-86.5 323.5t-235 235t-323.5 86.5t-324.5 -86.5t-236.5 -235t-87 -323.5zM403 682q0 119 55 226t145 171t190 64q89 0 159 -56q42 -34 56 -34q24 0 47 82h26v-365h-28q-78 338 -258 338q-106 0 -163 -125.5t-57 -345.5q0 -379 224 -379q108 0 176.5 74t77.5 221 h34q-10 -148 -82 -239t-219 -91q-111 0 -200 65.5t-136 169.5t-47 224z" />
<glyph unicode="&#xaa;" horiz-adv-x="710" d="M49 928q0 115 174 172q24 7 53 13.5t73.5 15.5t66.5 14v69q0 78 -21.5 112t-91.5 34q-48 0 -78 -17.5t-30 -33.5q0 -7 11.5 -15t23.5 -22.5t12 -38.5q0 -28 -24.5 -49t-53.5 -21q-39 0 -61.5 22.5t-22.5 59.5q0 60 63.5 105t171.5 45q126 0 189 -47q39 -28 53 -65.5 t14 -94.5v-289q0 -36 5 -47.5t22 -11.5q57 0 57 133h33q0 -91 -31.5 -138t-111.5 -47q-64 0 -91.5 29.5t-37.5 89.5q-65 -121 -209 -121q-71 0 -114.5 41.5t-43.5 102.5zM217 938q0 -43 17 -68.5t47 -25.5q24 0 51.5 16t46.5 45q17 26 26 59t10 55t1 64v27 q-106 -19 -152.5 -54.5t-46.5 -117.5z" />
<glyph unicode="&#xab;" horiz-adv-x="931" d="M88 475l342 387l33 -10l-178 -377l178 -362l-33 -11zM453 489l342 367l34 -10l-176 -371l176 -362h-34z" />
<glyph unicode="&#xac;" d="M96 797v127h1067v-475h-145v348h-922z" />
<glyph unicode="&#xad;" horiz-adv-x="428" d="M0 408v147h428v-147h-428z" />
<glyph unicode="&#xae;" horiz-adv-x="1003" d="M92 1012q0 169 120 289t290 120q169 0 289 -120t120 -289q0 -170 -120 -290t-289 -120q-170 0 -290 120t-120 290zM147 1012q0 -148 103.5 -252.5t251.5 -104.5q147 0 250.5 104.5t103.5 252.5q0 147 -103.5 250.5t-250.5 103.5q-148 0 -251.5 -104t-103.5 -250zM289 778 v17q53 3 61 14q5 5 8 14v27v324v24q-3 11 -8 16q-9 12 -61 17v16h241q70 0 115 -29.5t45 -78.5q0 -61 -43.5 -86.5t-120.5 -32.5q80 -3 111.5 -28.5t34.5 -98.5q3 -49 8 -67.5t18 -18.5q41 0 41 94h17q0 -23 -1 -39t-6.5 -34t-15 -28.5t-27 -18t-42.5 -7.5q-32 0 -54 20 t-26 60q-1 14 -2 41.5t-2 38.5q-6 48 -26 63t-73 15h-41v-162v-27q2 -7 9 -14q12 -12 61 -14v-17h-221zM440 1030h41q60 0 89.5 23t29.5 82q0 94 -104 94q-39 0 -47.5 -7t-8.5 -40v-152z" />
<glyph unicode="&#xaf;" horiz-adv-x="999" d="M231 1159v148h537v-148h-537z" />
<glyph unicode="&#xb0;" horiz-adv-x="811" d="M98 1085q0 127 91 217.5t217 90.5t216.5 -90.5t90.5 -217.5t-89.5 -217t-217.5 -90t-218 90t-90 217zM193 1085q0 -88 62 -150.5t151 -62.5q88 0 150 62.5t62 150.5q0 89 -62.5 151t-149.5 62t-150 -62t-63 -151z" />
<glyph unicode="&#xb1;" d="M96 0v127h1067v-127h-1067zM96 692v127h469v455h127v-455h471v-127h-469v-454h-127v454h-471z" />
<glyph unicode="&#xb2;" horiz-adv-x="833" d="M74 547q-1 50 24 94.5t65 79t88.5 68t97.5 70t89.5 77t66 96t25.5 119.5q0 91 -45.5 140.5t-130.5 49.5q-72 0 -127 -36.5t-55 -71.5q0 -13 18 -19t39.5 -9t39.5 -22t18 -55q0 -35 -30 -60.5t-64 -25.5q-53 0 -85 32.5t-32 82.5q0 89 89.5 158t221.5 69q149 0 245.5 -74 t96.5 -173q0 -78 -52 -136.5t-161 -115.5q-189 -98 -237 -133q-43 -30 -60 -58h320q49 0 78.5 7t46.5 27.5t24.5 42t16.5 65.5h34l-18 -289h-647z" />
<glyph unicode="&#xb3;" horiz-adv-x="815" d="M68 717q0 50 30 79t72 29t69 -25t27 -61q0 -32 -19 -52t-44 -23q-2 0 -6.5 -1t-7 -1.5t-5.5 -2t-4.5 -4t-1.5 -6.5q0 -10 16.5 -27t59.5 -34t100 -17q187 0 187 201q0 105 -40.5 150t-127.5 45q-26 0 -64.5 -6.5t-44.5 -6.5q-37 0 -37 29q0 31 41 31q2 0 30 -2t52 -2 q78 0 122 44.5t44 121.5q0 80 -41.5 122.5t-122.5 42.5q-65 0 -111 -26.5t-46 -54.5q0 -7 15.5 -11.5t33.5 -8t33.5 -22t15.5 -49.5q0 -36 -27 -61t-69 -25q-48 0 -78.5 34t-30.5 79q0 77 79.5 132.5t213.5 55.5q148 0 238 -60t90 -138q0 -86 -56 -130t-161 -63 q124 -18 185.5 -68.5t61.5 -146.5q0 -110 -108.5 -180t-265.5 -70q-127 0 -212 57.5t-85 131.5z" />
<glyph unicode="&#xb4;" horiz-adv-x="1058" d="M375 1102q133 24 207 135q6 9 24.5 37.5t24 36t21 27t24 25.5t23 16t29 13t32.5 3q35 0 61.5 -22t26.5 -58q0 -57 -73.5 -110.5t-179.5 -88t-218 -47.5z" />
<glyph unicode="&#xb5;" horiz-adv-x="1421" d="M55 932v33q302 5 445 22v-704q0 -117 29.5 -177.5t99.5 -60.5q51 0 103 31t98.5 90t76 161t29.5 228v207v7q0 28 -0.5 40.5t-2.5 32t-7 27.5t-14.5 20t-23 17t-34.5 11.5t-48.5 9.5t-64.5 5v33q272 6 439 22v-792q0 -32 1 -48t7 -36.5t17 -30t32.5 -20t53 -16t77.5 -9.5 v-35q-234 0 -432 -18v292q-65 -151 -159.5 -226t-233.5 -75q-56 0 -156 58q0 -89 25.5 -194.5t25.5 -127.5q0 -145 -121 -145q-51 0 -86.5 44t-35.5 101q0 38 27 156.5t28 234.5l2 344v31v287v10q0 36 -1 51.5t-6.5 37.5t-17 30.5t-34 19t-55.5 14.5t-83 7z" />
<glyph unicode="&#xb6;" horiz-adv-x="1105" d="M96 956q0 83 29.5 154.5t90.5 130t165.5 92t243.5 33.5h442v-35q-100 -12 -120 -20q-33 -14 -40 -59q-4 -29 -4 -103v-1360q0 -79 23.5 -108t79.5 -37q34 -7 61 -9v-34h-207v1722h-172v-1722h-207v34l54 7q37 4 60 16t33.5 34t13.5 43t3 56v748q-134 0 -234.5 23.5 t-159.5 61t-95 94t-48 112.5t-12 126z" />
<glyph unicode="&#xb7;" d="M487 690q0 56 41.5 96.5t100.5 40.5q60 0 101.5 -40t41.5 -97t-42 -97t-101 -40t-100.5 40.5t-41.5 96.5z" />
<glyph unicode="&#xb8;" horiz-adv-x="1001" d="M365 -379l18 33q5 -1 18.5 -5t23 -6.5t25 -5t31.5 -2.5q44 0 73.5 27t29.5 57q0 25 -21 51t-45.5 43.5t-45.5 40t-21 42.5q0 23 1.5 34t11.5 29t32 41h28q-10 -20 -10 -41q0 -20 27 -31.5t65.5 -19t77 -19t65.5 -40t27 -72.5q0 -71 -67.5 -128t-194.5 -57q-85 0 -149 29z " />
<glyph unicode="&#xb9;" horiz-adv-x="954" d="M162 547v33q151 11 180 19q48 13 61 52q7 23 7 70v387v9q0 40 -0.5 56.5t-6 37t-13.5 26t-29 12.5t-45.5 7.5t-69.5 0.5q-11 0 -41 -1t-43 -1v35q215 6 317 90h109v-657q0 -29 3.5 -48.5t8.5 -34.5t21 -24.5t29 -15.5t46 -10t59.5 -5.5t80.5 -4.5v-33h-674z" />
<glyph unicode="&#xba;" horiz-adv-x="763" d="M61 1087q0 126 99 216t221 90t221.5 -90t99.5 -216t-99.5 -213.5t-221.5 -87.5q-123 0 -221.5 87.5t-98.5 213.5zM225 1087q0 -143 36.5 -203.5t119.5 -60.5q82 0 119 61.5t37 202.5q0 144 -37 206.5t-119 62.5q-81 0 -118.5 -63t-37.5 -206z" />
<glyph unicode="&#xbb;" horiz-adv-x="931" d="M102 113l177 362l-177 371l35 10l342 -367l-342 -376h-35zM469 113l178 362l-178 377l35 10l340 -387l-340 -373z" />
<glyph unicode="&#xbc;" horiz-adv-x="2201" d="M162 547v33q151 11 180 19q48 13 61 52q7 23 7 70v387v9q0 40 -0.5 56.5t-6 37t-13.5 26t-29 12.5t-45.5 7.5t-69.5 0.5q-11 0 -41 -1t-43 -1v35q215 6 317 90h109v-657q0 -29 3.5 -48.5t8.5 -34.5t21 -24.5t29 -15.5t46 -10t59.5 -5.5t80.5 -4.5v-33h-674zM745 -68 l797 1502h123l-797 -1502h-123zM1282 274q12 15 68 82.5t102.5 124t125 155t155.5 198.5h149v-527h197l-23 -69h-174v-91q0 -63 9 -78q13 -23 79 -30q25 -3 72 -6v-33h-494v33q33 2 53 4t38.5 6.5t28 5.5t18 10.5t11.5 12.5t5 19.5t2 23.5v32v91h-395zM1370 307h334v410 q-16 -20 -99 -122.5t-143 -176.5q-10 -12 -29 -34.5t-34.5 -41.5t-28.5 -35z" />
<glyph unicode="&#xbd;" horiz-adv-x="2115" d="M152 547v33q150 11 179 19q49 13 61 52q7 24 7 70v387q0 90 -8 110q-12 30 -62 36q-28 3 -93 3q-11 0 -41 -1t-43 -1v35q215 6 317 90h109v-657q0 -22 2 -38.5t4.5 -30.5t11.5 -23.5t16 -17t24.5 -12.5t31 -8t42.5 -5.5t51 -4t64 -3.5v-33h-673zM651 -68l797 1502h123 l-797 -1502h-123zM1296 0q-1 50 24 94.5t65 79t89 68t98 70t89.5 77t66 96t25.5 119.5q0 91 -46 141t-130 50q-72 0 -127 -37t-55 -72q0 -13 18 -19t39 -8.5t39 -21.5t18 -55q0 -35 -30 -60.5t-64 -25.5q-53 0 -85 32t-32 82q0 89 90 158.5t222 69.5q149 0 245.5 -74.5 t96.5 -173.5q0 -78 -52 -136.5t-161 -115.5q-189 -98 -237 -133q-43 -30 -60 -58h319q49 0 78.5 7t46.5 27.5t24.5 42t16.5 65.5h35l-18 -289h-648z" />
<glyph unicode="&#xbe;" horiz-adv-x="2050" d="M156 717q0 50 30 79t72 29t69 -25t27 -61q0 -32 -19 -52t-44 -23q-2 0 -6.5 -1t-7 -1.5t-5.5 -2t-4.5 -4t-1.5 -6.5q0 -10 16.5 -27t59.5 -34t100 -17q187 0 187 201q0 105 -40.5 150t-127.5 45q-26 0 -64.5 -6.5t-44.5 -6.5q-37 0 -37 29q0 31 41 31q2 0 30 -2t52 -2 q78 0 122 44.5t44 121.5q0 80 -41.5 122.5t-122.5 42.5q-65 0 -111 -26.5t-46 -54.5q0 -7 15.5 -11.5t33.5 -8t33.5 -22t15.5 -49.5q0 -36 -27 -61t-69 -25q-48 0 -78.5 34t-30.5 79q0 77 79.5 132.5t213.5 55.5q148 0 238 -60t90 -138q0 -86 -56 -130t-161 -63 q124 -18 185.5 -68.5t61.5 -146.5q0 -110 -108.5 -180t-265.5 -70q-127 0 -212 57.5t-85 131.5zM614 -68l797 1502h123l-797 -1502h-123zM1174 274q9 10 67.5 81.5t103 125.5t123.5 153.5t156 199.5h150v-527h196l-22 -69h-174v-91v-8q0 -27 0.5 -38.5t6 -26t13 -18.5 t28 -10t44.5 -8t67 -5v-33h-493v33q33 2 53 3.5t38.5 6.5t28 6t18 11t11 12t4.5 19.5t2 23.5v32v91h-395zM1262 307h333v410q-18 -23 -99.5 -124.5t-141.5 -174.5q-10 -12 -29 -34.5t-34.5 -41.5t-28.5 -35z" />
<glyph unicode="&#xbf;" horiz-adv-x="1032" d="M80 -102q0 82 47.5 154.5t128.5 117.5q198 110 279 175t81 132q0 51 -21.5 78t-55.5 27q-31 0 -49 -16.5t-33 -49.5l-39 8q40 101 123 101q46 0 81 -38.5t35 -109.5q0 -35 -29 -96.5t-83 -132.5q-12 -15 -45 -57.5t-43 -56.5t-33.5 -47.5t-31.5 -51.5t-20 -47t-16 -54.5 t-4 -54.5q0 -42 0.5 -59.5t9 -49.5t25.5 -57q26 -39 68 -62.5t84 -23.5q66 0 117.5 17t78.5 42t40 48t13 41q0 30 -16 35q-27 7 -45 15t-38 22.5t-30 38.5t-10 57q0 48 41 94.5t115 46.5q72 0 116 -47.5t44 -126.5q0 -94 -59.5 -169.5t-156.5 -116t-210 -40.5 q-205 0 -332 93t-127 221zM389 850q0 59 42.5 100t105.5 41q62 0 105.5 -41.5t43.5 -99.5t-43.5 -100.5t-105.5 -42.5t-105 42t-43 101z" />
<glyph unicode="&#xc0;" horiz-adv-x="1583" d="M-6 0v35q66 13 109 31.5t89.5 61t88.5 118t88 194.5l374 961h134l456 -1135q23 -57 35 -86t31.5 -57.5t29.5 -38.5t39.5 -22t50 -15.5t72.5 -11.5v-35h-673v35q44 6 71 11.5t55.5 14.5t42 23t13.5 33t-2 35.5t-7 33t-8 25.5t-10.5 27t-9.5 24l-115 287h-475l-59 -164 q-47 -129 -47 -207q0 -125 211 -143v-35h-584zM489 592h441l-228 561zM518 1729q0 37 25 58t61 21q13 0 25 -2t23.5 -7.5t20 -9.5t19.5 -15.5t16.5 -17.5t17.5 -23t17 -24t19 -28.5t20 -29.5q74 -110 209 -135l-4 -33q-112 13 -217.5 47.5t-178.5 88t-73 110.5z" />
<glyph unicode="&#xc1;" horiz-adv-x="1583" d="M-6 0v35q66 13 109 31.5t89.5 61t88.5 118t88 194.5l374 961h134l456 -1135q23 -57 35 -86t31.5 -57.5t29.5 -38.5t39.5 -22t50 -15.5t72.5 -11.5v-35h-673v35q44 6 71 11.5t55.5 14.5t42 23t13.5 33t-2 35.5t-7 33t-8 25.5t-10.5 27t-9.5 24l-115 287h-475l-59 -164 q-47 -129 -47 -207q0 -125 211 -143v-35h-584zM489 592h441l-228 561zM645 1518q133 24 207 135q7 10 22 33.5t21 31.5t18.5 25.5t20 24t19.5 17t22.5 14.5t24.5 7.5t30 3.5q35 0 61.5 -21.5t26.5 -57.5q0 -57 -73.5 -110.5t-179.5 -88t-218 -47.5z" />
<glyph unicode="&#xc2;" horiz-adv-x="1583" d="M-6 0v35q66 13 109 31.5t89.5 61t88.5 118t88 194.5l374 961h134l456 -1135q23 -57 35 -86t31.5 -57.5t29.5 -38.5t39.5 -22t50 -15.5t72.5 -11.5v-35h-673v35q44 6 71 11.5t55.5 14.5t42 23t13.5 33t-2 35.5t-7 33t-8 25.5t-10.5 27t-9.5 24l-115 287h-475l-59 -164 q-47 -129 -47 -207q0 -125 211 -143v-35h-584zM473 1503l338 312l336 -312l-23 -18l-313 141l-315 -141zM489 592h441l-228 561z" />
<glyph unicode="&#xc3;" horiz-adv-x="1583" d="M-6 0v35q66 13 109 31.5t89.5 61t88.5 118t88 194.5l374 961h134l456 -1135q23 -57 35 -86t31.5 -57.5t29.5 -38.5t39.5 -22t50 -15.5t72.5 -11.5v-35h-673v35q44 6 71 11.5t55.5 14.5t42 23t13.5 33t-2 35.5t-7 33t-8 25.5t-10.5 27t-9.5 24l-115 287h-475l-59 -164 q-47 -129 -47 -207q0 -125 211 -143v-35h-584zM436 1530q41 109 104.5 168t137.5 59q65 0 130 -23.5t121 -47t101 -23.5q69 0 111 92l33 -10q-28 -107 -97 -168t-149 -61q-12 0 -24 1t-25 3.5t-22 4.5t-23 6.5t-20.5 6.5t-22 7.5t-19.5 6.5q-23 8 -52.5 20t-47.5 19.5 t-40.5 14.5t-37 8t-32.5 -2.5t-32.5 -15t-30.5 -31t-32 -49.5zM489 592h441l-228 561z" />
<glyph unicode="&#xc4;" horiz-adv-x="1583" d="M-6 0v35q66 13 109 31.5t89.5 61t88.5 118t88 194.5l374 961h134l456 -1135q23 -57 35 -86t31.5 -57.5t29.5 -38.5t39.5 -22t50 -15.5t72.5 -11.5v-35h-673v35q44 6 71 11.5t55.5 14.5t42 23t13.5 33t-2 35.5t-7 33t-8 25.5t-10.5 27t-9.5 24l-115 287h-475l-59 -164 q-47 -129 -47 -207q0 -125 211 -143v-35h-584zM461 1642q0 56 40.5 97t98.5 41q59 0 99 -41t40 -97q0 -57 -41 -97t-98 -40q-56 0 -97.5 40.5t-41.5 96.5zM489 592h441l-228 561zM854 1642q0 55 40 96.5t99 41.5t99.5 -41t40.5 -97q0 -57 -41.5 -97t-98.5 -40t-98 40.5 t-41 96.5z" />
<glyph unicode="&#xc5;" horiz-adv-x="1583" d="M-6 0v35q66 13 109 31.5t89.5 61t88.5 118t88 194.5l374 961h134l456 -1135q23 -57 35 -86t31.5 -57.5t29.5 -38.5t39.5 -22t50 -15.5t72.5 -11.5v-35h-673v35q44 6 71 11.5t55.5 14.5t42 23t13.5 33t-2 35.5t-7 33t-8 25.5t-10.5 27t-9.5 24l-115 287h-475l-59 -164 q-47 -129 -47 -207q0 -125 211 -143v-35h-584zM489 592h441l-228 561zM618 1659q0 73 60.5 125.5t136.5 52.5q75 0 136 -52.5t61 -125.5q0 -74 -61 -125t-136 -51t-136 51t-61 125zM739 1659q0 -71 17.5 -105t58.5 -34t58.5 34t17.5 105q0 73 -17 107t-59 34 q-41 0 -58.5 -34.5t-17.5 -106.5z" />
<glyph unicode="&#xc6;" horiz-adv-x="2174" d="M0 0v39q151 29 250.5 141t228.5 391l271 586q6 14 17 36t16.5 34t10.5 26t5 23q0 25 -37 34t-123 15q-18 1 -27 2v39h1424l4 -492h-33q-68 449 -455 449q-62 0 -101.5 -6.5t-63 -16.5t-35 -32t-14.5 -44.5t-3 -62.5v-420h39q78 0 133.5 18.5t84.5 40.5t48.5 70t24 75.5 t11.5 88.5q1 8 1.5 13.5t1.5 11.5h33v-697h-33q-8 71 -18.5 117t-31.5 91.5t-53.5 71t-84 41t-123.5 15.5h-33v-489q0 -56 4.5 -83t25 -47t56 -25t103.5 -5q276 0 415 201q27 38 49 110t52 203h37l-4 -563h-1223v35q43 3 74.5 6.5t55.5 10t40 11.5t27 17.5t16.5 20.5t8 28 t3 33t0.5 42v3v491h-481l-72 -161q-119 -269 -119 -353q0 -67 50.5 -97.5t156.5 -47.5v-39h-610zM623 741h452v430q0 79 -19 111.5t-83 32.5t-104.5 -56.5t-125.5 -246.5z" />
<glyph unicode="&#xc7;" horiz-adv-x="1347" d="M88 674q0 184 88.5 350t239.5 267.5t323 101.5q134 0 256 -78q5 -3 21 -13.5t22 -13.5t17.5 -9.5t19.5 -8.5t15 -2q44 0 84 110h30l4 -555h-34q-142 527 -424 527q-186 0 -281.5 -182t-95.5 -537q0 -318 90.5 -466.5t296.5 -148.5q178 0 293.5 122.5t128.5 355.5h43 q-12 -184 -72 -291q-129 -230 -428 -230q-37 0 -47 2v-8q0 -17 5.5 -27t20 -16t28.5 -9t42 -8.5t51 -12.5q119 -36 119 -119q0 -71 -70 -129t-200 -58q-74 0 -150 33l19 31q54 -14 98 -14q47 0 75.5 24t28.5 55q0 47 -86 111q-19 15 -33 34.5t-14 33.5q0 51 29 84 q-101 17 -189.5 64.5t-154 115t-113.5 151t-72 176.5t-24 187z" />
<glyph unicode="&#xc8;" horiz-adv-x="1388" d="M63 0v35q112 8 159 26.5t56 44t9 93.5v8v952q0 79 -10 102q-18 41 -95 56q-43 9 -119 14v35h1194v-496h-34q-40 237 -149.5 345t-311.5 108q-73 0 -111 -5t-64 -23t-33 -48.5t-7 -87.5v-405h39q79 0 133.5 17.5t84.5 40t49 73t24.5 86t13.5 108.5h35v-712h-35 q-10 171 -79 257.5t-226 86.5h-39v-455v-23v-41t1 -34.5t3.5 -30.5t7.5 -23.5t12 -20.5t18 -15t25.5 -12t33.5 -7t43 -5t54 -1q224 0 348.5 126.5t163.5 385.5h33l-4 -555h-1223zM518 1729q0 37 25 58t61 21q13 0 25 -2t23.5 -7.5t20 -9.5t19.5 -15.5t16.5 -17.5t17.5 -23 t17 -24t19 -28.5t20 -29.5q74 -110 209 -135l-4 -33q-112 13 -217.5 47.5t-178.5 88t-73 110.5z" />
<glyph unicode="&#xc9;" horiz-adv-x="1388" d="M63 0v35q112 8 159 26.5t56 44t9 93.5v8v952q0 79 -10 102q-18 41 -95 56q-43 9 -119 14v35h1194v-496h-34q-40 237 -149.5 345t-311.5 108q-73 0 -111 -5t-64 -23t-33 -48.5t-7 -87.5v-405h39q79 0 133.5 17.5t84.5 40t49 73t24.5 86t13.5 108.5h35v-712h-35 q-10 171 -79 257.5t-226 86.5h-39v-455v-23v-41t1 -34.5t3.5 -30.5t7.5 -23.5t12 -20.5t18 -15t25.5 -12t33.5 -7t43 -5t54 -1q224 0 348.5 126.5t163.5 385.5h33l-4 -555h-1223zM498 1518q133 24 207 135q7 10 22 33.5t21 31.5t18.5 25.5t20 24t19.5 17t22.5 14.5t24.5 7.5 t30 3.5q35 0 61.5 -21.5t26.5 -57.5q0 -57 -73.5 -110.5t-179.5 -88t-218 -47.5z" />
<glyph unicode="&#xca;" horiz-adv-x="1388" d="M63 0v35q112 8 159 26.5t56 44t9 93.5v8v952q0 79 -10 102q-18 41 -95 56q-43 9 -119 14v35h1194v-496h-34q-40 237 -149.5 345t-311.5 108q-73 0 -111 -5t-64 -23t-33 -48.5t-7 -87.5v-405h39q79 0 133.5 17.5t84.5 40t49 73t24.5 86t13.5 108.5h35v-712h-35 q-10 171 -79 257.5t-226 86.5h-39v-455v-23v-41t1 -34.5t3.5 -30.5t7.5 -23.5t12 -20.5t18 -15t25.5 -12t33.5 -7t43 -5t54 -1q224 0 348.5 126.5t163.5 385.5h33l-4 -555h-1223zM412 1501l338 311l335 -311l-22 -18l-313 141l-316 -141z" />
<glyph unicode="&#xcb;" horiz-adv-x="1388" d="M63 0v35q112 8 159 26.5t56 44t9 93.5v8v952q0 79 -10 102q-18 41 -95 56q-43 9 -119 14v35h1194v-496h-34q-40 237 -149.5 345t-311.5 108q-73 0 -111 -5t-64 -23t-33 -48.5t-7 -87.5v-405h39q79 0 133.5 17.5t84.5 40t49 73t24.5 86t13.5 108.5h35v-712h-35 q-10 171 -79 257.5t-226 86.5h-39v-455v-23v-41t1 -34.5t3.5 -30.5t7.5 -23.5t12 -20.5t18 -15t25.5 -12t33.5 -7t43 -5t54 -1q224 0 348.5 126.5t163.5 385.5h33l-4 -555h-1223zM397 1653q0 56 41 96.5t99 40.5q59 0 99 -40.5t40 -96.5q0 -57 -41 -97t-98 -40 q-56 0 -98 40.5t-42 96.5zM791 1653q0 55 40 96t99 41t99 -40.5t40 -96.5q0 -57 -41 -97t-98 -40t-98 40.5t-41 96.5z" />
<glyph unicode="&#xcc;" horiz-adv-x="827" d="M61 0v35q35 2 61.5 5t49 8t38 7.5t28 11.5t20.5 13.5t13.5 18t8 19.5t4 25.5t1.5 28.5v35v952q0 79 -10 102q-18 41 -95 56q-43 9 -119 14v35h705v-35q-153 -11 -191 -42q-28 -23 -30 -83v-47v-952v-9q0 -36 1 -52t7.5 -37.5t19 -30t38 -19.5t62.5 -15.5t93 -8.5v-35 h-705zM150 1731q0 37 25 58t61 21q13 0 25 -2t23.5 -7.5t20 -9.5t19.5 -15.5t16.5 -17.5t17.5 -23t17 -24t19 -28.5t20 -29.5q74 -110 209 -135l-5 -33q-111 13 -217 47.5t-178.5 88t-72.5 110.5z" />
<glyph unicode="&#xcd;" horiz-adv-x="827" d="M61 0v35q35 2 61.5 5t49 8t38 7.5t28 11.5t20.5 13.5t13.5 18t8 19.5t4 25.5t1.5 28.5v35v952q0 79 -10 102q-18 41 -95 56q-43 9 -119 14v35h705v-35q-153 -11 -191 -42q-28 -23 -30 -83v-47v-952v-9q0 -36 1 -52t7.5 -37.5t19 -30t38 -19.5t62.5 -15.5t93 -8.5v-35 h-705zM252 1518q133 24 207 135q7 10 22 33.5t21 31.5t18.5 25.5t20 24t19.5 17t22.5 14.5t24.5 7.5t30 3.5q35 0 61.5 -21.5t26.5 -57.5q0 -57 -73.5 -110.5t-179.5 -88t-218 -47.5z" />
<glyph unicode="&#xce;" horiz-adv-x="827" d="M61 0v35q35 2 61.5 5t49 8t38 7.5t28 11.5t20.5 13.5t13.5 18t8 19.5t4 25.5t1.5 28.5v35v952q0 79 -10 102q-18 41 -95 56q-43 9 -119 14v35h705v-35q-153 -11 -191 -42q-28 -23 -30 -83v-47v-952v-9q0 -36 1 -52t7.5 -37.5t19 -30t38 -19.5t62.5 -15.5t93 -8.5v-35 h-705zM76 1503l338 312l336 -312l-23 -18l-313 141l-316 -141z" />
<glyph unicode="&#xcf;" horiz-adv-x="827" d="M61 0v35q35 2 61.5 5t49 8t38 7.5t28 11.5t20.5 13.5t13.5 18t8 19.5t4 25.5t1.5 28.5v35v952q0 79 -10 102q-18 41 -95 56q-43 9 -119 14v35h705v-35q-153 -11 -191 -42q-28 -23 -30 -83v-47v-952v-9q0 -36 1 -52t7.5 -37.5t19 -30t38 -19.5t62.5 -15.5t93 -8.5v-35 h-705zM80 1636q0 56 40.5 97t98.5 41q59 0 99 -41t40 -97q0 -57 -41 -97t-98 -40q-56 0 -97.5 40.5t-41.5 96.5zM473 1636q0 55 40 96.5t99 41.5t99.5 -41t40.5 -97q0 -57 -41.5 -97t-98.5 -40t-98 40.5t-41 96.5z" />
<glyph unicode="&#xd0;" horiz-adv-x="1564" d="M66 0v35q34 2 60.5 5t48.5 7.5t38 7.5t28 11t20 12.5t13.5 17t8.5 19t4.5 23.5t1.5 27v33v9v502h-183v55h183v395v9q0 31 -0.5 44.5t-4.5 34t-12.5 29t-23.5 20t-40 16.5t-59 10.5t-83 8.5v35h645q151 0 264 -27q221 -56 360.5 -239t139.5 -420q0 -194 -89.5 -352 t-248.5 -244q-71 -38 -151 -57t-138.5 -23t-153.5 -4h-628zM549 213q0 -84 10 -108q18 -45 97 -56q39 -6 100 -6q126 0 210.5 37.5t133.5 119.5t69.5 196.5t20.5 283.5q0 170 -21.5 286t-72 198.5t-137 120.5t-214.5 38q-38 0 -65.5 -1.5t-48.5 -6.5t-34.5 -9t-23 -16 t-14.5 -20t-7 -28.5t-2.5 -33t-0.5 -41.5v-403h430v-55h-430v-496z" />
<glyph unicode="&#xd1;" horiz-adv-x="1529" d="M45 0v35q62 10 105.5 29t71 57.5t43 72.5t22.5 102.5t8.5 116.5t1.5 144v623q-56 74 -110.5 108t-141.5 43v35h436l699 -1016v516q0 107 -6.5 175.5t-22.5 122.5t-48 85.5t-77.5 51t-116.5 30.5v35h580v-35q-60 -12 -102.5 -31t-70.5 -50t-44 -63t-24.5 -87.5t-10.5 -104 t-2 -129.5v-891h-107l-776 1133v-551v-54q-1 -41 -0.5 -78t2 -71t5 -64t9.5 -57t16 -50.5t23.5 -43.5t33 -37t44.5 -29.5t57.5 -22t71.5 -15.5v-35h-569zM385 1530q41 109 104.5 168t137.5 59q65 0 130 -23.5t121 -47t101 -23.5q69 0 111 92l32 -10q-28 -107 -97 -168 t-148 -61q-12 0 -24 1t-25 3.5t-22 4.5t-23 6.5t-20.5 6.5t-22 7.5t-19.5 6.5q-23 8 -52.5 20t-47.5 19.5t-40.5 14.5t-37 8t-32.5 -2.5t-32.5 -15t-30.5 -31t-32 -49.5z" />
<glyph unicode="&#xd2;" horiz-adv-x="1476" d="M88 682q0 136 51 265.5t137 227.5t207.5 158t253.5 60q133 0 255 -60t208.5 -158t137.5 -227.5t51 -265.5t-51 -265.5t-137.5 -227t-208.5 -157t-255 -59.5q-132 0 -253.5 59.5t-207.5 157t-137 227t-51 265.5zM373 682q0 -344 85.5 -505t278.5 -161q194 0 280.5 161.5 t86.5 504.5t-86.5 505.5t-280.5 162.5q-193 0 -278.5 -162t-85.5 -506zM416 1731q0 37 25 58t61 21q13 0 25 -2t23.5 -7.5t20 -9.5t19.5 -15.5t16.5 -17.5t17.5 -23t17 -24t19 -28.5t20 -29.5q74 -110 209 -135l-4 -33q-112 13 -217.5 47.5t-178.5 88t-73 110.5z" />
<glyph unicode="&#xd3;" horiz-adv-x="1476" d="M88 682q0 136 51 265.5t137 227.5t207.5 158t253.5 60q133 0 255 -60t208.5 -158t137.5 -227.5t51 -265.5t-51 -265.5t-137.5 -227t-208.5 -157t-255 -59.5q-132 0 -253.5 59.5t-207.5 157t-137 227t-51 265.5zM373 682q0 -344 85.5 -505t278.5 -161q194 0 280.5 161.5 t86.5 504.5t-86.5 505.5t-280.5 162.5q-193 0 -278.5 -162t-85.5 -506zM559 1518q133 24 207 135q7 10 22 33.5t21 31.5t18.5 25.5t20 24t19.5 17t22.5 14.5t24.5 7.5t30 3.5q35 0 61.5 -21.5t26.5 -57.5q0 -57 -73.5 -110.5t-179.5 -88t-218 -47.5z" />
<glyph unicode="&#xd4;" horiz-adv-x="1476" d="M88 682q0 136 51 265.5t137 227.5t207.5 158t253.5 60q133 0 255 -60t208.5 -158t137.5 -227.5t51 -265.5t-51 -265.5t-137.5 -227t-208.5 -157t-255 -59.5q-132 0 -253.5 59.5t-207.5 157t-137 227t-51 265.5zM373 682q0 -344 85.5 -505t278.5 -161q194 0 280.5 161.5 t86.5 504.5t-86.5 505.5t-280.5 162.5q-193 0 -278.5 -162t-85.5 -506zM397 1503l338 312l336 -312l-22 -18l-314 141l-315 -141z" />
<glyph unicode="&#xd5;" horiz-adv-x="1476" d="M88 682q0 136 51 265.5t137 227.5t207.5 158t253.5 60q133 0 255 -60t208.5 -158t137.5 -227.5t51 -265.5t-51 -265.5t-137.5 -227t-208.5 -157t-255 -59.5q-132 0 -253.5 59.5t-207.5 157t-137 227t-51 265.5zM373 682q0 -344 85.5 -505t278.5 -161q194 0 280.5 161.5 t86.5 504.5t-86.5 505.5t-280.5 162.5q-193 0 -278.5 -162t-85.5 -506zM375 1530q41 109 104 168t137 59q65 0 130 -23.5t121.5 -47t101.5 -23.5q68 0 110 92l33 -10q-28 -107 -97 -168t-149 -61q-14 0 -29.5 2t-26 3.5t-27.5 6.5t-23.5 7t-25.5 9t-23 8q-23 8 -52.5 20 t-47.5 19.5t-40.5 14.5t-37 8t-32.5 -2.5t-32.5 -15t-30.5 -31t-32 -49.5z" />
<glyph unicode="&#xd6;" horiz-adv-x="1476" d="M88 682q0 136 51 265.5t137 227.5t207.5 158t253.5 60q133 0 255 -60t208.5 -158t137.5 -227.5t51 -265.5t-51 -265.5t-137.5 -227t-208.5 -157t-255 -59.5q-132 0 -253.5 59.5t-207.5 157t-137 227t-51 265.5zM373 682q0 -344 85.5 -505t278.5 -161q194 0 280.5 161.5 t86.5 504.5t-86.5 505.5t-280.5 162.5q-193 0 -278.5 -162t-85.5 -506zM395 1642q0 56 41 97t99 41q59 0 99 -41t40 -97q0 -57 -41 -97t-98 -40q-56 0 -98 40.5t-42 96.5zM788 1642q0 55 40.5 96.5t99.5 41.5t99 -41t40 -97q0 -57 -41 -97t-98 -40t-98.5 40.5t-41.5 96.5z " />
<glyph unicode="&#xd7;" d="M135 301l406 406l-404 401l90 90l404 -401l399 399l88 -90l-399 -399l405 -406l-90 -90l-403 405l-406 -405z" />
<glyph unicode="&#xd8;" horiz-adv-x="1476" d="M88 682q0 136 51 265.5t137 227.5t207.5 158t253.5 60q173 0 312 -88l84 143h75l-108 -180q137 -108 213 -263t76 -323q0 -182 -86.5 -345t-238 -263.5t-327.5 -100.5q-194 0 -338 107l-96 -162h-74l119 203q-126 110 -193 255.5t-67 305.5zM373 682q0 -264 53 -428 l571 967q-89 129 -260 129q-192 0 -278 -162.5t-86 -505.5zM457 178q51 -87 116 -124.5t164 -37.5q194 0 280.5 162t86.5 504q0 305 -70 473z" />
<glyph unicode="&#xd9;" horiz-adv-x="1527" d="M25 1331v35h712v-35q-160 -11 -200 -44q-27 -22 -29 -82v-46v-710q0 -99 5.5 -157t23.5 -97q74 -164 309 -164q174 0 268 100q56 60 72 125.5t16 183.5v400q0 114 -5.5 185t-20.5 131t-44.5 93t-75 53.5t-114.5 28.5v35h565v-35q-44 -6 -79 -17.5t-60.5 -31.5t-44 -41 t-30.5 -56t-19.5 -66.5t-11 -82t-4.5 -92.5t-1 -108v-396q0 -61 -2.5 -98t-15 -87.5t-37.5 -92.5q-108 -189 -411 -189q-358 0 -492 197q-51 75 -51 270v719v9q0 31 -0.5 44.5t-4.5 34t-12.5 29t-23.5 20t-40 16.5t-59 10.5t-83 8.5zM528 1731q0 37 25 58t61 21 q12 0 23.5 -2t20.5 -4.5t19 -10t17 -11.5t17 -15.5t15 -17t16 -21.5t15.5 -22.5t17.5 -25.5t18 -27q74 -110 208 -135l-4 -33q-112 13 -217.5 47.5t-178.5 88t-73 110.5z" />
<glyph unicode="&#xda;" horiz-adv-x="1527" d="M25 1331v35h712v-35q-160 -11 -200 -44q-27 -22 -29 -82v-46v-710q0 -99 5.5 -157t23.5 -97q74 -164 309 -164q174 0 268 100q56 60 72 125.5t16 183.5v400q0 114 -5.5 185t-20.5 131t-44.5 93t-75 53.5t-114.5 28.5v35h565v-35q-44 -6 -79 -17.5t-60.5 -31.5t-44 -41 t-30.5 -56t-19.5 -66.5t-11 -82t-4.5 -92.5t-1 -108v-396q0 -61 -2.5 -98t-15 -87.5t-37.5 -92.5q-108 -189 -411 -189q-358 0 -492 197q-51 75 -51 270v719v9q0 31 -0.5 44.5t-4.5 34t-12.5 29t-23.5 20t-40 16.5t-59 10.5t-83 8.5zM657 1518q133 24 207 135q7 10 22 33.5 t21 31.5t18.5 25.5t20 24t19.5 17t22.5 14.5t24.5 7.5t30 3.5q35 0 61.5 -21.5t26.5 -57.5q0 -57 -73.5 -110.5t-179.5 -88t-218 -47.5z" />
<glyph unicode="&#xdb;" horiz-adv-x="1527" d="M25 1331v35h712v-35q-160 -11 -200 -44q-27 -22 -29 -82v-46v-710q0 -99 5.5 -157t23.5 -97q74 -164 309 -164q174 0 268 100q56 60 72 125.5t16 183.5v400q0 114 -5.5 185t-20.5 131t-44.5 93t-75 53.5t-114.5 28.5v35h565v-35q-44 -6 -79 -17.5t-60.5 -31.5t-44 -41 t-30.5 -56t-19.5 -66.5t-11 -82t-4.5 -92.5t-1 -108v-396q0 -61 -2.5 -98t-15 -87.5t-37.5 -92.5q-108 -189 -411 -189q-358 0 -492 197q-51 75 -51 270v719v9q0 31 -0.5 44.5t-4.5 34t-12.5 29t-23.5 20t-40 16.5t-59 10.5t-83 8.5zM485 1503l338 312l336 -312l-22 -18 l-314 141l-315 -141z" />
<glyph unicode="&#xdc;" horiz-adv-x="1527" d="M25 1331v35h712v-35q-160 -11 -200 -44q-27 -22 -29 -82v-46v-710q0 -99 5.5 -157t23.5 -97q74 -164 309 -164q174 0 268 100q56 60 72 125.5t16 183.5v400q0 114 -5.5 185t-20.5 131t-44.5 93t-75 53.5t-114.5 28.5v35h565v-35q-44 -6 -79 -17.5t-60.5 -31.5t-44 -41 t-30.5 -56t-19.5 -66.5t-11 -82t-4.5 -92.5t-1 -108v-396q0 -61 -2.5 -98t-15 -87.5t-37.5 -92.5q-108 -189 -411 -189q-358 0 -492 197q-51 75 -51 270v719v9q0 31 -0.5 44.5t-4.5 34t-12.5 29t-23.5 20t-40 16.5t-59 10.5t-83 8.5zM461 1642q0 56 40.5 97t98.5 41 q59 0 99 -41t40 -97q0 -57 -41 -97t-98 -40q-56 0 -97.5 40.5t-41.5 96.5zM854 1642q0 55 40 96.5t99 41.5t99.5 -41t40.5 -97q0 -57 -41.5 -97t-98.5 -40t-98 40.5t-41 96.5z" />
<glyph unicode="&#xdd;" horiz-adv-x="1388" d="M-14 1331v35h665v-35q-31 -3 -44.5 -5t-38 -6t-36 -8.5t-25 -11t-19 -16.5t-5.5 -22q0 -51 33 -115l238 -461l168 287q90 155 90 225q0 63 -48.5 90.5t-136.5 38.5v39h576v-35q-82 -18 -144 -49t-113 -83t-85.5 -101.5t-85.5 -134.5l-197 -334v-422v-5q0 -26 0.5 -37.5 t2.5 -29.5t7 -26t13 -20t22 -17t33 -12.5t46 -11t61 -7t79 -6.5v-35h-786v35q45 3 78.5 6.5t60.5 6.5t45.5 10.5t32.5 12.5t22 17t13 20t7 26.5t2.5 30t0.5 37.5v5v393l-262 502q-38 74 -56.5 105t-49.5 60t-65.5 40.5t-98.5 23.5zM518 1518q133 24 207 135q7 10 22 33.5 t21 31.5t18.5 25.5t20 24t19.5 17t22.5 14.5t24.5 7.5t30 3.5q35 0 61.5 -21.5t26.5 -57.5q0 -57 -73.5 -110.5t-179.5 -88t-218 -47.5z" />
<glyph unicode="&#xde;" horiz-adv-x="1374" d="M66 0v35q43 3 74 6.5t55 10t39.5 11.5t26.5 17t16.5 20t8 27.5t3 32.5t0.5 41v6v952v6q0 28 -0.5 40.5t-3 32t-8 27.5t-16.5 20.5t-26.5 17.5t-39.5 11.5t-55.5 10t-73.5 6.5v35h483v-205q63 2 164 2q222 0 352 -41q123 -38 192.5 -121.5t69.5 -189.5 q0 -170 -151.5 -268.5t-444.5 -98.5h-182v-237q0 -79 11 -102q19 -40 100 -55q49 -9 141 -15v-35h-735zM549 487h164q175 0 255.5 69.5t80.5 248.5q0 160 -75 237.5t-229 77.5q-85 0 -126.5 -12.5t-55.5 -39t-14 -81.5v-500z" />
<glyph unicode="&#xdf;" horiz-adv-x="1476" d="M76 922v43h200q3 104 29 177.5t94 139.5q125 125 295 125q140 0 225 -59t85 -142q0 -25 -7 -44t-15 -31.5t-29.5 -26.5t-35.5 -21t-47 -22q-31 -14 -54 -49.5t-23 -73.5q0 -27 7 -48.5t25.5 -41.5t39 -36t60 -36t74.5 -36.5t96 -43.5q17 -8 27 -12t26 -11.5t30 -13.5 q221 -102 221 -303q0 -111 -64.5 -199.5t-170.5 -136t-232 -47.5q-156 0 -265.5 72.5t-109.5 183.5q0 56 33.5 90.5t89.5 34.5q46 0 77 -32.5t31 -77.5q0 -50 -26 -76q-22 -22 -28.5 -33.5t-6.5 -28.5q0 -8 7.5 -18.5t25 -23t42.5 -23.5t64 -18t84 -7q43 0 93 20t85 56 q38 38 51 79t13 99q0 53 -53 110t-156 105q-194 89 -251 125q-102 64 -131 148q-15 45 -15 104q0 26 17 64.5t46 68.5q38 39 86 58.5t115 31.5q-98 20 -98 95q0 49 34 73q16 12 22.5 17t12.5 13t6 17q0 21 -35 42.5t-85 21.5q-46 0 -79 -11t-53 -40t-32 -53.5t-16.5 -77.5 t-5.5 -84.5t-1 -100.5v-30v-967h-434v35q47 4 80 9.5t54 16.5t32.5 20t16.5 29.5t6 34.5t1 45v5v727h-200z" />
<glyph unicode="&#xe0;" horiz-adv-x="1118" d="M68 209q0 94 71.5 166.5t210.5 118.5q53 17 175 42.5t151 32.5v125q0 54 -3.5 89t-14.5 69.5t-32 53.5t-56.5 30.5t-86.5 11.5q-80 0 -134 -31.5t-54 -64.5q0 -13 12.5 -24.5t27.5 -20t27.5 -30t12.5 -52.5q0 -44 -38.5 -77.5t-84.5 -33.5q-63 0 -99 35.5t-36 95.5 q0 97 105 171.5t282 74.5q95 0 177 -21t130 -57q63 -47 86 -109.5t23 -156.5v-489q0 -63 10.5 -88t42.5 -25q94 0 100 217h41q0 -145 -50.5 -217t-180.5 -72q-112 0 -159 58t-50 166q-105 -224 -350 -224q-116 0 -186 67t-70 169zM211 1315q0 37 25 58.5t61 21.5 q15 0 29 -3.5t24 -7t23 -15t19.5 -17.5t20.5 -24.5t18.5 -25.5t21.5 -32t22 -33q74 -110 209 -135l-4 -33q-112 13 -217.5 47.5t-178.5 88t-73 110.5zM332 227q0 -174 114 -174q40 0 87 30.5t81 82.5q29 45 43 102t16.5 97t2.5 110v53q-90 -15 -149 -34.5t-105.5 -53.5 t-68 -86t-21.5 -127z" />
<glyph unicode="&#xe1;" horiz-adv-x="1118" d="M68 209q0 94 71.5 166.5t210.5 118.5q53 17 175 42.5t151 32.5v125q0 54 -3.5 89t-14.5 69.5t-32 53.5t-56.5 30.5t-86.5 11.5q-80 0 -134 -31.5t-54 -64.5q0 -13 12.5 -24.5t27.5 -20t27.5 -30t12.5 -52.5q0 -44 -38.5 -77.5t-84.5 -33.5q-63 0 -99 35.5t-36 95.5 q0 97 105 171.5t282 74.5q95 0 177 -21t130 -57q63 -47 86 -109.5t23 -156.5v-489q0 -63 10.5 -88t42.5 -25q94 0 100 217h41q0 -145 -50.5 -217t-180.5 -72q-112 0 -159 58t-50 166q-105 -224 -350 -224q-116 0 -186 67t-70 169zM332 227q0 -174 114 -174q40 0 87 30.5 t81 82.5q29 45 43 102t16.5 97t2.5 110v53q-90 -15 -149 -34.5t-105.5 -53.5t-68 -86t-21.5 -127zM354 1102q133 24 207 135q6 9 24.5 37.5t24 36t21 27t24 25.5t23 16t29 13t32.5 3q35 0 61.5 -22t26.5 -58q0 -57 -73.5 -110.5t-179.5 -88t-218 -47.5z" />
<glyph unicode="&#xe2;" horiz-adv-x="1118" d="M68 209q0 94 71.5 166.5t210.5 118.5q53 17 175 42.5t151 32.5v125q0 54 -3.5 89t-14.5 69.5t-32 53.5t-56.5 30.5t-86.5 11.5q-80 0 -134 -31.5t-54 -64.5q0 -13 12.5 -24.5t27.5 -20t27.5 -30t12.5 -52.5q0 -44 -38.5 -77.5t-84.5 -33.5q-63 0 -99 35.5t-36 95.5 q0 97 105 171.5t282 74.5q95 0 177 -21t130 -57q63 -47 86 -109.5t23 -156.5v-489q0 -63 10.5 -88t42.5 -25q94 0 100 217h41q0 -145 -50.5 -217t-180.5 -72q-112 0 -159 58t-50 166q-105 -224 -350 -224q-116 0 -186 67t-70 169zM186 1100l338 311l336 -311l-22 -19 l-314 142l-315 -142zM332 227q0 -174 114 -174q40 0 87 30.5t81 82.5q29 45 43 102t16.5 97t2.5 110v53q-90 -15 -149 -34.5t-105.5 -53.5t-68 -86t-21.5 -127z" />
<glyph unicode="&#xe3;" horiz-adv-x="1118" d="M68 209q0 94 71.5 166.5t210.5 118.5q53 17 175 42.5t151 32.5v125q0 54 -3.5 89t-14.5 69.5t-32 53.5t-56.5 30.5t-86.5 11.5q-80 0 -134 -31.5t-54 -64.5q0 -13 12.5 -24.5t27.5 -20t27.5 -30t12.5 -52.5q0 -44 -38.5 -77.5t-84.5 -33.5q-63 0 -99 35.5t-36 95.5 q0 97 105 171.5t282 74.5q95 0 177 -21t130 -57q63 -47 86 -109.5t23 -156.5v-489q0 -63 10.5 -88t42.5 -25q94 0 100 217h41q0 -145 -50.5 -217t-180.5 -72q-112 0 -159 58t-50 166q-105 -224 -350 -224q-116 0 -186 67t-70 169zM135 1135q41 109 104.5 168t137.5 59 q65 0 130 -23.5t121 -47t101 -23.5q69 0 111 92l32 -10q-28 -107 -97 -168.5t-148 -61.5q-17 0 -33 2t-35.5 7t-27.5 7.5t-32.5 11t-27.5 9.5q-25 9 -59.5 23t-53 21t-43.5 14t-41 4t-35.5 -12.5t-37 -31t-35.5 -55.5zM332 227q0 -174 114 -174q40 0 87 30.5t81 82.5 q29 45 43 102t16.5 97t2.5 110v53q-90 -15 -149 -34.5t-105.5 -53.5t-68 -86t-21.5 -127z" />
<glyph unicode="&#xe4;" horiz-adv-x="1118" d="M68 209q0 94 71.5 166.5t210.5 118.5q53 17 175 42.5t151 32.5v125q0 54 -3.5 89t-14.5 69.5t-32 53.5t-56.5 30.5t-86.5 11.5q-80 0 -134 -31.5t-54 -64.5q0 -13 12.5 -24.5t27.5 -20t27.5 -30t12.5 -52.5q0 -44 -38.5 -77.5t-84.5 -33.5q-63 0 -99 35.5t-36 95.5 q0 97 105 171.5t282 74.5q95 0 177 -21t130 -57q63 -47 86 -109.5t23 -156.5v-489q0 -63 10.5 -88t42.5 -25q94 0 100 217h41q0 -145 -50.5 -217t-180.5 -72q-112 0 -159 58t-50 166q-105 -224 -350 -224q-116 0 -186 67t-70 169zM190 1243q0 56 41 96.5t99 40.5 q59 0 99 -40.5t40 -96.5q0 -57 -41 -97t-98 -40q-56 0 -98 40.5t-42 96.5zM332 227q0 -174 114 -174q40 0 87 30.5t81 82.5q29 45 43 102t16.5 97t2.5 110v53q-90 -15 -149 -34.5t-105.5 -53.5t-68 -86t-21.5 -127zM584 1243q0 55 40 96t99 41t99 -40.5t40 -96.5 q0 -57 -41 -97t-98 -40t-98 40.5t-41 96.5z" />
<glyph unicode="&#xe5;" horiz-adv-x="1118" d="M68 209q0 94 71.5 166.5t210.5 118.5q53 17 175 42.5t151 32.5v125q0 54 -3.5 89t-14.5 69.5t-32 53.5t-56.5 30.5t-86.5 11.5q-80 0 -134 -31.5t-54 -64.5q0 -13 12.5 -24.5t27.5 -20t27.5 -30t12.5 -52.5q0 -44 -38.5 -77.5t-84.5 -33.5q-63 0 -99 35.5t-36 95.5 q0 97 105 171.5t282 74.5q95 0 177 -21t130 -57q63 -47 86 -109.5t23 -156.5v-489q0 -63 10.5 -88t42.5 -25q94 0 100 217h41q0 -145 -50.5 -217t-180.5 -72q-112 0 -159 58t-50 166q-105 -224 -350 -224q-116 0 -186 67t-70 169zM315 1257q0 73 60.5 126t136.5 53 t136.5 -53t60.5 -126t-61 -124.5t-136 -51.5t-136 51t-61 125zM332 227q0 -174 114 -174q40 0 87 30.5t81 82.5q29 45 43 102t16.5 97t2.5 110v53q-90 -15 -149 -34.5t-105.5 -53.5t-68 -86t-21.5 -127zM436 1257q0 -70 17.5 -104.5t58.5 -34.5t58.5 34t17.5 105 q0 73 -17 107.5t-59 34.5q-41 0 -58.5 -35t-17.5 -107z" />
<glyph unicode="&#xe6;" horiz-adv-x="1683" d="M68 217q0 79 49.5 150t136.5 112q64 31 164 46.5t262 25.5v115q0 66 -3.5 106.5t-15 77.5t-33.5 55.5t-58 29.5t-89 11q-82 0 -132 -33.5t-50 -62.5q0 -9 13 -20.5t28 -22t28 -31t13 -45.5q0 -52 -38 -82.5t-85 -30.5q-57 0 -96 33.5t-39 91.5q0 105 115.5 175.5 t267.5 70.5q104 0 193.5 -30.5t150.5 -88.5q42 30 64 43.5t64.5 36t86.5 32t94 9.5q206 0 328.5 -128.5t122.5 -319.5q0 -6 -1 -16.5t-1 -16.5h-672q1 -85 4.5 -144t13.5 -118.5t29 -97t49 -68t75 -44t105 -13.5q150 0 240.5 79t112.5 226h37q-15 -168 -127 -261.5 t-283 -93.5q-161 0 -269.5 66t-203.5 207q-2 -3 -8.5 -16l-9 -18t-9 -17t-10 -18.5t-10 -17t-12 -18t-12.5 -17t-14.5 -18t-15.5 -16.5q-53 -53 -132.5 -85t-155.5 -32q-114 0 -188 69.5t-74 172.5zM326 223q0 -168 120 -168q49 0 98.5 37t82.5 103q23 46 35 103t14.5 95.5 t3.5 110.5q-7 0 -17.5 1t-17.5 1q-153 0 -236 -73t-83 -210zM940 553h311q58 0 79.5 16.5t21.5 63.5q0 61 -4.5 106.5t-17 86t-34 66.5t-55.5 41t-80 15q-107 0 -164 -95t-57 -263v-37z" />
<glyph unicode="&#xe7;" horiz-adv-x="1067" d="M82 461q0 152 77 275.5t196.5 189t252.5 65.5q85 0 157 -25t118.5 -65.5t72 -90.5t25.5 -101q0 -66 -38.5 -106t-84.5 -40q-64 0 -99.5 34.5t-35.5 90.5q0 70 59 109l9 6t9 5.5t7.5 5.5t6.5 7t3.5 7t1.5 8q0 37 -51 74.5t-143 37.5q-154 0 -212.5 -113t-58.5 -360 q0 -157 31 -270q52 -187 260 -187q54 0 105.5 20.5t96 60.5t73 109.5t32.5 158.5h41q-3 -99 -35 -175.5t-85.5 -123t-119 -70t-139.5 -23.5q-51 0 -71 2q0 -1 -1 -9t-1 -9q0 -20 27 -31.5t65.5 -19t77 -19t65.5 -40t27 -72.5q0 -72 -68.5 -128.5t-195.5 -56.5q-84 0 -148 29 l19 33q5 -1 18.5 -5t23 -6.5t25 -5t31.5 -2.5q45 0 73.5 26t28.5 58q0 26 -20.5 51t-65.5 58q-18 12 -32.5 32.5t-14.5 35.5q0 19 0.5 27t7.5 25.5t21 33.5q-186 33 -305 174t-119 305z" />
<glyph unicode="&#xe8;" horiz-adv-x="1091" d="M84 492q0 86 36.5 174t99.5 160t158.5 117.5t203.5 45.5q187 0 310.5 -122.5t123.5 -305.5v-47h-668q-6 -75 -6 -86q0 -210 65 -311t211 -101q148 0 241 80t118 232h41q-20 -166 -132 -260.5t-286 -94.5q-140 0 -257.5 64.5t-188 184t-70.5 270.5zM272 1315q0 37 25 58.5 t61 21.5q13 0 25 -2t23.5 -8t20 -10t19.5 -15.5t17 -17.5t18 -23t17 -23.5t19.5 -28.5t19.5 -30q74 -110 208 -135l-4 -33q-112 13 -217.5 47.5t-178.5 88t-73 110.5zM352 557h248h32h52t35 4t26.5 11t14 21.5t9 35t1.5 53.5q0 264 -192 264q-119 0 -168.5 -95t-57.5 -294z " />
<glyph unicode="&#xe9;" horiz-adv-x="1091" d="M84 492q0 86 36.5 174t99.5 160t158.5 117.5t203.5 45.5q187 0 310.5 -122.5t123.5 -305.5v-47h-668q-6 -75 -6 -86q0 -210 65 -311t211 -101q148 0 241 80t118 232h41q-20 -166 -132 -260.5t-286 -94.5q-140 0 -257.5 64.5t-188 184t-70.5 270.5zM352 557h248h32h52 t35 4t26.5 11t14 21.5t9 35t1.5 53.5q0 264 -192 264q-119 0 -168.5 -95t-57.5 -294zM395 1102q133 24 207 135q6 9 24.5 37.5t24 36t21 27t24 25.5t23 16t29 13t32.5 3q35 0 61.5 -22t26.5 -58q0 -57 -73.5 -110.5t-179.5 -88t-218 -47.5z" />
<glyph unicode="&#xea;" horiz-adv-x="1091" d="M84 492q0 86 36.5 174t99.5 160t158.5 117.5t203.5 45.5q187 0 310.5 -122.5t123.5 -305.5v-47h-668q-6 -75 -6 -86q0 -210 65 -311t211 -101q148 0 241 80t118 232h41q-20 -166 -132 -260.5t-286 -94.5q-140 0 -257.5 64.5t-188 184t-70.5 270.5zM233 1100l338 311 l336 -311l-22 -19l-314 142l-315 -142zM352 557h248h32h52t35 4t26.5 11t14 21.5t9 35t1.5 53.5q0 264 -192 264q-119 0 -168.5 -95t-57.5 -294z" />
<glyph unicode="&#xeb;" horiz-adv-x="1091" d="M84 492q0 86 36.5 174t99.5 160t158.5 117.5t203.5 45.5q187 0 310.5 -122.5t123.5 -305.5v-47h-668q-6 -75 -6 -86q0 -210 65 -311t211 -101q148 0 241 80t118 232h41q-20 -166 -132 -260.5t-286 -94.5q-140 0 -257.5 64.5t-188 184t-70.5 270.5zM233 1212q0 56 41 97 t99 41q59 0 99 -41t40 -97q0 -57 -41 -97t-98 -40q-56 0 -98 40.5t-42 96.5zM352 557h248h32h52t35 4t26.5 11t14 21.5t9 35t1.5 53.5q0 264 -192 264q-119 0 -168.5 -95t-57.5 -294zM627 1212q0 55 40 96.5t99 41.5t99 -41t40 -97q0 -57 -41 -97t-98 -40t-98 40.5t-41 96.5 z" />
<glyph unicode="&#xec;" horiz-adv-x="737" d="M47 1315q0 37 25 58.5t61 21.5q15 0 29 -3.5t24 -7t23 -15t19.5 -17.5t20.5 -24.5t18.5 -25.5t21.5 -32t22 -33q74 -110 209 -135l-4 -33q-112 13 -217.5 47.5t-178.5 88t-73 110.5zM70 0v35q69 6 106.5 15.5t56 31t22 43.5t3.5 70v567v9q0 28 -0.5 40.5t-2.5 31.5 t-6.5 27t-14 20t-22.5 17t-33.5 11t-46.5 9t-62 5v33q187 0 432 22v-792q0 -24 0.5 -35.5t2.5 -29.5t7 -26t13.5 -20t22.5 -18t33.5 -13t46.5 -11t62 -7v-35h-620z" />
<glyph unicode="&#xed;" horiz-adv-x="737" d="M70 0v35q69 6 106.5 15.5t56 31t22 43.5t3.5 70v567v9q0 28 -0.5 40.5t-2.5 31.5t-6.5 27t-14 20t-22.5 17t-33.5 11t-46.5 9t-62 5v33q187 0 432 22v-792q0 -24 0.5 -35.5t2.5 -29.5t7 -26t13.5 -20t22.5 -18t33.5 -13t46.5 -11t62 -7v-35h-620zM109 1102 q131 24 206 135l22 33t21.5 32t18.5 26t20 24t19.5 17t23 15t24.5 7.5t30 3.5q35 0 61.5 -22t26.5 -58q0 -57 -73.5 -110.5t-179.5 -88t-218 -47.5z" />
<glyph unicode="&#xee;" horiz-adv-x="737" d="M2 1100l338 311l336 -311l-23 -19l-313 142l-315 -142zM70 0v35q69 6 106.5 15.5t56 31t22 43.5t3.5 70v567v9q0 28 -0.5 40.5t-2.5 31.5t-6.5 27t-14 20t-22.5 17t-33.5 11t-46.5 9t-62 5v33q187 0 432 22v-792q0 -24 0.5 -35.5t2.5 -29.5t7 -26t13.5 -20t22.5 -18 t33.5 -13t46.5 -11t62 -7v-35h-620z" />
<glyph unicode="&#xef;" horiz-adv-x="737" d="M35 1243q0 56 40.5 96.5t98.5 40.5q59 0 99 -40.5t40 -96.5q0 -57 -41 -97t-98 -40q-56 0 -97.5 40.5t-41.5 96.5zM70 0v35q69 6 106.5 15.5t56 31t22 43.5t3.5 70v567v9q0 28 -0.5 40.5t-2.5 31.5t-6.5 27t-14 20t-22.5 17t-33.5 11t-46.5 9t-62 5v33q187 0 432 22v-792 q0 -24 0.5 -35.5t2.5 -29.5t7 -26t13.5 -20t22.5 -18t33.5 -13t46.5 -11t62 -7v-35h-620zM428 1243q0 55 40 96t99 41t99.5 -40.5t40.5 -96.5q0 -57 -41.5 -97t-98.5 -40t-98 40.5t-41 96.5z" />
<glyph unicode="&#xf0;" horiz-adv-x="1210" d="M82 481q0 140 77 259t197 185t250 66q58 0 127 -16q-76 123 -147 205l-187 -76l-16 39l172 71q-28 32 -77 73t-89 67l4 12h236q41 -24 112 -76l191 78l16 -39l-170 -69q167 -146 259.5 -351t92.5 -428q0 -106 -46 -202t-120 -162t-168 -105t-190 -39q-129 0 -249 65 t-197.5 184t-77.5 259zM354 481q0 -247 57 -356t195 -109q137 0 194.5 110.5t57.5 354.5q0 246 -57.5 356.5t-194.5 110.5t-194.5 -110t-57.5 -357z" />
<glyph unicode="&#xf1;" horiz-adv-x="1429" d="M78 932v33q284 6 438 22v-299q50 149 153 226t244 77q104 0 187 -57q21 -15 37.5 -34t27 -35t17.5 -43.5t10.5 -44t5.5 -53t2 -54v-62.5v-413q0 -32 1.5 -49t7.5 -37t17.5 -29.5t33 -19.5t52.5 -15.5t77 -9.5v-35h-609v35q37 3 65 9t47 12t31.5 19t19 21.5t9.5 27.5 t3.5 30.5t0.5 35.5v9v434q0 12 0.5 41.5t0 42t-1.5 38t-3 37.5t-6.5 32t-11 30t-16.5 23t-23 19t-30.5 10.5t-39.5 4.5q-104 0 -182.5 -84t-107.5 -231q-19 -97 -19 -264v-133v-11q0 -25 0.5 -36.5t3.5 -30t10 -27.5t19.5 -21t32.5 -18t48.5 -11.5t67.5 -8.5v-35h-614v35 q40 3 69.5 9t50 11.5t33.5 17.5t20 20.5t10.5 28.5t4 32.5t0.5 40.5v630q0 26 -10.5 45t-26 30t-43 18t-52 9.5t-62.5 4.5zM354 1135q41 109 104.5 168t137.5 59q65 0 130 -23.5t121 -47t101 -23.5q69 0 111 92l33 -10q-28 -107 -97.5 -168.5t-148.5 -61.5q-17 0 -33 2 t-35.5 7t-27.5 7.5t-32.5 11t-27.5 9.5q-25 9 -59.5 23t-53 21t-43.5 14t-41 4t-35.5 -12.5t-37 -31t-35.5 -55.5z" />
<glyph unicode="&#xf2;" horiz-adv-x="1210" d="M82 481q0 140 77 259t197 185t250 66q128 0 248 -65t198 -184.5t78 -260.5q0 -106 -46 -202t-120 -162t-168 -105t-190 -39q-129 0 -249 65t-197.5 184t-77.5 259zM293 1315q0 37 25 58.5t61 21.5q15 0 29 -3.5t24 -7t23 -15t19.5 -17.5t20.5 -24.5t18.5 -25.5t21.5 -32 t22 -33q74 -110 209 -135l-4 -33q-112 13 -217.5 47.5t-178.5 88t-73 110.5zM354 481q0 -247 57 -356t195 -109q137 0 194.5 110.5t57.5 354.5q0 246 -57.5 356.5t-194.5 110.5t-194.5 -110t-57.5 -357z" />
<glyph unicode="&#xf3;" horiz-adv-x="1210" d="M82 481q0 140 77 259t197 185t250 66q128 0 248 -65t198 -184.5t78 -260.5q0 -106 -46 -202t-120 -162t-168 -105t-190 -39q-129 0 -249 65t-197.5 184t-77.5 259zM354 481q0 -247 57 -356t195 -109q137 0 194.5 110.5t57.5 354.5q0 246 -57.5 356.5t-194.5 110.5 t-194.5 -110t-57.5 -357zM395 1102q133 24 207 135q6 9 24.5 37.5t24 36t21 27t24 25.5t23 16t29 13t32.5 3q35 0 61.5 -22t26.5 -58q0 -57 -73.5 -110.5t-179.5 -88t-218 -47.5z" />
<glyph unicode="&#xf4;" horiz-adv-x="1210" d="M82 481q0 140 77 259t197 185t250 66q128 0 248 -65t198 -184.5t78 -260.5q0 -106 -46 -202t-120 -162t-168 -105t-190 -39q-129 0 -249 65t-197.5 184t-77.5 259zM262 1100l338 311l336 -311l-23 -19l-313 142l-315 -142zM354 481q0 -247 57 -356t195 -109 q137 0 194.5 110.5t57.5 354.5q0 246 -57.5 356.5t-194.5 110.5t-194.5 -110t-57.5 -357z" />
<glyph unicode="&#xf5;" horiz-adv-x="1210" d="M82 481q0 140 77 259t197 185t250 66q128 0 248 -65t198 -184.5t78 -260.5q0 -106 -46 -202t-120 -162t-168 -105t-190 -39q-129 0 -249 65t-197.5 184t-77.5 259zM264 1135q41 109 104.5 168t137.5 59q65 0 130 -23.5t121 -47t101 -23.5q69 0 111 92l32 -10 q-28 -107 -97 -168.5t-148 -61.5q-17 0 -33 2t-35.5 7t-27.5 7.5t-32.5 11t-27.5 9.5q-25 9 -59.5 23t-53 21t-43.5 14t-41 4t-35.5 -12.5t-37 -31t-35.5 -55.5zM354 481q0 -247 57 -356t195 -109q137 0 194.5 110.5t57.5 354.5q0 246 -57.5 356.5t-194.5 110.5t-194.5 -110 t-57.5 -357z" />
<glyph unicode="&#xf6;" horiz-adv-x="1210" d="M82 481q0 140 77 259t197 185t250 66q128 0 248 -65t198 -184.5t78 -260.5q0 -106 -46 -202t-120 -162t-168 -105t-190 -39q-129 0 -249 65t-197.5 184t-77.5 259zM270 1243q0 56 41 96.5t99 40.5q59 0 99 -40.5t40 -96.5q0 -57 -41 -97t-98 -40q-56 0 -98 40.5t-42 96.5 zM354 481q0 -247 57 -356t195 -109q137 0 194.5 110.5t57.5 354.5q0 246 -57.5 356.5t-194.5 110.5t-194.5 -110t-57.5 -357zM664 1243q0 56 40 96.5t99 40.5t99 -40.5t40 -96.5q0 -57 -41 -97t-98 -40q-56 0 -97.5 40.5t-41.5 96.5z" />
<glyph unicode="&#xf7;" d="M96 643v127h1067v-127h-1067zM487 332q0 58 41.5 97.5t100.5 39.5q58 0 100.5 -39.5t42.5 -97.5t-42.5 -97.5t-100.5 -39.5q-59 0 -100.5 39.5t-41.5 97.5zM487 1081q0 58 42 98t100 40t100.5 -40t42.5 -98t-42.5 -97.5t-100.5 -39.5t-100 39.5t-42 97.5z" />
<glyph unicode="&#xf8;" horiz-adv-x="1210" d="M82 481q0 106 45.5 202t119 162.5t168 106t191.5 39.5q106 0 219 -55l88 145h74l-104 -176q120 -77 183.5 -187t63.5 -237q0 -106 -46 -202t-120 -162t-168 -105t-190 -39q-115 0 -239 62l-88 -148h-76l106 181q-111 77 -169 184t-58 229zM354 481q0 -177 29 -288 l401 673q-61 82 -178 82q-137 0 -194.5 -111.5t-57.5 -355.5zM414 117q60 -101 192 -101q137 0 194.5 110.5t57.5 354.5q0 213 -39 316z" />
<glyph unicode="&#xf9;" horiz-adv-x="1421" d="M55 932v33q302 5 445 22v-704q0 -117 29.5 -177.5t99.5 -60.5q51 0 103 31t98.5 90t76 161t29.5 228v207v7q0 28 -0.5 40.5t-2.5 32t-7 27.5t-14.5 20t-23 17t-34.5 11.5t-48.5 9.5t-64.5 5v33q272 6 439 22v-792q0 -32 1 -48t7 -36.5t17 -30t32.5 -20t53 -16t77.5 -9.5 v-35q-234 0 -432 -18v292q-65 -151 -159.5 -226t-233.5 -75q-91 0 -159.5 40t-100.5 112q-14 32 -21.5 71.5t-8.5 66t-1 75.5l4 424q1 26 0 47.5t-3.5 38t-11 29.5t-21.5 22t-36 15.5t-54 10.5t-75 7zM334 1315q0 37 25 58.5t61 21.5q15 0 29 -3.5t24 -7t23 -15t19.5 -17.5 t20.5 -24.5t18.5 -25.5t21.5 -32t22 -33q74 -110 209 -135l-4 -33q-112 13 -217.5 47.5t-178.5 88t-73 110.5z" />
<glyph unicode="&#xfa;" horiz-adv-x="1421" d="M55 932v33q302 5 445 22v-704q0 -117 29.5 -177.5t99.5 -60.5q51 0 103 31t98.5 90t76 161t29.5 228v207v7q0 28 -0.5 40.5t-2.5 32t-7 27.5t-14.5 20t-23 17t-34.5 11.5t-48.5 9.5t-64.5 5v33q272 6 439 22v-792q0 -32 1 -48t7 -36.5t17 -30t32.5 -20t53 -16t77.5 -9.5 v-35q-234 0 -432 -18v292q-65 -151 -159.5 -226t-233.5 -75q-91 0 -159.5 40t-100.5 112q-14 32 -21.5 71.5t-8.5 66t-1 75.5l4 424q1 26 0 47.5t-3.5 38t-11 29.5t-21.5 22t-36 15.5t-54 10.5t-75 7zM498 1102q133 24 207 135q6 9 24.5 37.5t24 36t21 27t24 25.5t23 16 t29 13t32.5 3q35 0 61.5 -22t26.5 -58q0 -57 -73.5 -110.5t-179.5 -88t-218 -47.5z" />
<glyph unicode="&#xfb;" horiz-adv-x="1421" d="M55 932v33q302 5 445 22v-704q0 -117 29.5 -177.5t99.5 -60.5q51 0 103 31t98.5 90t76 161t29.5 228v207v7q0 28 -0.5 40.5t-2.5 32t-7 27.5t-14.5 20t-23 17t-34.5 11.5t-48.5 9.5t-64.5 5v33q272 6 439 22v-792q0 -32 1 -48t7 -36.5t17 -30t32.5 -20t53 -16t77.5 -9.5 v-35q-234 0 -432 -18v292q-65 -151 -159.5 -226t-233.5 -75q-91 0 -159.5 40t-100.5 112q-14 32 -21.5 71.5t-8.5 66t-1 75.5l4 424q1 26 0 47.5t-3.5 38t-11 29.5t-21.5 22t-36 15.5t-54 10.5t-75 7zM371 1100l338 311l335 -311l-22 -19l-313 142l-316 -142z" />
<glyph unicode="&#xfc;" horiz-adv-x="1421" d="M55 932v33q302 5 445 22v-704q0 -117 29.5 -177.5t99.5 -60.5q51 0 103 31t98.5 90t76 161t29.5 228v207v7q0 28 -0.5 40.5t-2.5 32t-7 27.5t-14.5 20t-23 17t-34.5 11.5t-48.5 9.5t-64.5 5v33q272 6 439 22v-792q0 -32 1 -48t7 -36.5t17 -30t32.5 -20t53 -16t77.5 -9.5 v-35q-234 0 -432 -18v292q-65 -151 -159.5 -226t-233.5 -75q-91 0 -159.5 40t-100.5 112q-14 32 -21.5 71.5t-8.5 66t-1 75.5l4 424q1 26 0 47.5t-3.5 38t-11 29.5t-21.5 22t-36 15.5t-54 10.5t-75 7zM346 1243q0 55 40 96t99 41t99.5 -40.5t40.5 -96.5q0 -57 -41.5 -97 t-98.5 -40t-98 40.5t-41 96.5zM739 1243q0 55 40.5 96t99.5 41q58 0 98.5 -40t40.5 -97q0 -58 -41.5 -97.5t-97.5 -39.5q-57 0 -98.5 40.5t-41.5 96.5z" />
<glyph unicode="&#xfd;" horiz-adv-x="1155" d="M-6 928v35h594v-35q-77 -5 -117.5 -19.5t-40.5 -46.5q0 -13 4.5 -28t14 -39t12.5 -31l221 -561l143 358q72 181 72 250q0 27 -8.5 46.5t-20.5 31.5t-33 20t-39 11.5t-46 7.5v35h426v-35q-45 -7 -80 -24.5t-62 -41.5t-52 -65.5t-45.5 -85.5t-47.5 -113l-309 -780 q-65 -164 -139.5 -243t-190.5 -79q-89 0 -146 52t-57 124q0 64 39 106t96 42q56 0 89.5 -34.5t33.5 -74.5q0 -31 -6.5 -52t-15 -29.5t-15 -15.5t-6.5 -13q0 -11 12.5 -17t28.5 -6q15 0 51 12q63 20 99.5 72.5t72.5 149.5l45 118h-41l-323 824q-2 5 -6 16q-31 78 -53 103 q-42 45 -154 55zM477 1102q133 24 207 135q6 9 24.5 37.5t24 36t21 27t24 25.5t23 16t29 13t32.5 3q35 0 61.5 -22t26.5 -58q0 -57 -73.5 -110.5t-179.5 -88t-218 -47.5z" />
<glyph unicode="&#xfe;" horiz-adv-x="1325" d="M35 -434q51 4 86 10t57.5 17t35 21t18.5 31t7 36t1 47v1503q0 59 -45.5 80t-143.5 26v33q261 6 432 23v-615q48 108 121 159.5t184 51.5q124 0 229 -69t164.5 -183t59.5 -245q0 -114 -41 -213.5t-108 -165t-151 -103t-171 -37.5q-108 0 -174.5 49t-112.5 150v-444 q0 -22 0.5 -32t2 -27t5.5 -25t11 -20t18.5 -17.5t27.5 -13.5t38 -12t50.5 -8t65.5 -7v-33h-667v33zM483 483q0 -225 65.5 -342.5t190.5 -117.5q53 0 102.5 34t78.5 93q49 100 49 337q0 228 -51.5 340.5t-174.5 112.5q-56 0 -108 -33t-88 -94q-64 -110 -64 -330z" />
<glyph unicode="&#xff;" horiz-adv-x="1155" d="M-6 928v35h594v-35q-77 -5 -117.5 -19.5t-40.5 -46.5q0 -13 4.5 -28t14 -39t12.5 -31l221 -561l143 358q72 181 72 250q0 27 -8.5 46.5t-20.5 31.5t-33 20t-39 11.5t-46 7.5v35h426v-35q-45 -7 -80 -24.5t-62 -41.5t-52 -65.5t-45.5 -85.5t-47.5 -113l-309 -780 q-65 -164 -139.5 -243t-190.5 -79q-89 0 -146 52t-57 124q0 64 39 106t96 42q56 0 89.5 -34.5t33.5 -74.5q0 -31 -6.5 -52t-15 -29.5t-15 -15.5t-6.5 -13q0 -11 12.5 -17t28.5 -6q15 0 51 12q63 20 99.5 72.5t72.5 149.5l45 118h-41l-323 824q-2 5 -6 16q-31 78 -53 103 q-42 45 -154 55zM307 1243q0 56 40.5 96.5t98.5 40.5q59 0 99.5 -40.5t40.5 -96.5q0 -57 -41.5 -97t-98.5 -40q-56 0 -97.5 40.5t-41.5 96.5zM700 1243q0 55 40.5 96t99.5 41t99 -40.5t40 -96.5q0 -57 -41 -97t-98 -40t-98.5 40.5t-41.5 96.5z" />
<glyph unicode="&#x152;" horiz-adv-x="2207" d="M88 682q0 136 51 265.5t137 227.5t207.5 158t253.5 60q197 0 369 -123v96h967l4 -496h-35q-40 236 -151 344.5t-312 108.5q-73 0 -111 -5t-64 -23t-33 -48.5t-7 -87.5v-405h39q79 0 133.5 17.5t84.5 40t49 73t24.5 86t13.5 108.5h35v-712h-35q-11 171 -78 257.5 t-225 86.5h-41v-455v-17q0 -36 0.5 -52.5t2.5 -41.5t7 -35t15 -25t24 -20t35.5 -12t50 -8.5t66.5 -1.5q222 0 347.5 127t162.5 385h34l-6 -555h-997v96q-78 -59 -175 -91t-194 -32q-106 0 -206 38t-179 105.5t-139 156t-92.5 194.5t-32.5 215zM373 682q0 -344 85.5 -505 t278.5 -161q194 0 281.5 162t87.5 504q0 343 -87.5 505.5t-281.5 162.5q-193 0 -278.5 -162t-85.5 -506z" />
<glyph unicode="&#x153;" horiz-adv-x="1863" d="M82 481q0 140 77 259t197 185t250 66q97 0 203 -45t180 -127q62 78 160 124t205 46q187 0 310.5 -123t123.5 -305v-47h-668q-4 -50 -4 -86q0 -210 64.5 -311t210.5 -101q148 0 240.5 80t117.5 232h41q-20 -167 -132.5 -261t-285.5 -94q-110 0 -216 45t-169 123 q-76 -82 -180 -125t-201 -43q-129 0 -249 65t-197.5 184t-77.5 259zM354 481q0 -247 57 -356t195 -109q137 0 194.5 110.5t57.5 354.5q0 246 -57.5 356.5t-194.5 110.5t-194.5 -110t-57.5 -357zM1124 557h252q104 0 121 4q32 7 40 40q5 23 5 81q0 264 -192 264 q-117 0 -167.5 -94t-58.5 -295z" />
<glyph unicode="&#x178;" horiz-adv-x="1388" d="M-14 1331v35h665v-35q-31 -3 -44.5 -5t-38 -6t-36 -8.5t-25 -11t-19 -16.5t-5.5 -22q0 -51 33 -115l238 -461l168 287q90 155 90 225q0 63 -48.5 90.5t-136.5 38.5v39h576v-35q-82 -18 -144 -49t-113 -83t-85.5 -101.5t-85.5 -134.5l-197 -334v-422v-5q0 -26 0.5 -37.5 t2.5 -29.5t7 -26t13 -20t22 -17t33 -12.5t46 -11t61 -7t79 -6.5v-35h-786v35q45 3 78.5 6.5t60.5 6.5t45.5 10.5t32.5 12.5t22 17t13 20t7 26.5t2.5 30t0.5 37.5v5v393l-262 502q-38 74 -56.5 105t-49.5 60t-65.5 40.5t-98.5 23.5zM381 1632q0 56 40.5 96.5t98.5 40.5 q59 0 99 -40.5t40 -96.5q0 -57 -41 -97t-98 -40q-56 0 -97.5 40.5t-41.5 96.5zM774 1632q0 55 40 96t99 41t99.5 -40.5t40.5 -96.5q0 -57 -41.5 -97t-98.5 -40t-98 40.5t-41 96.5z" />
<glyph unicode="&#x2c6;" horiz-adv-x="966" d="M145 1100l338 311l336 -311l-22 -19l-314 142l-315 -142z" />
<glyph unicode="&#x2dc;" horiz-adv-x="1079" d="M170 1135q41 109 104.5 168t137.5 59q65 0 130 -23.5t121 -47t101 -23.5q68 0 110 92l33 -10q-28 -107 -97 -168.5t-148 -61.5q-17 0 -33 2t-35.5 7t-27.5 7.5t-32.5 11t-27.5 9.5q-25 9 -59.5 23t-53 21t-43.5 14t-41 4t-35.5 -12.5t-37 -31t-35.5 -55.5z" />
<glyph unicode="&#x2000;" horiz-adv-x="918" />
<glyph unicode="&#x2001;" horiz-adv-x="1837" />
<glyph unicode="&#x2002;" horiz-adv-x="918" />
<glyph unicode="&#x2003;" horiz-adv-x="1837" />
<glyph unicode="&#x2004;" horiz-adv-x="612" />
<glyph unicode="&#x2005;" horiz-adv-x="459" />
<glyph unicode="&#x2006;" horiz-adv-x="306" />
<glyph unicode="&#x2007;" horiz-adv-x="306" />
<glyph unicode="&#x2008;" horiz-adv-x="229" />
<glyph unicode="&#x2009;" horiz-adv-x="367" />
<glyph unicode="&#x200a;" horiz-adv-x="102" />
<glyph unicode="&#x2010;" horiz-adv-x="428" d="M0 408v147h428v-147h-428z" />
<glyph unicode="&#x2011;" horiz-adv-x="428" d="M0 408v147h428v-147h-428z" />
<glyph unicode="&#x2012;" horiz-adv-x="428" d="M0 408v147h428v-147h-428z" />
<glyph unicode="&#x2013;" horiz-adv-x="1236" d="M154 408v147h929v-147h-929z" />
<glyph unicode="&#x2014;" horiz-adv-x="1585" d="M0 412v139h1585v-139h-1585z" />
<glyph unicode="&#x2018;" horiz-adv-x="561" d="M135 1053q0 95 57 184t170 154l21 -35q-164 -99 -164 -193q0 -49 35 -49q2 0 17 5t18 5q137 0 137 -129q0 -39 -39 -76.5t-106 -37.5q-50 0 -98 48t-48 124z" />
<glyph unicode="&#x2019;" horiz-adv-x="561" d="M135 1274q0 40 39.5 77.5t106.5 37.5q50 0 97.5 -48t47.5 -124q0 -96 -57.5 -185t-169.5 -153l-21 34q164 101 164 193q0 49 -35 49q-1 0 -17 -5t-20 -5q-135 0 -135 129z" />
<glyph unicode="&#x201a;" horiz-adv-x="561" d="M135 119q0 40 39.5 77t106.5 37q50 0 97.5 -49t47.5 -125q0 -95 -57 -184.5t-170 -153.5l-21 35q164 101 164 195q0 47 -35 47q-2 0 -18 -4t-19 -4q-135 0 -135 129z" />
<glyph unicode="&#x201c;" horiz-adv-x="940" d="M135 1053q0 95 57 184t170 154l21 -35q-164 -99 -164 -193q0 -49 35 -49q2 0 17 5t18 5q137 0 137 -129q0 -39 -39 -76.5t-106 -37.5q-50 0 -98 48t-48 124zM514 1055q0 95 57.5 184.5t169.5 153.5l21 -35q-164 -104 -164 -195q0 -24 7.5 -35.5t27.5 -11.5q2 0 18 5t19 5 q135 0 135 -131q0 -39 -39.5 -75.5t-106.5 -36.5q-51 0 -98 48t-47 124z" />
<glyph unicode="&#x201d;" horiz-adv-x="940" d="M135 1272q0 40 39.5 78.5t106.5 38.5q49 0 97 -49t48 -126q0 -95 -57 -184t-170 -153l-21 34q164 101 164 195q0 47 -35 47q-2 0 -18 -4t-19 -4q-135 0 -135 127zM514 1274q0 40 39 77.5t106 37.5q50 0 98 -48t48 -124q0 -96 -57.5 -185t-169.5 -153l-21 34 q164 101 164 193q0 49 -35 49q-2 0 -16 -5t-19 -5q-137 0 -137 129z" />
<glyph unicode="&#x201e;" horiz-adv-x="940" d="M135 117q0 40 39.5 77t106.5 37q50 0 97.5 -48t47.5 -124q0 -96 -57 -185t-170 -153l-21 35q164 101 164 193q0 49 -35 49q-1 0 -17 -5t-20 -5q-135 0 -135 129zM514 119q0 40 39 77t106 37q50 0 98 -49t48 -125q0 -95 -57 -184.5t-170 -153.5l-21 35q164 101 164 195 q0 24 -7.5 35.5t-27.5 11.5q-2 0 -17 -4t-18 -4q-137 0 -137 129z" />
<glyph unicode="&#x2022;" horiz-adv-x="1024" d="M254 676q0 107 76 182.5t182 75.5t182 -75t76 -181q0 -107 -76 -182.5t-182 -75.5t-182 75t-76 181z" />
<glyph unicode="&#x2026;" horiz-adv-x="2021" d="M143 129q0 58 44 99.5t106 41.5q63 0 105 -41t42 -100t-42.5 -101t-104.5 -42t-106 42.5t-44 100.5zM862 129q0 58 43 99.5t105 41.5q63 0 106 -41t43 -100t-43 -101t-106 -42q-62 0 -105 42.5t-43 100.5zM1581 129q0 58 43 99.5t105 41.5q63 0 106 -41t43 -100t-43 -101 t-106 -42q-62 0 -105 42.5t-43 100.5z" />
<glyph unicode="&#x202f;" horiz-adv-x="367" />
<glyph unicode="&#x2039;" horiz-adv-x="565" d="M88 475l342 387l33 -10l-178 -377l178 -362l-33 -11z" />
<glyph unicode="&#x203a;" horiz-adv-x="565" d="M102 113l179 362l-179 377l35 10l340 -387l-340 -373z" />
<glyph unicode="&#x205f;" horiz-adv-x="459" />
<glyph unicode="&#x20ac;" horiz-adv-x="1300" d="M14 557v57h140q-2 20 -2 60q0 59 8 106h-146v58h156q23 107 77.5 206t132 177t181 125t215.5 47q127 0 246 -78q6 -4 20 -13.5t20.5 -13.5t16.5 -9.5t18 -8t15 -2.5q40 0 80 110h31l4 -473h-35q-64 225 -174 335t-232 110q-55 0 -101.5 -18t-79 -46.5t-59 -71.5 t-43 -86.5t-28.5 -97t-18.5 -97.5t-10.5 -95h496v-58h-502q-4 -82 -4 -106v-60h506v-57h-504q1 -59 5 -106.5t13.5 -106t25 -102.5t43 -88.5t63.5 -73t89.5 -46.5t119.5 -18q162 0 271 108t132 308h43q-8 -78 -29 -145t-59.5 -125.5t-92 -100t-129.5 -65t-169 -23.5 q-117 0 -223 49t-183 131t-128.5 186.5t-69.5 217.5h-146z" />
<glyph unicode="&#x2122;" horiz-adv-x="2330" d="M29 1040v326h833v-326h-24q-27 144 -89.5 222.5t-156.5 78.5h-53v-636v-20.5t1 -16.5t3 -14.5t6.5 -11t11 -10.5t17 -7.5t23.5 -6.5t31.5 -4.5t41 -4.5t51.5 -3v-18h-557v18q29 2 51.5 3t41 4.5t31.5 4.5t23.5 6.5t17 7.5t11 10.5t6.5 11t3 14.5t1 16.5v20.5v636h-51 q-94 0 -157 -78t-91 -223h-26zM926 588v16q66 9 103 29t58 69t21 134v413q0 21 -0.5 27.5t-3 20.5t-9 18t-18 11.5t-30.5 10t-46 6t-65 5.5v18h379l229 -553l230 553h364v-18q-50 -3 -80.5 -8.5t-48 -10.5t-24.5 -19.5t-8 -24t-1 -36.5v-547q0 -20 0.5 -27.5t3 -20t9 -17 t17 -11.5t29 -9.5t43 -5.5t60.5 -5v-18h-504v18q62 4 93.5 8.5t46.5 18t16.5 25t1.5 44.5v613l-303 -742h-35l-305 742v-479q0 -53 5 -87t22 -68.5t54 -53.5t95 -23v-16h-399z" />
<glyph unicode="&#x25fc;" horiz-adv-x="962" d="M0 0v963h963v-963h-963z" />
</font>
</defs>
</svg>
