<?xml version="1.0" standalone="no"?>
<!DOCTYPE svg PUBLIC "-//W3C//DTD SVG 1.1//EN" "http://www.w3.org/Graphics/SVG/1.1/DTD/svg11.dtd" >
<svg xmlns="http://www.w3.org/2000/svg">
<metadata></metadata>
<defs>
<font id="monotype_modernbold" horiz-adv-x="1044" >
<font-face units-per-em="2048" ascent="1638" descent="-410" />
<missing-glyph horiz-adv-x="450" />
<glyph horiz-adv-x="2048" />
<glyph horiz-adv-x="2048" />
<glyph unicode="&#xd;" horiz-adv-x="2048" />
<glyph unicode=" "  horiz-adv-x="450" />
<glyph unicode="&#x09;" horiz-adv-x="450" />
<glyph unicode="&#xa0;" horiz-adv-x="450" />
<glyph unicode="!" horiz-adv-x="575" d="M154 106q0 56 39 95t94 39q57 0 96 -39t39 -95q0 -57 -39 -96t-96 -39q-56 0 -94.5 39t-38.5 96zM160 1075q0 83 33 131.5t90 48.5q59 0 95 -49.5t36 -132.5q0 -77 -33 -227q-34 -154 -46 -245t-20 -228h-59q-11 232 -66 499q-30 145 -30 203z" />
<glyph unicode="&#x22;" horiz-adv-x="1136" d="M330 1335q0 39 7 65.5t20 38t25 15.5t28 4t27.5 -4t24.5 -15.5t20 -38t7 -65.5q0 -27 -6 -104t-16 -191t-14 -166q-6 -63 -43 -63t-43 63q-4 55 -14 167t-16.5 189.5t-6.5 104.5zM647 1335q0 39 7 65.5t20 38t25 15.5t28 4t28 -4t25 -15.5t20 -38t7 -65.5 q0 -27 -6.5 -104.5t-16.5 -189.5t-14 -167q-6 -63 -43 -63t-43 63q-4 55 -14 167t-16.5 189.5t-6.5 104.5z" />
<glyph unicode="#" horiz-adv-x="1368" d="M180 571h230l41 291h-209l-2 127h227l61 445h138l-62 -445h254l62 445h137l-62 -445h191l2 -127h-211l-41 -291h190l2 -127h-208l-64 -444h-135l61 444h-254l-63 -444h-135l61 444h-209zM545 571h256l41 291h-256z" />
<glyph unicode="$" d="M72 295q0 65 39 109.5t96 44.5q50 0 82.5 -32t32.5 -81q0 -38 -14.5 -63.5t-51.5 -53.5q-26 -18 -34.5 -30.5t-8.5 -30.5q0 -43 52.5 -80t129.5 -49v510q-27 13 -43 21.5t-50.5 31t-57 42.5t-52 53.5t-47.5 69t-30.5 84t-12.5 101.5q0 134 80 227.5t213 149.5v92h62v-80 q52 5 112 2v78h62v-84q62 -10 115.5 -32t98 -57.5t70 -88.5t25.5 -117q0 -57 -36 -98t-87 -41q-50 0 -81 31t-31 82q0 50 47 102q34 39 34 66q0 67 -155 90v-461q85 -34 128.5 -59.5t88.5 -69.5q125 -122 125 -273q0 -214 -154 -340q-41 -34 -78.5 -52t-107.5 -38v-170h-62 v160q-62 -5 -114 -2v-158h-62v164q-79 20 -120 38t-82 50q-121 98 -121 242zM274 1071q0 -46 33.5 -93t87.5 -75v346q-121 -69 -121 -178zM457 18q38 -2 114 7v440l-114 47v-494zM457 877l112 -46v441q-69 3 -112 -4v-391zM633 39q74 25 121 82t47 121q0 133 -168 194v-397z " />
<glyph unicode="%" horiz-adv-x="2068" d="M92 1034q0 166 102 271.5t263 105.5t263.5 -103t102.5 -266q0 -164 -103 -267t-267 -103q-155 0 -258 103t-103 259zM365 928q0 -119 20 -165t72 -46q54 0 74 45t20 164v188q0 143 -20 197.5t-74 54.5q-64 0 -78 -53.5t-14 -214.5v-170zM453 -78l1015 1489h144 l-1010 -1489h-149zM1247 287q0 166 102 271.5t263 105.5t263.5 -103t102.5 -266q0 -164 -103 -267.5t-267 -103.5q-155 0 -258 103t-103 260zM1520 180q0 -119 20 -165t72 -46q54 0 74 45t20 164v189q0 143 -20 197t-74 54q-64 0 -78 -53.5t-14 -214.5v-170z" />
<glyph unicode="&#x26;" horiz-adv-x="1628" d="M154 287q0 55 14.5 107.5t35 92.5t54.5 79.5t62 65t68 54t61.5 42t54.5 32.5q-96 182 -96 305q0 140 84.5 220.5t232.5 80.5q118 0 191 -62.5t73 -162.5q0 -54 -20 -100.5t-62 -87t-76.5 -66t-93.5 -62.5l267 -458q40 60 64.5 101.5t48.5 100.5t24 103q0 137 -158 143v62 h496v-62q-98 -7 -160 -67.5t-152 -227.5q-78 -144 -127 -215q37 -62 57.5 -93.5t51.5 -68t62 -52t67 -15.5q77 0 128 95t52 245h60q-1 -82 -8.5 -127.5t-26.5 -95.5q-45 -111 -127.5 -167.5t-173.5 -56.5q-63 0 -108 16t-78 41.5t-109 94.5q-180 -152 -383 -152 q-156 0 -253 88.5t-97 229.5zM377 440q0 -83 41 -165.5t105.5 -134.5t129.5 -52q106 0 195 86q-164 255 -281 463l-35 65q-155 -115 -155 -262zM610 1165q0 -118 99 -280q131 88 131 250q0 72 -34.5 120t-86.5 48q-49 0 -79 -38t-30 -100z" />
<glyph unicode="'" horiz-adv-x="569" d="M205 1335q0 39 7 65.5t20 38t25 15.5t28 4t28 -4t25 -15.5t20 -38t7 -65.5q0 -27 -6.5 -104.5t-16.5 -189.5t-14 -167q-6 -63 -43 -63t-43 63q-4 55 -14 167t-16.5 189.5t-6.5 104.5z" />
<glyph unicode="(" horiz-adv-x="917" d="M193 504q0 215 102 418q73 144 153 234t254 224h62q-32 -39 -48 -60t-58 -81t-68.5 -108t-63 -126.5t-58 -151t-37 -167t-15.5 -188.5q0 -206 76 -410q51 -142 105 -233t173 -238h-61q-46 35 -76 59t-89.5 78.5t-100.5 103t-92 123.5t-82.5 150t-53.5 173t-22 200z" />
<glyph unicode=")" horiz-adv-x="917" d="M147 -383q120 148 174 239t105 232q76 204 76 410q0 94 -15.5 188.5t-37 167t-58 151t-63 126.5t-68.5 108t-58 81t-48 60h61q174 -134 254.5 -224t153.5 -234q102 -203 102 -418q0 -102 -22 -200t-53.5 -173t-82.5 -150t-92 -123.5t-100.5 -103t-89.5 -78.5t-76 -59h-62 z" />
<glyph unicode="*" d="M111 768q0 121 163 133q84 4 131.5 15.5t83.5 33.5q-82 47 -223 58q-78 4 -116.5 39t-38.5 81t31 75.5t81 29.5q37 0 71.5 -27.5t78.5 -93.5q39 -58 65.5 -84.5t65.5 -46.5q-2 51 -11.5 87.5t-39.5 102.5q-37 80 -37 125q0 48 31 82.5t75 34.5t75.5 -34t31.5 -83 q0 -40 -41 -133q-24 -56 -35.5 -92t-13 -51.5t-0.5 -38.5q38 20 66 47.5t71 85.5q46 66 79.5 91.5t73.5 25.5q43 0 74 -28.5t31 -69.5t-27 -74t-71 -47q-22 -6 -70 -8q-62 -5 -108.5 -16t-60.5 -17.5t-40 -20.5q27 -21 65 -31.5t121 -19.5q37 -3 60.5 -7.5t58.5 -17 t53.5 -38.5t18.5 -64q0 -43 -31.5 -72.5t-77.5 -29.5q-43 0 -75 23.5t-76 88.5q-39 60 -66 87.5t-69 50.5q0 -47 10 -84.5t41 -106.5q39 -82 39 -125q0 -46 -32.5 -80.5t-76.5 -34.5q-46 0 -76 33t-30 84q0 45 37 123q31 63 40.5 97.5t12.5 93.5q-36 -18 -61.5 -44 t-71.5 -88q-49 -67 -82 -91.5t-72 -24.5q-44 0 -75 28t-31 68z" />
<glyph unicode="+" horiz-adv-x="1366" d="M168 442v152h440v442h152v-442h440v-152h-440v-442h-152v442h-440z" />
<glyph unicode="," horiz-adv-x="575" d="M141 102q0 57 41.5 97.5t100.5 40.5q75 0 127.5 -64.5t52.5 -155.5q0 -156 -131 -268q-43 -34 -81 -52t-110 -38v59q57 19 85.5 33.5t58.5 40.5q38 32 61 73t23 75q0 19 -8 31t-19 12q-8 0 -24.5 -6.5t-18.5 -6.5q-16 -4 -41 -4q-47 0 -82 39.5t-35 93.5z" />
<glyph unicode="-" horiz-adv-x="811" d="M164 365v157h483v-157h-483z" />
<glyph unicode="." horiz-adv-x="575" d="M154 104q0 56 40 96t95 40t95 -40t40 -96t-40 -95.5t-95 -39.5t-95 39.5t-40 95.5z" />
<glyph unicode="/" horiz-adv-x="811" d="M-43 -502l618 1909h117l-618 -1909h-117z" />
<glyph unicode="0" d="M57 641q0 155 38.5 286.5t103 219t148.5 135t175 43.5q211 -8 339 -198t128 -496q0 -192 -60 -346t-166 -241t-237 -87q-209 0 -339 189.5t-130 494.5zM391 276q0 -260 137 -260q127 0 127 293v711q0 117 -35 181.5t-98 64.5q-64 0 -97.5 -66.5t-33.5 -191.5v-732z" />
<glyph unicode="1" d="M127 0v66h78q66 0 100.5 35.5t34.5 103.5v885q0 143 -125 143h-88v61h109q98 0 201.5 9t158.5 22h51v-1114q0 -78 29.5 -113t95.5 -35h82v-63h-727z" />
<glyph unicode="2" d="M29 0q93 178 301 393q38 39 56 58.5t50.5 59t49 67.5t39.5 72t34 86t19 97t8 115q0 138 -55 212.5t-158 74.5q-78 0 -149.5 -62t-71.5 -129q0 -14 8.5 -24t21.5 -10q6 0 25 8q41 18 72 18q62 0 101.5 -41.5t39.5 -105.5q0 -69 -44 -116.5t-108 -47.5q-88 0 -141 69 t-53 183q0 157 114.5 252.5t303.5 95.5q200 0 325 -99t125 -257q0 -40 -9 -77t-22 -66.5t-39 -62t-48.5 -55.5t-62.5 -55t-69.5 -53.5t-79.5 -56.5q-136 -96 -197.5 -151.5t-103.5 -115.5h482q18 0 31 4t22.5 17t14.5 23.5t9 38.5t6 46.5t5 61.5h63l-51 -467h-864z" />
<glyph unicode="3" d="M47 260q0 94 49 151.5t131 57.5q61 0 104.5 -43.5t43.5 -103.5q0 -51 -21 -84.5t-75 -65.5q-32 -19 -44 -33t-12 -33q0 -34 56 -61t124 -27q86 0 144.5 82.5t58.5 204.5v117q0 80 -45 138t-106 58q-9 0 -62.5 -10t-62.5 -10q-22 0 -35.5 10t-13.5 25q0 25 21 36.5 t73 14.5q123 6 169 61t46 193q0 167 -41.5 245.5t-130.5 78.5q-69 0 -131 -30.5t-62 -64.5q0 -14 8 -21.5t20 -10t46 -7.5q61 -10 93 -44t32 -87q0 -63 -46 -106t-112 -43q-75 0 -129.5 58t-54.5 138q0 124 111.5 203.5t285.5 79.5q186 0 314.5 -99.5t128.5 -244.5 q0 -45 -14.5 -85t-35.5 -68.5t-55.5 -54.5t-63 -42t-70 -31.5t-65.5 -22.5t-59 -17q83 -6 127.5 -16t95.5 -32q93 -43 139 -112t46 -154q0 -109 -68 -199t-186.5 -142t-261.5 -52q-172 0 -288 87.5t-116 217.5z" />
<glyph unicode="4" d="M66 324v157l622 842h109v-870h209v-129h-215v-127q0 -136 141 -136h59v-61h-702v61h67q69 0 106.5 35t37.5 99v129h-434zM123 453h381v516z" />
<glyph unicode="5" d="M43 244q0 73 47.5 122.5t118.5 49.5q66 0 113 -43.5t47 -104.5q0 -78 -72 -133q-33 -24 -33 -43q0 -28 43.5 -48.5t100.5 -20.5q110 0 168.5 99.5t58.5 287.5q0 180 -50.5 266t-156.5 86q-70 0 -123.5 -38.5t-81.5 -109.5q-12 -29 -22 -39t-25 -10q-29 0 -29 25 q0 8 11 53t12 51l80 609l78 -17q269 -57 391 -57q60 0 89 16.5t48 59.5h64q-8 -33 -13.5 -50.5t-20 -54t-30 -58.5t-43.5 -51t-61.5 -45t-83.5 -28t-109 -12q-107 0 -280 30l-37 -286q105 94 262 94q198 0 332.5 -121t134.5 -299q0 -125 -72 -232t-194.5 -170t-264.5 -63 q-164 0 -280.5 83.5t-116.5 201.5z" />
<glyph unicode="6" d="M72 610q0 203 68.5 368t189.5 258t270 93q151 0 245.5 -65.5t94.5 -169.5q0 -62 -46 -106t-110 -44q-59 0 -102 41t-43 96t55 107q21 21 21 31q0 20 -25 33.5t-63 13.5q-73 0 -131 -58q-58 -59 -73.5 -155.5t-10.5 -323.5q55 58 104 81.5t117 23.5q99 0 187 -58t141 -155 t53 -205q0 -187 -133 -323t-316 -136q-218 0 -355.5 181.5t-137.5 471.5zM410 272q0 -121 34.5 -186.5t98.5 -65.5q135 0 135 259v174q0 166 -24 235.5t-81 69.5q-56 0 -109.5 -66t-53.5 -135v-285z" />
<glyph unicode="7" d="M106 793l21 534h59q3 -21 17 -35q17 -10 45 -10h778v-10q-153 -293 -231 -539t-80 -383l-4 -164q-1 -110 -41.5 -169.5t-114.5 -59.5q-71 2 -113.5 49.5t-42.5 126.5q0 82 61.5 215.5t205.5 362.5q7 12 25.5 42t23 37.5t18.5 30t18 29t14.5 24t15 25.5t13 23t14.5 27 l13.5 27t16.5 32h-578q-59 0 -72.5 -29t-19.5 -154v-32h-62z" />
<glyph unicode="8" d="M68 283q0 43 15 81t36 66.5t60 59.5t71.5 52t85.5 52q-125 85 -180.5 167t-55.5 183q0 171 113 276t297 105q170 0 293 -92t123 -219q0 -41 -13 -78t-31.5 -63t-50 -52.5t-57 -43t-63.5 -38.5q58 -29 88 -50t65 -58q115 -121 115 -273q0 -179 -131.5 -290t-343.5 -111 q-181 0 -308.5 96t-127.5 230zM250 303q0 -123 78.5 -203t201.5 -80q114 0 182 53t68 142q0 44 -19.5 84t-49 71t-81.5 64.5t-100 58t-122 58.5q-158 -74 -158 -248zM291 1073q0 -34 25 -71t57 -65t86.5 -62.5t88.5 -52.5t89 -46q68 53 98.5 108t30.5 124q0 106 -76.5 181 t-185.5 75q-91 0 -152 -54.5t-61 -136.5z" />
<glyph unicode="9" d="M51 872q0 187 135.5 321t323.5 134q134 0 244 -83t172.5 -229t62.5 -323q0 -213 -66.5 -381t-186.5 -261t-273 -93q-154 0 -250 64t-96 165q0 63 46.5 110.5t108.5 47.5q60 0 104 -40.5t44 -96.5q0 -69 -53 -113q-21 -14 -23 -31q2 -19 26.5 -32t59.5 -13t73 17t68 45 q47 47 64.5 128.5t17.5 254.5v88q-100 -100 -229 -100q-97 0 -183.5 58.5t-138 156t-51.5 206.5zM389 752q0 -226 96 -226q48 0 97 49q33 33 47 69.5t22 107.5v323q0 77 -38.5 133t-90.5 56q-60 0 -96.5 -57.5t-36.5 -151.5v-303z" />
<glyph unicode=":" horiz-adv-x="575" d="M152 109q0 55 40 95t95 40t95 -40t40 -95q0 -56 -40 -96t-95 -40t-95 40t-40 96zM154 725q0 56 39 95.5t96 39.5q55 0 95 -40t40 -95t-40 -95t-95 -40q-57 0 -96 39.5t-39 95.5z" />
<glyph unicode=";" horiz-adv-x="575" d="M141 100q0 57 41.5 97.5t100.5 40.5q75 0 127.5 -64.5t52.5 -155.5q0 -156 -131 -268q-43 -34 -81 -52t-110 -38v59q57 19 85.5 33.5t58.5 40.5q38 32 61 73t23 75q0 19 -8 31t-19 12q-8 0 -24.5 -6.5t-18.5 -6.5q-16 -4 -41 -4q-47 0 -82 39.5t-35 93.5zM164 725 q0 55 40 95t95 40t95 -40t40 -95t-40 -95t-95 -40t-95 40t-40 95z" />
<glyph unicode="&#x3c;" horiz-adv-x="1366" d="M164 449v139l1040 465v-154l-850 -381l850 -381v-153z" />
<glyph unicode="=" horiz-adv-x="1366" d="M98 240v151h1032v-151h-1032zM98 645v152h1032v-152h-1032z" />
<glyph unicode="&#x3e;" horiz-adv-x="1366" d="M164 -16v153l850 381l-850 381v154l1040 -465v-139z" />
<glyph unicode="?" horiz-adv-x="917" d="M135 1008q0 120 97 193t255 73q152 0 260.5 -94t108.5 -226q0 -52 -14.5 -97t-33.5 -75.5t-52.5 -61t-58 -47.5t-62.5 -40q-72 -48 -88 -68q-53 -69 -53 -153v-39h-60v174q0 104 14 161t41 87.5t86 66.5q72 43 101 80t29 88q0 78 -66 130t-166 52q-88 0 -149.5 -29.5 t-61.5 -70.5q0 -24 72 -43q80 -26 80 -102q0 -46 -38.5 -79.5t-92.5 -33.5q-62 0 -105 45t-43 109zM342 104q0 56 39 95t94 39t94 -39t39 -95t-39 -94.5t-94 -38.5t-94 38.5t-39 94.5z" />
<glyph unicode="@" horiz-adv-x="1904" d="M205 686q0 169 63.5 315t171 245.5t250.5 155.5t301 56q196 0 358.5 -81.5t256.5 -227t94 -324.5q0 -66 -16.5 -136.5t-51 -137.5t-81 -120t-113 -85.5t-140.5 -32.5q-50 0 -90.5 19.5t-61.5 46t-31.5 50t-8.5 36.5h-12q-12 -37 -84 -90t-154 -58q-23 -1 -47 3t-54.5 20 t-53.5 43t-38.5 78t-15.5 119q0 51 16 116t51 136.5t83 130.5t120.5 98t155.5 39q43 0 73.5 -16.5t43.5 -35t30 -49.5q3 -7 5 -10l20 82h152l-140 -541q-4 -18 -4.5 -38t4.5 -44.5t24 -40.5t50 -16q78 0 142 66.5t96.5 165t32.5 202.5q0 97 -43 195.5t-119 181.5t-194 135 t-255 52q-124 0 -234.5 -48.5t-195.5 -139t-134.5 -230t-49.5 -309.5q0 -118 49 -228.5t133 -193t202.5 -132t250.5 -49.5q133 0 226.5 25.5t199.5 77.5l24 -62q-235 -125 -446 -125q-161 0 -298.5 46t-230 120.5t-158 169t-95 190t-29.5 185.5zM807 592q0 -89 36.5 -134.5 t94.5 -45.5q76 0 151 121t95 329q0 70 -21 104.5t-69 34.5q-39 0 -88 -29.5t-93.5 -80.5t-75 -130.5t-30.5 -168.5z" />
<glyph unicode="A" horiz-adv-x="1492" d="M53 0v61q24 3 42 6.5t51 19t59.5 40t57.5 72t54 112.5l385 1084h144l403 -1186q50 -148 162 -148h31v-61h-647v61h49q104 0 104 54q0 24 -8 45l-80 239h-444q-45 -113 -45 -170q0 -159 215 -168v-61h-533zM451 498h376l-182 542z" />
<glyph unicode="B" horiz-adv-x="1386" d="M61 0v61h91q78 0 102.5 28.5t24.5 119.5v962q0 85 -31.5 116.5t-114.5 31.5h-67v61h745q200 0 325.5 -96t125.5 -248q0 -65 -27.5 -119.5t-69.5 -89.5t-94.5 -60t-101 -35.5t-90.5 -10.5q85 0 163 -22t141.5 -64.5t101.5 -113.5t38 -161q0 -166 -137 -263t-369 -97h-756z M602 170q0 -63 25 -86t94 -23q30 0 48.5 1t45.5 7.5t44 18.5t36.5 35.5t30.5 57t18.5 84.5t7.5 116q0 309 -184 309h-166v-520zM602 752h143q162 0 162 280q0 47 -4.5 85.5t-11 66.5t-17.5 50t-21 36t-25.5 24t-26 14.5t-27.5 7t-25.5 3t-23.5 0.5q-75 0 -99 -23t-24 -96 v-448z" />
<glyph unicode="C" horiz-adv-x="1153" d="M104 631q0 350 134 549q158 235 383 235q86 0 148.5 -31t131.5 -108q58 55 109 135h61v-620h-59q-23 142 -41 206.5t-56 141.5q-38 79 -106 143t-143 64q-57 0 -103 -46q-80 -83 -80 -454v-354q0 -172 19 -265t63 -139q55 -55 127 -55q129 0 227 137t107 332h61 q-9 -243 -139 -394t-330 -151q-231 0 -372.5 185.5t-141.5 488.5z" />
<glyph unicode="D" horiz-adv-x="1492" d="M51 0v61h70q83 0 114 32.5t31 117.5v960q0 82 -36 115t-124 33h-53v61h717q293 0 466 -184t173 -496q0 -331 -172 -515.5t-481 -184.5h-705zM590 180q0 -69 24 -94t93 -25q68 0 116 10t85.5 36.5t60 67t37.5 109t20.5 154t5.5 209.5v148q0 130 -9.5 216.5t-30.5 149 t-60.5 95.5t-93.5 48t-136 15q-63 0 -87.5 -22.5t-24.5 -79.5v-1037z" />
<glyph unicode="E" horiz-adv-x="1386" d="M59 0v61h105q78 0 102.5 28.5t24.5 119.5v962q0 85 -31.5 116.5t-114.5 31.5h-82l-2 61h1217v-508h-64q-46 210 -155 322q-66 68 -136 96.5t-171 28.5q-83 0 -110.5 -21.5t-27.5 -87.5v-479h35q26 0 68 15.5t71 35.5q37 26 61 59.5t35.5 74.5t15.5 64t7 62h62v-702h-64 q0 42 -8.5 84.5t-29.5 87.5t-53 78.5t-83.5 55.5t-116.5 22v-510q0 -50 23 -73.5t72 -23.5h112q36 0 78.5 13t95 46.5t98.5 83t86.5 130.5t61.5 180h64v-514h-1246z" />
<glyph unicode="F" horiz-adv-x="1259" d="M51 0v61h88q78 0 102.5 28.5t24.5 119.5v962q0 85 -31 116.5t-114 31.5h-68v61h1155v-508h-63q-20 92 -35 137.5t-43 90.5q-35 62 -82 108t-92.5 68.5t-82.5 32.5t-67 10h-63q-43 0 -68.5 -21t-25.5 -57v-512h51q92 0 154 85.5t71 225.5h62v-704h-62q-6 148 -70 240 t-159 92h-45v-459q0 -97 19.5 -122.5t92.5 -25.5h123v-61h-772z" />
<glyph unicode="G" horiz-adv-x="1386" d="M109 651q0 220 72.5 394t203.5 271t297 97q184 0 330 -168q76 67 125 168h59v-627h-57q-22 118 -42.5 181.5t-58.5 132.5q-64 116 -152 181t-175 65q-123 0 -173.5 -116.5t-50.5 -398.5v-385q0 -152 19 -234t65 -132q51 -51 119 -51q88 0 144.5 65.5t56.5 165.5v174 q0 50 -20.5 70t-69.5 20h-49l2 62h598v-62h-66q-51 0 -69.5 -20t-18.5 -76v-471h-61q-22 77 -52.5 122.5t-80.5 72.5q-23 -27 -42 -46.5t-57.5 -50t-77 -50t-94.5 -34t-117 -14.5q-44 0 -89 9.5t-95.5 32.5t-96 58t-87.5 90.5t-72.5 125.5t-48.5 167t-18 211z" />
<glyph unicode="H" horiz-adv-x="1622" d="M51 0v61h88q78 0 102.5 28.5t24.5 119.5v962q0 85 -31 116.5t-114 31.5h-66v61h711v-61h-31q-83 0 -114 -31.5t-31 -116.5v-407h442v407q0 85 -31 116.5t-114 31.5h-29v61h713v-61h-70q-83 0 -114 -31.5t-31 -116.5v-962q0 -92 24 -120t101 -28h90v-61h-715v61h57 q75 0 97 27t22 121v440h-442v-440q0 -97 19.5 -122.5t92.5 -25.5h62v-61h-713z" />
<glyph unicode="I" horiz-adv-x="811" d="M49 0v61h68q78 0 102.5 28.5t24.5 119.5v962q0 85 -31.5 116.5t-114.5 31.5h-49v61h715v-61h-51q-83 0 -114.5 -31.5t-31.5 -116.5v-962q0 -98 18.5 -123t92.5 -25h86v-61h-715z" />
<glyph unicode="J" d="M57 297q0 86 53 146.5t128 60.5q69 0 113 -43t44 -109q0 -53 -25 -88.5t-85 -66.5q-38 -21 -52 -36t-14 -36q0 -37 49.5 -69.5t104.5 -32.5q131 0 131 186q0 10 -2 68.5t-2 68.5q2 156 2 463q0 287 -2 352t-13 99q-22 59 -133 59h-53v61h709v-61h-41q-83 0 -114.5 -31.5 t-31.5 -116.5v-786q0 -195 -110.5 -312.5t-294.5 -117.5q-157 0 -259 96.5t-102 245.5z" />
<glyph unicode="K" horiz-adv-x="1622" d="M68 0v61h88q78 0 102.5 28.5t24.5 119.5v962q0 85 -31.5 116.5t-114.5 31.5h-65v61h727v-61h-47q-83 0 -114.5 -31.5t-31.5 -116.5v-528l355 401q63 71 86.5 109.5t23.5 69.5q0 93 -121 96v61h531v-61q-39 -2 -63 -4.5t-73 -19t-94 -46.5q-45 -32 -93 -81t-218 -238 l387 -656q56 -96 99 -143t75 -58.5t84 -11.5v-61h-682v61h29q110 0 110 60q0 29 -18 63l-295 504l-123 -139v-340q0 -97 19 -122.5t92 -25.5h61v-61h-710z" />
<glyph unicode="L" horiz-adv-x="1259" d="M51 0v61h88q78 0 102.5 28.5t24.5 119.5v962q0 85 -31 116.5t-114 31.5h-68v61h752v-61h-70q-85 0 -117 -32.5t-32 -115.5v-966q0 -69 36.5 -106.5t102.5 -37.5q153 0 272.5 137.5t147.5 344.5h61v-543h-1155z" />
<glyph unicode="M" horiz-adv-x="1728" d="M49 0v61q38 2 68.5 14.5t50.5 29.5t35.5 45t23 49.5t13 55.5t7 50.5t3.5 46.5v819q0 85 -31.5 116.5t-114.5 31.5h-51v61h576l233 -837l236 837h583v-61h-55q-83 0 -114 -31.5t-31 -116.5v-962q0 -92 24 -120t101 -28h75v-61h-708v61h84q75 0 97 27t22 121v1075 q0 35 -15 35q-16 0 -26 -39l-359 -1280h-65l-357 1280q-10 37 -24 37q-8 0 -13.5 -12.5t-5.5 -30.5v-930q0 -131 52 -207t141 -76h20v-61h-475z" />
<glyph unicode="N" horiz-adv-x="1386" d="M45 0v61q53 9 91 32t60 51.5t35.5 71.5t18 81t6.5 92v625q0 49 -5 90.5t-12.5 71t-20 53t-24 38.5t-29.5 25.5t-30 15.5t-31.5 7.5t-29 3t-27.5 0.5v61h424l604 -999l-6 561q-1 87 -14.5 151.5t-34 103.5t-53.5 65t-64.5 37.5t-75.5 19.5v61h514v-61 q-116 -22 -164.5 -92.5t-48.5 -218.5l11 -1031h-160l-666 1100l9 -665q1 -123 42.5 -207t118.5 -121q37 -18 99 -23v-61h-537z" />
<glyph unicode="O" horiz-adv-x="1386" d="M94 676q0 181 48 324.5t131 233.5t191 136q99 42 212 41h20q287 -8 442.5 -198.5t155.5 -536.5q0 -335 -159.5 -527t-440.5 -192q-278 0 -439 193t-161 526zM473 592q0 -79 2 -138t7 -121.5t14.5 -107t25.5 -85.5t38.5 -66t54 -39.5t71.5 -14.5q89 0 137.5 53.5t70 175.5 t21.5 343v211q0 215 -19.5 330t-65.5 165t-132 50q-126 0 -175.5 -118.5t-49.5 -416.5v-221z" />
<glyph unicode="P" horiz-adv-x="1259" d="M49 1319v61h680q224 0 358 -99.5t134 -266.5q0 -159 -107 -260q-71 -68 -185.5 -99.5t-291.5 -31.5h-66q1 -53 1 -129t-0.5 -167.5t-0.5 -127.5q0 -89 20.5 -113.5t92.5 -24.5h100v-61h-733v61h72q77 0 101 28t24 120v960q0 86 -30.5 118t-113.5 32h-55zM569 684h39 q28 0 42.5 0.5t40.5 3t40 7.5t35.5 15t33.5 24.5t26.5 37t22 51.5t12.5 68.5t5 87.5q0 233 -67 297q-23 24 -54.5 33.5t-87.5 9.5q-53 0 -70.5 -15t-17.5 -59v-561z" />
<glyph unicode="Q" horiz-adv-x="1386" d="M94 678q0 343 160.5 539t441.5 196q277 0 436.5 -196t159.5 -537q0 -330 -151 -518q-35 -42 -66.5 -69.5t-89.5 -65.5q81 -137 114 -177t77 -40q40 0 62 42t22 117v92h63v-69q0 -175 -83.5 -278t-225.5 -103q-91 0 -156.5 43t-97.5 125q-17 40 -23 75t-8 103h-51 q-45 0 -92.5 8t-106 29.5t-111.5 55t-104 90.5t-88 129.5t-59.5 178t-22.5 230.5zM473 569q0 -171 19 -280q28 51 66 74.5t95 23.5q63 0 114.5 -38t117.5 -134q28 109 28 315v316q0 278 -49 392t-168 114q-125 0 -174 -124t-49 -440v-219zM524 199q0 -85 46.5 -133 t129.5 -48q23 0 27 2.5t4 14.5v84q0 86 -29.5 138t-78.5 52q-41 0 -70 -32t-29 -78z" />
<glyph unicode="R" horiz-adv-x="1492" d="M55 0v61h72q78 0 102.5 28.5t24.5 119.5v962q0 85 -31 116.5t-114 31.5h-54v61h729q226 0 357 -91.5t131 -250.5q0 -94 -54.5 -172.5t-152.5 -124.5q-96 -44 -299 -61q217 -44 325.5 -152.5t120.5 -291.5q4 -79 22.5 -114.5t53.5 -35.5q37 0 61.5 46t24.5 114v200h62 v-204q0 -118 -73.5 -190t-195.5 -72q-125 0 -197.5 73t-82.5 211l-4 45q-15 181 -71 267t-157 86h-77v-453q0 -98 18.5 -123t91.5 -25h96v-61h-729zM578 723h73q43 0 67.5 1.5t57 7t51 17.5t39 33.5t30.5 53.5t17 79t7 109q0 185 -66 254q-33 36 -111 41h-81 q-37 0 -60.5 -23.5t-23.5 -60.5v-512z" />
<glyph unicode="S" d="M74 -43v616h59q13 -108 28.5 -165.5t49.5 -128.5q64 -131 166.5 -196t214.5 -65q106 0 177 60t71 149q0 33 -12.5 64t-30 54.5t-49.5 49t-55.5 41t-66 36.5t-63.5 30.5t-63 27.5q-94 40 -156.5 74.5t-82 50t-52.5 45.5q-125 134 -125 316q0 179 98.5 287t261.5 108 q173 0 318 -154q33 32 50.5 61.5t37.5 90.5h61v-498h-59q-26 112 -50.5 169t-70.5 116q-120 154 -297 154q-97 0 -164 -53t-67 -130q0 -68 70 -125.5t241 -130.5q54 -24 85.5 -38.5t86 -45t88.5 -57t75.5 -69.5t65 -88.5t40 -107t16.5 -130.5q0 -182 -109.5 -300 t-279.5 -118q-52 0 -104 14.5t-86.5 32t-73.5 47.5t-54 44t-39 38q-36 -39 -53 -72t-37 -104h-61z" />
<glyph unicode="T" horiz-adv-x="1259" d="M61 858v522h1139v-524h-61q-34 202 -73 293q-71 170 -204 170q-38 0 -52.5 -18t-16.5 -64v-1028q0 -99 18.5 -123.5t93.5 -24.5h121v-61h-790v61h106q78 0 102.5 28.5t24.5 119.5v1030q0 43 -18 61.5t-60 18.5q-43 0 -79 -19t-61 -45.5t-46.5 -72.5t-33 -80t-23 -90.5 t-15 -81t-10.5 -72.5h-62z" />
<glyph unicode="U" horiz-adv-x="1492" d="M47 1319v61h709v-61h-41q-84 0 -116 -32t-32 -116v-792q0 -186 63 -270t201 -84q157 0 256 105t99 271v560q0 169 -54.5 252.5t-177.5 105.5v61h494v-61q-199 -29 -199 -311v-586q0 -223 -125 -345t-354 -122q-263 0 -395 135q-63 61 -90.5 141.5t-38.5 231.5v708 q0 85 -31.5 116.5t-114.5 31.5h-53z" />
<glyph unicode="V" horiz-adv-x="1386" d="M51 1380h613v-61h-41q-46 0 -70.5 -16.5t-24.5 -45.5q0 -35 15 -79l252 -783l206 598q37 104 37 183q0 68 -48 105.5t-134 37.5v61h481v-61q-21 -3 -36 -7.5t-39.5 -15.5t-45.5 -31.5t-45 -52t-48 -81.5t-46 -115l-370 -1063h-93l-401 1245q-22 66 -52 93.5t-81 27.5h-27 z" />
<glyph unicode="W" horiz-adv-x="2068" d="M47 1319v61h592v-61h-35q-44 0 -73 -19.5t-29 -50.5q0 -52 20 -114l238 -752l225 651l-49 166q-17 56 -54.5 87.5t-86.5 31.5h-31v61h635v-61h-41q-119 0 -119 -72q0 -43 18 -98l238 -762l205 617q22 68 22 145q0 80 -42.5 125t-125.5 45v61h467v-61q-51 -10 -79 -22 t-60.5 -46t-60.5 -95.5t-62 -166.5l-342 -1034h-92l-309 985l-336 -985h-92l-391 1247q-11 34 -25.5 57t-27.5 34.5t-32.5 17.5t-31.5 7t-33 1z" />
<glyph unicode="X" horiz-adv-x="1492" d="M47 0v61q46 0 93.5 17.5t84.5 42t72 57.5t56.5 57.5t37.5 47.5l248 333l-334 578q-41 72 -77 98.5t-93 26.5h-55v61h694v-61h-43q-110 0 -110 -55q0 -24 26 -74l180 -318l164 226q39 51 39 110q0 111 -123 111v61h510v-61q-96 0 -181 -54t-149 -143l-225 -305l371 -641 q35 -61 74.5 -88t95.5 -27h45v-61h-719v61h68q108 0 108 58q0 38 -41 108l-192 332l-180 -248q-60 -82 -60 -143q0 -46 34.5 -76.5t86.5 -30.5h29v-61h-535z" />
<glyph unicode="Y" horiz-adv-x="1386" d="M51 1319v61h666v-61h-29q-75 0 -106 -13.5t-31 -45.5q0 -24 12 -54l258 -618l178 461q29 71 29 131q0 139 -184 139v61h493v-61q-42 -9 -71.5 -21t-67 -40t-71 -80t-62.5 -129l-207 -541v-311q0 -88 19.5 -112t91.5 -24h137v-61h-827v61h127q78 0 102 28.5t24 119.5v272 l-290 699q-32 78 -67.5 108.5t-92.5 30.5h-31z" />
<glyph unicode="Z" horiz-adv-x="1386" d="M63 0l859 1319h-260q-16 0 -33 -1.5t-53 -10.5t-68.5 -24.5t-73.5 -48t-75 -76t-66.5 -112.5t-52.5 -155h-62v489h1147l-854 -1319h264q167 0 289 121.5t182 347.5h62v-530h-1205z" />
<glyph unicode="[" horiz-adv-x="917" d="M199 -403v1804h655v-60h-459v-1685h459v-59h-655z" />
<glyph unicode="\" horiz-adv-x="811" d="M119 1407h117l618 -1909h-117z" />
<glyph unicode="]" horiz-adv-x="917" d="M63 -344h459v1685h-459v60h656v-1804h-656v59z" />
<glyph unicode="^" horiz-adv-x="1189" d="M61 504l463 930h144l462 -930h-163l-373 766l-369 -766h-164z" />
<glyph unicode="_" horiz-adv-x="1024" d="M0 -154h1024v-102h-1024v102z" />
<glyph unicode="`" horiz-adv-x="681" d="M39 1362h299l117 -346h-86z" />
<glyph unicode="a" d="M72 195q0 32 9 60t20.5 48.5t35 40.5t39.5 31t49.5 26.5t48 21t50.5 19.5l241 88v205q0 51 -38 80t-105 29q-60 0 -110 -21.5t-50 -46.5q0 -20 35 -33q35 -14 50 -33t15 -51q0 -52 -30 -84t-78 -32q-55 0 -90 37t-35 96q0 103 93.5 167t242.5 64q342 0 342 -264v-467 q0 -76 47 -76q40 0 58 63.5t18 203.5h59v-80q0 -143 -59.5 -229.5t-157.5 -86.5q-83 0 -126 42t-58 139q-65 -97 -128 -139t-145 -42q-107 0 -175 63t-68 161zM299 250q0 -53 36 -92t85 -39q63 0 105 55t42 137v150q-144 -47 -206 -96t-62 -115z" />
<glyph unicode="b" d="M33 1337v62h129q87 0 178 14h66v-657q54 84 107 118.5t128 34.5q140 0 233 -138t93 -345q0 -125 -48 -229t-132 -164t-185 -60q-51 0 -95.5 12t-85.5 37.5t-65.5 45t-64.5 55.5q-40 -55 -66 -135h-59v1212q0 64 -33 100.5t-92 36.5h-8zM403 264q0 -97 39 -158t101 -61 q30 0 54 11t39 26t26.5 42t17 49t9 56.5t4 54.5t1.5 54v283q0 204 -100 204q-74 0 -132.5 -94.5t-58.5 -214.5v-252z" />
<glyph unicode="c" horiz-adv-x="917" d="M70 449q0 214 116.5 337t317.5 123q157 0 255.5 -71t98.5 -183q0 -71 -38 -115t-99 -44q-51 0 -90 36.5t-39 85.5q0 38 16 62.5t56 46.5q41 21 41 45q0 29 -57 52.5t-126 23.5q-184 0 -184 -275v-268q0 -123 54 -192.5t149 -69.5q111 0 185 80.5t83 212.5h63 q-19 -175 -115 -269t-257 -94q-193 0 -311.5 131t-118.5 345z" />
<glyph unicode="d" d="M78 436q0 132 42.5 241t116.5 171.5t164 62.5q72 0 127.5 -36t114.5 -119v409q0 97 -32 134.5t-115 37.5h-72v62h229q52 0 146 12h84v-1210q0 -134 133 -140v-61h-176q-37 0 -193 -12v184q-47 -106 -106.5 -152.5t-147.5 -46.5q-145 0 -230 125.5t-85 337.5zM346 322 q0 -137 25 -193.5t86 -56.5q86 0 138 105t52 280q0 157 -56.5 261.5t-141.5 104.5q-103 0 -103 -250v-251z" />
<glyph unicode="e" horiz-adv-x="917" d="M70 438q0 213 114 343t301 130q116 0 207.5 -62.5t138.5 -174.5q20 -50 28 -92.5t11 -120.5h-530v-133q0 -149 48 -215t155 -66q194 0 264 272h65q-22 -88 -39.5 -130t-52.5 -87q-107 -131 -293 -131q-178 0 -297.5 133.5t-119.5 333.5zM342 522h225q20 0 26.5 14.5 t6.5 57.5q0 137 -30.5 195.5t-100.5 58.5q-127 0 -127 -176v-150z" />
<glyph unicode="f" horiz-adv-x="681" d="M51 0v61q144 0 144 125v613h-144v75h142v101q0 197 113 315.5t300 118.5q109 0 176.5 -50t67.5 -132q0 -49 -34 -83t-83 -34q-51 0 -81.5 30.5t-30.5 84.5q0 24 14 47q12 22 12 41q0 15 -16 25t-43 10q-72 0 -116 -65.5t-44 -172.5v-236h182v-75h-180v-580 q0 -71 32.5 -114.5t86.5 -43.5h63v-61h-561z" />
<glyph unicode="g" d="M80 -279q0 74 62 127.5t171 73.5q-94 31 -137 80.5t-43 126.5q0 146 164 195q-69 47 -101 110.5t-32 155.5q0 149 90.5 235t247.5 86q70 0 125 -22.5t116 -73.5q25 55 51.5 74.5t79.5 19.5q59 0 96.5 -37.5t37.5 -97.5q0 -38 -21 -63t-53 -25q-31 0 -50.5 19.5 t-19.5 48.5q0 6 11.5 36.5t11.5 36.5q0 11 -9 18t-24 7q-25 0 -40 -27.5t-15 -70.5q0 -23 10 -64q16 -55 16 -90q0 -154 -87.5 -241t-241.5 -87h-33l-33 2h-14q-55 0 -94 -7q-45 -8 -64.5 -22t-27 -26.5t-7.5 -25.5q0 -64 133 -64q87 0 123 4h45q257 0 363 -106 q37 -37 57.5 -89t20.5 -106q0 -146 -134 -242t-339 -96q-171 0 -291.5 66.5t-120.5 160.5zM203 -266q0 -76 83.5 -126t211.5 -50q147 0 244.5 55.5t97.5 140.5q0 79 -73 109.5t-235 30.5q-329 0 -329 -160zM403 496q0 -76 25 -119t68 -43q81 0 90 162v182q0 82 -24 126 t-68 44q-43 0 -67 -45t-24 -125v-182z" />
<glyph unicode="h" horiz-adv-x="1153" d="M53 0v61q17 0 28.5 1t31.5 8t33 20.5t25 41t15 65.5v1007q0 54 -33.5 84t-95.5 33v61h86q116 0 215 27h70v-707q62 111 129 158t166 47q123 0 202 -87.5t79 -225.5v-399q0 -122 120 -134v-61h-483v61q67 6 96 42t29 114v483q0 63 -25.5 97t-72.5 34q-98 0 -171 -132.5 t-73 -311.5v-194q0 -120 125 -132v-61h-496z" />
<glyph unicode="i" horiz-adv-x="575" d="M63 0v61q63 6 93 41t30 103v479q0 123 -123 129v61q32 -1 61 -1q155 0 249 18h53v-707q0 -99 106 -123v-61h-469zM162 1272q0 58 40 98.5t99 40.5t99 -40.5t40 -98.5t-40 -98.5t-99 -40.5t-99 40.5t-40 98.5z" />
<glyph unicode="j" horiz-adv-x="681" d="M-100 -289q0 63 35.5 103.5t91.5 40.5q44 0 76 -32.5t32 -76.5q0 -52 -45 -100q-24 -24 -24 -43q0 -20 21 -31.5t56 -11.5q60 0 87.5 33.5t27.5 107.5v983q0 123 -123 129v61q32 -1 61 -1q155 0 248 18h54v-971q0 -194 -92.5 -309t-249.5 -115q-107 0 -181.5 62 t-74.5 153zM248 1272q0 56 40 95.5t95 39.5t95 -39.5t40 -95.5t-40 -95.5t-95 -39.5t-95 39.5t-40 95.5z" />
<glyph unicode="k" horiz-adv-x="1153" d="M59 0v61q72 3 101.5 40t32.5 130v994q0 49 -34 77t-96 31v62h142q49 0 164 16h65v-1038l264 282q50 53 50 90q0 29 -41 48.5t-105 19.5h-47v61h520v-61q-139 0 -262 -123l-104 -112l258 -406q26 -40 48.5 -64t45 -33.5t36.5 -11.5t38 -2v-61h-498v61h43q61 0 61 35 q0 16 -8 29l-180 281l-125 -130v-57q0 -83 30.5 -119t102.5 -39v-61h-502z" />
<glyph unicode="l" horiz-adv-x="575" d="M33 0v61q62 0 97 27t42 109v1024q0 45 -34 78.5t-79 33.5h-26v62h117q82 0 126 6q58 8 66 8h70v-1231q0 -9 1 -19.5t8 -29t19 -32.5t36 -25t56 -11v-61h-499z" />
<glyph unicode="m" horiz-adv-x="1728" d="M49 0v61q58 6 84 35t31 92v486q0 128 -115 137v63h88q32 0 62.5 2.5t74 8.5t62.5 8h67v-199q60 114 127.5 162.5t165.5 48.5q111 0 180 -56.5t101 -174.5q20 38 33.5 62t41.5 60t57 56.5t74 36.5t97 16q132 0 211.5 -91.5t79.5 -246.5v-368q0 -129 129 -138v-61h-496v61 q127 6 127 127v512q0 62 -27.5 95.5t-78.5 33.5q-58 0 -113.5 -59.5t-90 -155t-34.5 -194.5v-227q0 -120 125 -132v-61h-489v61q60 5 92.5 37t32.5 88v488q0 155 -101 155q-57 0 -114.5 -58.5t-93.5 -149.5t-36 -181v-252q0 -54 33.5 -88.5t91.5 -38.5v-61h-479z" />
<glyph unicode="n" horiz-adv-x="1153" d="M51 0v61q71 4 101 39.5t30 112.5v463q0 137 -131 137v61h103q36 0 194 15h72v-191q62 110 130 158.5t163 48.5q131 0 208.5 -91t77.5 -245v-379q0 -57 32 -90.5t91 -38.5v-61h-485v61q125 6 125 144v483q0 141 -105 141q-58 0 -113.5 -60t-89.5 -158t-34 -201v-197 q0 -74 29 -109.5t96 -42.5v-61h-494z" />
<glyph unicode="o" d="M66 442q0 213 124.5 340t333.5 127q206 0 330.5 -130t124.5 -345q0 -206 -126 -335.5t-327 -129.5q-209 0 -334.5 129t-125.5 344zM336 467q0 -55 1 -93.5t5 -87.5t11.5 -82.5t21.5 -68t33 -55.5t48 -34t66 -13q50 0 85 22t54.5 56.5t30.5 93t14 114t3 136.5 q0 209 -43.5 301t-143.5 92q-97 0 -141.5 -91.5t-44.5 -289.5z" />
<glyph unicode="p" d="M35 -422q44 0 73 17t39.5 44t13.5 42t3 28v975q0 57 -33.5 91.5t-93.5 37.5v61h129q26 0 55.5 2.5t67 7.5t55.5 7h59v-186q14 33 24 53.5t32 52t46 50t63 32.5t85 14q138 0 227 -125.5t89 -324.5q0 -213 -93.5 -350.5t-236.5 -137.5q-133 0 -236 160v-408 q0 -64 32 -103.5t85 -39.5h55v-61h-540v61zM399 418q0 -151 58 -256t141 -105q47 0 71.5 51.5t28.5 163.5v334q0 97 -29 150t-83 53q-82 0 -134.5 -109.5t-52.5 -281.5z" />
<glyph unicode="q" d="M102 428q0 206 104.5 341.5t262.5 135.5q77 0 149 -35.5t160 -117.5q47 66 66 137h61v-1190q0 -14 4.5 -31t16.5 -39t40 -36.5t68 -14.5v-61h-522v61h33q58 0 89.5 39t31.5 111v401q-91 -162 -240 -162q-135 0 -229.5 134t-94.5 327zM371 264q0 -211 108 -211 q72 0 130.5 99.5t58.5 224.5v235q0 91 -41 155t-101 64q-51 0 -86 -38q-34 -34 -48.5 -79t-20.5 -132v-318z" />
<glyph unicode="r" horiz-adv-x="811" d="M61 0v61q54 5 84.5 35t30.5 80v510q0 54 -30.5 87.5t-84.5 39.5v61h103q32 0 100 7q16 1 34 3t29 4l11 1h45v-287q32 101 55 150q27 60 81 106.5t112 46.5q69 0 113 -49t44 -125q0 -64 -30.5 -105.5t-77.5 -41.5q-46 0 -76.5 28.5t-30.5 69.5q0 47 50 94q22 22 22 37 q0 9 -8.5 16t-20.5 7q-46 0 -93 -63.5t-77 -163t-30 -197.5v-205q0 -66 33 -106t88 -40h34v-61h-510z" />
<glyph unicode="s" horiz-adv-x="811" d="M72 645q0 107 72 183.5t175 76.5q60 0 110.5 -20.5t111.5 -71.5q51 56 65 92h60v-293h-60q-57 110 -127.5 172t-138.5 62q-62 0 -101.5 -32t-39.5 -83q0 -47 43 -78.5t157 -68.5q59 -18 100.5 -34t90 -45t78.5 -62.5t50.5 -84.5t20.5 -114q0 -118 -76.5 -195.5 t-193.5 -77.5q-70 0 -125 25t-127 90q-61 -63 -82 -115h-61v322h57q70 -122 156 -190t168 -68q60 0 100.5 34.5t40.5 86.5q0 31 -16.5 58.5t-37.5 45.5t-58 36t-60.5 27t-61.5 21q-133 45 -180 86q-51 41 -80.5 97t-29.5 118z" />
<glyph unicode="t" horiz-adv-x="681" d="M29 805v53q243 86 315 402h51v-386h205v-69h-207v-625q0 -33 17.5 -54.5t44.5 -21.5q116 0 116 273v104h62q0 -19 1 -55t1 -55q0 -191 -68.5 -294.5t-195.5 -103.5q-97 0 -156 65.5t-59 172.5v594h-127z" />
<glyph unicode="u" horiz-adv-x="1153" d="M51 813v61h129q50 0 185 15h51v-731q0 -56 26 -84q25 -28 73 -27h3q57 0 112 55.5t89.5 144.5t34.5 181v297q0 51 -27.5 69.5t-99.5 18.5h-41v61h151q45 0 125 7q9 1 27.5 3t33 3.5t17.5 1.5h51v-737q0 -91 88 -91h33v-61h-135q-119 0 -180 -14q-10 -2 -15 -2h-32v182 q-53 -101 -122 -148t-167 -47q-131 0 -207 92.5t-76 253.5v396q0 59 -21 79.5t-79 20.5h-27z" />
<glyph unicode="v" d="M53 813v61h455v-61h-33q-76 0 -76 -47q0 -10 9 -37l170 -483l145 389q12 38 12 70q0 11 -2.5 22.5t-11 27.5t-22.5 28.5t-40.5 21t-60.5 8.5v61h393v-61q-69 -9 -126.5 -71t-98.5 -171l-229 -602h-99l-262 752q-12 32 -28 52.5t-35.5 28t-31 9.5t-28.5 2z" />
<glyph unicode="w" horiz-adv-x="1492" d="M39 813v61h434v-61q-16 0 -25 -1t-23 -5t-21 -15.5t-7 -29.5t11 -47l174 -467l141 352l-47 150q-1 5 -6.5 13.5t-16 20.5t-30.5 20.5t-45 8.5v61h423v-61q-19 0 -30 -1t-27.5 -6t-24.5 -17.5t-8 -32.5q0 -11 4 -27l146 -477l153 379q27 75 27 100q0 79 -125 82v61h338 v-61q-17 0 -30 -3t-37.5 -16t-49.5 -49t-47 -92l-278 -684h-99l-163 535l-213 -535h-91l-282 764q-10 28 -25 46t-35 24.5t-32 8t-33 1.5z" />
<glyph unicode="x" d="M59 0v61q77 6 131 70l238 268l-195 308q-31 49 -69.5 77.5t-75.5 28.5h-29v61h455v-61q-20 0 -30 -1t-19.5 -9t-9.5 -23q0 -23 20 -53l98 -160l134 152q18 21 18 41q0 23 -20 38t-50 15h-34v61h337v-61h-24q-16 0 -64 -26.5t-79 -63.5l-183 -209l223 -352 q34 -52 65.5 -73t88.5 -28v-61h-446v61q16 0 24.5 0.5t21 4t18 11.5t5.5 21q0 18 -10 35l-135 211l-141 -158q-33 -36 -33 -69q0 -25 25.5 -40.5t66.5 -15.5h39v-61h-361z" />
<glyph unicode="y" d="M55 813v61h465v-61q-25 0 -38 -1t-30.5 -4.5t-25.5 -13t-8 -24.5q0 -19 16 -55l199 -426l106 360q9 40 9 56q0 49 -33.5 75.5t-104.5 32.5v61h400v-61q-83 -11 -141 -75t-95 -187l-246 -819q-32 -105 -101.5 -166.5t-158.5 -61.5q-90 0 -150.5 51t-60.5 126 q0 62 36 101.5t91 39.5q51 0 85 -34t34 -85q0 -33 -24 -80q-13 -23 -13 -29q0 -10 9.5 -18t21.5 -8q47 0 99 56t75 134l64 209l-308 664q-24 52 -34 73.5t-25.5 48t-23 34t-23 16t-29 9.5t-37.5 1z" />
<glyph unicode="z" horiz-adv-x="917" d="M51 0v27l496 786h-117q-113 0 -189 -79.5t-89 -211.5h-60v352h746v-34l-494 -779h188q55 0 118 42.5t95 101.5q30 51 56 157h57v-362h-807z" />
<glyph unicode="{" horiz-adv-x="806" d="M33 457q77 15 125.5 36t76 53t38 70t10.5 95v395q0 78 21.5 134.5t57.5 90t94 53.5t119 26.5t144 6.5v-24q-154 -25 -213.5 -89.5t-59.5 -185.5v-375q0 -64 -10 -106.5t-38 -79.5t-81 -60.5t-137 -37.5v-4q84 -14 137 -37.5t81 -61t38 -80t10 -106.5v-375 q0 -121 59.5 -185t213.5 -89v-25q-83 0 -144 6.5t-119 26.5t-94 53.5t-57.5 90t-21.5 134.5v396q0 57 -10.5 95t-38 70t-76 53t-125.5 36z" />
<glyph unicode="|" horiz-adv-x="1118" d="M483 -512v2048h152v-2048h-152z" />
<glyph unicode="}" horiz-adv-x="806" d="M88 -479q154 25 213 89t59 185v375q0 51 6 87t22.5 70t46.5 57t77.5 41t114.5 30v4q-84 14 -137.5 37.5t-81.5 60.5t-38 79.5t-10 106.5v375q0 121 -59 185.5t-213 89.5v24q83 0 144 -6.5t119 -26.5t94 -53.5t57.5 -90t21.5 -134.5v-395q0 -57 10.5 -95t38 -70t76 -53 t125.5 -36q-77 -15 -125.5 -36t-76 -53t-38 -70t-10.5 -95v-396q0 -78 -21.5 -134.5t-57.5 -90t-94 -53.5t-119 -26.5t-144 -6.5v25z" />
<glyph unicode="~" horiz-adv-x="1366" d="M195 467q56 86 118 133t148 47q110 0 241 -69q129 -70 205 -70q92 0 176 135l91 -94q-37 -57 -71.5 -94.5t-85.5 -63.5t-110 -26q-99 0 -229 73q-118 66 -217 66q-97 0 -176 -135z" />
<glyph unicode="&#xa1;" horiz-adv-x="575" d="M154 784q0 57 38.5 96.5t94.5 39.5q57 0 96 -39.5t39 -96.5q0 -56 -39 -94.5t-96 -38.5q-55 0 -94 38.5t-39 94.5zM160 -184q0 57 30 202q55 267 66 500h59q8 -137 20 -228t46 -245q33 -150 33 -227q0 -83 -36 -133t-95 -50q-57 0 -90 49t-33 132z" />
<glyph unicode="&#xa2;" horiz-adv-x="917" d="M78 438q0 214 112.5 341.5t301.5 127.5h49l137 490h61l-139 -494q124 -20 193 -88.5t69 -171.5q0 -61 -39 -103t-96 -42q-51 0 -90 35t-39 81q0 40 16 65.5t56 47.5q39 22 39 43q0 12 -7.5 22t-17 17t-26.5 13.5t-26.5 9.5t-27 7.5t-18.5 4.5l-199 -719 q36 -45 72.5 -63.5t91.5 -18.5q106 0 179 81.5t85 213.5h59q-6 -64 -13 -94t-23 -64q-47 -102 -136.5 -154.5t-187.5 -52.5q-80 0 -162 29l-133 -481h-61l141 504q-77 47 -111 88q-110 127 -110 325zM344 332q0 -80 10 -103l170 617q-100 -8 -140 -76.5t-40 -232.5v-205z " />
<glyph unicode="&#xa3;" d="M72 102q0 72 55 116t147 44q50 0 138 -18q4 18 4 39q0 44 -20 93t-91 187l-22 45h-201v76h174q-27 83 -27 166q0 93 35 180t93.5 151t137.5 103t162 39q131 0 218.5 -68.5t87.5 -171.5q0 -63 -39 -107t-93 -44t-91.5 36.5t-37.5 88.5q0 84 91 110q34 11 34 25 q0 28 -47.5 49t-107.5 21q-100 0 -164 -55.5t-64 -141.5q0 -36 14 -73t52 -101q70 -118 92 -205h227v-78h-217v-76q0 -119 -94 -311q115 -31 207 -31q72 0 125 31t78 88q15 33 20 101h62v-56q0 -173 -88.5 -286t-223.5 -113q-51 0 -97.5 24.5t-117.5 88.5q-27 24 -41 34 q-66 -80 -118.5 -113.5t-112.5 -33.5q-56 0 -97.5 43.5t-41.5 103.5zM133 94q0 -32 24.5 -54t59.5 -22q105 0 170 129q-74 52 -141 52q-51 0 -82 -29t-31 -76z" />
<glyph unicode="&#xa4;" horiz-adv-x="1409" d="M145 184l201 201q-80 99 -80 252q0 75 22 142.5t58 113.5l-201 201l107 106l197 -201q116 80 256 80q149 0 256 -80l196 201l107 -106l-197 -201q80 -117 80 -256q0 -145 -80 -252l197 -201l-107 -106l-196 201q-107 -80 -256 -80t-256 80l-197 -201zM418 637 q0 -119 83 -207t204 -88t205.5 88t84.5 207q0 122 -84.5 210.5t-205.5 88.5t-204 -88.5t-83 -210.5z" />
<glyph unicode="&#xa5;" horiz-adv-x="1386" d="M96 330v59h430v236h-430v59h400l-209 496q-17 41 -35 68t-32.5 41t-38 21t-38.5 8t-47 1v61h615v-59h-31q-71 0 -103 -13t-32 -42q0 -20 18 -72l230 -553l159 406q29 82 29 133q0 141 -184 141v59h493v-57q-27 -5 -45 -10t-51.5 -23t-59.5 -44t-57.5 -75.5t-56.5 -115.5 l-141 -371h411v-59h-438v-236h438v-59h-438v-115q0 -78 37 -116t115 -38h96v-61h-828v61h113q72 0 106.5 38t34.5 118v113h-430z" />
<glyph unicode="&#xa6;" horiz-adv-x="1118" d="M483 -358v716h152v-716h-152zM483 666v716h152v-716h-152z" />
<glyph unicode="&#xa7;" horiz-adv-x="1153" d="M172 508q0 109 63.5 175.5t180.5 78.5q-27 25 -41 37.5t-42 45t-43 60t-27.5 68t-12.5 82.5q0 143 96.5 234t249.5 91q121 0 215 -72.5t94 -166.5q0 -55 -31 -92t-77 -37q-53 0 -87 29t-34 75q0 52 55 88q29 15 29 31q0 34 -49.5 59t-116.5 25q-89 0 -152 -47t-63 -113 t58.5 -124t224.5 -156q180 -106 249.5 -184t69.5 -189q0 -243 -260 -264q94 -73 136 -148.5t42 -167.5q0 -148 -92.5 -243t-235.5 -95q-138 0 -228.5 67.5t-90.5 168.5q0 63 34.5 104t88.5 41q50 0 83.5 -31.5t33.5 -78.5q0 -59 -60 -99q-31 -22 -31 -39q0 -26 52 -49.5 t112 -23.5q89 0 144 48.5t55 127.5q0 81 -59.5 142.5t-231.5 160.5q-164 94 -232.5 178.5t-68.5 202.5zM297 604q0 -52 37 -93t139 -105q123 -77 158 -93t84 -16q60 0 97.5 30.5t37.5 78.5q0 46 -42 91.5t-142 106.5q-71 43 -99.5 58.5t-66.5 29t-74 13.5q-57 0 -93 -28.5 t-36 -72.5z" />
<glyph unicode="&#xa8;" horiz-adv-x="681" d="M23 1161q0 54 38.5 92.5t92.5 38.5q55 0 94 -38.5t39 -92.5q0 -55 -38.5 -94t-94.5 -39q-54 0 -92.5 39t-38.5 94zM395 1157q0 55 38.5 94t94.5 39t95 -39t39 -94t-39 -94t-95 -39t-94.5 39t-38.5 94z" />
<glyph unicode="&#xa9;" horiz-adv-x="1529" d="M39 715q0 204 96 374.5t263.5 269.5t369.5 99q150 0 284.5 -58.5t231 -157.5t153 -236.5t56.5 -290.5q0 -202 -96 -372t-262.5 -269t-366.5 -99q-201 0 -369 99t-264 269t-96 372zM170 715q0 -170 79.5 -317t217.5 -234.5t301 -87.5q162 0 299.5 87.5t216 234.5t78.5 317 q0 129 -46.5 247t-125.5 205t-189.5 139t-232.5 52q-123 0 -234.5 -52.5t-191 -140t-126 -205.5t-46.5 -245zM358 735q0 56 16.5 112.5t53.5 111t90 96.5t132.5 68t174.5 26q30 0 55.5 -2t52 -7t37 -7.5t40 -11t32.5 -9.5q45 -16 45 -45v-152h-40q-10 77 -66 129t-164 52 q-130 0 -204 -97t-74 -256q-3 -174 69.5 -277.5t220.5 -103.5q180 0 254 177h41l-32 -148q-3 -17 -15.5 -25.5t-42.5 -19.5q-126 -37 -225 -37q-97 0 -178 25t-142.5 75.5t-96 133.5t-34.5 192z" />
<glyph unicode="&#xaa;" horiz-adv-x="811" d="M57 842q0 41 15 73.5t37 55t63 44t76.5 34.5t93.5 32l104 35v141q0 51 -34.5 81t-94.5 30q-40 0 -68.5 -12.5t-62.5 -44.5q49 -6 77 -29.5t28 -58.5q0 -38 -29.5 -63t-73.5 -25t-73 26t-29 66q0 80 77 132t195 52q91 0 145 -15.5t89 -52.5q47 -50 47 -120v-428 q0 -56 35 -56q19 0 31 35.5t12 89.5v113h37v-111q0 -98 -36 -151t-102 -53q-63 0 -98 41.5t-47 130.5q-53 -172 -217 -172q-85 0 -141 51t-56 129zM274 858q0 -121 68 -121q41 0 72.5 50t31.5 116v172q-48 -13 -75.5 -25.5t-52 -36t-34.5 -61t-10 -94.5z" />
<glyph unicode="&#xab;" d="M113 446l444 474h59l-247 -476l252 -471h-62zM588 446l317 379h60l-156 -379l158 -383h-58z" />
<glyph unicode="&#xac;" horiz-adv-x="1366" d="M168 645v152h1032v-576h-151v424h-881z" />
<glyph unicode="&#xad;" horiz-adv-x="811" d="M164 365v157h483v-157h-483z" />
<glyph unicode="&#xae;" horiz-adv-x="1529" d="M39 715q0 204 96 374.5t263.5 269.5t369.5 99q150 0 284.5 -58.5t231 -157.5t153 -236.5t56.5 -290.5q0 -202 -96 -372t-262.5 -269t-366.5 -99q-201 0 -369 99t-264 269t-96 372zM170 715q0 -170 79.5 -317t217.5 -234.5t301 -87.5q162 0 299.5 87.5t216 234.5t78.5 317 q0 129 -46.5 247t-125.5 205t-189.5 139t-232.5 52q-123 0 -234.5 -52.5t-191 -140t-126 -205.5t-46.5 -245zM420 332v35q29 3 42.5 4.5t27.5 6.5t18 8t8 15.5t4 22v34.5v9v524v9v34.5t-4 22t-8 16t-18 8.5t-27.5 6.5t-42.5 4.5v32h387q105 0 175.5 -50.5t70.5 -147.5 q0 -77 -47 -136.5t-123 -84.5l123 -173q91 -128 157 -178v-22h-147q-20 0 -40 17t-43 52t-45 73.5t-57.5 98.5t-68.5 109h-92v-215v-37.5t4 -24.5t7.5 -18t17.5 -9t27.5 -7t43.5 -4v-35h-350zM670 725h86q72 0 107.5 52.5t35.5 140.5q0 163 -145 163h-84v-356z" />
<glyph unicode="&#xaf;" horiz-adv-x="681" d="M20 1092v208h644v-208h-644z" />
<glyph unicode="&#xb0;" horiz-adv-x="819" d="M109 1159q0 126 87 212.5t216 86.5q126 0 212.5 -86.5t86.5 -212.5q0 -129 -86.5 -216t-212.5 -87q-129 0 -216 87t-87 216zM199 1159q0 -90 62 -155.5t151 -65.5q88 0 148.5 65.5t60.5 155.5t-60.5 153.5t-148.5 63.5q-89 0 -151 -63.5t-62 -153.5z" />
<glyph unicode="&#xb1;" horiz-adv-x="1366" d="M168 -61v151h1032v-151h-1032zM168 561v152h440v360h152v-360h440v-152h-440v-360h-152v360h-440z" />
<glyph unicode="&#xb2;" horiz-adv-x="768" d="M86 705q24 64 63 113t134 124q41 33 51 43q51 49 73.5 101t22.5 118q0 160 -129 160q-46 0 -89.5 -28.5t-43.5 -59.5q0 -8 5 -14.5t11 -6.5q5 0 32 6.5t32 6.5q41 0 65.5 -27.5t24.5 -73.5q0 -43 -33.5 -73.5t-79.5 -30.5q-51 0 -86 38t-35 93q0 103 74.5 159t212.5 56 q135 0 213 -50t78 -136q0 -67 -54.5 -122t-185.5 -120q-66 -31 -90.5 -46.5t-60.5 -47.5h252q43 0 62 13t30 48h45l-21 -243h-573z" />
<glyph unicode="&#xb3;" horiz-adv-x="768" d="M82 827q0 53 29.5 84t78.5 31q43 0 76 -29t33 -67q0 -27 -25 -66q-14 -17 -14 -26q0 -15 21 -25t51 -10q108 0 108 168q0 72 -23.5 103.5t-78.5 31.5q-6 0 -41 -5t-41 -5q-35 0 -35 28q0 29 49 29q3 0 23 -1t24 -1q109 0 109 154q0 135 -107 135q-32 0 -52.5 -9.5 t-20.5 -23.5q0 -15 24 -31q22 -15 30.5 -29t8.5 -36q0 -35 -29 -61.5t-69 -26.5q-46 0 -78.5 30.5t-32.5 73.5q0 74 73 116t202 42q146 0 225.5 -43t79.5 -123q0 -68 -41.5 -106t-153.5 -70q117 -19 172.5 -62.5t55.5 -115.5q0 -95 -93.5 -149t-257.5 -54q-136 0 -208 38.5 t-72 110.5z" />
<glyph unicode="&#xb4;" horiz-adv-x="681" d="M227 1016l117 346h301l-332 -346h-86z" />
<glyph unicode="&#xb6;" horiz-adv-x="1105" d="M96 971q0 108 50 200t149 150.5t227 58.5h545v-49q-72 -7 -108 -16t-44 -29q-12 -24 -12 -160v-1257q0 -41 2 -92.5t2 -55.5q5 -29 40 -39t106 -17q9 -1 14 -1v-49h-315v1671h-119v-1671h-316v49q103 10 129 22q27 12 31 35q4 29 4 148v684q-94 3 -168.5 38.5t-121 94 t-71 131.5t-24.5 154z" />
<glyph unicode="&#xb7;" horiz-adv-x="575" d="M150 518q0 58 41.5 98.5t97.5 40.5q57 0 98 -41t41 -98q0 -53 -41 -96t-96 -43q-57 0 -99 41t-42 98z" />
<glyph unicode="&#xb8;" horiz-adv-x="681" d="M88 -375q98 3 125.5 9t65.5 34q36 25 36 78q0 38 -31.5 59t-88.5 21l157 186h88l-63 -80q164 -25 164 -161q0 -199 -387 -199h-66v53z" />
<glyph unicode="&#xb9;" horiz-adv-x="768" d="M154 1339v45h106q97 0 199 25l45 2v-588q0 -22 6.5 -36t14.5 -21.5t26.5 -11t29.5 -4t37 -0.5v-45h-460v45h37q75 0 75 77v430q0 40 -27 59.5t-89 22.5z" />
<glyph unicode="&#xba;" horiz-adv-x="811" d="M66 1034q0 160 96.5 268.5t238.5 108.5q150 0 247 -107.5t97 -273.5q0 -158 -95 -263t-240 -105q-151 0 -247.5 104t-96.5 268zM297 874q0 -174 115 -174q49 0 75.5 50t26.5 143v295q0 182 -106 182q-57 0 -84 -52.5t-27 -162.5v-281z" />
<glyph unicode="&#xbb;" d="M78 63l158 383l-156 379h59l318 -379l-322 -383h-57zM424 -27l252 471l-248 476h59l445 -474l-447 -473h-61z" />
<glyph unicode="&#xbc;" horiz-adv-x="1771" d="M221 1339v45h107q96 0 198 25l45 2v-588q0 -21 6.5 -35.5t15 -22t27 -11t29.5 -4t37 -0.5v-45h-461v45h37q76 0 76 77v430q0 40 -27.5 59.5t-89.5 22.5zM410 -72l868 1477h135l-872 -1477h-131zM967 100v93l395 452h111v-448h137v-97h-140v-34q0 -22 5.5 -37t13 -22.5 t24 -11.5t27.5 -4.5t35 -0.5v-43h-432v43h33q44 0 62.5 15t18.5 52v43h-290zM1030 197h227v258z" />
<glyph unicode="&#xbd;" horiz-adv-x="1771" d="M221 1339v45h107q96 0 198 25l45 2v-588q0 -21 6.5 -35.5t15 -22t27 -11t29.5 -4t37 -0.5v-45h-461v45h37q76 0 76 77v430q0 40 -27.5 59.5t-89.5 22.5zM410 -72l868 1477h135l-872 -1477h-131zM1006 -53q25 66 63.5 114.5t132.5 122.5q50 40 53 43q97 94 97 219 q0 160 -129 160q-46 0 -91 -28.5t-45 -59.5q0 -7 5.5 -13.5t11.5 -6.5q5 0 31.5 6t31.5 6q41 0 65.5 -27t24.5 -73q0 -43 -32 -74t-78 -31q-52 0 -87.5 37.5t-35.5 93.5q0 103 75 159t214 56q135 0 213 -50t78 -136q0 -67 -54.5 -122t-185.5 -120q-69 -34 -93 -48.5 t-59 -45.5h252q43 0 61.5 12t30.5 49h46l-21 -243h-575z" />
<glyph unicode="&#xbe;" horiz-adv-x="1771" d="M104 827q0 52 29.5 83.5t79.5 31.5q43 0 76 -29t33 -67q0 -27 -25 -66q-14 -17 -14 -26q0 -15 20.5 -25t50.5 -10q109 0 109 168q0 72 -24 103.5t-79 31.5q-6 0 -40.5 -5t-40.5 -5q-35 0 -35 28q0 29 49 29q3 0 23 -1t24 -1q57 0 84 37.5t27 116.5q0 135 -109 135 q-32 0 -53 -9.5t-21 -23.5t25 -31q22 -15 30.5 -29t8.5 -36q0 -35 -29.5 -61.5t-69.5 -26.5q-46 0 -78 30.5t-32 73.5q0 74 73 116t203 42q146 0 226 -43.5t80 -122.5q0 -68 -42 -106t-155 -72q117 -19 172 -61.5t55 -114.5q0 -95 -93 -149t-257 -54q-136 0 -208.5 38.5 t-72.5 110.5zM424 -72l870 1475h133l-872 -1475h-131zM983 100v93l393 452h111v-448h137v-97h-139v-34q0 -27 6.5 -43.5t23.5 -23t31 -8t43 -1.5v-43h-430v43h33q43 0 61.5 15t18.5 52v43h-289zM1047 197h225v258z" />
<glyph unicode="&#xbf;" horiz-adv-x="917" d="M61 -59q0 64 19 116t56.5 91t67.5 61.5t79 52.5q72 48 88 68q53 69 53 153v39h59v-174q0 -104 -14 -161t-41 -87.5t-86 -66.5q-72 -43 -100.5 -80t-28.5 -88q0 -78 65.5 -130t165.5 -52q88 0 149.5 29.5t61.5 70.5q0 24 -71 43q-80 26 -80 102q0 46 38.5 79.5t92.5 33.5 q62 0 104.5 -45t42.5 -109q0 -120 -97 -193t-255 -73q-152 0 -260.5 94t-108.5 226zM309 791q0 55 38.5 94t94.5 39t94.5 -39t38.5 -94q0 -56 -39 -95t-94 -39t-94 39t-39 95z" />
<glyph unicode="&#xc0;" horiz-adv-x="1492" d="M53 0v61q24 3 42 6.5t51 19t59.5 40t57.5 72t54 112.5l385 1084h144l403 -1186q50 -148 162 -148h31v-61h-647v61h49q104 0 104 54q0 24 -8 45l-80 239h-444q-45 -113 -45 -170q0 -159 215 -168v-61h-533zM444 1868h299l117 -346h-86zM451 498h376l-182 542z" />
<glyph unicode="&#xc1;" horiz-adv-x="1492" d="M53 0v61q24 3 42 6.5t51 19t59.5 40t57.5 72t54 112.5l385 1084h144l403 -1186q50 -148 162 -148h31v-61h-647v61h49q104 0 104 54q0 24 -8 45l-80 239h-444q-45 -113 -45 -170q0 -159 215 -168v-61h-533zM451 498h376l-182 542zM633 1522l117 346h301l-332 -346h-86z " />
<glyph unicode="&#xc2;" horiz-adv-x="1492" d="M53 0v61q24 3 42 6.5t51 19t59.5 40t57.5 72t54 112.5l385 1084h144l403 -1186q50 -148 162 -148h31v-61h-647v61h49q104 0 104 54q0 24 -8 45l-80 239h-444q-45 -113 -45 -170q0 -159 215 -168v-61h-533zM426 1518l213 376h227l201 -381h-76l-239 205l-244 -200h-82z M451 498h376l-182 542z" />
<glyph unicode="&#xc3;" horiz-adv-x="1492" d="M53 0v61q24 3 42 6.5t51 19t59.5 40t57.5 72t54 112.5l385 1084h144l403 -1186q50 -148 162 -148h31v-61h-647v61h49q104 0 104 54q0 24 -8 45l-80 239h-444q-45 -113 -45 -170q0 -159 215 -168v-61h-533zM426 1530q-3 71 14.5 126t49.5 87.5t71 48.5t82 16q29 0 55 -8 t90 -37q99 -47 144 -47q29 0 47 19.5t35 70.5h53q4 -75 -14.5 -131.5t-52 -86.5t-71 -44t-77.5 -14q-63 0 -158 45q-96 47 -135 47q-32 0 -50 -22t-26 -70h-57zM451 498h376l-182 542z" />
<glyph unicode="&#xc4;" horiz-adv-x="1492" d="M53 0v61q24 3 42 6.5t51 19t59.5 40t57.5 72t54 112.5l385 1084h144l403 -1186q50 -148 162 -148h31v-61h-647v61h49q104 0 104 54q0 24 -8 45l-80 239h-444q-45 -113 -45 -170q0 -159 215 -168v-61h-533zM428 1667q0 54 38.5 92.5t92.5 38.5q55 0 94 -38.5t39 -92.5 q0 -55 -39 -94t-94 -39q-54 0 -92.5 39t-38.5 94zM451 498h376l-182 542zM801 1663q0 55 38.5 94t94.5 39t94.5 -39t38.5 -94t-38.5 -94t-94.5 -39t-94.5 39t-38.5 94z" />
<glyph unicode="&#xc5;" horiz-adv-x="1492" d="M53 0v61q24 3 42 6.5t51 19t59.5 40t57.5 72t54 112.5l385 1084h144l403 -1186q50 -148 162 -148h31v-61h-647v61h49q104 0 104 54q0 24 -8 45l-80 239h-444q-45 -113 -45 -170q0 -159 215 -168v-61h-533zM451 498h376l-182 542zM537 1712q0 88 61.5 148.5t149.5 60.5 t148 -60.5t60 -148.5q0 -87 -60.5 -148t-147.5 -61q-88 0 -149.5 61.5t-61.5 147.5zM614 1712q0 -54 39.5 -92.5t94.5 -38.5t94 38.5t39 92.5q0 56 -38.5 94.5t-94.5 38.5t-95 -39t-39 -94z" />
<glyph unicode="&#xc6;" horiz-adv-x="2068" d="M53 0v61q34 1 59 7t59.5 25.5t67 54t74 96t86.5 149.5l412 787q16 29 16 59q0 38 -36 59t-103 21h-72v61h1350v-477h-59q-30 135 -72 205q-44 75 -106 125t-114 68t-99 18h-91q-56 0 -81 -22.5t-25 -71.5v-498h35q108 0 172.5 81.5t70.5 225.5h62v-688h-60q-4 39 -8 62.5 t-14.5 63.5t-30.5 73.5t-49 60.5t-64.5 41.5t-57 16.5t-56.5 2v-514q0 -41 24 -66t64 -25h96q89 0 184.5 65t157.5 167q44 79 86 219h58v-512h-1215v61h49q95 0 134.5 33t39.5 113v266h-487l-23 -41q-92 -158 -92 -239q0 -58 44.5 -95t115.5 -37h33v-61h-535zM557 569h440 v715q0 15 -8 25t-20 10q-8 0 -19 -10t-18 -23z" />
<glyph unicode="&#xc7;" horiz-adv-x="1153" d="M104 631q0 350 134 549q158 235 383 235q86 0 148.5 -31t131.5 -108q58 55 109 135h61v-620h-59q-23 142 -41 206.5t-56 141.5q-38 79 -106 143t-143 64q-57 0 -103 -46q-80 -83 -80 -454v-354q0 -172 19 -265t63 -139q55 -55 127 -55q129 0 227 137t107 332h61 q-9 -243 -139 -394t-330 -151q-24 0 -36 2l-21 -27q164 -25 164 -161q0 -199 -387 -199h-66v53q98 3 125.5 9t65.5 34q37 26 37 78q0 38 -32 59t-89 21l125 147q-185 43 -292.5 219.5t-107.5 438.5z" />
<glyph unicode="&#xc8;" horiz-adv-x="1386" d="M59 0v61h105q78 0 102.5 28.5t24.5 119.5v962q0 85 -31.5 116.5t-114.5 31.5h-82l-2 61h1217v-508h-64q-46 210 -155 322q-66 68 -136 96.5t-171 28.5q-83 0 -110.5 -21.5t-27.5 -87.5v-479h35q26 0 68 15.5t71 35.5q37 26 61 59.5t35.5 74.5t15.5 64t7 62h62v-702h-64 q0 42 -8.5 84.5t-29.5 87.5t-53 78.5t-83.5 55.5t-116.5 22v-510q0 -50 23 -73.5t72 -23.5h112q36 0 78.5 13t95 46.5t98.5 83t86.5 130.5t61.5 180h64v-514h-1246zM391 1868h299l117 -346h-86z" />
<glyph unicode="&#xc9;" horiz-adv-x="1386" d="M59 0v61h105q78 0 102.5 28.5t24.5 119.5v962q0 85 -31.5 116.5t-114.5 31.5h-82l-2 61h1217v-508h-64q-46 210 -155 322q-66 68 -136 96.5t-171 28.5q-83 0 -110.5 -21.5t-27.5 -87.5v-479h35q26 0 68 15.5t71 35.5q37 26 61 59.5t35.5 74.5t15.5 64t7 62h62v-702h-64 q0 42 -8.5 84.5t-29.5 87.5t-53 78.5t-83.5 55.5t-116.5 22v-510q0 -50 23 -73.5t72 -23.5h112q36 0 78.5 13t95 46.5t98.5 83t86.5 130.5t61.5 180h64v-514h-1246zM580 1522l116 346h301l-331 -346h-86z" />
<glyph unicode="&#xca;" horiz-adv-x="1386" d="M59 0v61h105q78 0 102.5 28.5t24.5 119.5v962q0 85 -31.5 116.5t-114.5 31.5h-82l-2 61h1217v-508h-64q-46 210 -155 322q-66 68 -136 96.5t-171 28.5q-83 0 -110.5 -21.5t-27.5 -87.5v-479h35q26 0 68 15.5t71 35.5q37 26 61 59.5t35.5 74.5t15.5 64t7 62h62v-702h-64 q0 42 -8.5 84.5t-29.5 87.5t-53 78.5t-83.5 55.5t-116.5 22v-510q0 -50 23 -73.5t72 -23.5h112q36 0 78.5 13t95 46.5t98.5 83t86.5 130.5t61.5 180h64v-514h-1246zM373 1518l213 376h227l201 -381h-76l-240 205l-243 -200h-82z" />
<glyph unicode="&#xcb;" horiz-adv-x="1386" d="M59 0v61h105q78 0 102.5 28.5t24.5 119.5v962q0 85 -31.5 116.5t-114.5 31.5h-82l-2 61h1217v-508h-64q-46 210 -155 322q-66 68 -136 96.5t-171 28.5q-83 0 -110.5 -21.5t-27.5 -87.5v-479h35q26 0 68 15.5t71 35.5q37 26 61 59.5t35.5 74.5t15.5 64t7 62h62v-702h-64 q0 42 -8.5 84.5t-29.5 87.5t-53 78.5t-83.5 55.5t-116.5 22v-510q0 -50 23 -73.5t72 -23.5h112q36 0 78.5 13t95 46.5t98.5 83t86.5 130.5t61.5 180h64v-514h-1246zM375 1667q0 54 38.5 92.5t92.5 38.5q55 0 94 -38.5t39 -92.5q0 -55 -38.5 -94t-94.5 -39q-54 0 -92.5 39 t-38.5 94zM748 1663q0 55 39 94t94 39t94 -39t39 -94t-39 -94t-94 -39t-94 39t-39 94z" />
<glyph unicode="&#xcc;" horiz-adv-x="811" d="M49 0v61h68q78 0 102.5 28.5t24.5 119.5v962q0 85 -31.5 116.5t-114.5 31.5h-49v61h715v-61h-51q-83 0 -114.5 -31.5t-31.5 -116.5v-962q0 -98 18.5 -123t92.5 -25h86v-61h-715zM104 1868h299l117 -346h-86z" />
<glyph unicode="&#xcd;" horiz-adv-x="811" d="M49 0v61h68q78 0 102.5 28.5t24.5 119.5v962q0 85 -31.5 116.5t-114.5 31.5h-49v61h715v-61h-51q-83 0 -114.5 -31.5t-31.5 -116.5v-962q0 -98 18.5 -123t92.5 -25h86v-61h-715zM293 1522l117 346h301l-332 -346h-86z" />
<glyph unicode="&#xce;" horiz-adv-x="811" d="M49 0v61h68q78 0 102.5 28.5t24.5 119.5v962q0 85 -31.5 116.5t-114.5 31.5h-49v61h715v-61h-51q-83 0 -114.5 -31.5t-31.5 -116.5v-962q0 -98 18.5 -123t92.5 -25h86v-61h-715zM86 1518l213 376h227l201 -381h-76l-239 205l-244 -200h-82z" />
<glyph unicode="&#xcf;" horiz-adv-x="811" d="M49 0v61h68q78 0 102.5 28.5t24.5 119.5v962q0 85 -31.5 116.5t-114.5 31.5h-49v61h715v-61h-51q-83 0 -114.5 -31.5t-31.5 -116.5v-962q0 -98 18.5 -123t92.5 -25h86v-61h-715zM88 1667q0 54 38.5 92.5t92.5 38.5q55 0 94 -38.5t39 -92.5q0 -55 -39 -94t-94 -39 q-54 0 -92.5 39t-38.5 94zM461 1663q0 55 38.5 94t94.5 39t94.5 -39t38.5 -94t-38.5 -94t-94.5 -39t-94.5 39t-38.5 94z" />
<glyph unicode="&#xd0;" horiz-adv-x="1492" d="M47 655v60h219v465q0 141 -151 141h-62v59h723q290 0 461.5 -185.5t171.5 -500.5q0 -322 -172.5 -508t-470.5 -186h-715v61h74q141 0 141 154v440h-219zM590 158q0 -95 94 -95h90q43 0 86.5 17t71.5 45q55 57 77.5 168t22.5 328v157q0 113 -5.5 192.5t-21 142.5 t-38.5 101t-61.5 63t-86.5 34.5t-117 9.5q-63 0 -87.5 -22.5t-24.5 -81.5v-502h223v-60h-223v-497z" />
<glyph unicode="&#xd1;" horiz-adv-x="1386" d="M45 0v61q53 9 91 32t60 51.5t35.5 71.5t18 81t6.5 92v625q0 49 -5 90.5t-12.5 71t-20 53t-24 38.5t-29.5 25.5t-30 15.5t-31.5 7.5t-29 3t-27.5 0.5v61h424l604 -999l-6 561q-1 87 -14.5 151.5t-34 103.5t-53.5 65t-64.5 37.5t-75.5 19.5v61h514v-61 q-116 -22 -164.5 -92.5t-48.5 -218.5l11 -1031h-160l-666 1100l9 -665q1 -123 42.5 -207t118.5 -121q37 -18 99 -23v-61h-537zM373 1530q-3 71 14.5 126t49.5 87.5t71 48.5t82 16q29 0 55 -8t90 -37q99 -47 144 -47q29 0 47 19.5t35 70.5h53q4 -75 -14.5 -131.5t-52 -86.5 t-71 -44t-77.5 -14q-63 0 -158 45q-96 47 -135 47q-32 0 -50 -22t-26 -70h-57z" />
<glyph unicode="&#xd2;" horiz-adv-x="1386" d="M94 676q0 181 48 324.5t131 233.5t191 135.5t232 41.5q287 -8 442.5 -198.5t155.5 -536.5q0 -335 -159.5 -527t-440.5 -192q-278 0 -439 193t-161 526zM391 1868h299l117 -346h-86zM473 592q0 -79 2 -138t7 -121.5t14.5 -107t25.5 -85.5t38.5 -66t54 -39.5t71.5 -14.5 q89 0 137.5 53.5t70 175.5t21.5 343v211q0 215 -19.5 330t-65.5 165t-132 50q-126 0 -175.5 -118.5t-49.5 -416.5v-221z" />
<glyph unicode="&#xd3;" horiz-adv-x="1386" d="M94 676q0 181 48 324.5t131 233.5t191 135.5t232 41.5q287 -8 442.5 -198.5t155.5 -536.5q0 -335 -159.5 -527t-440.5 -192q-278 0 -439 193t-161 526zM473 592q0 -79 2 -138t7 -121.5t14.5 -107t25.5 -85.5t38.5 -66t54 -39.5t71.5 -14.5q89 0 137.5 53.5t70 175.5 t21.5 343v211q0 215 -19.5 330t-65.5 165t-132 50q-126 0 -175.5 -118.5t-49.5 -416.5v-221zM580 1522l116 346h301l-331 -346h-86z" />
<glyph unicode="&#xd4;" horiz-adv-x="1386" d="M94 676q0 181 48 324.5t131 233.5t191 135.5t232 41.5q287 -8 442.5 -198.5t155.5 -536.5q0 -335 -159.5 -527t-440.5 -192q-278 0 -439 193t-161 526zM373 1518l213 376h227l201 -381h-76l-240 205l-243 -200h-82zM473 592q0 -79 2 -138t7 -121.5t14.5 -107t25.5 -85.5 t38.5 -66t54 -39.5t71.5 -14.5q89 0 137.5 53.5t70 175.5t21.5 343v211q0 215 -19.5 330t-65.5 165t-132 50q-126 0 -175.5 -118.5t-49.5 -416.5v-221z" />
<glyph unicode="&#xd5;" horiz-adv-x="1386" d="M94 676q0 181 48 324.5t131 233.5t191 135.5t232 41.5q287 -8 442.5 -198.5t155.5 -536.5q0 -335 -159.5 -527t-440.5 -192q-278 0 -439 193t-161 526zM373 1530q-3 71 14.5 126t49.5 87.5t71 48.5t82 16q29 0 55 -8t90 -37q99 -47 144 -47q29 0 47 19.5t35 70.5h53 q4 -75 -14.5 -131.5t-52 -86.5t-71 -44t-77.5 -14q-63 0 -158 45q-96 47 -135 47q-32 0 -50 -22t-26 -70h-57zM473 592q0 -79 2 -138t7 -121.5t14.5 -107t25.5 -85.5t38.5 -66t54 -39.5t71.5 -14.5q89 0 137.5 53.5t70 175.5t21.5 343v211q0 215 -19.5 330t-65.5 165 t-132 50q-126 0 -175.5 -118.5t-49.5 -416.5v-221z" />
<glyph unicode="&#xd6;" horiz-adv-x="1386" d="M94 676q0 181 48 324.5t131 233.5t191 135.5t232 41.5q287 -8 442.5 -198.5t155.5 -536.5q0 -335 -159.5 -527t-440.5 -192q-278 0 -439 193t-161 526zM375 1667q0 54 38.5 92.5t92.5 38.5q55 0 94 -38.5t39 -92.5q0 -55 -38.5 -94t-94.5 -39q-54 0 -92.5 39t-38.5 94z M473 592q0 -79 2 -138t7 -121.5t14.5 -107t25.5 -85.5t38.5 -66t54 -39.5t71.5 -14.5q89 0 137.5 53.5t70 175.5t21.5 343v211q0 215 -19.5 330t-65.5 165t-132 50q-126 0 -175.5 -118.5t-49.5 -416.5v-221zM748 1663q0 55 39 94t94 39t94 -39t39 -94t-39 -94t-94 -39 t-94 39t-39 94z" />
<glyph unicode="&#xd7;" horiz-adv-x="1368" d="M205 143l375 375l-375 375l104 104l373 -374l377 374l104 -104l-377 -375l377 -375l-104 -104l-377 377l-373 -377z" />
<glyph unicode="&#xd8;" horiz-adv-x="1386" d="M88 -12l148 180q-39 55 -56 87t-35 85q-51 151 -51 336q0 134 24.5 244.5t63 184.5t92.5 131t107.5 88.5t113 51t103 25.5t84.5 6q69 0 132.5 -13t105.5 -29.5t84 -44t61 -43.5t45 -40l141 172l47 -35l-151 -182q22 -31 35.5 -52t36.5 -70t36.5 -98.5t24 -128 t10.5 -167.5q0 -341 -157.5 -531t-438.5 -190q-253 0 -418 170l-143 -174zM469 455l438 536q-3 36 -5 53.5t-6.5 53t-9.5 55t-14 50t-19 48t-26 38.5t-34.5 32t-43.5 19t-55 8q-124 0 -174.5 -114t-50.5 -394v-385zM477 369q5 -50 8.5 -77.5t11 -71t16.5 -68t25.5 -54.5 t37 -46t50.5 -27t68 -11q120 0 170.5 115.5t50.5 392.5v383z" />
<glyph unicode="&#xd9;" horiz-adv-x="1492" d="M47 1319v61h709v-61h-41q-84 0 -116 -32t-32 -116v-792q0 -186 63 -270t201 -84q157 0 256 105t99 271v560q0 169 -54.5 252.5t-177.5 105.5v61h494v-61q-199 -29 -199 -311v-586q0 -223 -125 -345t-354 -122q-263 0 -395 135q-63 61 -90.5 141.5t-38.5 231.5v708 q0 85 -31.5 116.5t-114.5 31.5h-53zM444 1868h299l117 -346h-86z" />
<glyph unicode="&#xda;" horiz-adv-x="1492" d="M47 1319v61h709v-61h-41q-84 0 -116 -32t-32 -116v-792q0 -186 63 -270t201 -84q157 0 256 105t99 271v560q0 169 -54.5 252.5t-177.5 105.5v61h494v-61q-199 -29 -199 -311v-586q0 -223 -125 -345t-354 -122q-263 0 -395 135q-63 61 -90.5 141.5t-38.5 231.5v708 q0 85 -31.5 116.5t-114.5 31.5h-53zM633 1522l117 346h301l-332 -346h-86z" />
<glyph unicode="&#xdb;" horiz-adv-x="1492" d="M47 1319v61h709v-61h-41q-84 0 -116 -32t-32 -116v-792q0 -186 63 -270t201 -84q157 0 256 105t99 271v560q0 169 -54.5 252.5t-177.5 105.5v61h494v-61q-199 -29 -199 -311v-586q0 -223 -125 -345t-354 -122q-263 0 -395 135q-63 61 -90.5 141.5t-38.5 231.5v708 q0 85 -31.5 116.5t-114.5 31.5h-53zM426 1518l213 376h227l201 -381h-76l-239 205l-244 -200h-82z" />
<glyph unicode="&#xdc;" horiz-adv-x="1492" d="M47 1319v61h709v-61h-41q-84 0 -116 -32t-32 -116v-792q0 -186 63 -270t201 -84q157 0 256 105t99 271v560q0 169 -54.5 252.5t-177.5 105.5v61h494v-61q-199 -29 -199 -311v-586q0 -223 -125 -345t-354 -122q-263 0 -395 135q-63 61 -90.5 141.5t-38.5 231.5v708 q0 85 -31.5 116.5t-114.5 31.5h-53zM428 1667q0 54 38.5 92.5t92.5 38.5q55 0 94 -38.5t39 -92.5q0 -55 -39 -94t-94 -39q-54 0 -92.5 39t-38.5 94zM801 1663q0 55 38.5 94t94.5 39t94.5 -39t38.5 -94t-38.5 -94t-94.5 -39t-94.5 39t-38.5 94z" />
<glyph unicode="&#xdd;" horiz-adv-x="1386" d="M51 1319v61h666v-61h-29q-75 0 -106 -13.5t-31 -45.5q0 -24 12 -54l258 -618l178 461q29 71 29 131q0 139 -184 139v61h493v-61q-42 -9 -71.5 -21t-67 -40t-71 -80t-62.5 -129l-207 -541v-311q0 -88 19.5 -112t91.5 -24h137v-61h-827v61h127q78 0 102 28.5t24 119.5v272 l-290 699q-32 78 -67.5 108.5t-92.5 30.5h-31zM580 1522l116 346h301l-331 -346h-86z" />
<glyph unicode="&#xde;" horiz-adv-x="1259" d="M49 0v61h55q74 0 108 36.5t34 115.5v956q0 150 -148 150h-49v61h746v-61h-74q-72 0 -111 -39t-39 -111v-98q37 3 85 0.5t100.5 -4t107.5 -13t106.5 -26t97 -44t79.5 -66.5t54 -93t20 -125q0 -112 -59.5 -201t-162.5 -130q-62 -25 -146 -38t-138.5 -16t-143.5 -4v-92 q0 -158 134 -158h79v-61h-735zM571 375h70q126 0 177.5 66.5t51.5 228.5q0 194 -45 267t-163 73h-91v-635z" />
<glyph unicode="&#xdf;" d="M63 0v61q60 0 93.5 34.5t33.5 92.5v730q0 239 102.5 362t303.5 123q158 0 255 -94t97 -246q0 -123 -102 -211q-31 -26 -58 -40.5t-81 -33.5q28 -9 45.5 -15t51 -22.5t56 -34.5t50.5 -49t44.5 -67.5t28.5 -89.5t12 -115q0 -175 -80 -289t-204 -114q-80 0 -138.5 64.5 t-58.5 152.5q0 47 25 75.5t65 28.5q31 0 51.5 -20.5t20.5 -49.5q0 -34 -29 -81q-20 -34 -20 -54q3 -55 61 -55q37 0 61.5 41.5t24.5 105.5q0 7 -7 81t-7 98v174q0 91 -50.5 143.5t-144.5 58.5v60q84 9 116 70.5t32 214.5q0 138 -31.5 194.5t-106.5 56.5q-78 0 -112.5 -61 t-34.5 -199v-880q0 -69 11 -96t48 -44v-61h-424z" />
<glyph unicode="&#xe0;" d="M72 195q0 32 9 60t20.5 48.5t35 40.5t39.5 31t49.5 26.5t48 21t50.5 19.5l241 88v205q0 51 -38 80t-105 29q-60 0 -110 -21.5t-50 -46.5q0 -20 35 -33q35 -14 50 -33t15 -51q0 -52 -30 -84t-78 -32q-55 0 -90 37t-35 96q0 103 93.5 167t242.5 64q342 0 342 -264v-467 q0 -76 47 -76q40 0 58 63.5t18 203.5h59v-80q0 -143 -59.5 -229.5t-157.5 -86.5q-83 0 -126 42t-58 139q-65 -97 -128 -139t-145 -42q-107 0 -175 63t-68 161zM221 1362h299l117 -346h-86zM299 250q0 -53 36 -92t85 -39q63 0 105 55t42 137v150q-144 -47 -206 -96t-62 -115z " />
<glyph unicode="&#xe1;" d="M72 195q0 32 9 60t20.5 48.5t35 40.5t39.5 31t49.5 26.5t48 21t50.5 19.5l241 88v205q0 51 -38 80t-105 29q-60 0 -110 -21.5t-50 -46.5q0 -20 35 -33q35 -14 50 -33t15 -51q0 -52 -30 -84t-78 -32q-55 0 -90 37t-35 96q0 103 93.5 167t242.5 64q342 0 342 -264v-467 q0 -76 47 -76q40 0 58 63.5t18 203.5h59v-80q0 -143 -59.5 -229.5t-157.5 -86.5q-83 0 -126 42t-58 139q-65 -97 -128 -139t-145 -42q-107 0 -175 63t-68 161zM299 250q0 -53 36 -92t85 -39q63 0 105 55t42 137v150q-144 -47 -206 -96t-62 -115zM410 1016l116 346h301 l-331 -346h-86z" />
<glyph unicode="&#xe2;" d="M72 195q0 32 9 60t20.5 48.5t35 40.5t39.5 31t49.5 26.5t48 21t50.5 19.5l241 88v205q0 51 -38 80t-105 29q-60 0 -110 -21.5t-50 -46.5q0 -20 35 -33q35 -14 50 -33t15 -51q0 -52 -30 -84t-78 -32q-55 0 -90 37t-35 96q0 103 93.5 167t242.5 64q342 0 342 -264v-467 q0 -76 47 -76q40 0 58 63.5t18 203.5h59v-80q0 -143 -59.5 -229.5t-157.5 -86.5q-83 0 -126 42t-58 139q-65 -97 -128 -139t-145 -42q-107 0 -175 63t-68 161zM203 1012l213 377h227l201 -381h-76l-240 204l-243 -200h-82zM299 250q0 -53 36 -92t85 -39q63 0 105 55t42 137 v150q-144 -47 -206 -96t-62 -115z" />
<glyph unicode="&#xe3;" d="M72 195q0 32 9 60t20.5 48.5t35 40.5t39.5 31t49.5 26.5t48 21t50.5 19.5l241 88v205q0 51 -38 80t-105 29q-60 0 -110 -21.5t-50 -46.5q0 -20 35 -33q35 -14 50 -33t15 -51q0 -52 -30 -84t-78 -32q-55 0 -90 37t-35 96q0 103 93.5 167t242.5 64q342 0 342 -264v-467 q0 -76 47 -76q40 0 58 63.5t18 203.5h59v-80q0 -143 -59.5 -229.5t-157.5 -86.5q-83 0 -126 42t-58 139q-65 -97 -128 -139t-145 -42q-107 0 -175 63t-68 161zM203 1024q-3 71 14.5 126t49.5 87.5t71 49t82 16.5q29 0 54 -8t91 -38q99 -47 144 -47q29 0 47 19.5t35 70.5h53 q4 -75 -14.5 -131.5t-52 -86.5t-71 -44t-77.5 -14q-63 0 -158 45q-96 47 -135 47q-32 0 -50 -22t-26 -70h-57zM299 250q0 -53 36 -92t85 -39q63 0 105 55t42 137v150q-144 -47 -206 -96t-62 -115z" />
<glyph unicode="&#xe4;" d="M72 195q0 32 9 60t20.5 48.5t35 40.5t39.5 31t49.5 26.5t48 21t50.5 19.5l241 88v205q0 51 -38 80t-105 29q-60 0 -110 -21.5t-50 -46.5q0 -20 35 -33q35 -14 50 -33t15 -51q0 -52 -30 -84t-78 -32q-55 0 -90 37t-35 96q0 103 93.5 167t242.5 64q342 0 342 -264v-467 q0 -76 47 -76q40 0 58 63.5t18 203.5h59v-80q0 -143 -59.5 -229.5t-157.5 -86.5q-83 0 -126 42t-58 139q-65 -97 -128 -139t-145 -42q-107 0 -175 63t-68 161zM205 1161q0 54 38.5 92.5t92.5 38.5q55 0 94 -38.5t39 -92.5q0 -55 -38.5 -94t-94.5 -39q-54 0 -92.5 39 t-38.5 94zM299 250q0 -53 36 -92t85 -39q63 0 105 55t42 137v150q-144 -47 -206 -96t-62 -115zM578 1157q0 55 39 94t94 39t94 -39t39 -94t-39 -94t-94 -39t-94 39t-39 94z" />
<glyph unicode="&#xe5;" d="M72 195q0 32 9 60t20.5 48.5t35 40.5t39.5 31t49.5 26.5t48 21t50.5 19.5l241 88v205q0 51 -38 80t-105 29q-60 0 -110 -21.5t-50 -46.5q0 -20 35 -33q35 -14 50 -33t15 -51q0 -52 -30 -84t-78 -32q-55 0 -90 37t-35 96q0 103 93.5 167t242.5 64q342 0 342 -264v-467 q0 -76 47 -76q40 0 58 63.5t18 203.5h59v-80q0 -143 -59.5 -229.5t-157.5 -86.5q-83 0 -126 42t-58 139q-65 -97 -128 -139t-145 -42q-107 0 -175 63t-68 161zM299 250q0 -53 36 -92t85 -39q63 0 105 55t42 137v150q-144 -47 -206 -96t-62 -115zM313 1206q0 88 61.5 148.5 t149.5 60.5t148.5 -60.5t60.5 -148.5q0 -87 -61 -148t-148 -61q-88 0 -149.5 61.5t-61.5 147.5zM391 1206q0 -54 39 -92.5t94 -38.5t94 38.5t39 92.5q0 56 -38.5 94.5t-94.5 38.5t-94.5 -38.5t-38.5 -94.5z" />
<glyph unicode="&#xe6;" horiz-adv-x="1622" d="M117 186q0 43 18 85.5t47 70.5q43 43 137.5 76t331.5 98l41 10v150q0 172 -186 172q-72 0 -133.5 -24.5t-61.5 -53.5q0 -14 31 -25q37 -10 52.5 -30.5t15.5 -57.5q0 -43 -34 -77.5t-75 -34.5q-54 0 -89.5 36.5t-35.5 90.5q0 99 101.5 167t246.5 68q103 0 182.5 -38.5 t122.5 -108.5q66 80 135.5 113.5t170.5 33.5q131 0 230 -64t146 -179q19 -46 26.5 -87.5t10.5 -117.5h-618v-125q0 -127 77 -212t193 -85q217 0 291 280h63q-93 -348 -364 -348q-81 0 -148.5 20t-107 45.5t-75 68t-49 67t-32.5 63.5q-79 -125 -182.5 -193.5t-210.5 -68.5 q-120 0 -194 59t-74 156zM344 211q0 -51 44.5 -88t107.5 -37q76 0 136 60t60 102v215q-60 -20 -98 -33.5t-82.5 -33t-71 -37t-51 -40.5t-35 -49.5t-10.5 -58.5zM930 520h303q43 0 43 41v107q0 83 -44.5 130.5t-119.5 47.5q-89 0 -135.5 -55.5t-46.5 -161.5v-109z" />
<glyph unicode="&#xe7;" horiz-adv-x="917" d="M70 449q0 214 116.5 337t317.5 123q157 0 255.5 -71t98.5 -183q0 -71 -38 -115t-99 -44q-51 0 -90 36.5t-39 85.5q0 38 16 62.5t56 46.5q41 21 41 45q0 29 -57 52.5t-126 23.5q-184 0 -184 -275v-268q0 -123 54 -192.5t149 -69.5q111 0 185 80.5t83 212.5h63 q-19 -175 -115 -269t-257 -94q-21 0 -27 2l-35 -43q164 -25 164 -161q0 -199 -387 -199h-65v53q98 3 125 9t65 34q37 26 37 78q0 38 -32 59t-89 21l137 162q-150 32 -236.5 155.5t-86.5 305.5z" />
<glyph unicode="&#xe8;" horiz-adv-x="917" d="M70 438q0 213 114 343t301 130q116 0 207.5 -62.5t138.5 -174.5q20 -50 28 -92.5t11 -120.5h-530v-133q0 -149 48 -215t155 -66q194 0 264 272h65q-22 -88 -39.5 -130t-52.5 -87q-107 -131 -293 -131q-178 0 -297.5 133.5t-119.5 333.5zM158 1362h299l116 -346h-86z M342 522h225q20 0 26.5 14.5t6.5 57.5q0 137 -30.5 195.5t-100.5 58.5q-127 0 -127 -176v-150z" />
<glyph unicode="&#xe9;" horiz-adv-x="917" d="M70 438q0 213 114 343t301 130q116 0 207.5 -62.5t138.5 -174.5q20 -50 28 -92.5t11 -120.5h-530v-133q0 -149 48 -215t155 -66q194 0 264 272h65q-22 -88 -39.5 -130t-52.5 -87q-107 -131 -293 -131q-178 0 -297.5 133.5t-119.5 333.5zM342 522h225q20 0 26.5 14.5 t6.5 57.5q0 137 -30.5 195.5t-100.5 58.5q-127 0 -127 -176v-150zM346 1016l117 346h301l-332 -346h-86z" />
<glyph unicode="&#xea;" horiz-adv-x="917" d="M70 438q0 213 114 343t301 130q116 0 207.5 -62.5t138.5 -174.5q20 -50 28 -92.5t11 -120.5h-530v-133q0 -149 48 -215t155 -66q194 0 264 272h65q-22 -88 -39.5 -130t-52.5 -87q-107 -131 -293 -131q-178 0 -297.5 133.5t-119.5 333.5zM139 1012l213 377h228l200 -381 h-75l-240 204l-244 -200h-82zM342 522h225q20 0 26.5 14.5t6.5 57.5q0 137 -30.5 195.5t-100.5 58.5q-127 0 -127 -176v-150z" />
<glyph unicode="&#xeb;" horiz-adv-x="917" d="M70 438q0 213 114 343t301 130q116 0 207.5 -62.5t138.5 -174.5q20 -50 28 -92.5t11 -120.5h-530v-133q0 -149 48 -215t155 -66q194 0 264 272h65q-22 -88 -39.5 -130t-52.5 -87q-107 -131 -293 -131q-178 0 -297.5 133.5t-119.5 333.5zM141 1161q0 54 38.5 92.5 t92.5 38.5q55 0 94.5 -38.5t39.5 -92.5q0 -55 -39 -94t-95 -39q-54 0 -92.5 39t-38.5 94zM342 522h225q20 0 26.5 14.5t6.5 57.5q0 137 -30.5 195.5t-100.5 58.5q-127 0 -127 -176v-150zM514 1157q0 55 39 94t94 39t94 -39t39 -94t-39 -94t-94 -39t-94 39t-39 94z" />
<glyph unicode="&#xec;" horiz-adv-x="575" d="M-14 1362h299l116 -346h-86zM63 0v61q63 6 93 41t30 103v479q0 123 -123 129v61q199 -4 295 15q10 2 21 2h47v-707q0 -99 106 -123v-61h-469z" />
<glyph unicode="&#xed;" horiz-adv-x="575" d="M63 0v61q63 6 93 41t30 103v479q0 123 -123 129v61q199 -4 295 15q10 2 21 2h47v-707q0 -99 106 -123v-61h-469zM174 1016l117 346h301l-332 -346h-86z" />
<glyph unicode="&#xee;" horiz-adv-x="575" d="M-33 1012l213 377h228l200 -381h-76l-239 204l-244 -200h-82zM63 0v61q63 6 93 41t30 103v479q0 123 -123 129v61q199 -4 295 15q10 2 21 2h47v-707q0 -99 106 -123v-61h-469z" />
<glyph unicode="&#xef;" horiz-adv-x="575" d="M-31 1161q0 54 38.5 92.5t92.5 38.5q55 0 94 -38.5t39 -92.5q0 -55 -38.5 -94t-94.5 -39q-54 0 -92.5 39t-38.5 94zM63 0v61q63 6 93 41t30 103v479q0 123 -123 129v61q199 -4 295 15q10 2 21 2h47v-707q0 -99 106 -123v-61h-469zM342 1157q0 55 39 94t94 39t94 -39 t39 -94t-39 -94t-94 -39t-94 39t-39 94z" />
<glyph unicode="&#xf0;" d="M76 434q0 204 118 337.5t298 133.5q52 0 92.5 -13.5t91.5 -47.5q-19 136 -61.5 227.5t-129.5 177.5l-213 -86l-20 58l182 73q-48 43 -131 103l49 45q108 -61 178 -109l222 88l20 -57l-182 -74q387 -293 387 -755q0 -267 -120 -415.5t-337 -148.5q-196 0 -320 129.5 t-124 333.5zM328 438q0 -214 46.5 -312.5t149.5 -98.5q108 0 154.5 99.5t46.5 328.5q0 199 -49.5 297t-153.5 98q-106 0 -150 -94.5t-44 -317.5z" />
<glyph unicode="&#xf1;" horiz-adv-x="1153" d="M51 0v61q71 4 101 39.5t30 112.5v463q0 137 -131 137v61h103q36 0 194 15h72v-191q62 110 130 158.5t163 48.5q131 0 208.5 -91t77.5 -245v-379q0 -57 32 -90.5t91 -38.5v-61h-485v61q125 6 125 144v483q0 141 -105 141q-58 0 -113.5 -60t-89.5 -158t-34 -201v-197 q0 -74 29 -109.5t96 -42.5v-61h-494zM256 1024q-3 71 14.5 126t49.5 87.5t71 49t82 16.5q29 0 54 -8t91 -38q99 -47 144 -47q29 0 47 19.5t35 70.5h53q4 -75 -14.5 -131.5t-52 -86.5t-71 -44t-77.5 -14q-63 0 -158 45q-96 47 -135 47q-32 0 -50 -22t-26 -70h-57z" />
<glyph unicode="&#xf2;" d="M66 442q0 213 124.5 340t333.5 127q206 0 330.5 -130t124.5 -345q0 -206 -126 -335.5t-327 -129.5q-209 0 -334.5 129t-125.5 344zM221 1362h299l117 -346h-86zM336 467q0 -55 1 -93.5t5 -87.5t11.5 -82.5t21.5 -68t33 -55.5t48 -34t66 -13q50 0 85 22t54.5 56.5t30.5 93 t14 114t3 136.5q0 209 -43.5 301t-143.5 92q-97 0 -141.5 -91.5t-44.5 -289.5z" />
<glyph unicode="&#xf3;" d="M66 442q0 213 124.5 340t333.5 127q206 0 330.5 -130t124.5 -345q0 -206 -126 -335.5t-327 -129.5q-209 0 -334.5 129t-125.5 344zM336 467q0 -55 1 -93.5t5 -87.5t11.5 -82.5t21.5 -68t33 -55.5t48 -34t66 -13q50 0 85 22t54.5 56.5t30.5 93t14 114t3 136.5 q0 209 -43.5 301t-143.5 92q-97 0 -141.5 -91.5t-44.5 -289.5zM410 1016l116 346h301l-331 -346h-86z" />
<glyph unicode="&#xf4;" d="M66 442q0 213 124.5 340t333.5 127q206 0 330.5 -130t124.5 -345q0 -206 -126 -335.5t-327 -129.5q-209 0 -334.5 129t-125.5 344zM203 1012l213 377h227l201 -381h-76l-240 204l-243 -200h-82zM336 467q0 -55 1 -93.5t5 -87.5t11.5 -82.5t21.5 -68t33 -55.5t48 -34 t66 -13q50 0 85 22t54.5 56.5t30.5 93t14 114t3 136.5q0 209 -43.5 301t-143.5 92q-97 0 -141.5 -91.5t-44.5 -289.5z" />
<glyph unicode="&#xf5;" d="M66 442q0 213 124.5 340t333.5 127q206 0 330.5 -130t124.5 -345q0 -206 -126 -335.5t-327 -129.5q-209 0 -334.5 129t-125.5 344zM203 1024q-3 71 14.5 126t49.5 87.5t71 49t82 16.5q29 0 54 -8t91 -38q99 -47 144 -47q29 0 47 19.5t35 70.5h53q4 -75 -14.5 -131.5 t-52 -86.5t-71 -44t-77.5 -14q-63 0 -158 45q-96 47 -135 47q-32 0 -50 -22t-26 -70h-57zM336 467q0 -55 1 -93.5t5 -87.5t11.5 -82.5t21.5 -68t33 -55.5t48 -34t66 -13q50 0 85 22t54.5 56.5t30.5 93t14 114t3 136.5q0 209 -43.5 301t-143.5 92q-97 0 -141.5 -91.5 t-44.5 -289.5z" />
<glyph unicode="&#xf6;" d="M66 442q0 213 124.5 340t333.5 127q206 0 330.5 -130t124.5 -345q0 -206 -126 -335.5t-327 -129.5q-209 0 -334.5 129t-125.5 344zM205 1161q0 54 38.5 92.5t92.5 38.5q55 0 94 -38.5t39 -92.5q0 -55 -38.5 -94t-94.5 -39q-54 0 -92.5 39t-38.5 94zM336 467 q0 -55 1 -93.5t5 -87.5t11.5 -82.5t21.5 -68t33 -55.5t48 -34t66 -13q50 0 85 22t54.5 56.5t30.5 93t14 114t3 136.5q0 209 -43.5 301t-143.5 92q-97 0 -141.5 -91.5t-44.5 -289.5zM578 1157q0 55 39 94t94 39t94 -39t39 -94t-39 -94t-94 -39t-94 39t-39 94z" />
<glyph unicode="&#xf7;" horiz-adv-x="1368" d="M168 442v152h1032v-152h-1032zM545 94q0 58 41.5 98.5t97.5 40.5q57 0 98 -41t41 -98q0 -53 -41 -96t-96 -43q-57 0 -99 41t-42 98zM545 942q0 58 41.5 98.5t97.5 40.5q57 0 98 -41t41 -98q0 -53 -41 -96t-96 -43q-57 0 -99 41t-42 98z" />
<glyph unicode="&#xf8;" d="M63 6l109 113q-57 69 -81.5 144t-24.5 177q0 214 122.5 341.5t329.5 127.5q98 0 169 -26.5t138 -85.5l109 110l43 -41l-109 -110q107 -136 107 -322q0 -209 -125 -337t-328 -128q-188 0 -309 107l-109 -111zM332 434q0 -76 6 -143l356 366q-30 191 -174 191 q-44 0 -77 -17.5t-53 -52.5t-32.5 -70.5t-17.5 -90t-6.5 -91.5t-1.5 -92zM346 213q23 -94 65.5 -139t108.5 -45q39 0 69 14.5t50 35.5t33.5 58t20.5 68.5t11 82.5t4.5 83t0.5 86q0 63 -4 125z" />
<glyph unicode="&#xf9;" horiz-adv-x="1153" d="M51 813v61h129q50 0 185 15h51v-731q0 -55 26 -83.5t76 -27.5q57 0 112 55.5t89.5 144.5t34.5 181v297q0 51 -27.5 69.5t-99.5 18.5h-41v61h151q45 0 125 7q9 1 27.5 3t33 3.5t17.5 1.5h51v-737q0 -91 88 -91h33v-61h-135q-119 0 -180 -14q-10 -2 -15 -2h-32v182 q-53 -101 -122 -148t-167 -47q-131 0 -207 92.5t-76 253.5v396q0 59 -21 79.5t-79 20.5h-27zM274 1362h299l117 -346h-86z" />
<glyph unicode="&#xfa;" horiz-adv-x="1153" d="M51 813v61h129q50 0 185 15h51v-731q0 -55 26 -83.5t76 -27.5q57 0 112 55.5t89.5 144.5t34.5 181v297q0 51 -27.5 69.5t-99.5 18.5h-41v61h151q45 0 125 7q9 1 27.5 3t33 3.5t17.5 1.5h51v-737q0 -91 88 -91h33v-61h-135q-119 0 -180 -14q-10 -2 -15 -2h-32v182 q-53 -101 -122 -148t-167 -47q-131 0 -207 92.5t-76 253.5v396q0 59 -21 79.5t-79 20.5h-27zM463 1016l117 346h301l-332 -346h-86z" />
<glyph unicode="&#xfb;" horiz-adv-x="1153" d="M51 813v61h129q50 0 185 15h51v-731q0 -55 26 -83.5t76 -27.5q57 0 112 55.5t89.5 144.5t34.5 181v297q0 51 -27.5 69.5t-99.5 18.5h-41v61h151q45 0 125 7q9 1 27.5 3t33 3.5t17.5 1.5h51v-737q0 -91 88 -91h33v-61h-135q-119 0 -180 -14q-10 -2 -15 -2h-32v182 q-53 -101 -122 -148t-167 -47q-131 0 -207 92.5t-76 253.5v396q0 59 -21 79.5t-79 20.5h-27zM256 1012l213 377h227l201 -381h-76l-239 204l-244 -200h-82z" />
<glyph unicode="&#xfc;" horiz-adv-x="1153" d="M51 813v61h129q50 0 185 15h51v-731q0 -55 26 -83.5t76 -27.5q57 0 112 55.5t89.5 144.5t34.5 181v297q0 51 -27.5 69.5t-99.5 18.5h-41v61h151q45 0 125 7q9 1 27.5 3t33 3.5t17.5 1.5h51v-737q0 -91 88 -91h33v-61h-135q-119 0 -180 -14q-10 -2 -15 -2h-32v182 q-53 -101 -122 -148t-167 -47q-131 0 -207 92.5t-76 253.5v396q0 59 -21 79.5t-79 20.5h-27zM258 1161q0 54 38.5 92.5t92.5 38.5q55 0 94 -38.5t39 -92.5q0 -55 -39 -94t-94 -39q-54 0 -92.5 39t-38.5 94zM631 1157q0 55 38.5 94t94.5 39t94.5 -39t38.5 -94t-38.5 -94 t-94.5 -39t-94.5 39t-38.5 94z" />
<glyph unicode="&#xfd;" d="M55 813v61h465v-61q-25 0 -38 -1t-30.5 -4.5t-25.5 -13t-8 -24.5q0 -19 16 -55l199 -426l106 360q9 40 9 56q0 49 -33.5 75.5t-104.5 32.5v61h400v-61q-83 -11 -141 -75t-95 -187l-246 -819q-32 -105 -101.5 -166.5t-158.5 -61.5q-90 0 -150.5 51t-60.5 126 q0 62 36 101.5t91 39.5q51 0 85 -34t34 -85q0 -33 -24 -80q-13 -23 -13 -29q0 -10 9.5 -18t21.5 -8q47 0 99 56t75 134l64 209l-308 664q-24 52 -34 73.5t-25.5 48t-23 34t-23 16t-29 9.5t-37.5 1zM410 1016l116 346h301l-331 -346h-86z" />
<glyph unicode="&#xfe;" d="M31 1335v62h116q41 0 103 4q19 2 37 4.5t28 4t11 1.5h75v-711q43 110 102.5 159.5t147.5 49.5q143 0 229.5 -125.5t86.5 -332.5q0 -209 -92 -344.5t-234 -135.5q-152 0 -238 168v-432q0 -55 33.5 -93t81.5 -38h57v-59h-540v59q63 3 96 36t33 93v1499q0 128 -133 131z M397 422q0 -153 57 -258t140 -105q102 0 102 248v293q0 102 -28 156.5t-82 54.5q-82 0 -135.5 -110t-53.5 -279z" />
<glyph unicode="&#xff;" d="M55 813v61h465v-61q-25 0 -38 -1t-30.5 -4.5t-25.5 -13t-8 -24.5q0 -19 16 -55l199 -426l106 360q9 40 9 56q0 49 -33.5 75.5t-104.5 32.5v61h400v-61q-83 -11 -141 -75t-95 -187l-246 -819q-32 -105 -101.5 -166.5t-158.5 -61.5q-90 0 -150.5 51t-60.5 126 q0 62 36 101.5t91 39.5q51 0 85 -34t34 -85q0 -33 -24 -80q-13 -23 -13 -29q0 -10 9.5 -18t21.5 -8q47 0 99 56t75 134l64 209l-308 664q-24 52 -34 73.5t-25.5 48t-23 34t-23 16t-29 9.5t-37.5 1zM205 1161q0 54 38.5 92.5t92.5 38.5q55 0 94 -38.5t39 -92.5 q0 -55 -38.5 -94t-94.5 -39q-54 0 -92.5 39t-38.5 94zM578 1157q0 55 39 94t94 39t94 -39t39 -94t-39 -94t-94 -39t-94 39t-39 94z" />
<glyph unicode="&#x152;" horiz-adv-x="2068" d="M100 690q0 229 99 405.5t266 247.5q121 50 291 50q52 0 131 -7l129 -6h946v-506h-57q-31 110 -57 168t-70 113q-60 75 -141 119.5t-156 44.5h-99q-38 0 -62 -22.5t-24 -59.5v-506h27q109 0 181.5 85.5t84.5 227.5h60v-704h-58q-10 107 -39 166q-38 84 -102.5 123 t-126.5 39h-27v-496q0 -60 22.5 -85.5t74.5 -25.5h86q155 0 277.5 123.5t172.5 329.5h60v-514h-955q-32 0 -160 -10q-106 -13 -143 -13q-139 0 -250.5 45.5t-181 117.5t-116 168t-65 190.5t-18.5 191.5zM475 606q0 -293 65 -430t203 -137q119 0 174.5 101t55.5 317v481 q0 397 -236 397q-262 0 -262 -506v-223z" />
<glyph unicode="&#x153;" horiz-adv-x="1622" d="M102 430q0 216 122 345.5t325 129.5q104 0 177 -35.5t140 -119.5q69 88 129.5 121.5t151.5 33.5q97 0 177 -43t134 -125q32 -47 49.5 -105t20.5 -90t4 -85h-565v-138q0 -129 60.5 -201.5t166.5 -72.5q43 0 80 11t62.5 26t47.5 41.5t34.5 46t25 53t17 49t12.5 45.5h63 q-83 -348 -360 -348q-196 0 -330 183q-118 -181 -311 -181q-186 0 -309.5 130.5t-123.5 328.5zM371 430q0 -207 43 -302t137 -95q92 0 135 96.5t43 306.5q0 120 -13.5 203t-39.5 127.5t-57.5 63t-73.5 18.5q-91 -3 -132.5 -103t-41.5 -315zM967 518h260q35 0 35 29v86 q0 110 -38 162.5t-118 52.5q-139 0 -139 -193v-137z" />
<glyph unicode="&#x178;" horiz-adv-x="1386" d="M51 1319v61h666v-61h-29q-75 0 -106 -13.5t-31 -45.5q0 -24 12 -54l258 -618l178 461q29 71 29 131q0 139 -184 139v61h493v-61q-42 -9 -71.5 -21t-67 -40t-71 -80t-62.5 -129l-207 -541v-311q0 -88 19.5 -112t91.5 -24h137v-61h-827v61h127q78 0 102 28.5t24 119.5v272 l-290 699q-32 78 -67.5 108.5t-92.5 30.5h-31zM375 1667q0 54 38.5 92.5t92.5 38.5q55 0 94 -38.5t39 -92.5q0 -55 -38.5 -94t-94.5 -39q-54 0 -92.5 39t-38.5 94zM748 1663q0 55 39 94t94 39t94 -39t39 -94t-39 -94t-94 -39t-94 39t-39 94z" />
<glyph unicode="&#x2c6;" horiz-adv-x="681" d="M20 1012l213 377h228l201 -381h-76l-240 204l-244 -200h-82z" />
<glyph unicode="&#x2dc;" horiz-adv-x="681" d="M20 1024q-3 71 15 126.5t50 87.5t71 48.5t82 16.5q29 0 54 -8t91 -38q99 -47 143 -47q29 0 47 19.5t35 70.5h54q4 -75 -15 -131.5t-52.5 -86.5t-71 -44t-77.5 -14q-62 0 -157 45q-96 47 -135 47q-32 0 -50 -22t-26 -70h-58z" />
<glyph unicode="&#x2000;" horiz-adv-x="960" />
<glyph unicode="&#x2001;" horiz-adv-x="1921" />
<glyph unicode="&#x2002;" horiz-adv-x="960" />
<glyph unicode="&#x2003;" horiz-adv-x="1921" />
<glyph unicode="&#x2004;" horiz-adv-x="640" />
<glyph unicode="&#x2005;" horiz-adv-x="480" />
<glyph unicode="&#x2006;" horiz-adv-x="320" />
<glyph unicode="&#x2007;" horiz-adv-x="320" />
<glyph unicode="&#x2008;" horiz-adv-x="240" />
<glyph unicode="&#x2009;" horiz-adv-x="384" />
<glyph unicode="&#x200a;" horiz-adv-x="106" />
<glyph unicode="&#x2010;" horiz-adv-x="811" d="M164 365v157h483v-157h-483z" />
<glyph unicode="&#x2011;" horiz-adv-x="811" d="M164 365v157h483v-157h-483z" />
<glyph unicode="&#x2012;" horiz-adv-x="811" d="M164 365v157h483v-157h-483z" />
<glyph unicode="&#x2013;" horiz-adv-x="1024" d="M-10 422v182h1044v-182h-1044z" />
<glyph unicode="&#x2014;" horiz-adv-x="2048" d="M-10 422v182h2068v-182h-2068z" />
<glyph unicode="&#x2018;" horiz-adv-x="575" d="M115 1038q0 157 131 269q43 34 81 52t109 38v-60q-57 -19 -85 -33t-58 -40q-38 -32 -61 -73t-23 -75q0 -19 8 -31t19 -12q6 0 13.5 2t16 5.5t13.5 4.5q20 5 40 5q47 0 82 -40t35 -94q0 -57 -41 -97t-100 -40q-75 0 -127.5 64t-52.5 155z" />
<glyph unicode="&#x2019;" horiz-adv-x="575" d="M139 819v60q58 20 86 34t58 39q38 32 61 73t23 75q0 19 -8 31t-19 12q-8 0 -24.5 -6.5t-18.5 -6.5q-16 -4 -41 -4q-47 0 -82 40t-35 94q0 57 41.5 97t100.5 40q75 0 127.5 -64t52.5 -155q0 -157 -131 -269q-43 -34 -81 -52t-110 -38z" />
<glyph unicode="&#x201a;" horiz-adv-x="575" d="M139 111q0 57 41.5 97t100.5 40q75 0 127.5 -64t52.5 -155q0 -157 -131 -269q-43 -34 -81 -52t-110 -38v60q58 20 86 34t58 39q38 32 61 73t23 75q0 19 -8 31t-19 12q-6 0 -13.5 -2t-16 -5.5t-13.5 -4.5q-20 -5 -41 -5q-47 0 -82 40t-35 94z" />
<glyph unicode="&#x201c;" d="M115 1038q0 157 131 269q43 34 81 52t109 38v-60q-57 -19 -85 -33t-58 -40q-38 -32 -61 -73t-23 -75q0 -19 8 -31t19 -12q6 0 13.5 2t16 5.5t13.5 4.5q20 5 40 5q47 0 82 -40t35 -94q0 -57 -41 -97t-100 -40q-75 0 -127.5 64t-52.5 155zM602 1038q0 157 131 269 q43 34 81 52t110 38v-60q-58 -20 -86 -34t-58 -39q-38 -32 -61 -73t-23 -75q0 -19 8 -31t19 -12q6 0 13.5 2t16 5.5t13.5 4.5q20 5 41 5q47 0 82 -40t35 -94q0 -57 -41.5 -97t-100.5 -40q-75 0 -127.5 64t-52.5 155z" />
<glyph unicode="&#x201d;" d="M121 819v60q57 19 85 33t58 40q38 32 61 73t23 75q0 20 -7.5 31.5t-18.5 11.5q-8 0 -24.5 -6.5t-18.5 -6.5q-16 -4 -41 -4q-47 0 -82 40t-35 94q0 57 41 97t100 40q75 0 127.5 -64t52.5 -155q0 -157 -131 -269q-43 -34 -81 -52t-109 -38zM608 819v60q58 20 86 34t58 39 q38 32 61 73t23 75q0 19 -8 31t-19 12q-8 0 -24.5 -6.5t-18.5 -6.5q-16 -4 -41 -4q-47 0 -82 40t-35 94q0 57 41.5 97t100.5 40q75 0 127.5 -64t52.5 -155q0 -157 -131 -269q-43 -34 -81 -52t-110 -38z" />
<glyph unicode="&#x201e;" d="M121 111q0 57 41 97t100 40q75 0 127.5 -64t52.5 -155q0 -157 -131 -269q-43 -34 -81 -52t-109 -38v60q57 19 85 33t58 40q38 32 61 73t23 75q0 20 -7.5 31.5t-18.5 11.5q-6 0 -13.5 -2t-16 -5.5t-13.5 -4.5q-20 -5 -41 -5q-47 0 -82 40t-35 94zM608 111q0 57 41.5 97 t100.5 40q75 0 127.5 -64t52.5 -155q0 -157 -131 -269q-43 -34 -81 -52t-110 -38v60q58 20 86 34t58 39q38 32 61 73t23 75q0 19 -8 31t-19 12q-6 0 -13.5 -2t-16 -5.5t-13.5 -4.5q-20 -5 -41 -5q-47 0 -82 40t-35 94z" />
<glyph unicode="&#x2022;" horiz-adv-x="716" d="M72 717q0 118 84.5 202.5t201.5 84.5q121 0 204 -84t83 -203q0 -121 -82.5 -204t-204.5 -83q-118 0 -202 83t-84 204z" />
<glyph unicode="&#x2026;" horiz-adv-x="2048" d="M207 104q0 56 40 96t95 40t95 -40t40 -96q0 -57 -39.5 -96t-95.5 -39t-95.5 39t-39.5 96zM889 104q0 56 40 96t95 40t95 -40t40 -96q0 -57 -39.5 -96t-95.5 -39t-95.5 39t-39.5 96zM1571 104q0 56 40 96t95 40t95 -40t40 -96q0 -57 -39.5 -96t-95.5 -39t-95.5 39 t-39.5 96z" />
<glyph unicode="&#x202f;" horiz-adv-x="384" />
<glyph unicode="&#x2039;" horiz-adv-x="575" d="M49 449l432 473h58l-236 -473l238 -476h-58z" />
<glyph unicode="&#x203a;" horiz-adv-x="575" d="M35 -27l237 476l-235 473h57l432 -473l-434 -476h-57z" />
<glyph unicode="&#x205f;" horiz-adv-x="480" />
<glyph unicode="&#x2122;" horiz-adv-x="2048" d="M63 1200v180h717v-180h-43q-29 135 -135 135h-100v-633v-40.5t4 -26t7.5 -18.5t18 -9.5t28.5 -7.5t44 -4v-43h-364v43q30 3 44 4t28.5 7.5t18 9.5t7.5 18.5t4 26v40.5v633h-100q-107 0 -136 -135h-43zM868 1337v43h260l308 -618l321 618h223v-43q-66 -3 -90 -28t-24 -80 v-527v-40.5t4 -26t7.5 -18.5t18 -9.5t28.5 -7.5t44 -4v-43h-364v43q30 3 43.5 4.5t28 6.5t18.5 8.5t8 17t4 23.5v36v10v469h-4l-309 -622h-23l-299 618h-4v-434q0 -75 20 -103t87 -34v-43h-269v43q67 6 87 34t20 103v500q-20 47 -60 75.5t-84 28.5z" />
<glyph unicode="&#x25fc;" horiz-adv-x="870" d="M0 0v870h870v-870h-870z" />
<glyph unicode="&#xfb01;" horiz-adv-x="1153" d="M59 0v61q70 7 102 43t32 107v588h-132v75h134v29q0 220 135 358t352 138q148 0 239 -59t91 -156q0 -63 -37 -101.5t-98 -38.5q-54 0 -91.5 36t-37.5 87q0 26 20 60q18 32 18 53q0 26 -28.5 41.5t-79.5 15.5q-100 0 -160 -57q-46 -48 -67 -124.5t-21 -201.5v-80 q389 0 438 5q11 1 45.5 6.5t49.5 5.5h45v-705q0 -52 30.5 -86t81.5 -39v-61h-461v61q62 10 86.5 52t24.5 137v401q0 67 -32 106t-89 42h-219v-580q0 -77 28 -113t95 -45v-61h-494z" />
<glyph unicode="&#xfb02;" horiz-adv-x="1153" d="M57 0v61q79 12 107.5 46.5t28.5 119.5v572h-132v75h134v46q0 212 136 345.5t351 133.5q62 0 131 -10q4 0 26.5 -3.5t30.5 -3.5q27 0 93 25h49v-1210q0 -119 110 -136v-61h-465v63q67 10 92 50t25 137v549h-344v-580q0 -74 28.5 -111t94.5 -47v-61h-496zM430 874h344v218 q-39 36 -39 82q0 28 25 65q18 21 18 37q0 29 -27 45t-77 16q-244 0 -244 -368v-95z" />
</font>
</defs>
</svg>
