<?xml version="1.0" standalone="no"?>
<!DOCTYPE svg PUBLIC "-//W3C//DTD SVG 1.1//EN" "http://www.w3.org/Graphics/SVG/1.1/DTD/svg11.dtd" >
<svg xmlns="http://www.w3.org/2000/svg">
<metadata></metadata>
<defs>
<font id="modern_twosxtn_itc_stdlight" horiz-adv-x="1253" >
<font-face units-per-em="2048" ascent="1638" descent="-410" />
<missing-glyph horiz-adv-x="552" />
<glyph unicode="&#xfb01;" horiz-adv-x="1292" d="M47 915v41h195q8 204 123.5 320.5t320.5 116.5q89 0 160 -21t114.5 -55t66 -75t22.5 -85q0 -59 -33 -93t-78 -34q-50 0 -79.5 29t-29.5 74q0 51 33 77q41 35 41 41q0 34 -60.5 67.5t-154.5 33.5q-76 0 -136 -30t-89 -79q-7 -12 -12 -26t-8 -33.5t-5 -34t-3 -42.5 t-1.5 -43.5t-1 -53t-0.5 -54.5h621v-768q0 -35 2.5 -54t12.5 -38.5t30.5 -29.5t55.5 -18t89 -13v-35h-569v35q46 4 77 9.5t52.5 15t33 19t17.5 28.5t7 35t1 46v598q0 33 -3 54t-14 36t-22 22.5t-39.5 11.5t-52 4.5t-72.5 0.5h-227v-727q0 -30 1.5 -46t7.5 -35t17.5 -28.5 t32.5 -19t52.5 -15t77.5 -9.5v-35h-560v35q53 5 86.5 13.5t53 18.5t28.5 30.5t11 38t2 52.5v727h-195z" />
<glyph unicode="&#xfb02;" horiz-adv-x="1308" d="M47 0v35q57 5 93 13t57.5 18t31.5 29.5t12.5 38.5t2.5 54v727h-197v41h197q4 119 58.5 218.5t154.5 160t225 60.5q51 0 112 -11t101 -30l164 39v-1205q0 -35 2.5 -54t12.5 -38.5t32 -29.5t58 -18t93 -13v-35h-565v35q63 9 97.5 18.5t52.5 29t22 41t4 64.5v928 q-63 27 -63 90q0 35 17.5 62t17.5 35q0 16 -63.5 33.5t-104.5 17.5q-119 0 -178.5 -92t-59.5 -267v-39h268v-41h-268v-727q0 -80 34 -112t144 -41v-35h-565z" />
<glyph horiz-adv-x="2048" />
<glyph horiz-adv-x="2048" />
<glyph unicode="&#xd;" horiz-adv-x="2048" />
<glyph unicode=" "  horiz-adv-x="552" />
<glyph unicode="&#x09;" horiz-adv-x="552" />
<glyph unicode="&#xa0;" horiz-adv-x="552" />
<glyph unicode="!" horiz-adv-x="620" d="M178 109q0 51 36.5 86.5t90.5 35.5t89.5 -35.5t35.5 -86.5t-36.5 -87t-88.5 -36q-53 0 -90 36t-37 87zM190 1178q0 107 29.5 161t95.5 54q127 0 127 -215q0 -87 -40 -281t-48 -248q-5 -34 -7.5 -78.5t-3 -67.5t0 -89.5t0.5 -79.5h-55v74q0 157 -13 241q-7 43 -46.5 241.5 t-39.5 287.5z" />
<glyph unicode="&#x22;" horiz-adv-x="890" d="M203 1284q0 109 80 109q79 0 79 -109q0 -29 -14 -129l-47 -293h-37l-47 293q-14 100 -14 129zM530 1284q0 109 80 109t80 -109q0 -29 -14 -129l-47 -293h-37l-47 293q-15 107 -15 129z" />
<glyph unicode="#" horiz-adv-x="1269" d="M82 344v123h223l78 371h-301v123h326l86 405h120l-86 -405h340l84 405h123l-86 -405h199v-123h-223l-76 -371h299v-123h-324l-84 -401h-123l86 401h-342l-84 -401h-122l84 401h-197zM426 469h342l76 369h-340z" />
<glyph unicode="$" horiz-adv-x="1343" d="M145 322q0 56 32 92.5t83 36.5q47 0 79 -35.5t32 -89.5q0 -47 -23 -80q-35 -50 -35 -58q0 -9 11.5 -25t38.5 -37.5t63.5 -40t93 -31.5t121.5 -13h6v584q-225 55 -329.5 141t-104.5 225q0 152 124 256.5t310 116.5v197h62v-195q178 -3 302 -88.5t124 -200.5q0 -61 -27 -95 t-70 -34q-41 0 -68.5 32t-27.5 83q0 52 29 84q3 3 15 16t18 20.5t6 12.5q0 9 -10.5 23.5t-35 32.5t-58 33.5t-85.5 26.5t-112 13v-485q58 -16 93 -26.5t86.5 -27.5t83 -33t70 -39t61.5 -49t44.5 -59.5t31 -74.5t9.5 -89q0 -177 -136 -300t-343 -140v-235h-62v233h-6 q-103 0 -197 30t-158.5 76.5t-102.5 104t-38 111.5zM375 1087q0 -99 65 -147t207 -84v467q-132 -9 -202 -76.5t-70 -159.5zM709 45q163 23 252.5 103t89.5 188q0 34 -5 62.5t-17.5 50.5t-25 39t-36 31.5t-40.5 23.5t-49 19t-51.5 15.5t-58.5 15.5t-59 15v-563z" />
<glyph unicode="%" horiz-adv-x="1785" d="M88 993q0 155 111.5 271t255.5 116q143 0 254.5 -115.5t111.5 -271.5t-111.5 -271.5t-254.5 -115.5q-144 0 -255.5 116t-111.5 271zM258 993q0 -183 43.5 -264.5t153.5 -81.5t153 82.5t43 263.5q0 183 -43.5 264.5t-152.5 81.5q-110 0 -153.5 -81t-43.5 -265zM504 -37 l676 1419h94l-672 -1419h-98zM967 373q0 156 110.5 271.5t253.5 115.5t255 -115.5t112 -271.5q0 -157 -112.5 -272t-254.5 -115q-143 0 -253.5 115.5t-110.5 271.5zM1137 373q0 -183 42.5 -264.5t151.5 -81.5t153 82.5t44 263.5q0 183 -44.5 264.5t-152.5 81.5 q-109 0 -151.5 -81.5t-42.5 -264.5z" />
<glyph unicode="&#x26;" horiz-adv-x="1587" d="M88 375q0 90 26.5 160t80.5 122t122.5 88.5t165.5 69.5q-67 165 -67 275q0 135 81.5 219t190.5 84q124 0 194 -72.5t70 -175.5q0 -114 -65.5 -188.5t-200.5 -129.5q59 -120 163.5 -285.5t166.5 -242.5q27 51 56 124t49 134t48.5 125.5t57 109t72 73t96.5 28.5 q58 0 97.5 -41t39.5 -94q0 -55 -32 -89.5t-74.5 -34t-84.5 29.5q-2 1 -7.5 6.5t-8 7t-7.5 5.5t-8.5 5t-8.5 2.5t-11 1.5q-28 0 -48.5 -17t-40 -56.5t-37 -84.5t-51 -120.5t-71.5 -145.5q63 -95 130.5 -145.5t130.5 -50.5q76 0 118.5 81.5t42.5 231.5v33h41v-35 q0 -205 -73 -307.5t-226 -102.5q-57 0 -105.5 20t-81.5 48t-83 80q-160 -148 -373 -148q-203 0 -339 119.5t-136 282.5zM287 479q0 -111 45 -209.5t130 -160.5t191 -62q77 0 146.5 28t107.5 77q-161 220 -245 354q-83 133 -158 274q-107 -32 -162 -110.5t-55 -190.5z M535 1198q0 -110 133 -334q113 32 178 106.5t65 170.5q0 97 -59.5 154t-142.5 57q-81 0 -127.5 -45t-46.5 -109z" />
<glyph unicode="'" horiz-adv-x="550" d="M197 1286q0 109 79 109q80 0 80 -109q0 -29 -14 -129l-47 -293h-37l-47 293q-14 100 -14 129z" />
<glyph unicode="(" horiz-adv-x="704" d="M98 532q0 258 46.5 432.5t164.5 297.5q151 157 348 157v-41q-208 -15 -287 -193t-79 -593q0 -159 3.5 -262.5t16 -215t37 -178.5t64.5 -126.5t101 -88t144 -34.5v-41q-200 0 -348 157q-118 123 -164.5 297.5t-46.5 431.5z" />
<glyph unicode=")" horiz-adv-x="704" d="M47 -313q208 15 288.5 194.5t80.5 591.5q0 117 -2 202t-8.5 175.5t-18 153t-30 125t-46 103t-65 74t-87 50.5t-112.5 22v41q197 0 348 -157q118 -124 165.5 -299t47.5 -431t-47.5 -430.5t-165.5 -298.5q-148 -157 -348 -157v41z" />
<glyph unicode="*" horiz-adv-x="894" d="M137 934q0 9 8 23t17 22q36 32 119 35.5t110 11.5l10 -14q-21 -20 -52 -69t-60.5 -79t-65.5 -30q-39 0 -62.5 24.5t-23.5 75.5zM141 1169q0 51 23.5 76t62.5 25q36 0 65.5 -31t60 -80t50.5 -69l-8 -15q-27 8 -110.5 11.5t-118.5 35.5q-25 25 -25 47zM365 791 q0 44 33.5 105.5t41.5 94.5h17q8 -34 43 -96.5t35 -103.5q0 -39 -26 -62.5t-60 -23.5t-59 23.5t-25 62.5zM367 1307q0 40 24.5 63t59.5 23t60.5 -24t25.5 -62q0 -43 -34 -106t-42 -95h-19q-7 32 -41 95t-34 106zM496 1085q19 17 41.5 51t39 60.5t42 47t53.5 20.5 q39 0 63.5 -25.5t24.5 -75.5q0 -22 -27 -45q-36 -32 -118 -35.5t-109 -11.5zM498 1012l8 16q26 -8 110 -12.5t119 -36.5q25 -25 25 -45q0 -50 -23.5 -75t-62.5 -25q-36 0 -65.5 30.5t-60 79t-50.5 68.5z" />
<glyph unicode="+" d="M106 662v96h469v450h97v-450h475v-96h-473v-451h-96v451h-472z" />
<glyph unicode="," horiz-adv-x="542" d="M139 82q0 56 33.5 88.5t77.5 32.5q68 0 112 -50t44 -126q0 -81 -54.5 -160.5t-161.5 -140.5l-18 34q160 96 160 189q0 53 -35 53q-2 0 -11 -4t-23.5 -8t-29.5 -4q-37 0 -65.5 30t-28.5 66z" />
<glyph unicode="-" horiz-adv-x="391" d="M0 414v129h391v-129h-391z" />
<glyph unicode="." horiz-adv-x="552" d="M150 109q0 51 36 86.5t90 35.5t89.5 -35.5t35.5 -86.5t-36.5 -87t-88.5 -36t-89 36t-37 87z" />
<glyph unicode="/" horiz-adv-x="886" d="M47 -137l690 1638h115l-684 -1638h-121z" />
<glyph unicode="0" d="M113 682q0 161 44.5 297.5t117.5 225.5t165 138.5t189 49.5t188.5 -49.5t164.5 -138.5t117 -225.5t44 -297.5q0 -160 -44 -296t-117 -225t-164.5 -138.5t-188.5 -49.5q-96 0 -188 49t-165 137t-118 225t-45 298zM344 682q0 -352 62.5 -510t222.5 -158t221 157.5t61 510.5 t-61 511.5t-221 158.5t-222.5 -159.5t-62.5 -510.5z" />
<glyph unicode="1" horiz-adv-x="1456" d="M268 0v35q209 17 251 25q89 17 119 64q28 46 28 163v647v8q0 154 -11 194q-14 51 -61 66q-42 13 -195 12h-1h-1h-1h-1h-1h-1h-1h-1h-1h-1h-1h-1h-1h-1h-1h-1h-70h-45v35q336 0 486 144h110v-1102q0 -165 66.5 -203t304.5 -51q22 -1 33 -2v-35h-1000z" />
<glyph unicode="2" horiz-adv-x="1210" d="M119 0q1 40 13 78.5t30 71t50.5 70t64 67t81 70t90 72t102.5 79.5t109 86q82 66 137.5 177.5t55.5 238.5q0 161 -77.5 251.5t-221.5 90.5q-124 0 -226 -72.5t-102 -146.5q0 -19 7.5 -28.5t16 -11t27 -2t27.5 -1.5q38 -6 64 -40t26 -79q0 -47 -34 -82t-76 -35 q-71 0 -115.5 49t-44.5 123q0 144 135.5 255.5t325.5 111.5q107 0 201 -34t158.5 -89.5t102 -129t37.5 -151.5q0 -83 -38 -156.5t-100.5 -130.5t-139.5 -108.5t-158.5 -99t-152.5 -93t-127 -100t-78 -111.5h508q71 0 117 13t75 44t43.5 73t24.5 110h33l-25 -430h-946z" />
<glyph unicode="3" horiz-adv-x="1196" d="M102 279q0 76 37.5 118.5t91.5 42.5q53 0 88 -37t35 -90q0 -49 -28 -79.5t-68 -30.5h-11h-10.5t-8 -0.5t-7.5 -1.5t-5 -3t-4 -5t-2 -7t-1 -10q0 -16 19.5 -41.5t55.5 -53t101.5 -47.5t144.5 -20q324 0 324 357q0 94 -22.5 169.5t-57.5 110.5q-66 66 -205 66 q-48 0 -107 -10.5t-63 -10.5q-43 0 -43 37q0 39 50 39q2 0 40 -4t78 -4q132 0 207.5 82t75.5 217q0 138 -73.5 213.5t-209.5 75.5q-114 0 -199 -54t-85 -120q0 -9 6.5 -17t15.5 -8q4 0 10.5 1t10.5 1q55 0 86.5 -31.5t31.5 -89.5q0 -51 -33 -83.5t-81 -32.5 q-67 0 -109.5 49.5t-42.5 119.5q0 124 115.5 215t308.5 91q108 0 200 -28.5t152 -74.5t93.5 -103.5t33.5 -117.5q0 -74 -29 -136t-81 -102q-35 -26 -86 -43t-83.5 -23t-109.5 -17q436 -15 436 -367q0 -121 -74.5 -215.5t-197 -143.5t-268.5 -49q-190 0 -316.5 94t-126.5 212 z" />
<glyph unicode="4" horiz-adv-x="1335" d="M82 440q52 73 302.5 412.5t383.5 540.5h180v-908h299l-26 -84h-273v-170v-16q0 -43 1 -61t8.5 -42.5t21.5 -33.5t43 -20t70 -15.5t106 -7.5v-35h-688v35q93 9 139.5 17.5t70.5 33t27 47.5t3 82v8.5v7.5v170h-639zM180 485h570v781q-65 -87 -160 -220.5t-119 -166.5 q-44 -60 -145.5 -196.5t-145.5 -197.5z" />
<glyph unicode="5" horiz-adv-x="1200" d="M125 287q0 68 42.5 118t106.5 50q51 0 83 -32.5t32 -78.5q0 -51 -25 -82t-63 -39q-2 0 -8.5 -1.5t-9.5 -2t-9.5 -2.5t-10 -4t-8 -5.5t-7 -8t-4.5 -11t-2 -14.5q0 -56 78.5 -108t205.5 -52q338 0 338 461q0 192 -76.5 295.5t-216.5 103.5q-66 0 -133 -36 q-38 -20 -67.5 -44t-54 -57t-39 -58t-37.5 -69l-41 11q54 380 75 757q208 -30 351 -30q179 0 370 45q-17 -119 -134 -191t-281 -72q-117 0 -271 44q-7 -53 -15 -136l-9 -82q-4 -33 -15.5 -116.5t-15.5 -126.5q67 102 154 152t206 50q102 0 192.5 -38t153.5 -100t99.5 -142.5 t36.5 -165.5q0 -129 -76 -243.5t-207 -183.5t-283 -69q-175 0 -290 91.5t-115 222.5z" />
<glyph unicode="6" horiz-adv-x="1232" d="M121 657q0 147 44.5 280.5t123.5 234.5t197.5 161t256.5 60t245.5 -74.5t107.5 -190.5q0 -65 -37 -107t-96 -42q-48 0 -80.5 34t-32.5 93q0 36 20 65.5t56 42.5q3 1 9.5 3.5t11.5 4.5t10.5 4.5t8.5 5t3 5.5q0 38 -67.5 76.5t-162.5 38.5q-135 0 -225 -70.5t-127 -202.5 q-18 -64 -31.5 -162t-13.5 -186v-80q51 105 132 157t206 52q79 0 157 -32t141 -87.5t102.5 -141t39.5 -183.5q0 -81 -37 -160.5t-101 -142.5t-157.5 -101.5t-199.5 -38.5q-103 0 -193.5 45t-160 129.5t-110 216t-40.5 293.5zM346 430q0 -200 75.5 -308t205.5 -108 q141 0 207.5 97t66.5 299q0 206 -56 307.5t-192 101.5q-144 0 -225.5 -104t-81.5 -285z" />
<glyph unicode="7" horiz-adv-x="1081" d="M82 948l22 418h977l21 -43q-120 -148 -199.5 -265.5t-140.5 -243.5t-89 -254t-28 -271q0 -25 1 -62t1 -61q0 -90 -26 -141.5t-97 -51.5q-137 0 -137 189q0 44 7.5 90t18 87t33.5 92.5t41 90t54.5 98t60.5 97.5t72 107t76.5 108.5t86.5 119.5t89 124h-537q-122 0 -154 -8 q-59 -14 -85 -74q-21 -47 -33 -146h-35z" />
<glyph unicode="8" horiz-adv-x="1210" d="M100 373q0 129 105 224t315 124q-186 12 -284.5 98.5t-98.5 224.5q0 142 134 245.5t333 103.5t335 -103t136 -246q0 -138 -99 -224.5t-286 -98.5q208 -30 314 -123.5t106 -224.5q0 -117 -70.5 -209.5t-185.5 -141.5t-250 -49t-249.5 49.5t-184.5 142t-70 208.5zM332 348 q0 -172 63.5 -253t208.5 -81q146 0 210.5 81t64.5 253q0 178 -65.5 264t-209.5 86q-145 0 -208.5 -85.5t-63.5 -264.5zM342 1049q0 -148 68 -229t194 -81q125 0 192.5 81t67.5 229q0 156 -64 229.5t-196 73.5t-197 -74t-65 -229z" />
<glyph unicode="9" horiz-adv-x="1230" d="M106 942q0 118 66.5 222t180 166.5t243.5 62.5q227 0 370.5 -188.5t143.5 -487.5q0 -161 -47 -300t-128 -236t-193 -152.5t-240 -55.5q-149 0 -253 74.5t-104 183.5q0 66 35.5 108t93.5 42q52 0 84.5 -34.5t32.5 -90.5q0 -38 -20 -66.5t-56 -42.5q-3 -1 -10 -3.5 t-11.5 -4t-9.5 -4t-7.5 -5t-2.5 -5.5q0 -36 63.5 -73.5t166.5 -37.5q202 0 294.5 155t92.5 472q0 11 -1 40t-1 40q-95 -213 -334 -213q-115 0 -218 55.5t-167 156.5t-64 222zM326 952q0 -206 61 -304.5t195 -98.5q136 0 219.5 100.5t83.5 290.5t-77.5 301t-213.5 111 q-142 0 -205 -98.5t-63 -301.5z" />
<glyph unicode=":" horiz-adv-x="559" d="M150 629q0 50 36.5 86.5t89.5 36.5q52 0 88.5 -36t36.5 -87t-36.5 -87t-88.5 -36t-89 36t-37 87zM158 109q0 50 36 86t89 36q54 0 90.5 -35.5t36.5 -86.5t-37 -87t-90 -36t-89 36.5t-36 86.5z" />
<glyph unicode=";" horiz-adv-x="540" d="M137 82q0 55 34 88t79 33q67 0 110 -49.5t43 -126.5q0 -81 -54.5 -160.5t-160.5 -140.5l-18 34q160 96 160 189q0 53 -35 53q-2 0 -11 -4t-23.5 -8t-29.5 -4q-39 0 -66.5 30t-27.5 66zM137 629q0 50 37 86.5t90 36.5q52 0 88.5 -36t36.5 -87t-36.5 -87t-88.5 -36 q-53 0 -90 36t-37 87z" />
<glyph unicode="&#x3c;" d="M106 662v96l1041 450v-96l-928 -401l928 -404v-96z" />
<glyph unicode="=" d="M106 526v97h1041v-97h-1041zM106 799v96h1041v-96h-1041z" />
<glyph unicode="&#x3e;" d="M106 211v96l928 402l-928 403v96l1041 -450v-96z" />
<glyph unicode="?" horiz-adv-x="999" d="M76 1092q0 131 113 216t282 85q197 0 318.5 -94.5t121.5 -241.5q0 -60 -15.5 -109t-48.5 -89.5t-72 -72.5t-97 -69q-10 -6 -47 -29.5t-48 -30.5t-42 -28t-41.5 -31t-33 -30t-31 -34t-20.5 -33.5t-16 -39.5t-4 -41q0 -33 19.5 -63.5t60.5 -30.5q75 0 68 153h41q0 -4 1 -11 t1 -11q0 -1 0.5 -20.5t0 -28t-4 -25.5t-9.5 -31q-13 -30 -40.5 -48.5t-55.5 -18.5q-58 0 -90.5 41t-32.5 102q0 111 105 229q107 121 136 161q81 112 85 237v16q0 139 -66 210t-186 71q-96 0 -173 -53.5t-77 -110.5q0 -13 2.5 -21t14.5 -12.5t16 -5.5t26 -3q5 -1 7 -1 q32 -3 55 -30t23 -68q0 -55 -32 -85t-77 -30q-57 0 -97 46t-40 114zM332 109q0 50 37 86t90 36q54 0 89.5 -35.5t35.5 -86.5t-36.5 -87t-88.5 -36q-53 0 -90 36.5t-37 86.5z" />
<glyph unicode="@" horiz-adv-x="1447" d="M104 623q0 102 55 206t148 186.5t229 134.5t285 52q233 0 379 -111t146 -278q0 -89 -31 -170t-80 -136t-110 -87.5t-121 -32.5q-49 0 -82 13.5t-50.5 41.5t-25 53.5t-12.5 65.5q-49 -89 -98.5 -134.5t-119.5 -45.5q-102 0 -173.5 78t-71.5 186q0 103 60 196.5t148.5 147 t174.5 53.5q96 0 143 -88q20 -45 39 -45q8 0 15 3t14 10.5t12.5 14.5t12.5 19t11.5 20.5t12.5 24t12 23.5h31q-14 -76 -41 -193.5t-42.5 -197.5t-15.5 -135q0 -70 64 -70q37 0 78 29t77.5 79.5t60.5 131t24 172.5q0 144 -111.5 232.5t-304.5 88.5q-142 0 -263 -46t-203 -124 t-127.5 -182.5t-45.5 -220.5q0 -174 120 -278.5t308 -104.5q207 0 336 123l47 -21q-61 -63 -172.5 -103t-212.5 -40q-122 0 -223 37.5t-167 101t-102.5 146.5t-36.5 174zM506 551q0 -129 112 -129q45 0 96.5 39.5t86.5 109.5q29 58 49 145t20 152q0 66 -31.5 99.5 t-78.5 33.5q-71 0 -132 -77t-91.5 -179t-30.5 -194z" />
<glyph unicode="A" horiz-adv-x="1579" d="M0 0v35q47 9 76 17.5t64 25.5t60 42.5t54 66.5t57 100t60 141l385 985h88l463 -1132q24 -60 38 -91t32 -60t31.5 -40.5t38 -23t50.5 -16.5t69 -13q8 -1 13 -2v-35h-625v35q116 19 148 33q43 20 43 55q0 14 -2 29t-4 24.5t-7.5 26t-7.5 22t-9.5 24t-8.5 21.5l-119 285 h-504l-75 -201q-1 -4 -10 -27t-11.5 -30.5t-8.5 -28.5t-8.5 -34t-5 -32.5t-2.5 -37.5q0 -111 220 -129v-35h-582zM500 596h471l-248 594z" />
<glyph unicode="B" horiz-adv-x="1443" d="M82 0v35q34 2 60.5 5t48.5 7.5t38 7.5t28 11t20 12.5t13.5 17t8.5 19t4.5 23.5t1.5 27v33v9v952v9q0 31 -0.5 44.5t-4.5 34t-12.5 29t-23.5 20t-40 16.5t-59 10.5t-83 8.5v35h717q239 0 370 -90t131 -223q0 -86 -53 -154.5t-147 -101.5q-113 -40 -316 -47q280 -8 421 -98 t141 -269q0 -175 -139 -279t-408 -104h-717zM504 201q0 -93 49.5 -126.5t191.5 -33.5q375 0 375 328q0 93 -22 159t-58 104t-95.5 60t-118.5 28.5t-144 6.5h-178v-526zM504 768h164q103 0 173.5 12t126 43t81.5 88t26 144q0 145 -85 207.5t-261 62.5q-96 0 -144.5 -16 t-64.5 -46.5t-16 -91.5v-403z" />
<glyph unicode="C" horiz-adv-x="1312" d="M96 680q0 138 53 270t139 228.5t202 155.5t237 59q143 0 258 -84q7 -5 22 -16.5t22 -17t18 -12t19 -9.5t15 -3q25 0 43 32t39 95h31v-553h-35q-65 265 -170.5 396t-257.5 131q-409 0 -409 -742q0 -304 97.5 -450t317.5 -146q181 0 296 119.5t130 351.5h43 q-6 -85 -19.5 -150t-49.5 -130q-63 -113 -170.5 -172.5t-249.5 -59.5q-129 0 -245 59t-198 156.5t-130 226.5t-48 265z" />
<glyph unicode="D" horiz-adv-x="1527" d="M86 0v35q34 2 60.5 5t48.5 7.5t38 7.5t28 11t20 12.5t13.5 17t8.5 19t4.5 23.5t1.5 27v33v9v952v9q0 31 -0.5 44.5t-4.5 34t-12.5 29t-23.5 20t-40 16.5t-59 10.5t-83 8.5v35h580q167 0 258 -20q145 -34 261 -131t181.5 -238t65.5 -297q0 -196 -91 -356t-249 -250 q-74 -42 -180 -58t-267 -16h-559zM508 227q0 -89 8 -113q14 -47 80 -62q50 -11 145 -11q111 0 190.5 24.5t132.5 72.5t84.5 127t44.5 178t13 237q0 178 -21 294.5t-75 198t-146.5 117t-234.5 35.5q-34 0 -60 -0.5t-48 -4t-37.5 -6t-28 -10t-20 -12.5t-13 -18t-8.5 -21 t-4.5 -27t-1.5 -31v-38v-930z" />
<glyph unicode="E" horiz-adv-x="1380" d="M80 0v35q34 2 60.5 5t48.5 7.5t38 7.5t28 11t20 12.5t13.5 17t8.5 19t4.5 23.5t1.5 27v33v9v952v9q0 31 -0.5 44.5t-4.5 34t-12.5 29t-23.5 20t-40 16.5t-59 10.5t-83 8.5v35h1155l4 -489h-35q-22 232 -132.5 340t-330.5 108q-53 0 -85 -2t-62 -8.5t-45.5 -17.5t-27 -31 t-15.5 -47t-4 -68v-401h41q70 0 120 7t86 25.5t57.5 41.5t35 63t19.5 82.5t9 107.5h33v-708h-33q-5 90 -19.5 148t-49.5 104.5t-97 67t-157 20.5h-45v-439q0 -125 10 -158q13 -46 64 -60q40 -11 135 -11q247 0 370 124t150 378h35l-9 -543h-1177z" />
<glyph unicode="F" horiz-adv-x="1282" d="M76 0v35q43 3 74 6.5t55 10t39.5 11.5t26.5 17t16.5 20t8 27.5t3 32.5t0.5 41v6v952v9q0 31 -0.5 44.5t-4.5 34t-12.5 29t-23.5 20t-40 16.5t-59 10.5t-83 8.5v35h1153l4 -479h-33q-25 226 -129 332t-307 106h-58.5t-49 -1.5t-42.5 -3.5t-33.5 -6t-28 -10t-20.5 -15 t-16.5 -21t-9.5 -28t-6.5 -35t-1.5 -44v-428h75q48 0 86.5 5t67 17t49 25t35.5 37.5t24 45t15 56.5t9 63.5t7 74.5h35v-705h-35q-7 93 -19.5 149t-43.5 103t-87.5 67.5t-144.5 20.5h-73v-485v-4q0 -29 0.5 -42.5t4 -33.5t10 -28t20 -20t32.5 -16.5t49.5 -11.5t68.5 -10 t91 -6v-35h-698z" />
<glyph unicode="G" horiz-adv-x="1546" d="M88 678q0 134 52.5 265t138 229.5t202 159.5t238.5 61q147 0 274 -88q6 -5 20 -15t20 -14l16.5 -11t17.5 -10t15 -5.5t16 -2.5q35 0 76 131h34l4 -530h-34q-74 262 -183.5 383t-275.5 121q-406 0 -406 -670q0 -668 389 -668q170 0 264.5 98.5t94.5 293.5v86v12 q0 30 -0.5 43.5t-4 33.5t-12 28t-23 19t-38 16t-56 10t-79.5 8v34h635v-34q-43 -3 -74 -6.5t-55 -10t-39.5 -11t-26.5 -16.5t-16.5 -19.5t-8 -27t-3 -31.5t-0.5 -39v-9v-506h-35q-25 106 -46 153t-55 47q-16 0 -38 -19t-68 -67q-55 -58 -139 -92.5t-172 -34.5 q-161 0 -305 102t-229 265t-85 338z" />
<glyph unicode="H" horiz-adv-x="1617" d="M80 0v35q34 2 60.5 5t48.5 7.5t38 7.5t28 11t20 12.5t13.5 17t8.5 19t4.5 23.5t1.5 27v33v9v952v9q0 31 -0.5 44.5t-4.5 34t-12.5 29t-23.5 20t-40 16.5t-59 10.5t-83 8.5v35h643v-35q-153 -11 -191 -42q-28 -23 -30 -83v-47v-409h614v409v9q0 31 -0.5 44.5t-4.5 34 t-12.5 29t-23.5 20t-40 16.5t-59 10.5t-83 8.5v35h647v-35q-43 -3 -74.5 -6.5t-55.5 -10t-40 -11.5t-27 -17t-16.5 -20t-8 -27.5t-3 -32.5t-0.5 -41v-6v-952v-6q0 -28 0.5 -41t3 -32.5t8 -27.5t16.5 -20t27 -17t40 -11.5t55.5 -10t74.5 -6.5v-35h-647v35q34 2 60.5 5 t48.5 7.5t38 7.5t28 11t20 12.5t13.5 17t8.5 19t4.5 23.5t1.5 27v33v9v502h-614v-502v-9q0 -36 1 -52t7.5 -37.5t19 -30t38 -19.5t62.5 -15.5t93 -8.5v-35h-643z" />
<glyph unicode="I" horiz-adv-x="798" d="M78 0v35q43 3 74 6.5t55 10t39.5 11.5t26.5 17t16.5 20t8 27.5t3 32.5t0.5 41v6v952v9q0 31 -0.5 44.5t-4.5 34t-12.5 29t-23.5 20t-40 16.5t-59 10.5t-83 8.5v35h641v-35q-42 -3 -72.5 -6.5t-54 -10t-39 -11.5t-26 -17t-16 -20t-8 -27t-3 -31t-0.5 -40v-9v-952v-9 q0 -28 0.5 -40.5t3 -31.5t8 -27t16 -20t26 -16.5t39 -11t54 -10t72.5 -6.5v-35h-641z" />
<glyph unicode="J" horiz-adv-x="1142" d="M27 289q0 85 40.5 131.5t100.5 46.5q58 0 94.5 -38.5t36.5 -86.5q0 -52 -34 -86.5t-89 -34.5q-6 0 -16 2t-15.5 2t-11.5 -2.5t-9 -12t-3 -26.5q0 -60 74.5 -115t189.5 -55q88 0 151 38.5t91 109.5q28 76 28 307v690q0 77 -8 98q-17 41 -90 57q-51 11 -151 17v35h681v-35 q-44 -3 -77 -6.5t-58 -10t-41.5 -11.5t-27.5 -17t-17 -19.5t-8.5 -27t-3 -31.5t-0.5 -39v-10v-667q0 -112 -25 -269q-16 -95 -132.5 -172.5t-268.5 -77.5q-102 0 -181.5 27t-126 73t-70 100.5t-23.5 115.5z" />
<glyph unicode="K" horiz-adv-x="1581" d="M76 0v35q34 2 60.5 5t48.5 7.5t38 7.5t28 11t20 12.5t13.5 17t8.5 19t4.5 23.5t1.5 27v33v9v952v9q0 31 -0.5 44.5t-4.5 34t-12.5 29t-23.5 20t-40 16.5t-59 10.5t-83 8.5v35h645v-35q-49 -3 -83 -8.5t-59 -10.5t-40 -16.5t-23.5 -20t-12.5 -29t-4.5 -34t-0.5 -44.5v-9 v-510l356 332q94 87 136 141.5t42 96.5q0 26 -11 44.5t-24.5 29t-44.5 18.5t-50.5 11t-63.5 9v35h659v-35q-76 -9 -134.5 -28t-121 -59.5t-111 -81t-135.5 -120.5l-135 -122l383 -646q73 -124 102 -157q49 -57 128 -72q35 -7 86 -10v-35h-660v35q108 12 154.5 25.5 t46.5 43.5q0 26 -53 117l-332 563l-217 -192v-385v-6q0 -28 0.5 -41t3 -32.5t8 -27.5t16.5 -20t26.5 -17t39.5 -11.5t55 -10t74 -6.5v-35h-645z" />
<glyph unicode="L" horiz-adv-x="1300" d="M88 0v35q43 3 74 6.5t55 10t39.5 11.5t26.5 17t16.5 20t8 27.5t3 32.5t0.5 41v6v952v9q0 31 -0.5 44.5t-4.5 34t-12.5 29t-23.5 20t-40 16.5t-59 10.5t-83 8.5v35h666v-35q-168 -11 -210 -42q-31 -23 -33 -81q-1 -12 -1 -49v-964q0 -40 2.5 -61.5t12.5 -42.5t31 -30 t55 -14.5t89 -5.5q232 0 361 127t151 379h35v-547h-1159z" />
<glyph unicode="M" horiz-adv-x="1796" d="M74 0v35q68 11 112 30t78 57t49 101t15 158v778v8q0 28 -0.5 40t-3.5 31.5t-8.5 27.5t-17.5 20t-28.5 17t-42.5 11.5t-59.5 10t-79.5 6.5v35h465l356 -1022l355 1022h450v-35q-34 -2 -60.5 -5t-48.5 -7.5t-38 -7.5t-28 -11t-20 -12.5t-13.5 -17t-8.5 -18.5t-4.5 -23.5 t-1.5 -26.5v-31v-12v-952q0 -79 8 -101q16 -40 85 -55q44 -10 130 -16v-35h-645v35q34 2 60.5 5t48.5 7.5t38 7.5t28 11t20 12.5t13.5 17t8.5 19t4.5 23.5t1.5 27v33v9v1071l-456 -1305l-453 1305v-897q0 -40 1.5 -68.5t6.5 -66t15 -63.5t28 -54.5t43 -46.5t62.5 -31 t85.5 -16v-35h-551z" />
<glyph unicode="N" horiz-adv-x="1538" d="M68 0v35q41 6 74 18t58 24.5t43.5 37t31 42.5t21 55t12.5 60.5t6 73.5t2.5 78t0.5 90v23v659q-54 71 -106.5 99.5t-142.5 35.5v35h370l736 -1059v625q0 93 -7 152.5t-23.5 105.5t-49 72t-77.5 42.5t-116 26.5v35h580v-35q-74 -16 -122 -41.5t-74.5 -51.5t-39 -81 t-14.5 -96t-2 -129v-959h-55l-801 1151v-587q0 -31 -1 -81.5t-1 -76.5t1.5 -67t5.5 -62t12.5 -52.5t21 -48.5t32 -38t45.5 -33.5t61 -24t79 -18.5v-35h-561z" />
<glyph unicode="O" horiz-adv-x="1429" d="M96 682q0 175 81 338t226 268t314 105q127 0 243.5 -62.5t197.5 -162.5t129 -228t48 -258q0 -129 -48 -257t-129 -228t-197.5 -162t-243.5 -62q-169 0 -314 104.5t-226 267t-81 337.5zM322 682q0 -347 93.5 -507.5t301.5 -160.5t300.5 160.5t92.5 507.5t-93 508.5 t-300 161.5q-209 0 -302 -161.5t-93 -508.5z" />
<glyph unicode="P" horiz-adv-x="1316" d="M76 0v35q34 2 60.5 5t48.5 7.5t38 7.5t28 11t20 12.5t13.5 17t8.5 19t4.5 23.5t1.5 27v33v9v952v9q0 31 -0.5 44.5t-4.5 34t-12.5 29t-23.5 20t-40 16.5t-59 10.5t-83 8.5v35h645q270 0 407.5 -94t137.5 -250q0 -169 -145.5 -267t-428.5 -98h-194v-450q0 -78 11 -101 q18 -40 98 -55q51 -10 151 -16v-35h-682zM498 698h190q87 0 147.5 13t109 47t72 97.5t23.5 158.5q0 311 -327 311q-134 0 -174.5 -22.5t-40.5 -96.5v-508z" />
<glyph unicode="Q" horiz-adv-x="1429" d="M96 682q0 175 81 338t226 268t314 105q127 0 243.5 -62.5t197.5 -162.5t129 -228t48 -258q0 -201 -106 -381t-273 -270q14 -99 50.5 -149t101.5 -50q152 0 152 314v12h34q4 -50 4 -88q0 -199 -80.5 -302.5t-193.5 -103.5q-83 0 -143 48.5t-82 133.5q-8 35 -13 131 q-36 -4 -69 -4q-169 0 -314 104.5t-226 267t-81 337.5zM322 682q0 -584 276 -653q-33 28 -53.5 71t-20.5 86q0 86 53 137.5t140 51.5q92 0 155 -72q20 -23 33.5 -47.5t21.5 -60t10.5 -49t8.5 -58.5q164 142 164 594q0 347 -93 508.5t-300 161.5q-209 0 -302 -161.5 t-93 -508.5zM565 184q0 -60 43.5 -115t108.5 -55q33 0 69 4q9 61 9 132q0 106 -23 145t-90 39q-47 0 -82 -40t-35 -110z" />
<glyph unicode="R" horiz-adv-x="1587" d="M78 0v35q34 2 60.5 5t48.5 7.5t38 7.5t28 11t20 12.5t13.5 17t8.5 19t4.5 23.5t1.5 27v33v9v950v9q0 31 -0.5 44.5t-4.5 34t-12.5 29t-23.5 20t-40 16.5t-59 10.5t-83 8.5v37h610q148 0 246.5 -12t171.5 -49q85 -42 134.5 -114.5t49.5 -148.5q0 -87 -50 -159.5 t-140 -110.5q-108 -46 -305 -57q60 -3 102 -8t87.5 -16t76.5 -28.5t60.5 -45t48 -66t31 -92.5t16.5 -123q8 -146 31 -202t89 -56q41 0 67 24t38 71.5t16 94.5t4 117h37q0 -43 -1 -67t-3.5 -63t-7.5 -61t-14 -52.5t-22 -48t-33 -38t-45.5 -31t-60.5 -17.5t-77 -7 q-92 0 -157.5 58.5t-71.5 160.5q-1 18 -3 51q-6 107 -10 152.5t-17.5 107.5t-33.5 82t-60.5 44.5t-96.5 30t-142 5.5h-143v-485v-8v-33.5t2 -27.5t5 -24t9 -19t15 -17l22.5 -12.5t31 -11t42 -8t54 -7t67.5 -4.5v-35h-670zM500 733h147q154 0 235.5 22t131.5 97q51 77 51 188 q0 68 -25 128t-67 94q-46 37 -113 50t-170 13q-51 0 -76.5 -0.5t-51 -6.5t-34.5 -13t-17.5 -25.5t-9.5 -39t-1 -58.5v-449z" />
<glyph unicode="S" horiz-adv-x="1245" d="M113 -14v643h34q69 -310 192.5 -462.5t324.5 -152.5q144 0 240.5 90t96.5 220q0 68 -31 117.5t-79.5 77.5t-120.5 52.5t-141 40t-154.5 42t-148.5 57.5q-96 47 -149.5 127.5t-53.5 175.5q0 70 35.5 138.5t94.5 121.5t142 86t172 33q80 0 159.5 -25.5t135.5 -62.5 q6 -4 20 -13.5t21 -14t16.5 -10t16.5 -8t12 -2.5q24 0 38.5 25.5t34.5 85.5q2 7 3 10h35v-538h-35q-47 192 -96 282q-126 230 -361 230q-130 0 -210.5 -75t-80.5 -173q0 -113 85 -163t342 -127q109 -33 171 -52q134 -41 207.5 -134t73.5 -204q0 -186 -142 -318.5 t-351 -132.5q-87 0 -178.5 29.5t-166.5 81.5q-7 5 -19.5 14.5t-19 14t-16 10t-17 8t-14.5 2.5q-11 0 -20 -6.5t-17.5 -23t-14 -30t-16 -42.5t-16.5 -45h-34z" />
<glyph unicode="T" horiz-adv-x="1200" d="M27 791v575h1144v-575h-34q-13 127 -48.5 236.5t-78.5 174.5q-44 66 -95.5 94.5t-123.5 28.5h-93v-1118q0 -77 10 -99q18 -40 99 -56q56 -11 168 -17v-35h-752v35q53 3 91.5 6.5t68.5 10t49.5 11t33 16.5t20 20t10 27.5t4 32t0.5 40.5v8v1118h-92q-72 0 -124 -28.5 t-96 -94.5q-43 -64 -77.5 -173.5t-47.5 -237.5h-36z" />
<glyph unicode="U" horiz-adv-x="1560" d="M55 1331v35h654v-35q-35 -2 -62.5 -5t-50.5 -7.5t-39.5 -7.5t-29.5 -11t-21 -12.5t-14 -17t-9 -19t-4.5 -24t-1.5 -27.5v-32v-9v-692q0 -107 5.5 -169.5t25.5 -102.5q79 -166 323 -166q180 0 277 94q61 59 79.5 128.5t18.5 194.5v418q0 115 -3 170.5t-15 119.5 t-39.5 92.5t-74.5 51.5t-122 33v35h559v-35q-46 -5 -82 -15.5t-62 -32t-44 -39.5t-29.5 -55.5t-18 -63.5t-9.5 -79.5t-3.5 -86.5t-0.5 -102v-3v-408q0 -66 -2 -103t-15.5 -89.5t-40.5 -95.5q-111 -185 -393 -185q-367 0 -489 209q-43 74 -43 264v713q0 79 -10 102 q-18 41 -95 56q-43 9 -119 14z" />
<glyph unicode="V" horiz-adv-x="1517" d="M14 1331v35h633v-35q-109 -15 -160 -36.5t-51 -63.5q0 -26 43 -144l322 -899l286 742q72 183 72 244q0 29 -6 51.5t-21 38t-31.5 26t-45 18.5t-53 12.5t-64.5 10.5v35h592v-35q-46 -4 -85.5 -16t-70 -29.5t-58.5 -46.5t-49.5 -58.5t-44 -75.5t-40 -87.5t-41.5 -102.5 l-369 -942h-86l-399 1074q-27 73 -40 106.5t-33.5 70.5t-32 49t-40 26.5t-53 19t-74.5 12.5z" />
<glyph unicode="W" horiz-adv-x="2029" d="M23 1331v35h602v-35q-97 -10 -135.5 -28.5t-38.5 -71.5q0 -28 26 -123l254 -848l246 825l-29 95q-12 41 -24 65t-24.5 40t-35.5 24t-45 12t-66 9q-7 1 -10 1v35h605v-35q-110 -8 -156.5 -28t-46.5 -70q0 -25 35 -148l239 -825l207 647q57 176 57 252q0 87 -53.5 126.5 t-169.5 45.5v35h545v-35q-89 -14 -134 -39t-77.5 -81.5t-69.5 -176.5l-329 -1061h-84l-301 1022l-308 -1022h-86l-337 1131q-31 104 -47 132q-30 54 -104 75q-41 12 -105 20z" />
<glyph unicode="X" horiz-adv-x="1523" d="M35 0v35q61 12 111.5 33t88 46t78.5 70t71.5 85.5t78.5 111.5l207 301l-293 457q-37 59 -60 88t-55 53t-68.5 34t-97.5 17v35h625v-35q-83 -12 -125.5 -28t-42.5 -43q0 -9 1.5 -17.5t5.5 -18.5t6 -16t9.5 -18.5t9.5 -16t12 -18t11 -16.5l205 -316l119 183q73 112 90 152 q16 39 16 73q0 87 -200 100v35h589v-35q-132 -23 -234.5 -102t-225.5 -271l-119 -186l323 -500q41 -62 66 -96.5t52.5 -63.5t56 -42.5t62 -22t83.5 -12.5v-35h-653v35q13 2 38 5.5t38 5.5t33 6t30.5 9t21.5 11.5t16 16.5t5 22q0 4 -5 18.5t-21 48t-40 70.5l-252 383 l-188 -275q-43 -63 -64.5 -110t-21.5 -96q0 -103 215 -115v-35h-608z" />
<glyph unicode="Y" horiz-adv-x="1400" d="M14 1331v35h602v-35q-28 -3 -41.5 -5t-37.5 -6t-36 -8.5t-26 -11t-20 -15t-6 -19.5q0 -24 1 -33.5t6.5 -26t18.5 -41.5l250 -483l195 324q86 143 86 206q0 52 -48 76.5t-141 36.5v41h569v-35q-58 -13 -102 -29t-81.5 -39.5t-63.5 -45.5t-56.5 -61.5t-51.5 -72t-56 -90.5 l-223 -370v-416v-6v-33.5t2 -27.5t5.5 -24t10.5 -19t17 -17t25.5 -13t35.5 -11t47.5 -8t60.5 -7.5t76 -5.5v-35h-756v35q190 11 238 41q34 22 38 76q1 15 1 55v397l-258 488q-34 64 -52 93.5t-40.5 59.5t-47.5 42.5t-56.5 23t-84.5 20.5z" />
<glyph unicode="Z" horiz-adv-x="1265" d="M92 0l828 1325h-160q-186 0 -294.5 -43t-166 -137.5t-84.5 -265.5h-35v487h991l-825 -1325h215q167 0 263 25t177 110q65 69 96 158.5t48 218.5h35v-553h-1088z" />
<glyph unicode="[" horiz-adv-x="890" d="M276 -354v1747h439v-41q-142 -12 -173 -21q-48 -15 -63 -57q-12 -37 -12 -148v-1214q0 -56 1.5 -86.5t10.5 -57.5t19.5 -38t38 -20t56.5 -12t84 -8q25 -2 38 -3v-41h-439z" />
<glyph unicode="\" horiz-adv-x="886" d="M53 1501h115l690 -1638h-121z" />
<glyph unicode="]" horiz-adv-x="890" d="M178 -313q143 12 171 20q51 13 66 55q13 37 13 150v1214q0 57 -1 88t-13 58t-19.5 38t-42.5 20.5t-59 12t-90 7.5q-16 1 -25 2v41h440v-1747h-440v41z" />
<glyph unicode="^" d="M127 535l451 831h96l452 -831h-96l-403 743l-402 -743h-98z" />
<glyph unicode="_" horiz-adv-x="1024" d="M-12 -154h1048v-102h-1048v102z" />
<glyph unicode="`" horiz-adv-x="1064" d="M223 1305q0 28 22 46.5t56 18.5q66 0 111 -61q35 -49 52.5 -72t45 -53t50 -44t54 -26.5t70.5 -17.5l-2 -33q-102 10 -206 43.5t-178.5 87.5t-74.5 111z" />
<glyph unicode="a" horiz-adv-x="1097" d="M80 213q0 106 94 182q31 25 70.5 46t73 34t86.5 27t85 20.5t96.5 19.5t94.5 19v133q0 51 -4 85.5t-16 68t-34 52.5t-59.5 30.5t-91.5 11.5q-85 0 -146 -34.5t-61 -67.5q0 -12 8 -20.5t19.5 -15.5t23 -16t19.5 -26.5t8 -42.5q0 -38 -31.5 -68t-68.5 -30q-56 0 -89.5 33.5 t-33.5 88.5q0 91 103 165.5t266 74.5q81 0 156 -21t118 -55q58 -43 81 -107.5t23 -160.5v-500q0 -55 10.5 -77.5t41.5 -22.5q99 0 102 225h41v-35q0 -258 -209 -258q-97 0 -135 60.5t-41 169.5q-99 -228 -350 -228q-113 0 -181.5 66t-68.5 174zM299 213q0 -85 32 -131.5 t95 -46.5q40 0 84 24.5t82 67.5t63 110.5t25 145.5v139q-99 -13 -164.5 -32t-117 -53.5t-75.5 -89.5t-24 -134z" />
<glyph unicode="b" horiz-adv-x="1230" d="M2 1331v35q201 6 385 27v-641q48 118 121.5 174.5t185.5 56.5q122 0 226.5 -69.5t164.5 -181t60 -234.5q0 -100 -39 -196t-104.5 -168t-155.5 -116.5t-187 -44.5q-163 0 -280 164q-5 6 -13.5 18.5t-13.5 18.5t-12.5 13.5t-15 10.5t-17.5 3q-6 0 -11.5 -3.5t-10.5 -11.5 t-9.5 -17t-9 -23.5t-8 -26.5t-7.5 -31t-7 -32.5t-7.5 -35t-7.5 -34.5h-32v1185v44t-3 33t-7 27.5t-14.5 19t-23 15t-35 9t-48 8t-64.5 4.5zM389 471q0 -222 70.5 -339.5t202.5 -117.5q144 0 204 114.5t60 352.5q0 236 -57 348.5t-191 112.5q-126 0 -207.5 -119t-81.5 -352z " />
<glyph unicode="c" horiz-adv-x="1048" d="M90 446q0 119 44 222t116 171t161.5 106t182.5 38q160 0 260 -88.5t100 -198.5q0 -55 -33 -91t-71 -36q-56 0 -85.5 29t-29.5 80q0 62 49 92q2 1 7 4t7 4.5l6 4.5t6 5t4.5 5.5t3.5 6.5t1 7q0 44 -59 89.5t-164 45.5q-69 0 -119 -20.5t-82.5 -58t-51.5 -98t-26.5 -132.5 t-7.5 -170q0 -65 10 -142.5t21 -121.5q26 -95 92.5 -140t179.5 -45q58 0 122 28t108 77q43 49 61 105.5t23 135.5l41 2q-4 -122 -45 -200q-44 -84 -132 -136.5t-184 -52.5q-118 0 -218.5 44t-164 113.5t-98.5 152t-35 163.5z" />
<glyph unicode="d" horiz-adv-x="1294" d="M88 475q0 103 38 197.5t100.5 162.5t148.5 108t178 40q199 0 276 -221v409v36.5t-1.5 29t-4 25t-7.5 19t-11.5 15.5t-18 11t-25 9t-33.5 6t-42 5.5t-53 3.5v35q214 6 389 27v-1205q0 -35 2.5 -54t12.5 -38.5t31.5 -29.5t57.5 -18t93 -13v-35q-38 -3 -167.5 -7.5 t-222.5 -12.5v215q-45 -113 -121 -167.5t-167 -54.5q-131 0 -236 71t-161 185.5t-56 245.5zM307 469q0 -228 61 -341.5t187 -113.5q115 0 194.5 109.5t79.5 316.5q0 249 -68 375.5t-200 126.5q-131 0 -192.5 -117.5t-61.5 -355.5z" />
<glyph unicode="e" horiz-adv-x="1058" d="M90 492q0 84 36.5 170.5t98 157.5t151.5 116t189 45q173 0 288.5 -117t115.5 -299v-55h-670q-4 -62 -4 -100q0 -396 285 -396q150 0 240.5 79t115.5 233h41q-22 -168 -128 -260.5t-271 -92.5q-99 0 -188 37.5t-155.5 104t-105.5 164.5t-39 213zM303 551h285h35 q23 -1 42 -1h7q16 0 28 2q16 2 27 4.5t19.5 9t14 14.5t9 21.5t5 30t1.5 40.5q0 132 -54.5 200t-160.5 68q-133 0 -190.5 -96t-67.5 -293z" />
<glyph unicode="f" horiz-adv-x="792" d="M47 0v35q57 5 93 13t57.5 18t31.5 29.5t12.5 38.5t2.5 54v727h-197v41h197q7 89 24.5 156t59.5 127q53 75 128.5 115.5t164.5 40.5q108 0 175.5 -53.5t67.5 -127.5q0 -45 -28.5 -74.5t-77.5 -29.5q-44 0 -71.5 28t-27.5 68q0 45 27 76q8 8 8 21q0 18 -24.5 34.5 t-59.5 16.5q-43 0 -74 -11t-50 -38.5t-30 -52t-15.5 -73.5t-5.5 -79.5t-1 -92.5v-12v-39h268v-41h-268v-727q0 -35 3 -54t13 -38.5t32 -29.5t58 -18t93 -13v-35h-586z" />
<glyph unicode="g" horiz-adv-x="1083" d="M39 -231q0 58 24 98t70.5 62.5t96 33.5t118.5 17q-53 4 -92 14t-73 30t-52 56t-18 88q0 53 28.5 99t77.5 69q49 24 154 24q-129 27 -194.5 106.5t-65.5 190.5q0 136 123 231t296 95q137 0 275 -84q-1 3 -6 13.5t-7 15.5t-6.5 15.5t-6.5 18.5t-4.5 19t-3.5 22.5t-1 24.5 q0 63 41 108.5t107 45.5q48 0 83 -33.5t35 -83.5q0 -42 -27.5 -71t-64.5 -29q-35 0 -55 16q-36 31 -47 31q-10 0 -17.5 -11.5t-7.5 -25.5q0 -24 10 -39q73 -113 98 -168.5t25 -112.5q0 -143 -129.5 -236t-316.5 -93q-18 0 -43 1t-43 1q-93 0 -141 -22.5t-48 -74.5 q0 -54 50.5 -73t150.5 -19h227q371 0 371 -282q0 -150 -139.5 -249.5t-411.5 -99.5q-194 0 -317 72t-123 189zM154 -227q0 -100 91 -162t263 -62q193 0 299 65.5t106 174.5q0 37 -11 64t-37 44.5t-55 28t-78.5 15.5t-93.5 6.5t-114 1.5q-60 0 -100.5 -1.5t-87.5 -7.5 t-76.5 -17.5t-55.5 -30.5t-38 -49t-12 -70zM332 655q0 -57 3.5 -95.5t15 -78t33 -62.5t58.5 -37.5t90 -14.5t90 14.5t58.5 38t33.5 63t15.5 78t3.5 94.5t-3.5 94t-15 78t-33 63t-59 37.5t-90.5 14.5t-90.5 -14.5t-58.5 -37.5t-33 -63t-15 -77.5t-3 -94.5z" />
<glyph unicode="h" horiz-adv-x="1347" d="M51 0v35q57 5 93 13t57.5 18t31.5 29.5t12.5 38.5t2.5 54v983v44t-3 33t-7.5 27.5t-14.5 19t-23 15t-35.5 9t-48.5 8t-65 4.5v35q211 6 387 27v-703q123 293 396 293q100 0 176 -51q31 -20 52 -46t31.5 -48.5t16 -61.5t6 -63.5t0.5 -76.5v-18v-430q0 -30 1.5 -46t7.5 -35 t18 -28.5t34.5 -19t55 -15t80.5 -9.5v-35h-586v35q57 5 93 13t58 18t32 29.5t13 38.5t3 54v553q0 86 -38 130t-110 44q-104 0 -186.5 -74t-124.5 -208q-29 -96 -29 -307v-138q0 -69 11 -91q20 -40 114 -54q30 -5 70 -8v-35h-582z" />
<glyph unicode="i" horiz-adv-x="710" d="M76 0v35q47 4 79.5 9.5t54.5 15t34.5 19t18.5 28.5t7.5 35t1.5 46v580q0 30 -0.5 43.5t-3 33.5t-7 27t-14.5 18.5t-23 15t-35.5 8.5t-48 7.5t-64.5 4.5v32q205 6 387 25v-795q0 -35 3 -54t13 -38.5t32 -29.5t58 -18t93 -13v-35h-586zM260 1239q0 46 33 79.5t82 33.5 t83 -33.5t34 -79.5t-35 -79.5t-82 -33.5t-81 33.5t-34 79.5z" />
<glyph unicode="j" horiz-adv-x="747" d="M-129 -274q0 56 35.5 92.5t89.5 36.5q47 0 80 -33t33 -80q0 -35 -25 -64q-5 -5 -15 -16t-15.5 -17t-10 -14.5t-4.5 -15.5q0 -26 38.5 -46t96.5 -20q57 0 106.5 29.5t75.5 79.5q23 40 29 107t6 188v815v35t-2 28.5t-4.5 24.5t-8.5 19t-13.5 15.5t-20.5 11t-28.5 9.5 t-38.5 6t-49 5.5t-62 3.5v32q212 6 418 25v-965q0 -126 -23 -241q-21 -106 -130 -187.5t-255 -81.5q-135 0 -219 65.5t-84 152.5zM373 1241q0 47 32.5 80t81.5 33q50 0 83.5 -33t33.5 -80q0 -46 -35 -79.5t-82 -33.5t-80.5 33t-33.5 80z" />
<glyph unicode="k" horiz-adv-x="1318" d="M49 0v35q57 5 93 13t57.5 18t31.5 29.5t12.5 38.5t2.5 54v983v44t-3 33t-7.5 27.5t-14.5 19t-23 15t-35.5 9t-48.5 8t-65 4.5v35q200 6 387 27v-924l217 178q82 67 122 113.5t40 87.5q0 19 -10 33.5t-23.5 23t-38 15t-42.5 9.5t-48 7v33h539v-33q-35 -5 -67 -14t-66 -26 t-57 -30t-61 -41.5t-57 -44t-64.5 -53.5t-65.5 -55l172 -281q131 -215 168 -262q48 -60 101 -77q28 -8 99 -17v-35h-573v35q81 7 118.5 18.5t37.5 38.5q0 34 -54 119l-213 342l-174 -145v-220q0 -35 3 -54t13 -38.5t32 -29.5t58 -18t93 -13v-35h-586z" />
<glyph unicode="l" horiz-adv-x="686" d="M49 0v35q57 5 93 13t57.5 18t31.5 29.5t12.5 38.5t2.5 54v983v44t-3 33t-7.5 27.5t-14.5 19t-23 15t-35.5 9t-48.5 8t-65 4.5v35q200 6 387 27v-1205q0 -35 3 -54t13 -38.5t32 -29.5t58 -18t93 -13v-35h-586z" />
<glyph unicode="m" horiz-adv-x="2011" d="M68 0v35q47 4 79.5 9.5t54.5 15t34.5 19t18.5 28.5t7.5 35t1.5 46v580q0 40 -0.5 57.5t-8 38.5t-17 28t-34.5 15.5t-54 11.5t-82 7v32q196 4 387 25v-301q51 147 150 224t233 77q107 0 184 -68q46 -40 63.5 -92t28.5 -141q9 33 17 55t28.5 57.5t48.5 67.5 q65 72 134.5 96.5t166.5 24.5q63 0 123.5 -25.5t96.5 -70.5q26 -33 38 -76t13.5 -71.5t1.5 -94.5v-457q0 -35 2.5 -54t12.5 -38.5t31.5 -29.5t57.5 -18t92 -13v-35h-583v35q47 4 79.5 9.5t54.5 15t34.5 19t18.5 28.5t7.5 35t1.5 46v463v33q1 26 0.5 49.5t-2 44.5t-5.5 39.5 t-10.5 33.5t-17 27t-25.5 20t-36.5 12.5t-48.5 4.5q-150 0 -236 -127q-56 -82 -73 -188.5t-17 -280.5v-131q0 -35 2.5 -54t12.5 -38.5t31.5 -29.5t57.5 -18t93 -13v-35h-584v35q57 5 93 13t57.5 18t31.5 29.5t12.5 38.5t2.5 54v539q0 95 -34 141.5t-114 46.5 q-106 0 -188 -81t-115 -228q-24 -104 -24 -301v-117q0 -35 2.5 -54t12.5 -38.5t32 -29.5t58 -18t93 -13v-35h-585z" />
<glyph unicode="n" horiz-adv-x="1382" d="M74 926v32q215 6 393 25v-301q51 147 155.5 224t239.5 77q79 0 150.5 -36.5t105.5 -100.5q27 -51 27 -228v-430q0 -30 1.5 -46t7.5 -35t18.5 -28.5t34.5 -19t54.5 -15t79.5 -9.5v-35h-583v35q47 4 79.5 9.5t54.5 15t34.5 19t18.5 28.5t7.5 35t1.5 46v420q0 16 0.5 46 t0.5 45.5t-1 42t-3.5 41.5t-7 36t-12 32.5t-18.5 25.5t-26 21t-35 12t-45 5q-87 0 -161 -52.5t-118 -145.5q-61 -130 -61 -391v-138q0 -35 2.5 -54t12.5 -38.5t32 -29.5t58.5 -18t93.5 -13v-35h-586v35q47 4 79.5 9.5t54.5 15t34.5 19t18.5 28.5t7.5 35t1.5 46v580v44t-3 34 t-7.5 27t-15.5 18t-23.5 14.5t-36 9t-50 7.5t-66.5 4z" />
<glyph unicode="o" horiz-adv-x="1163" d="M88 477q0 100 41.5 194t109.5 162t158.5 109t184.5 41t184 -40.5t158 -108.5t109.5 -162t41.5 -195t-41.5 -195t-109.5 -161t-158 -107.5t-184 -40.5t-184 40.5t-158.5 107.5t-110 161t-41.5 195zM307 477q0 -243 61.5 -353t213.5 -110t213 109.5t61 353.5 q0 245 -61.5 355t-212.5 110q-152 0 -213.5 -110.5t-61.5 -354.5z" />
<glyph unicode="p" horiz-adv-x="1296" d="M53 -430q62 5 101.5 13t63.5 18t35 29.5t14 39.5t3 56v1042v43.5t-3 32.5t-7 27t-14 18.5t-23 15t-35.5 9t-48.5 8t-65 4.5v32q168 3 387 25v-207q48 106 121 156.5t184 50.5q121 0 223 -68t160.5 -182.5t58.5 -247.5q0 -110 -41 -208t-107.5 -163t-150 -103t-168.5 -38 q-105 0 -170 49t-110 150v-446q0 -46 5.5 -69t30 -43t71 -29t130.5 -15v-35h-645v35zM463 479q0 -230 69.5 -347.5t204.5 -117.5q57 0 112.5 34.5t86.5 94.5q53 98 53 342q0 229 -58 343t-188 114q-62 0 -118.5 -33.5t-94.5 -93.5q-40 -63 -53.5 -142.5t-13.5 -193.5z" />
<glyph unicode="q" horiz-adv-x="1261" d="M94 457q0 133 65.5 254.5t178.5 196.5t242 75q164 0 284 -164q4 -5 12 -16t11.5 -15.5t10.5 -12t12 -11t12.5 -6t15.5 -2.5q22 0 31.5 27t25.5 115q8 44 13 71h34v-1243q0 -36 3.5 -57t15 -40t36 -29t63 -17.5t100.5 -12.5v-35h-627v35q52 4 88 9.5t60.5 15t38 19.5 t20.5 28.5t8.5 35.5t1.5 48v475q-45 -119 -115.5 -173.5t-189.5 -54.5q-122 0 -227 69t-164.5 180.5t-59.5 234.5zM313 475q0 -235 57 -348t191 -113q126 0 207.5 119t81.5 352q0 223 -70 340t-202 117q-144 0 -204.5 -114t-60.5 -353z" />
<glyph unicode="r" horiz-adv-x="983" d="M68 926v32q212 3 403 25v-215q43 113 112.5 164t180.5 51q74 0 129 -47t55 -119q0 -53 -33.5 -89t-85.5 -36q-45 0 -78.5 33t-33.5 86q0 28 14 54t33 34q10 3 10 10q0 23 -74 23q-28 0 -69 -24.5t-72 -67.5q-52 -71 -70 -167.5t-18 -240.5v-244q0 -45 4.5 -66.5t25.5 -42 t63 -29.5t118 -15v-35h-600v35q57 5 93.5 13t58.5 18t32 29.5t12.5 38.5t2.5 54v641q0 24 -11.5 41t-27 26.5t-48.5 15.5t-56.5 8.5t-69.5 5.5z" />
<glyph unicode="s" horiz-adv-x="980" d="M104 -20v438h35q55 -200 150.5 -302t226.5 -102q100 0 164.5 56.5t64.5 140.5q0 59 -41.5 100.5t-125.5 69.5q-202 67 -234 80q-139 56 -183 129q-28 48 -28 112q0 111 97.5 196t248.5 85q58 0 110.5 -13t81 -29t51.5 -29t30 -13q14 0 22.5 15.5t20.5 54.5h32v-359h-32 q-24 159 -109 245.5t-211 86.5q-77 0 -132.5 -43t-55.5 -108q0 -46 36.5 -81t97 -59t124 -44t132 -45t107.5 -52q115 -79 115 -219q0 -128 -109.5 -223t-275.5 -95q-61 0 -125.5 19t-114.5 51q-7 5 -22 15.5t-21 14.5t-16 10t-15.5 8.5t-9.5 2.5q-3 0 -6 -1.5t-6 -4.5t-5 -7 t-5 -10.5t-5 -12.5t-5 -16t-5.5 -18t-6.5 -21t-7 -23h-35z" />
<glyph unicode="t" horiz-adv-x="821" d="M63 915v37q61 3 109.5 15t83.5 30t61 49t42.5 63.5t28.5 80.5t18.5 93.5t11.5 109.5h33v-437h303v-41h-303v-718q0 -156 131 -156q60 0 105.5 42.5t62.5 119.5q7 34 14 180h41v-35q0 -188 -68 -281.5t-213 -93.5q-120 0 -192 64.5t-72 179.5v698h-197z" />
<glyph unicode="u" horiz-adv-x="1366" d="M39 926v32q234 6 401 25v-690q0 -260 144 -260q56 0 112 31.5t106 93.5t81.5 169.5t31.5 243.5v197q0 29 -0.5 43.5t-3.5 33.5t-7.5 27t-15.5 18.5t-24 14.5t-36.5 9t-50 7.5t-66.5 4.5v32q230 6 395 25v-795q0 -35 2.5 -54t12.5 -38.5t31.5 -29.5t57.5 -18t93 -13v-35 q-342 -15 -388 -20v292q-136 -299 -385 -299q-151 0 -215.5 93t-64.5 276v426q0 39 -1 56.5t-8 38.5t-18 28.5t-37 16.5t-58.5 12t-88.5 6z" />
<glyph unicode="v" horiz-adv-x="1167" d="M14 922v34h533v-34q-80 -8 -119 -22t-39 -42q0 -24 43 -131l223 -555l174 424q70 173 70 225q0 57 -36 78t-109 23v34h415v-34q-114 -13 -157.5 -63.5t-113.5 -221.5q-4 -9 -6 -14l-5 -12.5t-6 -14.5l-258 -616h-84l-283 696q-11 26 -26.5 67t-22.5 57t-21 42t-26 35 t-33 21.5t-48 17t-65 6.5z" />
<glyph unicode="w" horiz-adv-x="1642" d="M14 922v34h504v-34q-69 -6 -104 -24.5t-35 -53.5q0 -23 29 -99l202 -538l168 512l-18 57q-15 48 -30 76t-37.5 42.5t-44 19.5t-64.5 8v34h516v-34q-39 -4 -62.5 -8.5t-48.5 -12t-36 -19.5t-11 -30q0 -15 33 -107l194 -538l164 434q39 100 39 174q0 31 -13.5 51.5 t-41 31.5t-51.5 15.5t-62 8.5v34h432v-34q-47 -8 -80.5 -22t-56 -32.5t-41.5 -50t-32 -63t-33 -83.5q-7 -20 -11 -30l-247 -661h-76l-250 661l-225 -661h-82l-291 765q-22 57 -34 82t-34.5 47.5t-50 31t-78.5 16.5z" />
<glyph unicode="x" horiz-adv-x="1187" d="M10 0v35q54 5 95.5 19.5t75 34t72.5 62.5t72 85.5t89 121.5l90 127l-215 301q-36 50 -55.5 71t-63 39.5t-113.5 25.5v34h547v-34q-69 -5 -103 -16.5t-34 -35.5q0 -19 47 -84l154 -213l118 164q56 74 56 115q0 18 -11.5 31t-34.5 20.5t-45.5 11t-58.5 7.5v34h441v-34 q-41 -5 -71.5 -12t-58.5 -22t-46 -27.5t-44 -42.5t-42 -51t-50 -68q-2 -2 -3 -3.5t-2.5 -3.5t-2.5 -4l-115 -156l256 -358q58 -82 97.5 -107.5t128.5 -31.5v-35h-562v35q103 9 128 22q24 13 24 41q0 20 -57 97l-178 245l-136 -186q-75 -102 -75 -148q0 -14 6 -25t19.5 -18.5 t25 -12t34.5 -7.5l34.5 -4.5t37.5 -3.5v-35h-471z" />
<glyph unicode="y" horiz-adv-x="1175" d="M14 920v36h551v-34q-81 -7 -121.5 -20t-40.5 -44q0 -12 3 -25t6.5 -21.5t9.5 -22.5t8 -19l238 -604l166 412q34 84 53.5 152t19.5 87q0 54 -38 75t-115 30v34h422v-34q-101 -12 -151 -63.5t-107 -194.5l-345 -869q-55 -141 -128 -212.5t-179 -71.5q-88 0 -144 50t-56 120 q0 58 33 95.5t83 37.5t79.5 -33t29.5 -78q0 -39 -12 -58.5t-48 -45.5q-8 -4 -8 -11q0 -30 64 -30q152 0 241 249l37 105l-332 844q-2 4 -5 12q-27 72 -51 97q-44 47 -163 55z" />
<glyph unicode="z" horiz-adv-x="985" d="M92 41l600 874h-104q-95 0 -159 -15t-115.5 -53.5t-81 -107.5t-44.5 -174h-34v391h727l32 -41l-602 -874h109q238 0 338 83t123 302h32v-426h-792z" />
<glyph unicode="{" horiz-adv-x="684" d="M86 467v41q96 17 161.5 71t65.5 144q0 52 -23.5 154t-23.5 155q0 156 107.5 257.5t269.5 129.5v-43q-95 -32 -146 -85t-51 -144q0 -52 24 -154t24 -155q0 -122 -77 -209.5t-202 -139.5q279 -133 279 -352q0 -52 -24 -154.5t-24 -154.5q0 -168 195 -221v-51 q-170 31 -272.5 133t-102.5 270q0 50 23.5 146.5t23.5 146.5q0 90 -65.5 144t-161.5 71z" />
<glyph unicode="|" horiz-adv-x="649" d="M276 -410v1776h97v-1776h-97z" />
<glyph unicode="}" horiz-adv-x="684" d="M41 1376v43q162 -28 269.5 -129.5t107.5 -257.5q0 -53 -23.5 -155t-23.5 -154q0 -90 65.5 -144t161.5 -71v-41q-96 -17 -161.5 -71t-65.5 -144q0 -50 23.5 -146.5t23.5 -146.5q0 -168 -102.5 -270t-272.5 -133v51q195 53 195 221q0 52 -24 154.5t-24 154.5q0 219 279 352 q-125 52 -202 139.5t-77 209.5q0 53 24 155t24 154q0 91 -51 144t-146 85z" />
<glyph unicode="~" d="M86 559q6 87 24 138t56 91q74 74 168 74q31 0 56.5 -3.5t107 -30t202.5 -78.5q94 -41 141.5 -56.5t88.5 -15.5q79 0 123.5 45t58.5 139h55q-9 -149 -77 -227t-187 -78q-53 0 -109.5 15.5t-175.5 68.5l-83 37q-135 59 -218 59q-72 0 -114 -42t-62 -136h-55z" />
<glyph unicode="&#xa1;" horiz-adv-x="620" d="M178 860q0 51 37 87t90 36q52 0 88.5 -36t36.5 -87t-36.5 -87t-88.5 -36q-53 0 -90 36.5t-37 86.5zM190 -207q0 89 39.5 285t46.5 241q13 84 13 244v72h55v-31q0 -17 -0.5 -56t0 -60.5t1 -53.5t3 -60t6.5 -55q9 -56 48.5 -247.5t39.5 -278.5q0 -217 -127 -217 q-66 0 -95.5 54.5t-29.5 162.5z" />
<glyph unicode="&#xa2;" horiz-adv-x="1275" d="M199 666q0 210 124.5 354.5t317.5 175.5v170h61v-164h7q152 0 253 -89t101 -200q0 -55 -33.5 -91t-71.5 -36q-54 0 -84 30t-30 81q0 62 49 92q2 1 7 4t7 4.5l6 4.5t6 5t4.5 5.5t3.5 6.5t1 7q0 45 -58.5 90t-167.5 45v-930h7q136 0 225.5 87.5t99.5 261.5l41 2 q-9 -190 -109.5 -289.5t-263.5 -102.5v-190h-61v195q-129 16 -232 90.5t-156.5 175.5t-53.5 205zM418 682q0 -65 10 -144t21 -122q20 -75 70 -120.5t122 -57.5v917q-128 -24 -175.5 -134t-47.5 -339z" />
<glyph unicode="&#xa3;" horiz-adv-x="1318" d="M-2 88q0 82 77 133t204 51q113 0 249 -36q32 42 40 66q10 30 10 75q0 57 -78 278h-375l41 103h303q-23 78 -23 182q0 188 108 320.5t263 132.5q128 0 206.5 -71t78.5 -159q0 -71 -33.5 -109t-75.5 -38q-52 0 -81 29.5t-29 80.5q0 23 7 40t23.5 28t25 15t30.5 12 q16 5 16 26q0 31 -45.5 68t-124.5 37q-110 0 -183 -75t-73 -149q0 -38 4 -67.5t16 -65.5t22 -59.5t36 -80.5t43 -97h418l-47 -103h-342q1 -6 3.5 -20.5t2.5 -24.5q0 -118 -30 -193t-114 -196q343 -147 443 -147q91 0 145.5 53t54.5 98v31q0 21 12 37t31 16q18 0 28.5 -11.5 t10.5 -27.5q0 -40 -34.5 -90.5t-90.5 -97t-139 -78t-168 -31.5q-28 0 -55.5 2t-48.5 4.5t-47.5 9t-42 10t-42 13.5t-37 14t-38.5 17t-34.5 16.5t-37 19t-35.5 17.5q-2 -1 -30 -20t-34 -23t-31.5 -19.5t-36.5 -20t-34.5 -15.5t-39.5 -14.5t-38.5 -7t-43.5 -3.5q-80 0 -120 32 t-40 83zM39 90q0 -28 27 -56t90 -28q51 0 123 29.5t127 81.5q-150 88 -244 88q-55 0 -89 -32t-34 -83z" />
<glyph unicode="&#xa4;" d="M180 354l137 131q-86 115 -86 240q0 138 86 240l-137 133l51 53l136 -135q111 86 241 86q59 0 124.5 -22t115.5 -64l137 135l51 -53l-137 -133q86 -107 86 -240q0 -127 -86 -240l137 -131l-51 -53l-135 135q-105 -88 -242 -88q-135 0 -241 88l-136 -135zM303 727 q0 -125 90.5 -216t214.5 -91q126 0 215.5 90.5t89.5 216.5q0 131 -92 217t-211 86q-131 0 -219 -89.5t-88 -213.5z" />
<glyph unicode="&#xa5;" d="M-61 1331v35h602v-35q-42 -5 -62.5 -8.5t-50 -10.5t-42.5 -18.5t-13 -27.5q0 -24 1 -33.5t6.5 -26t18.5 -41.5l168 -325h176l101 166q86 143 86 206q0 52 -48 76.5t-141 36.5v41h570v-35q-69 -16 -121 -38t-88.5 -46t-73 -66.5t-62 -80.5t-67.5 -107l-92 -153h197v-58 h-232l-96 -159h328v-58h-328v-358v-6v-33.5t2 -27.5t5.5 -24t10.5 -19t17 -17t25.5 -13t35.5 -11t47.5 -8t60.5 -7.5t76 -5.5v-35h-755v35q42 2 74.5 4.5t60 7.5t47 8t35 11t25 12.5t16.5 17t10.5 19.5t5.5 24.5t2 27.5v34v6v358h-305v58h295l-84 159h-211v58h180l-133 252 q-29 54 -43.5 80t-35.5 56t-35.5 41.5t-41 25.5t-53.5 21t-71 15zM598 782l51 -100l60 100h-111z" />
<glyph unicode="&#xa6;" horiz-adv-x="649" d="M276 344h97v-698h-97v698zM276 694v699h97v-699h-97z" />
<glyph unicode="&#xa7;" horiz-adv-x="1048" d="M131 188q0 69 33.5 105.5t77.5 36.5q51 0 79.5 -28.5t28.5 -68.5q0 -35 -28 -59q-18 -13 -27 -20.5t-18 -19.5t-9 -23q0 -40 66 -68.5t192 -28.5q86 0 156 52t70 143q0 18 -4 33.5t-15.5 30t-23 25.5t-34 23.5t-41.5 21.5t-53.5 22.5t-60.5 23t-71.5 26t-79.5 29.5 q-207 79 -207 215q0 95 39.5 142t132.5 92q-66 42 -97.5 96.5t-31.5 108.5q0 90 51 160t126.5 104.5t158.5 34.5q154 0 239.5 -63.5t85.5 -135.5q0 -67 -33 -101t-77 -34q-45 0 -74 28.5t-29 65.5t25 62q4 4 13 12.5t13.5 12.5t8.5 12t4 16q0 6 -4.5 15.5t-17.5 21.5 t-31.5 22.5t-50 17.5t-70.5 7q-69 0 -122.5 -44t-53.5 -122q0 -42 39.5 -83.5t109.5 -68.5q186 -75 221 -90q81 -34 131 -100.5t50 -130.5q0 -78 -29 -124.5t-111 -100.5q135 -88 135 -211q0 -73 -39.5 -134t-99.5 -97.5t-125 -56.5t-123 -20q-85 0 -154 15t-113 38 t-73.5 52t-42 56.5t-12.5 53.5zM324 766q0 -25 17.5 -54.5t45.5 -43.5q147 -76 352 -158q25 28 32 48t7 58q0 51 -55.5 100t-165.5 89q-37 14 -98 38t-82 31q-30 -21 -41.5 -44t-11.5 -64z" />
<glyph unicode="&#xa8;" horiz-adv-x="1138" d="M266 1227q0 48 35.5 83.5t87.5 35.5t87.5 -34.5t35.5 -84.5q0 -49 -36 -84t-87 -35t-87 35t-36 84zM629 1227q0 48 35.5 83.5t87.5 35.5t87 -34.5t35 -84.5q0 -51 -35.5 -85t-86.5 -34t-87 35t-36 84z" />
<glyph unicode="&#xa9;" horiz-adv-x="1585" d="M82 682q0 145 56.5 276.5t151.5 226.5t226.5 151.5t276.5 56.5q193 0 356.5 -95t258.5 -259t95 -357t-95 -357t-258.5 -259t-356.5 -95q-145 0 -276.5 56.5t-226.5 151.5t-151.5 226.5t-56.5 276.5zM139 682q0 -177 88 -327.5t238.5 -238t327.5 -87.5q133 0 253.5 52 t208 139.5t139.5 208t52 253.5t-52 253.5t-139.5 208t-208 139.5t-253.5 52q-177 0 -327.5 -87.5t-238.5 -238t-88 -327.5zM403 682q0 119 55 226t145 171t190 64q89 0 159 -56q42 -34 56 -34q24 0 47 82h26v-365h-28q-78 338 -258 338q-246 0 -246 -471q0 -195 59 -287 t191 -92q109 0 177.5 76t78.5 227h32q-8 -121 -43 -186q-79 -152 -258 -152q-105 0 -194 65t-139 170.5t-50 223.5z" />
<glyph unicode="&#xaa;" horiz-adv-x="712" d="M51 934q0 64 64 113q21 15 48 28t48.5 20.5t59 16.5t53 12t59 10.5t51.5 8.5v74q0 76 -23 107.5t-102 31.5q-36 0 -66 -10t-44.5 -22t-14.5 -21q0 -6 7.5 -11.5t17 -10.5t17 -18t7.5 -32q0 -25 -21.5 -44.5t-47.5 -19.5q-37 0 -60.5 21.5t-23.5 56.5q0 57 67.5 102.5 t171.5 45.5q116 0 181 -45q38 -28 52.5 -67t14.5 -97v-293q0 -32 6 -42.5t21 -10.5q59 0 59 133h39v-27q0 -158 -139 -158q-60 0 -86 31.5t-31 87.5q-67 -119 -219 -119q-74 0 -120 41t-46 107zM203 934q0 -47 19.5 -72.5t56.5 -25.5q54 0 104.5 55.5t50.5 142.5v74 q-121 -14 -176 -51.5t-55 -122.5z" />
<glyph unicode="&#xab;" horiz-adv-x="878" d="M96 469l287 371l39 -9l-160 -362l160 -342l-39 -8zM442 487l291 349l37 -7l-158 -360l158 -342l-37 6z" />
<glyph unicode="&#xac;" d="M106 799v96h1041v-430h-96v334h-945z" />
<glyph unicode="&#xad;" horiz-adv-x="391" d="M0 414v129h391v-129h-391z" />
<glyph unicode="&#xae;" horiz-adv-x="995" d="M88 995q0 170 120 290t290 120q169 0 289 -120t120 -290q0 -169 -120 -289t-289 -120q-170 0 -290 120t-120 289zM127 995q0 -153 108.5 -260.5t262.5 -107.5t262 107t108 261t-108 262.5t-262 108.5t-262.5 -108.5t-108.5 -262.5zM266 741v17q60 6 70 16q6 9 6 19 q2 6 2 26v352q0 21 -2 29q0 11 -6 17q-13 13 -70 16v18h217q105 0 148 -22q30 -17 47.5 -44t17.5 -55q0 -73 -67 -104q-24 -10 -80 -18q60 -7 89 -35.5t32 -104.5q3 -55 11 -74.5t30 -19.5q25 0 33 29t8 86h18q0 -30 -1 -46.5t-6 -39t-14.5 -34t-28.5 -20t-46 -8.5 q-33 0 -57 22.5t-25 61.5q-3 50 -6 86t-15 54q-10 18 -33.5 25t-70.5 7h-49v-178q0 -20 2 -26q0 -11 8 -19q13 -10 78 -16v-17h-240zM418 1018h49q57 0 84 7t43 34q18 30 18 69q0 53 -30 80q-29 25 -99 25q-46 0 -55.5 -7.5t-9.5 -43.5v-164z" />
<glyph unicode="&#xaf;" horiz-adv-x="978" d="M240 1151v131h501v-131h-501z" />
<glyph unicode="&#xb0;" horiz-adv-x="811" d="M98 1087q0 127 91 217.5t217 90.5t216.5 -90.5t90.5 -217.5t-89.5 -217t-217.5 -90t-218 90t-90 217zM182 1087q0 -93 65 -158t159 -65q92 0 157.5 65.5t65.5 157.5q0 93 -66 158.5t-157 65.5t-157.5 -65.5t-66.5 -158.5z" />
<glyph unicode="&#xb1;" d="M106 0v96h1041v-96h-1041zM106 662v96h469v450h97v-450h475v-96h-473v-451h-96v451h-472z" />
<glyph unicode="&#xb2;" horiz-adv-x="800" d="M82 547q0 36 10 63t39 62q33 40 82 79.5t93 67.5t90 63.5t79 70.5t54.5 85.5t21.5 110.5q0 93 -47.5 143.5t-136.5 50.5q-78 0 -141.5 -41.5t-63.5 -80.5q0 -12 17 -16.5t37 -6t37 -19.5t17 -53q0 -30 -22.5 -52.5t-52.5 -22.5q-50 0 -79.5 30t-29.5 76q0 88 88 157.5 t213 69.5q140 0 233 -74t93 -173q0 -46 -17 -84.5t-53.5 -72t-73.5 -58.5t-96 -58q-166 -95 -207 -127q-43 -34 -57 -65h315q88 0 118.5 30.5t41.5 110.5h35l-17 -266h-620z" />
<glyph unicode="&#xb3;" horiz-adv-x="792" d="M72 717q0 49 26 75.5t64 26.5q37 0 61.5 -24.5t24.5 -57.5q0 -32 -20 -52.5t-48 -20.5q-1 0 -8 1.5t-11.5 1t-4.5 -4.5q0 -28 55.5 -60.5t142.5 -32.5q199 0 199 203q0 112 -42 154.5t-132 42.5q-30 0 -69 -6.5t-40 -6.5q-34 0 -34 29q0 31 38 31q2 0 28 -3t48 -3 q83 0 128.5 47.5t45.5 124.5q0 78 -44.5 119.5t-129.5 41.5q-72 0 -124 -30.5t-52 -63.5q0 -6 8 -6q97 0 97 -80q0 -32 -24 -54t-58 -22q-45 0 -74 33t-29 76q0 75 76 131.5t203 56.5q140 0 226.5 -61.5t86.5 -138.5q0 -81 -49 -126t-145 -63q112 -18 167.5 -69.5 t55.5 -147.5q0 -108 -103 -179t-250 -71q-124 0 -207 58t-83 131z" />
<glyph unicode="&#xb4;" horiz-adv-x="1064" d="M387 1096q67 10 117.5 42t80 70t55 75t57 62t71.5 25q33 0 56.5 -18t23.5 -47q0 -57 -74.5 -111t-178.5 -87.5t-206 -43.5z" />
<glyph unicode="&#xb5;" horiz-adv-x="1366" d="M39 926v32q234 6 401 25v-690q0 -260 144 -260q56 0 112 31.5t106 93.5t81.5 169.5t31.5 243.5v197q0 29 -0.5 43.5t-3.5 33.5t-7.5 27t-15.5 18.5t-24 14.5t-36.5 9t-50 7.5t-66.5 4.5v32q230 6 395 25v-795q0 -35 2.5 -54t12.5 -38.5t31.5 -29.5t57.5 -18t93 -13v-35 q-342 -15 -388 -20v292q-136 -299 -385 -299q-35 0 -66 6t-47.5 11.5t-39 20t-26 17.5t-21.5 19q0 -112 24.5 -212.5t24.5 -149.5q0 -47 -24.5 -84t-67.5 -37q-46 0 -69 36.5t-23 90.5q0 33 13.5 101t27.5 206.5t14 343.5v426q0 39 -1 56.5t-8 38.5t-18 28.5t-37 16.5 t-58.5 12t-88.5 6z" />
<glyph unicode="&#xb6;" horiz-adv-x="1105" d="M96 956q0 83 29.5 154.5t90.5 130t165.5 92t243.5 33.5h442v-35q-100 -12 -120 -20q-33 -14 -40 -59q-4 -29 -4 -103v-1360q0 -79 23.5 -108t79.5 -37q34 -7 61 -9v-34h-205v1722h-174v-1722h-207v34l54 7q27 3 46.5 9t31.5 18t18.5 21.5t9.5 29.5t3.5 32t0.5 39v748 q-134 0 -234.5 23.5t-159.5 61t-95 94t-48 112.5t-12 126z" />
<glyph unicode="&#xb7;" d="M500 715q0 51 36.5 87t90.5 36t90.5 -36t36.5 -87t-36.5 -87t-88.5 -36q-53 0 -91 36t-38 87z" />
<glyph unicode="&#xb8;" horiz-adv-x="997" d="M375 -369l16 33q43 -12 105 -12q40 0 66 22t26 45q0 30 -14 52t-34 35.5t-40.5 28t-34.5 39t-14 58.5q0 23 36 68h25q-10 -30 -10 -35q0 -20 39 -32t85 -19.5t85 -39t39 -85.5q0 -74 -64 -129t-162 -55q-78 0 -149 26z" />
<glyph unicode="&#xb9;" horiz-adv-x="794" d="M92 547v33q154 11 182 18q51 12 64 49q8 25 8 74v383q0 94 -6 113q-9 32 -52 41q-33 6 -196 6v32q220 0 316 86h79v-657q0 -22 2 -38t4.5 -30t10.5 -23.5t15.5 -17.5t25 -12.5t32.5 -8.5t44.5 -6.5t54.5 -4.5t69 -4v-33h-653z" />
<glyph unicode="&#xba;" horiz-adv-x="755" d="M57 1090q0 122 97.5 212.5t224.5 90.5q125 0 222 -90t97 -213t-97 -213.5t-222 -90.5q-126 0 -224 90.5t-98 213.5zM209 1090q0 -142 38 -204.5t132 -62.5q92 0 130 62.5t38 204.5t-38 204t-130 62q-94 0 -132 -62t-38 -204z" />
<glyph unicode="&#xbb;" horiz-adv-x="878" d="M109 127l157 342l-157 360l38 7l289 -349l-289 -354zM457 127l159 342l-159 362l39 9l286 -371l-286 -350z" />
<glyph unicode="&#xbc;" horiz-adv-x="2054" d="M92 547v33q154 11 182 18q51 12 64 49q8 25 8 74v383q0 94 -6 113q-9 32 -52 41q-33 6 -196 6v32q220 0 316 86h79v-657q0 -22 2 -38t4.5 -30t10.5 -23.5t15.5 -17.5t25 -12.5t32.5 -8.5t44.5 -6.5t54.5 -4.5t69 -4v-33h-653zM621 -68l827 1502h108l-827 -1502h-108z M1229 274l438 560h135v-531h217l-20 -63h-197v-90v-19v-28.5t3 -21t10 -17.5t18 -12t30.5 -9.5t46 -5t64.5 -4.5v-33h-471v33q31 2 53 4.5t39.5 6.5t28 6.5t18.5 9t11.5 10.5t5 15t1.5 17t-0.5 22t-0.5 26v90h-410zM1311 303h348v442z" />
<glyph unicode="&#xbd;" horiz-adv-x="2021" d="M92 547v33q154 11 182 18q51 12 64 49q8 25 8 74v383q0 94 -6 113q-9 32 -52 41q-33 6 -196 6v32q220 0 316 86h79v-657q0 -22 2 -38t4.5 -30t10.5 -23.5t15.5 -17.5t25 -12.5t32.5 -8.5t44.5 -6.5t54.5 -4.5t69 -4v-33h-653zM559 -68l827 1502h109l-827 -1502h-109z M1262 0q0 36 10 63t39 62q33 40 82 79.5t93 67.5t90 63.5t79 70.5t54.5 85.5t21.5 110.5q0 93 -48 144t-137 51q-77 0 -141 -41.5t-64 -81.5q0 -12 17 -16.5t37.5 -6t37.5 -19t17 -52.5q0 -30 -23 -53t-53 -23q-50 0 -79 30t-29 76q0 88 88 158t213 70q140 0 232.5 -74.5 t92.5 -173.5q0 -46 -17 -84.5t-53.5 -72t-73 -58.5t-95.5 -58q-166 -95 -207 -127q-43 -34 -57 -65h315q88 0 118.5 30.5t41.5 110.5h34l-16 -266h-620z" />
<glyph unicode="&#xbe;" horiz-adv-x="1939" d="M72 717q0 49 26 75.5t64 26.5q37 0 61.5 -24.5t24.5 -57.5q0 -32 -20 -52.5t-48 -20.5q-1 0 -8 1.5t-11.5 1t-4.5 -4.5q0 -28 55.5 -60.5t142.5 -32.5q199 0 199 203q0 112 -42 154.5t-132 42.5q-30 0 -69 -6.5t-40 -6.5q-34 0 -34 29q0 31 38 31q2 0 28 -3t48 -3 q83 0 128.5 47.5t45.5 124.5q0 78 -44.5 119.5t-129.5 41.5q-72 0 -124 -30.5t-52 -63.5q0 -6 8 -6q97 0 97 -80q0 -32 -24 -54t-58 -22q-45 0 -74 33t-29 76q0 75 76 131.5t203 56.5q140 0 226.5 -61.5t86.5 -138.5q0 -81 -49 -126t-145 -63q112 -18 167.5 -69.5 t55.5 -147.5q0 -108 -103 -179t-250 -71q-124 0 -207 58t-83 131zM557 -68l827 1502h109l-827 -1502h-109zM1149 274l438 560h135v-531h217l-20 -63h-197v-90v-19v-28.5t3 -21t10 -17.5t18 -12t30.5 -9.5t46 -5t64.5 -4.5v-33h-471v33q31 2 53 4.5t39.5 6.5t28 6.5t18.5 9 t11.5 10.5t5 15t1.5 17t-0.5 22t-0.5 26v90h-410zM1231 303h348v442z" />
<glyph unicode="&#xbf;" horiz-adv-x="999" d="M88 -86q0 113 57 187t177 151q13 8 46.5 29t47 30t42 28.5t41.5 31t34.5 30t31 33.5t21 34.5t16 39.5t4.5 41q0 33 -21 63.5t-61 30.5q-19 0 -37.5 -15.5t-25.5 -39.5q-8 -30 -4 -99h-41q0 1 -1 11t-1 12q0 54 2 68q9 46 39.5 75t68.5 29q58 0 90.5 -41.5t32.5 -101.5 q0 -111 -106 -230q-9 -10 -37 -41.5l-36 -40.5t-31 -36.5t-30.5 -38.5t-24.5 -35.5t-22.5 -39t-16 -39t-14 -44t-7 -45t-3.5 -51.5q0 -139 66 -211t186 -72q97 0 174.5 53t77.5 111q0 32 -29 38q-9 2 -31 4l-7 1q-33 3 -55.5 30.5t-22.5 67.5q0 54 32 84.5t78 30.5 q58 0 98 -46t40 -114q0 -130 -114 -215.5t-284 -85.5q-197 0 -318.5 96.5t-121.5 241.5zM416 860q0 51 37 87t90 36t89 -36.5t36 -86.5q0 -49 -35.5 -86t-89.5 -37q-53 0 -90 36t-37 87z" />
<glyph unicode="&#xc0;" horiz-adv-x="1579" d="M0 0v35q47 9 76 17.5t64 25.5t60 42.5t54 66.5t57 100t60 141l385 985h88l463 -1132q24 -60 38 -91t32 -60t31.5 -40.5t38 -23t50.5 -16.5t69 -13q8 -1 13 -2v-35h-625v35q116 19 148 33q43 20 43 55q0 14 -2 29t-4 24.5t-7.5 26t-7.5 22t-9.5 24t-8.5 21.5l-119 285 h-504l-75 -201q-1 -4 -10 -27t-11.5 -30.5t-8.5 -28.5t-8.5 -34t-5 -32.5t-2.5 -37.5q0 -111 220 -129v-35h-582zM489 1726q0 28 22 47t56 19q66 0 111 -61q35 -49 52.5 -72t45 -53t50 -44t54 -26.5t70.5 -17.5l-2 -33q-102 10 -206 43.5t-178.5 87t-74.5 110.5zM500 596 h471l-248 594z" />
<glyph unicode="&#xc1;" horiz-adv-x="1579" d="M0 0v35q47 9 76 17.5t64 25.5t60 42.5t54 66.5t57 100t60 141l385 985h88l463 -1132q24 -60 38 -91t32 -60t31.5 -40.5t38 -23t50.5 -16.5t69 -13q8 -1 13 -2v-35h-625v35q116 19 148 33q43 20 43 55q0 14 -2 29t-4 24.5t-7.5 26t-7.5 22t-9.5 24t-8.5 21.5l-119 285 h-504l-75 -201q-1 -4 -10 -27t-11.5 -30.5t-8.5 -28.5t-8.5 -34t-5 -32.5t-2.5 -37.5q0 -111 220 -129v-35h-582zM500 596h471l-248 594zM653 1518q67 10 117.5 42t80 70t55 75t57 62t71.5 25q33 0 56.5 -18.5t23.5 -47.5q0 -57 -74.5 -110.5t-178.5 -87t-206 -43.5z" />
<glyph unicode="&#xc2;" horiz-adv-x="1579" d="M0 0v35q47 9 76 17.5t64 25.5t60 42.5t54 66.5t57 100t60 141l385 985h88l463 -1132q24 -60 38 -91t32 -60t31.5 -40.5t38 -23t50.5 -16.5t69 -13q8 -1 13 -2v-35h-625v35q116 19 148 33q43 20 43 55q0 14 -2 29t-4 24.5t-7.5 26t-7.5 22t-9.5 24t-8.5 21.5l-119 285 h-504l-75 -201q-1 -4 -10 -27t-11.5 -30.5t-8.5 -28.5t-8.5 -34t-5 -32.5t-2.5 -37.5q0 -111 220 -129v-35h-582zM467 1501l313 295l314 -295l-25 -18l-289 143l-288 -143zM500 596h471l-248 594z" />
<glyph unicode="&#xc3;" horiz-adv-x="1579" d="M0 0v35q47 9 76 17.5t64 25.5t60 42.5t54 66.5t57 100t60 141l385 985h88l463 -1132q24 -60 38 -91t32 -60t31.5 -40.5t38 -23t50.5 -16.5t69 -13q8 -1 13 -2v-35h-625v35q116 19 148 33q43 20 43 55q0 14 -2 29t-4 24.5t-7.5 26t-7.5 22t-9.5 24t-8.5 21.5l-119 285 h-504l-75 -201q-1 -4 -10 -27t-11.5 -30.5t-8.5 -28.5t-8.5 -34t-5 -32.5t-2.5 -37.5q0 -111 220 -129v-35h-582zM459 1538q81 207 229 207q53 0 113.5 -25.5t116 -51.5t94.5 -26q71 0 112 103l33 -10q-29 -105 -93 -162t-134 -57q-52 0 -117.5 26t-125.5 52t-99 26 q-49 0 -99 -98zM500 596h471l-248 594z" />
<glyph unicode="&#xc4;" horiz-adv-x="1579" d="M0 0v35q47 9 76 17.5t64 25.5t60 42.5t54 66.5t57 100t60 141l385 985h88l463 -1132q24 -60 38 -91t32 -60t31.5 -40.5t38 -23t50.5 -16.5t69 -13q8 -1 13 -2v-35h-625v35q116 19 148 33q43 20 43 55q0 14 -2 29t-4 24.5t-7.5 26t-7.5 22t-9.5 24t-8.5 21.5l-119 285 h-504l-75 -201q-1 -4 -10 -27t-11.5 -30.5t-8.5 -28.5t-8.5 -34t-5 -32.5t-2.5 -37.5q0 -111 220 -129v-35h-582zM485 1630q0 48 36 84.5t87 36.5q52 0 87.5 -35.5t35.5 -85.5q0 -49 -36 -83t-87 -34t-87 34t-36 83zM500 596h471l-248 594zM848 1630q0 48 36 84.5t87 36.5 q52 0 87.5 -35.5t35.5 -85.5q0 -49 -36 -83t-87 -34t-87 34t-36 83z" />
<glyph unicode="&#xc5;" horiz-adv-x="1579" d="M0 0v35q47 9 76 17.5t64 25.5t60 42.5t54 66.5t57 100t60 141l385 985h88l463 -1132q24 -60 38 -91t32 -60t31.5 -40.5t38 -23t50.5 -16.5t69 -13q8 -1 13 -2v-35h-625v35q116 19 148 33q43 20 43 55q0 14 -2 29t-4 24.5t-7.5 26t-7.5 22t-9.5 24t-8.5 21.5l-119 285 h-504l-75 -201q-1 -4 -10 -27t-11.5 -30.5t-8.5 -28.5t-8.5 -34t-5 -32.5t-2.5 -37.5q0 -111 220 -129v-35h-582zM500 596h471l-248 594zM625 1665q0 70 54 123t124 53q71 0 125.5 -53t54.5 -123t-54.5 -124t-125.5 -54t-124.5 53.5t-53.5 124.5zM727 1665q0 -71 16.5 -104 t59.5 -33t60.5 33.5t17.5 103.5t-17.5 102.5t-60.5 32.5q-44 0 -60 -32t-16 -103z" />
<glyph unicode="&#xc6;" horiz-adv-x="2140" d="M0 0v39q80 11 138.5 40.5t112.5 94t100.5 151t109.5 230.5l270 619q37 88 37 102q0 13 -9 21.5t-31.5 13.5t-41 7t-58.5 5.5t-63 5.5v35h1426v-481h-33q-12 216 -127 328t-328 112q-84 0 -132.5 -8t-73 -30.5t-31 -49.5t-6.5 -78v-420h43q44 0 80.5 3t65 10.5t51.5 15.5 t40 23t29.5 28t21.5 35t14.5 39t10 46.5t6 50t4.5 56.5h35v-677h-35q-8 69 -15 110t-21.5 83t-36 64t-56.5 40.5t-83.5 25t-117.5 6.5h-36v-485q0 -39 2 -62.5t10 -43.5t19.5 -30t35 -17t52.5 -9t75 -2q302 0 444 197q20 28 37 78t26.5 91.5t29.5 141.5h34v-555h-1185v35 q84 6 128 14t65.5 30.5t24.5 43t3 72.5v12v489h-483l-78 -178q-113 -256 -113 -342q0 -35 13.5 -58.5t45 -38.5t66 -23t92.5 -17v-39h-604zM604 737h457v447q0 76 -22.5 104.5t-90.5 28.5q-86 0 -133 -92q-7 -15 -34.5 -69t-46 -94.5t-34.5 -80.5z" />
<glyph unicode="&#xc7;" horiz-adv-x="1312" d="M96 680q0 138 53 270t139 228.5t202 155.5t237 59q143 0 258 -84q7 -5 22 -16.5t22 -17t18 -12t19 -9.5t15 -3q25 0 43 32t39 95h31v-553h-35q-65 265 -170.5 396t-257.5 131q-409 0 -409 -742q0 -304 97.5 -450t317.5 -146q181 0 296 119.5t130 351.5h43 q-4 -57 -8.5 -93t-19.5 -88.5t-41 -98.5q-63 -113 -170.5 -172.5t-249.5 -59.5q-41 0 -53 2l-2 -8q0 -18 25 -28.5t61 -17.5t72.5 -18.5t61.5 -40t25 -73.5q0 -75 -63.5 -129.5t-161.5 -54.5q-76 0 -147 26l14 33q54 -12 106 -12q38 0 64 22t26 45q0 30 -14 52t-33.5 35.5 t-39.5 28t-34 39t-14 58.5q0 22 21 48q-159 28 -283 135.5t-188 256t-64 308.5z" />
<glyph unicode="&#xc8;" horiz-adv-x="1380" d="M80 0v35q34 2 60.5 5t48.5 7.5t38 7.5t28 11t20 12.5t13.5 17t8.5 19t4.5 23.5t1.5 27v33v9v952v9q0 31 -0.5 44.5t-4.5 34t-12.5 29t-23.5 20t-40 16.5t-59 10.5t-83 8.5v35h1155l4 -489h-35q-22 232 -132.5 340t-330.5 108q-53 0 -85 -2t-62 -8.5t-45.5 -17.5t-27 -31 t-15.5 -47t-4 -68v-401h41q70 0 120 7t86 25.5t57.5 41.5t35 63t19.5 82.5t9 107.5h33v-708h-33q-5 90 -19.5 148t-49.5 104.5t-97 67t-157 20.5h-45v-439q0 -125 10 -158q13 -46 64 -60q40 -11 135 -11q247 0 370 124t150 378h35l-9 -543h-1177zM408 1726q0 28 22 47t55 19 q66 0 111 -61q35 -49 52.5 -72t45 -53t50 -44t54 -26.5t70.5 -17.5l-2 -33q-102 10 -205.5 43.5t-178 87t-74.5 110.5z" />
<glyph unicode="&#xc9;" horiz-adv-x="1380" d="M80 0v35q34 2 60.5 5t48.5 7.5t38 7.5t28 11t20 12.5t13.5 17t8.5 19t4.5 23.5t1.5 27v33v9v952v9q0 31 -0.5 44.5t-4.5 34t-12.5 29t-23.5 20t-40 16.5t-59 10.5t-83 8.5v35h1155l4 -489h-35q-22 232 -132.5 340t-330.5 108q-53 0 -85 -2t-62 -8.5t-45.5 -17.5t-27 -31 t-15.5 -47t-4 -68v-401h41q70 0 120 7t86 25.5t57.5 41.5t35 63t19.5 82.5t9 107.5h33v-708h-33q-5 90 -19.5 148t-49.5 104.5t-97 67t-157 20.5h-45v-439q0 -125 10 -158q13 -46 64 -60q40 -11 135 -11q247 0 370 124t150 378h35l-9 -543h-1177zM592 1518q67 10 117.5 42 t80 70t55 75t57 62t71.5 25q33 0 56.5 -18.5t23.5 -47.5q0 -57 -74.5 -110.5t-178.5 -87t-206 -43.5z" />
<glyph unicode="&#xca;" horiz-adv-x="1380" d="M80 0v35q34 2 60.5 5t48.5 7.5t38 7.5t28 11t20 12.5t13.5 17t8.5 19t4.5 23.5t1.5 27v33v9v952v9q0 31 -0.5 44.5t-4.5 34t-12.5 29t-23.5 20t-40 16.5t-59 10.5t-83 8.5v35h1155l4 -489h-35q-22 232 -132.5 340t-330.5 108q-53 0 -85 -2t-62 -8.5t-45.5 -17.5t-27 -31 t-15.5 -47t-4 -68v-401h41q70 0 120 7t86 25.5t57.5 41.5t35 63t19.5 82.5t9 107.5h33v-708h-33q-5 90 -19.5 148t-49.5 104.5t-97 67t-157 20.5h-45v-439q0 -125 10 -158q13 -46 64 -60q40 -11 135 -11q247 0 370 124t150 378h35l-9 -543h-1177zM432 1501l313 295l314 -295 l-25 -18l-289 143l-288 -143z" />
<glyph unicode="&#xcb;" horiz-adv-x="1380" d="M80 0v35q34 2 60.5 5t48.5 7.5t38 7.5t28 11t20 12.5t13.5 17t8.5 19t4.5 23.5t1.5 27v33v9v952v9q0 31 -0.5 44.5t-4.5 34t-12.5 29t-23.5 20t-40 16.5t-59 10.5t-83 8.5v35h1155l4 -489h-35q-22 232 -132.5 340t-330.5 108q-53 0 -85 -2t-62 -8.5t-45.5 -17.5t-27 -31 t-15.5 -47t-4 -68v-401h41q70 0 120 7t86 25.5t57.5 41.5t35 63t19.5 82.5t9 107.5h33v-708h-33q-5 90 -19.5 148t-49.5 104.5t-97 67t-157 20.5h-45v-439q0 -125 10 -158q13 -46 64 -60q40 -11 135 -11q247 0 370 124t150 378h35l-9 -543h-1177zM430 1632q0 48 35.5 83.5 t87.5 35.5t87.5 -34.5t35.5 -84.5q0 -49 -36 -84t-87 -35t-87 35t-36 84zM793 1632q0 48 35 83.5t87 35.5t87.5 -34.5t35.5 -84.5q0 -51 -36 -85t-87 -34t-86.5 34.5t-35.5 84.5z" />
<glyph unicode="&#xcc;" horiz-adv-x="798" d="M78 0v35q43 3 74 6.5t55 10t39.5 11.5t26.5 17t16.5 20t8 27.5t3 32.5t0.5 41v6v952v9q0 31 -0.5 44.5t-4.5 34t-12.5 29t-23.5 20t-40 16.5t-59 10.5t-83 8.5v35h641v-35q-42 -3 -72.5 -6.5t-54 -10t-39 -11.5t-26 -17t-16 -20t-8 -27t-3 -31t-0.5 -40v-9v-952v-9 q0 -28 0.5 -40.5t3 -31.5t8 -27t16 -20t26 -16.5t39 -11t54 -10t72.5 -6.5v-35h-641zM100 1726q0 28 22 47t56 19q66 0 111 -61q35 -49 52.5 -72t45 -53t50 -44t54 -26.5t70.5 -17.5l-2 -33q-102 10 -206 43.5t-178.5 87t-74.5 110.5z" />
<glyph unicode="&#xcd;" horiz-adv-x="798" d="M78 0v35q43 3 74 6.5t55 10t39.5 11.5t26.5 17t16.5 20t8 27.5t3 32.5t0.5 41v6v952v9q0 31 -0.5 44.5t-4.5 34t-12.5 29t-23.5 20t-40 16.5t-59 10.5t-83 8.5v35h641v-35q-42 -3 -72.5 -6.5t-54 -10t-39 -11.5t-26 -17t-16 -20t-8 -27t-3 -31t-0.5 -40v-9v-952v-9 q0 -28 0.5 -40.5t3 -31.5t8 -27t16 -20t26 -16.5t39 -11t54 -10t72.5 -6.5v-35h-641zM244 1518q67 10 117.5 42t80 70t55 75t57 62t71.5 25q33 0 56.5 -18.5t23.5 -47.5q0 -57 -74.5 -110.5t-178.5 -87t-206 -43.5z" />
<glyph unicode="&#xce;" horiz-adv-x="798" d="M78 0v35q43 3 74 6.5t55 10t39.5 11.5t26.5 17t16.5 20t8 27.5t3 32.5t0.5 41v6v952v9q0 31 -0.5 44.5t-4.5 34t-12.5 29t-23.5 20t-40 16.5t-59 10.5t-83 8.5v35h641v-35q-42 -3 -72.5 -6.5t-54 -10t-39 -11.5t-26 -17t-16 -20t-8 -27t-3 -31t-0.5 -40v-9v-952v-9 q0 -28 0.5 -40.5t3 -31.5t8 -27t16 -20t26 -16.5t39 -11t54 -10t72.5 -6.5v-35h-641zM82 1501l313 295l314 -295l-25 -18l-289 143l-289 -143z" />
<glyph unicode="&#xcf;" horiz-adv-x="798" d="M78 0v35q43 3 74 6.5t55 10t39.5 11.5t26.5 17t16.5 20t8 27.5t3 32.5t0.5 41v6v952v9q0 31 -0.5 44.5t-4.5 34t-12.5 29t-23.5 20t-40 16.5t-59 10.5t-83 8.5v35h641v-35q-42 -3 -72.5 -6.5t-54 -10t-39 -11.5t-26 -17t-16 -20t-8 -27t-3 -31t-0.5 -40v-9v-952v-9 q0 -28 0.5 -40.5t3 -31.5t8 -27t16 -20t26 -16.5t39 -11t54 -10t72.5 -6.5v-35h-641zM96 1632q0 48 35.5 83.5t87.5 35.5t87.5 -34.5t35.5 -84.5q0 -49 -36 -84t-87 -35t-87 35t-36 84zM459 1632q0 48 35.5 83.5t87.5 35.5t87.5 -34.5t35.5 -84.5q0 -51 -36 -85t-87 -34 t-87 35t-36 84z" />
<glyph unicode="&#xd0;" horiz-adv-x="1527" d="M86 0v35q34 2 60.5 5t48.5 7.5t38 7.5t28 11t20 12.5t13.5 17t8.5 19t4.5 23.5t1.5 27v33v9v506h-178v53h178v393v9q0 31 -0.5 44.5t-4.5 34t-12.5 29t-23.5 20t-40 16.5t-59 10.5t-83 8.5v35h580q167 0 258 -20q145 -34 261 -131t181.5 -238t65.5 -297q0 -196 -91 -356 t-249 -250q-74 -42 -180 -58t-267 -16h-559zM508 227q0 -89 8 -113q14 -47 80 -62q50 -11 145 -11q111 0 190.5 24.5t132.5 72.5t84.5 127t44.5 178t13 237q0 178 -21 294.5t-75 198t-146.5 117t-234.5 35.5q-34 0 -60 -0.5t-48 -4t-37.5 -6t-28 -10t-20 -12.5t-13 -18 t-8.5 -21t-4.5 -27t-1.5 -31v-38v-391h483v-53h-483v-486z" />
<glyph unicode="&#xd1;" horiz-adv-x="1538" d="M68 0v35q41 6 74 18t58 24.5t43.5 37t31 42.5t21 55t12.5 60.5t6 73.5t2.5 78t0.5 90v23v659q-54 71 -106.5 99.5t-142.5 35.5v35h370l736 -1059v625q0 93 -7 152.5t-23.5 105.5t-49 72t-77.5 42.5t-116 26.5v35h580v-35q-74 -16 -122 -41.5t-74.5 -51.5t-39 -81 t-14.5 -96t-2 -129v-959h-55l-801 1151v-587q0 -31 -1 -81.5t-1 -76.5t1.5 -67t5.5 -62t12.5 -52.5t21 -48.5t32 -38t45.5 -33.5t61 -24t79 -18.5v-35h-561zM418 1540q81 207 229 207q53 0 113.5 -25.5t116 -51t94.5 -25.5q71 0 112 102l33 -10q-29 -105 -93 -162t-134 -57 q-52 0 -117.5 26t-125.5 52t-99 26q-48 0 -98 -98z" />
<glyph unicode="&#xd2;" horiz-adv-x="1429" d="M96 682q0 175 81 338t226 268t314 105q127 0 243.5 -62.5t197.5 -162.5t129 -228t48 -258q0 -129 -48 -257t-129 -228t-197.5 -162t-243.5 -62q-169 0 -314 104.5t-226 267t-81 337.5zM322 682q0 -347 93.5 -507.5t301.5 -160.5t300.5 160.5t92.5 507.5t-93 508.5 t-300 161.5q-209 0 -302 -161.5t-93 -508.5zM418 1726q0 28 22 47t56 19q65 0 110 -61q43 -60 65.5 -88t56 -59t68.5 -45t83 -21l-2 -33q-102 10 -206 43.5t-178.5 87t-74.5 110.5z" />
<glyph unicode="&#xd3;" horiz-adv-x="1429" d="M96 682q0 175 81 338t226 268t314 105q127 0 243.5 -62.5t197.5 -162.5t129 -228t48 -258q0 -129 -48 -257t-129 -228t-197.5 -162t-243.5 -62q-169 0 -314 104.5t-226 267t-81 337.5zM322 682q0 -347 93.5 -507.5t301.5 -160.5t300.5 160.5t92.5 507.5t-93 508.5 t-300 161.5q-209 0 -302 -161.5t-93 -508.5zM567 1518q67 10 117.5 42t80 70t55 75t57 62t71.5 25q33 0 56.5 -18.5t23.5 -47.5q0 -57 -74.5 -110.5t-178.5 -87t-206 -43.5z" />
<glyph unicode="&#xd4;" horiz-adv-x="1429" d="M96 682q0 175 81 338t226 268t314 105q127 0 243.5 -62.5t197.5 -162.5t129 -228t48 -258q0 -129 -48 -257t-129 -228t-197.5 -162t-243.5 -62q-169 0 -314 104.5t-226 267t-81 337.5zM322 682q0 -347 93.5 -507.5t301.5 -160.5t300.5 160.5t92.5 507.5t-93 508.5 t-300 161.5q-209 0 -302 -161.5t-93 -508.5zM391 1501l314 295l313 -295l-25 -18l-288 143l-289 -143z" />
<glyph unicode="&#xd5;" horiz-adv-x="1429" d="M96 682q0 175 81 338t226 268t314 105q127 0 243.5 -62.5t197.5 -162.5t129 -228t48 -258q0 -129 -48 -257t-129 -228t-197.5 -162t-243.5 -62q-169 0 -314 104.5t-226 267t-81 337.5zM322 682q0 -347 93.5 -507.5t301.5 -160.5t300.5 160.5t92.5 507.5t-93 508.5 t-300 161.5q-209 0 -302 -161.5t-93 -508.5zM356 1540q81 207 230 207q53 0 113.5 -25.5t115.5 -51t94 -25.5q72 0 113 102l33 -10q-29 -105 -93 -162t-135 -57q-52 0 -117.5 26t-125.5 52t-99 26q-48 0 -98 -98z" />
<glyph unicode="&#xd6;" horiz-adv-x="1429" d="M96 682q0 175 81 338t226 268t314 105q127 0 243.5 -62.5t197.5 -162.5t129 -228t48 -258q0 -129 -48 -257t-129 -228t-197.5 -162t-243.5 -62q-169 0 -314 104.5t-226 267t-81 337.5zM322 682q0 -347 93.5 -507.5t301.5 -160.5t300.5 160.5t92.5 507.5t-93 508.5 t-300 161.5q-209 0 -302 -161.5t-93 -508.5zM412 1630q0 50 35.5 85.5t87.5 35.5t87 -35.5t35 -85.5q0 -49 -35.5 -83t-86.5 -34t-87 34t-36 83zM774 1630q0 48 36 84.5t87 36.5q52 0 87.5 -35.5t35.5 -85.5q0 -49 -36 -83t-87 -34t-87 34t-36 83z" />
<glyph unicode="&#xd7;" d="M166 1100l67 67l392 -391l391 391l67 -69l-389 -389l387 -390l-67 -67l-389 389l-387 -389l-70 67l389 390z" />
<glyph unicode="&#xd8;" horiz-adv-x="1429" d="M96 682q0 175 81 338t226 268t314 105q91 0 159.5 -24t143.5 -73l88 152h76l-115 -193q127 -112 196.5 -263t69.5 -310q0 -104 -30 -208t-87 -193t-132 -158.5t-171 -109.5t-198 -40q-194 0 -334 119l-104 -174h-74l129 217q-108 102 -173 249t-65 298zM322 682 q0 -285 65 -453l598 1010q-91 113 -268 113q-209 0 -302 -161.5t-93 -508.5zM424 162q51 -76 122 -112t171 -36q208 0 300.5 160.5t92.5 507.5q0 340 -86 496z" />
<glyph unicode="&#xd9;" horiz-adv-x="1560" d="M55 1331v35h654v-35q-35 -2 -62.5 -5t-50.5 -7.5t-39.5 -7.5t-29.5 -11t-21 -12.5t-14 -17t-9 -19t-4.5 -24t-1.5 -27.5v-32v-9v-692q0 -107 5.5 -169.5t25.5 -102.5q79 -166 323 -166q180 0 277 94q61 59 79.5 128.5t18.5 194.5v418q0 115 -3 170.5t-15 119.5 t-39.5 92.5t-74.5 51.5t-122 33v35h559v-35q-46 -5 -82 -15.5t-62 -32t-44 -39.5t-29.5 -55.5t-18 -63.5t-9.5 -79.5t-3.5 -86.5t-0.5 -102v-3v-408q0 -66 -2 -103t-15.5 -89.5t-40.5 -95.5q-111 -185 -393 -185q-367 0 -489 209q-43 74 -43 264v713q0 79 -10 102 q-18 41 -95 56q-43 9 -119 14zM510 1726q0 28 22 47t56 19q65 0 110 -61q43 -60 65.5 -88t56 -59t68.5 -45t83 -21l-2 -33q-102 10 -206 43.5t-178.5 87t-74.5 110.5z" />
<glyph unicode="&#xda;" horiz-adv-x="1560" d="M55 1331v35h654v-35q-35 -2 -62.5 -5t-50.5 -7.5t-39.5 -7.5t-29.5 -11t-21 -12.5t-14 -17t-9 -19t-4.5 -24t-1.5 -27.5v-32v-9v-692q0 -107 5.5 -169.5t25.5 -102.5q79 -166 323 -166q180 0 277 94q61 59 79.5 128.5t18.5 194.5v418q0 115 -3 170.5t-15 119.5 t-39.5 92.5t-74.5 51.5t-122 33v35h559v-35q-46 -5 -82 -15.5t-62 -32t-44 -39.5t-29.5 -55.5t-18 -63.5t-9.5 -79.5t-3.5 -86.5t-0.5 -102v-3v-408q0 -66 -2 -103t-15.5 -89.5t-40.5 -95.5q-111 -185 -393 -185q-367 0 -489 209q-43 74 -43 264v713q0 79 -10 102 q-18 41 -95 56q-43 9 -119 14zM674 1520q67 10 117.5 42t80 70t55 75t57 62t71.5 25q33 0 56.5 -18t23.5 -47q0 -57 -74.5 -111t-178.5 -87.5t-206 -43.5z" />
<glyph unicode="&#xdb;" horiz-adv-x="1560" d="M55 1331v35h654v-35q-35 -2 -62.5 -5t-50.5 -7.5t-39.5 -7.5t-29.5 -11t-21 -12.5t-14 -17t-9 -19t-4.5 -24t-1.5 -27.5v-32v-9v-692q0 -107 5.5 -169.5t25.5 -102.5q79 -166 323 -166q180 0 277 94q61 59 79.5 128.5t18.5 194.5v418q0 115 -3 170.5t-15 119.5 t-39.5 92.5t-74.5 51.5t-122 33v35h559v-35q-46 -5 -82 -15.5t-62 -32t-44 -39.5t-29.5 -55.5t-18 -63.5t-9.5 -79.5t-3.5 -86.5t-0.5 -102v-3v-408q0 -66 -2 -103t-15.5 -89.5t-40.5 -95.5q-111 -185 -393 -185q-367 0 -489 209q-43 74 -43 264v713q0 79 -10 102 q-18 41 -95 56q-43 9 -119 14zM528 1501l314 295l313 -295l-25 -18l-288 143l-289 -143z" />
<glyph unicode="&#xdc;" horiz-adv-x="1560" d="M55 1331v35h654v-35q-35 -2 -62.5 -5t-50.5 -7.5t-39.5 -7.5t-29.5 -11t-21 -12.5t-14 -17t-9 -19t-4.5 -24t-1.5 -27.5v-32v-9v-692q0 -107 5.5 -169.5t25.5 -102.5q79 -166 323 -166q180 0 277 94q61 59 79.5 128.5t18.5 194.5v418q0 115 -3 170.5t-15 119.5 t-39.5 92.5t-74.5 51.5t-122 33v35h559v-35q-46 -5 -82 -15.5t-62 -32t-44 -39.5t-29.5 -55.5t-18 -63.5t-9.5 -79.5t-3.5 -86.5t-0.5 -102v-3v-408q0 -66 -2 -103t-15.5 -89.5t-40.5 -95.5q-111 -185 -393 -185q-367 0 -489 209q-43 74 -43 264v713q0 79 -10 102 q-18 41 -95 56q-43 9 -119 14zM494 1630q0 50 35 85.5t87 35.5t87.5 -35.5t35.5 -85.5t-35.5 -83.5t-87.5 -33.5q-51 0 -86.5 34t-35.5 83zM854 1630q0 48 36 84.5t87 36.5q52 0 87.5 -35.5t35.5 -85.5q0 -49 -36 -83t-87 -34t-87 34t-36 83z" />
<glyph unicode="&#xdd;" horiz-adv-x="1400" d="M14 1331v35h602v-35q-28 -3 -41.5 -5t-37.5 -6t-36 -8.5t-26 -11t-20 -15t-6 -19.5q0 -24 1 -33.5t6.5 -26t18.5 -41.5l250 -483l195 324q86 143 86 206q0 52 -48 76.5t-141 36.5v41h569v-35q-58 -13 -102 -29t-81.5 -39.5t-63.5 -45.5t-56.5 -61.5t-51.5 -72t-56 -90.5 l-223 -370v-416v-6v-33.5t2 -27.5t5.5 -24t10.5 -19t17 -17t25.5 -13t35.5 -11t47.5 -8t60.5 -7.5t76 -5.5v-35h-756v35q190 11 238 41q34 22 38 76q1 15 1 55v397l-258 488q-34 64 -52 93.5t-40.5 59.5t-47.5 42.5t-56.5 23t-84.5 20.5zM571 1518q67 10 117.5 42t80 70 t55 75t57 62t71.5 25q33 0 56.5 -18.5t23.5 -47.5q0 -57 -74.5 -110.5t-178.5 -87t-206 -43.5z" />
<glyph unicode="&#xde;" horiz-adv-x="1316" d="M76 0v35q34 2 60.5 5t48.5 7.5t38 7.5t28 11t20 12.5t13.5 17t8.5 19t4.5 23.5t1.5 27v33v9v952v9q0 31 -0.5 44.5t-4.5 34t-12.5 29t-23.5 20t-40 16.5t-59 10.5t-83 8.5v35h422v-205q66 2 170 2q296 0 434 -80q77 -44 120.5 -115t43.5 -151q0 -177 -168 -278 q-82 -49 -179.5 -67.5t-226.5 -18.5h-194v-246q0 -78 11 -101q18 -40 98 -55q51 -10 151 -16v-35h-682zM498 494h190q87 0 147.5 13t109 46.5t72 97t23.5 158.5q0 313 -327 313q-92 0 -137 -11t-61.5 -35.5t-16.5 -74.5v-507z" />
<glyph unicode="&#xdf;" horiz-adv-x="1380" d="M59 915v41h209q2 109 35 194.5t86 137.5t117 78.5t133 26.5q120 0 199.5 -57.5t79.5 -137.5q0 -93 -115 -135q-51 -18 -79 -54.5t-28 -80.5q0 -46 26.5 -83.5t70 -62t99 -50.5t113 -47.5t113 -53.5t99 -68.5t70 -93t26.5 -125.5q0 -160 -129.5 -265.5t-321.5 -105.5 q-149 0 -259.5 75t-110.5 192q0 52 28 82t80 30q43 0 69.5 -30t26.5 -74q0 -50 -26 -76q-4 -4 -12.5 -12t-11.5 -11.5t-7.5 -9t-6 -9.5t-1.5 -9q0 -38 73 -72.5t160 -34.5q130 0 208.5 69t78.5 187q0 56 -34.5 101.5t-89.5 77t-122 61t-133.5 60.5t-121.5 67t-89.5 89.5 t-34.5 119.5q0 189 248 235q-69 27 -69 86q0 44 28 66q3 2 14 10.5t14.5 12t8 11t4.5 15.5q0 22 -39 46t-90 24q-67 0 -114 -32.5t-52 -72.5q-14 -104 -18.5 -179.5t-2.5 -99.5l3 -24v-944h-389v35q57 5 93 13t58 18t32 29.5t12.5 38.5t2.5 54v727h-211z" />
<glyph unicode="&#xe0;" horiz-adv-x="1097" d="M80 213q0 106 94 182q31 25 70.5 46t73 34t86.5 27t85 20.5t96.5 19.5t94.5 19v133q0 51 -4 85.5t-16 68t-34 52.5t-59.5 30.5t-91.5 11.5q-85 0 -146 -34.5t-61 -67.5q0 -12 8 -20.5t19.5 -15.5t23 -16t19.5 -26.5t8 -42.5q0 -38 -31.5 -68t-68.5 -30q-56 0 -89.5 33.5 t-33.5 88.5q0 91 103 165.5t266 74.5q81 0 156 -21t118 -55q58 -43 81 -107.5t23 -160.5v-500q0 -55 10.5 -77.5t41.5 -22.5q99 0 102 225h41v-35q0 -258 -209 -258q-97 0 -135 60.5t-41 169.5q-99 -228 -350 -228q-113 0 -181.5 66t-68.5 174zM215 1305q0 28 22 46.5 t56 18.5q65 0 110 -61q43 -60 65.5 -88t56 -59t68.5 -45t83 -21l-2 -33q-102 10 -206 43.5t-178.5 87.5t-74.5 111zM299 213q0 -85 32 -131.5t95 -46.5q40 0 84 24.5t82 67.5t63 110.5t25 145.5v139q-99 -13 -164.5 -32t-117 -53.5t-75.5 -89.5t-24 -134z" />
<glyph unicode="&#xe1;" horiz-adv-x="1097" d="M80 213q0 106 94 182q31 25 70.5 46t73 34t86.5 27t85 20.5t96.5 19.5t94.5 19v133q0 51 -4 85.5t-16 68t-34 52.5t-59.5 30.5t-91.5 11.5q-85 0 -146 -34.5t-61 -67.5q0 -12 8 -20.5t19.5 -15.5t23 -16t19.5 -26.5t8 -42.5q0 -38 -31.5 -68t-68.5 -30q-56 0 -89.5 33.5 t-33.5 88.5q0 91 103 165.5t266 74.5q81 0 156 -21t118 -55q58 -43 81 -107.5t23 -160.5v-500q0 -55 10.5 -77.5t41.5 -22.5q99 0 102 225h41v-35q0 -258 -209 -258q-97 0 -135 60.5t-41 169.5q-99 -228 -350 -228q-113 0 -181.5 66t-68.5 174zM299 213q0 -85 32 -131.5 t95 -46.5q40 0 84 24.5t82 67.5t63 110.5t25 145.5v139q-99 -13 -164.5 -32t-117 -53.5t-75.5 -89.5t-24 -134zM326 1096q67 10 117.5 42t80 70t55 75t57 62t71.5 25q33 0 56 -18t23 -47q0 -57 -74.5 -111t-178 -87.5t-205.5 -43.5z" />
<glyph unicode="&#xe2;" horiz-adv-x="1097" d="M80 213q0 106 94 182q31 25 70.5 46t73 34t86.5 27t85 20.5t96.5 19.5t94.5 19v133q0 51 -4 85.5t-16 68t-34 52.5t-59.5 30.5t-91.5 11.5q-85 0 -146 -34.5t-61 -67.5q0 -12 8 -20.5t19.5 -15.5t23 -16t19.5 -26.5t8 -42.5q0 -38 -31.5 -68t-68.5 -30q-56 0 -89.5 33.5 t-33.5 88.5q0 91 103 165.5t266 74.5q81 0 156 -21t118 -55q58 -43 81 -107.5t23 -160.5v-500q0 -55 10.5 -77.5t41.5 -22.5q99 0 102 225h41v-35q0 -258 -209 -258q-97 0 -135 60.5t-41 169.5q-99 -228 -350 -228q-113 0 -181.5 66t-68.5 174zM186 1092l314 294l313 -294 l-25 -19l-288 144l-289 -144zM299 213q0 -85 32 -131.5t95 -46.5q40 0 84 24.5t82 67.5t63 110.5t25 145.5v139q-99 -13 -164.5 -32t-117 -53.5t-75.5 -89.5t-24 -134z" />
<glyph unicode="&#xe3;" horiz-adv-x="1097" d="M80 213q0 106 94 182q31 25 70.5 46t73 34t86.5 27t85 20.5t96.5 19.5t94.5 19v133q0 51 -4 85.5t-16 68t-34 52.5t-59.5 30.5t-91.5 11.5q-85 0 -146 -34.5t-61 -67.5q0 -12 8 -20.5t19.5 -15.5t23 -16t19.5 -26.5t8 -42.5q0 -38 -31.5 -68t-68.5 -30q-56 0 -89.5 33.5 t-33.5 88.5q0 91 103 165.5t266 74.5q81 0 156 -21t118 -55q58 -43 81 -107.5t23 -160.5v-500q0 -55 10.5 -77.5t41.5 -22.5q99 0 102 225h41v-35q0 -258 -209 -258q-97 0 -135 60.5t-41 169.5q-99 -228 -350 -228q-113 0 -181.5 66t-68.5 174zM160 1135q81 206 229 206 q53 0 113.5 -25.5t116 -51t94.5 -25.5q71 0 112 102l33 -10q-29 -105 -93 -162t-134 -57q-41 0 -91.5 16.5t-89.5 36t-84 36t-77 16.5q-49 0 -99 -99zM299 213q0 -85 32 -131.5t95 -46.5q40 0 84 24.5t82 67.5t63 110.5t25 145.5v139q-99 -13 -164.5 -32t-117 -53.5 t-75.5 -89.5t-24 -134z" />
<glyph unicode="&#xe4;" horiz-adv-x="1097" d="M80 213q0 106 94 182q31 25 70.5 46t73 34t86.5 27t85 20.5t96.5 19.5t94.5 19v133q0 51 -4 85.5t-16 68t-34 52.5t-59.5 30.5t-91.5 11.5q-85 0 -146 -34.5t-61 -67.5q0 -12 8 -20.5t19.5 -15.5t23 -16t19.5 -26.5t8 -42.5q0 -38 -31.5 -68t-68.5 -30q-56 0 -89.5 33.5 t-33.5 88.5q0 91 103 165.5t266 74.5q81 0 156 -21t118 -55q58 -43 81 -107.5t23 -160.5v-500q0 -55 10.5 -77.5t41.5 -22.5q99 0 102 225h41v-35q0 -258 -209 -258q-97 0 -135 60.5t-41 169.5q-99 -228 -350 -228q-113 0 -181.5 66t-68.5 174zM201 1227q0 48 35.5 83.5 t87.5 35.5t87 -34.5t35 -84.5t-35.5 -84.5t-86.5 -34.5t-87 35t-36 84zM299 213q0 -85 32 -131.5t95 -46.5q40 0 84 24.5t82 67.5t63 110.5t25 145.5v139q-99 -13 -164.5 -32t-117 -53.5t-75.5 -89.5t-24 -134zM563 1227q0 48 35.5 83.5t87.5 35.5t87.5 -34.5t35.5 -84.5 q0 -49 -36 -84t-87 -35t-87 35t-36 84z" />
<glyph unicode="&#xe5;" horiz-adv-x="1097" d="M80 213q0 106 94 182q31 25 70.5 46t73 34t86.5 27t85 20.5t96.5 19.5t94.5 19v133q0 51 -4 85.5t-16 68t-34 52.5t-59.5 30.5t-91.5 11.5q-85 0 -146 -34.5t-61 -67.5q0 -12 8 -20.5t19.5 -15.5t23 -16t19.5 -26.5t8 -42.5q0 -38 -31.5 -68t-68.5 -30q-56 0 -89.5 33.5 t-33.5 88.5q0 91 103 165.5t266 74.5q81 0 156 -21t118 -55q58 -43 81 -107.5t23 -160.5v-500q0 -55 10.5 -77.5t41.5 -22.5q99 0 102 225h41v-35q0 -258 -209 -258q-97 0 -135 60.5t-41 169.5q-99 -228 -350 -228q-113 0 -181.5 66t-68.5 174zM299 213q0 -85 32 -131.5 t95 -46.5q40 0 84 24.5t82 67.5t63 110.5t25 145.5v139q-99 -13 -164.5 -32t-117 -53.5t-75.5 -89.5t-24 -134zM311 1249q0 70 55 122t126 52t124.5 -52t53.5 -122q0 -71 -54 -123.5t-124 -52.5t-125.5 52.5t-55.5 123.5zM414 1249q0 -70 17.5 -102.5t60.5 -32.5t59 32 t16 103q0 72 -16.5 106t-58.5 34q-43 0 -60.5 -34.5t-17.5 -105.5z" />
<glyph unicode="&#xe6;" horiz-adv-x="1642" d="M80 217q0 72 47 143t127 113q66 35 164.5 51.5t263.5 28.5v106q0 83 -7.5 131.5t-31 83.5t-65 48.5t-111.5 13.5q-90 0 -146.5 -35t-56.5 -70q0 -8 12.5 -18t27.5 -19.5t27.5 -28.5t12.5 -42q0 -48 -31.5 -76.5t-70.5 -28.5q-49 0 -83 31.5t-34 87.5q0 73 54.5 130.5 t135.5 86.5t168 29q227 0 344 -135q76 63 148.5 99t163.5 36q190 0 306 -121t116 -321v-37h-676q1 -101 7 -170.5t24 -132.5t49.5 -99.5t82.5 -57.5t123 -21q294 0 353 311h37q-20 -176 -127.5 -267.5t-268.5 -91.5q-142 0 -242 60t-198 205q-146 -267 -389 -267 q-110 0 -183 70t-73 174zM285 211q0 -94 34.5 -132t104.5 -38q58 0 110.5 37t90.5 108q26 49 39 109.5t15 96.5t3 112h-37q-360 0 -360 -293zM887 575l2 -22h368q56 0 77.5 15.5t21.5 60.5q0 158 -46.5 235.5t-168.5 77.5q-124 0 -189 -99.5t-65 -267.5z" />
<glyph unicode="&#xe7;" horiz-adv-x="1048" d="M90 449q0 119 44 222t116 170.5t161.5 105.5t182.5 38q160 0 260 -88.5t100 -198.5q0 -55 -33 -91t-71 -36q-56 0 -85.5 29t-29.5 80q0 62 49 92q2 1 7 4t7 4.5l6 4.5t6 5t4.5 5.5t3.5 6.5t1 7q0 44 -59 89.5t-164 45.5q-69 0 -119 -20.5t-82.5 -58t-51.5 -98 t-26.5 -132.5t-7.5 -170q0 -65 10 -142.5t21 -121.5q26 -95 92.5 -140t179.5 -45q58 0 122 28t108 77q43 49 61 105.5t23 135.5l41 3q-9 -207 -129 -305.5t-299 -82.5v-10q0 -18 25 -28.5t61.5 -17.5t72.5 -18.5t61 -40t25 -73.5q0 -74 -64.5 -129t-162.5 -55q-78 0 -147 26 l16 33q44 -12 104 -12q40 0 66.5 22t26.5 45q0 30 -14 52t-34.5 35.5t-41 28t-34.5 39t-14 58.5q0 18 21 50q-121 21 -218 95t-147.5 172.5t-50.5 199.5z" />
<glyph unicode="&#xe8;" horiz-adv-x="1058" d="M90 492q0 84 36.5 170.5t98 157.5t151.5 116t189 45q173 0 288.5 -117t115.5 -299v-55h-670q-4 -62 -4 -100q0 -396 285 -396q150 0 240.5 79t115.5 233h41q-22 -168 -128 -260.5t-271 -92.5q-99 0 -188 37.5t-155.5 104t-105.5 164.5t-39 213zM250 1305q0 28 22 46.5 t56 18.5q65 0 110 -61q43 -60 65.5 -88t56 -59t68.5 -45t83 -21l-2 -33q-102 10 -206 43.5t-178.5 87.5t-74.5 111zM303 551h285h35q23 0 42 -0.5t34.5 1.5t27 4.5t20 9t14 14.5t9 21.5t5 30t1.5 40.5q0 132 -54.5 200t-160.5 68q-133 0 -190.5 -96t-67.5 -293z" />
<glyph unicode="&#xe9;" horiz-adv-x="1058" d="M90 492q0 84 36.5 170.5t98 157.5t151.5 116t189 45q173 0 288.5 -117t115.5 -299v-55h-670q-4 -62 -4 -100q0 -396 285 -396q150 0 240.5 79t115.5 233h41q-22 -168 -128 -260.5t-271 -92.5q-99 0 -188 37.5t-155.5 104t-105.5 164.5t-39 213zM303 551h285h35 q23 0 42 -0.5t34.5 1.5t27 4.5t20 9t14 14.5t9 21.5t5 30t1.5 40.5q0 132 -54.5 200t-160.5 68q-133 0 -190.5 -96t-67.5 -293zM387 1096q67 10 117.5 42t80 70t55 75t57 62t71.5 25q33 0 56.5 -18t23.5 -47q0 -57 -74.5 -111t-178.5 -87.5t-206 -43.5z" />
<glyph unicode="&#xea;" horiz-adv-x="1058" d="M90 492q0 84 36.5 170.5t98 157.5t151.5 116t189 45q173 0 288.5 -117t115.5 -299v-55h-670q-4 -62 -4 -100q0 -396 285 -396q150 0 240.5 79t115.5 233h41q-22 -168 -128 -260.5t-271 -92.5q-99 0 -188 37.5t-155.5 104t-105.5 164.5t-39 213zM252 1092l313 294 l314 -294l-25 -19l-289 144l-289 -144zM303 551h285h35q23 0 42 -0.5t34.5 1.5t27 4.5t20 9t14 14.5t9 21.5t5 30t1.5 40.5q0 132 -54.5 200t-160.5 68q-133 0 -190.5 -96t-67.5 -293z" />
<glyph unicode="&#xeb;" horiz-adv-x="1058" d="M90 492q0 84 36.5 170.5t98 157.5t151.5 116t189 45q173 0 288.5 -117t115.5 -299v-55h-670q-4 -62 -4 -100q0 -396 285 -396q150 0 240.5 79t115.5 233h41q-22 -168 -128 -260.5t-271 -92.5q-99 0 -188 37.5t-155.5 104t-105.5 164.5t-39 213zM266 1227q0 48 35.5 83.5 t87.5 35.5t87.5 -34.5t35.5 -84.5q0 -49 -36 -84t-87 -35t-87 35t-36 84zM303 551h285h35q23 0 42 -0.5t34.5 1.5t27 4.5t20 9t14 14.5t9 21.5t5 30t1.5 40.5q0 132 -54.5 200t-160.5 68q-133 0 -190.5 -96t-67.5 -293zM629 1227q0 48 35.5 83.5t87.5 35.5t87 -34.5 t35 -84.5q0 -51 -35.5 -85t-86.5 -34t-87 35t-36 84z" />
<glyph unicode="&#xec;" horiz-adv-x="710" d="M18 1305q0 28 22 46.5t56 18.5q66 0 111 -61q35 -49 52.5 -72t45 -53t50 -44t54 -26.5t70.5 -17.5l-2 -33q-102 10 -206 43.5t-178.5 87.5t-74.5 111zM76 0v35q47 4 79.5 9.5t54.5 15t34.5 19t18.5 28.5t7.5 35t1.5 46v580q0 30 -0.5 43.5t-3 33.5t-7 27t-14.5 18.5 t-23 15t-35.5 8.5t-48 7.5t-64.5 4.5v32q205 6 387 25v-795q0 -35 3 -54t13 -38.5t32 -29.5t58 -18t93 -13v-35h-586z" />
<glyph unicode="&#xed;" horiz-adv-x="710" d="M76 0v35q47 4 79.5 9.5t54.5 15t34.5 19t18.5 28.5t7.5 35t1.5 46v580q0 30 -0.5 43.5t-3 33.5t-7 27t-14.5 18.5t-23 15t-35.5 8.5t-48 7.5t-64.5 4.5v32q205 6 387 25v-795q0 -35 3 -54t13 -38.5t32 -29.5t58 -18t93 -13v-35h-586zM141 1096q67 10 117.5 42t80 70 t55 75t57 62t71.5 25q33 0 56.5 -18t23.5 -47q0 -57 -74.5 -111t-178.5 -87.5t-206 -43.5z" />
<glyph unicode="&#xee;" horiz-adv-x="710" d="M12 1092l314 294l313 -294l-25 -19l-288 144l-289 -144zM76 0v35q47 4 79.5 9.5t54.5 15t34.5 19t18.5 28.5t7.5 35t1.5 46v580q0 30 -0.5 43.5t-3 33.5t-7 27t-14.5 18.5t-23 15t-35.5 8.5t-48 7.5t-64.5 4.5v32q205 6 387 25v-795q0 -35 3 -54t13 -38.5t32 -29.5 t58 -18t93 -13v-35h-586z" />
<glyph unicode="&#xef;" horiz-adv-x="710" d="M20 1227q0 48 35.5 83.5t87.5 35.5t87.5 -34.5t35.5 -84.5q0 -49 -36 -84t-87 -35t-87 35t-36 84zM76 0v35q47 4 79.5 9.5t54.5 15t34.5 19t18.5 28.5t7.5 35t1.5 46v580q0 30 -0.5 43.5t-3 33.5t-7 27t-14.5 18.5t-23 15t-35.5 8.5t-48 7.5t-64.5 4.5v32q205 6 387 25 v-795q0 -35 3 -54t13 -38.5t32 -29.5t58 -18t93 -13v-35h-586zM383 1227q0 48 35.5 83.5t87.5 35.5t87.5 -34.5t35.5 -84.5q0 -51 -36 -85t-87 -34t-87 35t-36 84z" />
<glyph unicode="&#xf0;" horiz-adv-x="1163" d="M88 477q0 100 41.5 194t109.5 162t158.5 109t184.5 41q87 0 168 -35q-68 130 -162 244l-170 -76l-23 37l164 72q-74 80 -143 127l-2 6q0 4 4 8h184q65 -42 107 -76l180 78l22 -35l-168 -73q117 -106 194 -246.5t107.5 -272t30.5 -264.5q0 -101 -41.5 -195t-109.5 -161 t-158 -107.5t-184 -40.5t-184 40.5t-158.5 107.5t-110 161t-41.5 195zM307 477q0 -243 61.5 -353t213.5 -110t213 109.5t61 353.5q0 51 -1.5 89t-8 89.5t-17 89t-31 76.5t-49 64t-71 41t-96.5 16q-152 0 -213.5 -110.5t-61.5 -354.5z" />
<glyph unicode="&#xf1;" horiz-adv-x="1382" d="M74 926v32q215 6 393 25v-301q51 147 155.5 224t239.5 77q79 0 150.5 -36.5t105.5 -100.5q27 -51 27 -228v-430q0 -30 1.5 -46t7.5 -35t18.5 -28.5t34.5 -19t54.5 -15t79.5 -9.5v-35h-583v35q47 4 79.5 9.5t54.5 15t34.5 19t18.5 28.5t7.5 35t1.5 46v420q0 16 0.5 46 t0.5 45.5t-1 42t-3.5 41.5t-7 36t-12 32.5t-18.5 25.5t-26 21t-35 12t-45 5q-87 0 -161 -52.5t-118 -145.5q-61 -130 -61 -391v-138q0 -35 2.5 -54t12.5 -38.5t32 -29.5t58.5 -18t93.5 -13v-35h-586v35q47 4 79.5 9.5t54.5 15t34.5 19t18.5 28.5t7.5 35t1.5 46v580v44t-3 34 t-7.5 27t-15.5 18t-23.5 14.5t-36 9t-50 7.5t-66.5 4zM336 1135q81 206 229 206q53 0 113.5 -25.5t116 -51t94.5 -25.5q71 0 112 102l33 -10q-29 -105 -93 -162t-134 -57q-41 0 -91.5 16.5t-89.5 36t-84 36t-77 16.5q-48 0 -98 -99z" />
<glyph unicode="&#xf2;" horiz-adv-x="1163" d="M88 477q0 100 41.5 194t109.5 162t158.5 109t184.5 41t184 -40.5t158 -108.5t109.5 -162t41.5 -195t-41.5 -195t-109.5 -161t-158 -107.5t-184 -40.5t-184 40.5t-158.5 107.5t-110 161t-41.5 195zM264 1305q0 28 22 46.5t56 18.5q66 0 111 -61q35 -49 52.5 -72t45 -53 t50 -44t54 -26.5t70.5 -17.5l-2 -33q-102 10 -206 43.5t-178.5 87.5t-74.5 111zM307 477q0 -243 61.5 -353t213.5 -110t213 109.5t61 353.5q0 245 -61.5 355t-212.5 110q-152 0 -213.5 -110.5t-61.5 -354.5z" />
<glyph unicode="&#xf3;" horiz-adv-x="1163" d="M88 477q0 100 41.5 194t109.5 162t158.5 109t184.5 41t184 -40.5t158 -108.5t109.5 -162t41.5 -195t-41.5 -195t-109.5 -161t-158 -107.5t-184 -40.5t-184 40.5t-158.5 107.5t-110 161t-41.5 195zM307 477q0 -243 61.5 -353t213.5 -110t213 109.5t61 353.5 q0 245 -61.5 355t-212.5 110q-152 0 -213.5 -110.5t-61.5 -354.5zM408 1096q67 10 117.5 42t79.5 70t54.5 75t57 62t71.5 25q33 0 56.5 -18t23.5 -47q0 -57 -74.5 -111t-178 -87.5t-205.5 -43.5z" />
<glyph unicode="&#xf4;" horiz-adv-x="1163" d="M88 477q0 100 41.5 194t109.5 162t158.5 109t184.5 41t184 -40.5t158 -108.5t109.5 -162t41.5 -195t-41.5 -195t-109.5 -161t-158 -107.5t-184 -40.5t-184 40.5t-158.5 107.5t-110 161t-41.5 195zM262 1092l313 294l314 -294l-25 -19l-289 144l-288 -144zM307 477 q0 -243 61.5 -353t213.5 -110t213 109.5t61 353.5q0 245 -61.5 355t-212.5 110q-152 0 -213.5 -110.5t-61.5 -354.5z" />
<glyph unicode="&#xf5;" horiz-adv-x="1163" d="M88 477q0 100 41.5 194t109.5 162t158.5 109t184.5 41t184 -40.5t158 -108.5t109.5 -162t41.5 -195t-41.5 -195t-109.5 -161t-158 -107.5t-184 -40.5t-184 40.5t-158.5 107.5t-110 161t-41.5 195zM262 1135q81 206 230 206q53 0 113.5 -25.5t115.5 -51t94 -25.5 q72 0 113 102l33 -10q-29 -105 -93 -162t-135 -57q-41 0 -91.5 16.5t-89.5 36t-84 36t-77 16.5q-48 0 -98 -99zM307 477q0 -243 61.5 -353t213.5 -110t213 109.5t61 353.5q0 245 -61.5 355t-212.5 110q-152 0 -213.5 -110.5t-61.5 -354.5z" />
<glyph unicode="&#xf6;" horiz-adv-x="1163" d="M88 477q0 100 41.5 194t109.5 162t158.5 109t184.5 41t184 -40.5t158 -108.5t109.5 -162t41.5 -195t-41.5 -195t-109.5 -161t-158 -107.5t-184 -40.5t-184 40.5t-158.5 107.5t-110 161t-41.5 195zM279 1227q0 48 35 83.5t87 35.5t87.5 -34.5t35.5 -84.5q0 -49 -36 -84 t-87 -35t-86.5 34.5t-35.5 84.5zM307 477q0 -243 61.5 -353t213.5 -110t213 109.5t61 353.5q0 245 -61.5 355t-212.5 110q-152 0 -213.5 -110.5t-61.5 -354.5zM639 1227q0 48 35.5 83.5t87.5 35.5t87.5 -34.5t35.5 -84.5q0 -51 -36 -85t-87 -34t-87 35t-36 84z" />
<glyph unicode="&#xf7;" d="M106 662v96h1041v-96h-1041zM496 1042q0 52 37 87.5t90 35.5t90 -35.5t37 -87.5t-36.5 -87t-88.5 -35t-90.5 35t-38.5 87zM502 377q0 52 37.5 87.5t89.5 35.5t89.5 -35.5t37.5 -87.5t-36.5 -87.5t-88.5 -35.5t-90.5 35.5t-38.5 87.5z" />
<glyph unicode="&#xf8;" horiz-adv-x="1163" d="M88 477q0 100 41.5 194t109.5 162t158.5 109t184.5 41q103 0 213 -55l90 151h76l-111 -184q106 -74 165.5 -185.5t59.5 -232.5q0 -101 -41.5 -195t-109.5 -161t-158 -107.5t-184 -40.5q-116 0 -240 70l-92 -152h-74l113 189q-96 76 -148.5 180t-52.5 217zM307 477 q0 -202 37 -303l420 700q-65 68 -182 68q-152 0 -213.5 -111t-61.5 -354zM379 106q68 -92 203 -92q152 0 213 110t61 353q0 234 -53 340z" />
<glyph unicode="&#xf9;" horiz-adv-x="1366" d="M39 926v32q234 6 401 25v-690q0 -260 144 -260q56 0 112 31.5t106 93.5t81.5 169.5t31.5 243.5v197q0 29 -0.5 43.5t-3.5 33.5t-7.5 27t-15.5 18.5t-24 14.5t-36.5 9t-50 7.5t-66.5 4.5v32q230 6 395 25v-795q0 -35 2.5 -54t12.5 -38.5t31.5 -29.5t57.5 -18t93 -13v-35 q-342 -15 -388 -20v292q-136 -299 -385 -299q-151 0 -215.5 93t-64.5 276v426q0 39 -1 56.5t-8 38.5t-18 28.5t-37 16.5t-58.5 12t-88.5 6zM326 1305q0 28 21.5 46.5t55.5 18.5q66 0 111 -61q35 -49 52.5 -72t45 -53t50 -44t54 -26.5t70.5 -17.5l-2 -33q-102 10 -205.5 43.5 t-178 87.5t-74.5 111z" />
<glyph unicode="&#xfa;" horiz-adv-x="1366" d="M39 926v32q234 6 401 25v-690q0 -260 144 -260q56 0 112 31.5t106 93.5t81.5 169.5t31.5 243.5v197q0 29 -0.5 43.5t-3.5 33.5t-7.5 27t-15.5 18.5t-24 14.5t-36.5 9t-50 7.5t-66.5 4.5v32q230 6 395 25v-795q0 -35 2.5 -54t12.5 -38.5t31.5 -29.5t57.5 -18t93 -13v-35 q-342 -15 -388 -20v292q-136 -299 -385 -299q-151 0 -215.5 93t-64.5 276v426q0 39 -1 56.5t-8 38.5t-18 28.5t-37 16.5t-58.5 12t-88.5 6zM449 1096q67 10 117.5 42t79.5 70t54.5 75t57 62t71.5 25q33 0 56.5 -18t23.5 -47q0 -57 -74.5 -111t-178 -87.5t-205.5 -43.5z" />
<glyph unicode="&#xfb;" horiz-adv-x="1366" d="M39 926v32q234 6 401 25v-690q0 -260 144 -260q56 0 112 31.5t106 93.5t81.5 169.5t31.5 243.5v197q0 29 -0.5 43.5t-3.5 33.5t-7.5 27t-15.5 18.5t-24 14.5t-36.5 9t-50 7.5t-66.5 4.5v32q230 6 395 25v-795q0 -35 2.5 -54t12.5 -38.5t31.5 -29.5t57.5 -18t93 -13v-35 q-342 -15 -388 -20v292q-136 -299 -385 -299q-151 0 -215.5 93t-64.5 276v426q0 39 -1 56.5t-8 38.5t-18 28.5t-37 16.5t-58.5 12t-88.5 6zM342 1092l313 294l314 -294l-25 -19l-289 144l-288 -144z" />
<glyph unicode="&#xfc;" horiz-adv-x="1366" d="M39 926v32q234 6 401 25v-690q0 -260 144 -260q56 0 112 31.5t106 93.5t81.5 169.5t31.5 243.5v197q0 29 -0.5 43.5t-3.5 33.5t-7.5 27t-15.5 18.5t-24 14.5t-36.5 9t-50 7.5t-66.5 4.5v32q230 6 395 25v-795q0 -35 2.5 -54t12.5 -38.5t31.5 -29.5t57.5 -18t93 -13v-35 q-342 -15 -388 -20v292q-136 -299 -385 -299q-151 0 -215.5 93t-64.5 276v426q0 39 -1 56.5t-8 38.5t-18 28.5t-37 16.5t-58.5 12t-88.5 6zM340 1227q0 50 35.5 84.5t87.5 34.5t87.5 -34.5t35.5 -84.5q0 -51 -36 -85t-87 -34t-87 35t-36 84zM702 1227q0 48 35.5 83.5 t87.5 35.5t87.5 -34.5t35.5 -84.5q0 -49 -36 -84t-87 -35t-87 35t-36 84z" />
<glyph unicode="&#xfd;" horiz-adv-x="1175" d="M14 920v36h551v-34q-81 -7 -121.5 -20t-40.5 -44q0 -12 3 -25t6.5 -21.5t9.5 -22.5t8 -19l238 -604l166 412q34 84 53.5 152t19.5 87q0 54 -38 75t-115 30v34h422v-34q-101 -12 -151 -63.5t-107 -194.5l-345 -869q-55 -141 -128 -212.5t-179 -71.5q-88 0 -144 50t-56 120 q0 58 33 95.5t83 37.5t79.5 -33t29.5 -78q0 -39 -12 -58.5t-48 -45.5q-8 -4 -8 -11q0 -30 64 -30q152 0 241 249l37 105l-332 844q-2 4 -5 12q-27 72 -51 97q-44 47 -163 55zM489 1096q67 10 117.5 42t80 70t55 75t57 62t71.5 25q33 0 56.5 -18t23.5 -47q0 -57 -74.5 -111 t-178 -87.5t-205.5 -43.5z" />
<glyph unicode="&#xfe;" horiz-adv-x="1296" d="M53 -430q62 5 101.5 13t63.5 18t35 29.5t14 39.5t3 56v1452v43.5t-3 33t-7 26.5t-15 18t-23.5 14.5t-35 9t-48 7.5t-64.5 5v33q181 3 387 25v-617q48 106 121 156.5t184 50.5q121 0 223 -68t160.5 -182.5t58.5 -247.5q0 -110 -41 -208t-107.5 -163t-150 -103t-168.5 -38 q-105 0 -170 49t-110 150v-446q0 -46 5.5 -69t30 -43t71 -29t130.5 -15v-35h-645v35zM463 479q0 -230 69.5 -347.5t204.5 -117.5q57 0 112.5 34.5t86.5 94.5q53 98 53 342q0 229 -58 343t-188 114q-62 0 -118.5 -33.5t-94.5 -93.5q-40 -63 -53.5 -142.5t-13.5 -193.5z" />
<glyph unicode="&#xff;" horiz-adv-x="1175" d="M14 920v36h551v-34q-81 -7 -121.5 -20t-40.5 -44q0 -12 3 -25t6.5 -21.5t9.5 -22.5t8 -19l238 -604l166 412q34 84 53.5 152t19.5 87q0 54 -38 75t-115 30v34h422v-34q-101 -12 -151 -63.5t-107 -194.5l-345 -869q-55 -141 -128 -212.5t-179 -71.5q-88 0 -144 50t-56 120 q0 58 33 95.5t83 37.5t79.5 -33t29.5 -78q0 -39 -12 -58.5t-48 -45.5q-8 -4 -8 -11q0 -30 64 -30q152 0 241 249l37 105l-332 844q-2 4 -5 12q-27 72 -51 97q-44 47 -163 55zM317 1227q0 48 35.5 83.5t87.5 35.5t87.5 -34.5t35.5 -84.5q0 -49 -36 -84t-87 -35t-87 35t-36 84 zM680 1227q0 48 35.5 83.5t87.5 35.5t87.5 -34.5t35.5 -84.5q0 -51 -36 -85t-87 -34t-87 35t-36 84z" />
<glyph unicode="&#x152;" horiz-adv-x="2189" d="M96 682q0 130 49 258.5t130.5 228.5t198 162t243.5 62q108 0 218.5 -46.5t176.5 -121.5v141h932l4 -489h-35q-23 232 -132.5 340t-330.5 108q-64 0 -99.5 -3t-66.5 -12.5t-44 -29.5t-20 -50t-7 -79v-401h41q70 0 120 7t85.5 25.5t57 41.5t35 63.5t19 82.5t8.5 107h33 v-708h-33q-5 90 -19.5 148t-49.5 104.5t-97 67t-157 20.5h-43v-439q0 -125 9 -157q12 -46 60 -60q41 -12 138 -12q247 0 370 124t150 378h35l-9 -543h-954v141q-67 -75 -177 -121.5t-218 -46.5q-169 0 -314 104.5t-226 267t-81 337.5zM322 682q0 -347 93.5 -507.5 t301.5 -160.5q207 0 299 160t92 508t-92 509t-299 161q-209 0 -302 -161.5t-93 -508.5z" />
<glyph unicode="&#x153;" horiz-adv-x="1826" d="M88 477q0 100 41.5 194t110 162t158.5 109t184 41q105 0 212 -53.5t171 -147.5q69 98 164 148.5t204 50.5q173 0 289.5 -117.5t116.5 -298.5v-55h-672q-4 -58 -4 -100q0 -396 285 -396q150 0 240.5 79t115.5 233h41q-22 -169 -127.5 -261t-271.5 -92q-114 0 -219.5 51 t-165.5 142q-67 -91 -171 -142t-208 -51q-94 0 -184 40.5t-158.5 108t-110 161.5t-41.5 194zM307 477q0 -243 61.5 -353t213.5 -110t214 109.5t62 353.5t-62 354.5t-214 110.5t-213.5 -110.5t-61.5 -354.5zM1071 551h293q116 0 133 3q35 7 41 37q2 11 2 27q0 4 1 36t0.5 51 t-6.5 53t-17 63q-49 119 -189 119q-134 0 -191 -96t-67 -293z" />
<glyph unicode="&#x178;" horiz-adv-x="1400" d="M14 1331v35h602v-35q-28 -3 -41.5 -5t-37.5 -6t-36 -8.5t-26 -11t-20 -15t-6 -19.5q0 -24 1 -33.5t6.5 -26t18.5 -41.5l250 -483l195 324q86 143 86 206q0 52 -48 76.5t-141 36.5v41h569v-35q-58 -13 -102 -29t-81.5 -39.5t-63.5 -45.5t-56.5 -61.5t-51.5 -72t-56 -90.5 l-223 -370v-416v-6v-33.5t2 -27.5t5.5 -24t10.5 -19t17 -17t25.5 -13t35.5 -11t47.5 -8t60.5 -7.5t76 -5.5v-35h-756v35q190 11 238 41q34 22 38 76q1 15 1 55v397l-258 488q-34 64 -52 93.5t-40.5 59.5t-47.5 42.5t-56.5 23t-84.5 20.5zM397 1604q0 48 35.5 83t87.5 35 t87.5 -34t35.5 -84q0 -49 -36 -84t-87 -35t-87 35t-36 84zM760 1604q0 48 35.5 83t87.5 35t87.5 -34t35.5 -84q0 -51 -36 -85t-87 -34t-87 35t-36 84z" />
<glyph unicode="&#x2c6;" horiz-adv-x="956" d="M166 1092l313 294l314 -294l-25 -19l-289 144l-289 -144z" />
<glyph unicode="&#x2dc;" horiz-adv-x="1083" d="M193 1135q81 206 229 206q53 0 113.5 -25.5t115.5 -51t94 -25.5q72 0 113 102l33 -10q-29 -105 -93 -162t-134 -57q-41 0 -91.5 16.5t-89.5 36t-84 36t-77 16.5q-49 0 -99 -99z" />
<glyph unicode="&#x2000;" horiz-adv-x="920" />
<glyph unicode="&#x2001;" horiz-adv-x="1841" />
<glyph unicode="&#x2002;" horiz-adv-x="920" />
<glyph unicode="&#x2003;" horiz-adv-x="1841" />
<glyph unicode="&#x2004;" horiz-adv-x="613" />
<glyph unicode="&#x2005;" horiz-adv-x="460" />
<glyph unicode="&#x2006;" horiz-adv-x="306" />
<glyph unicode="&#x2007;" horiz-adv-x="306" />
<glyph unicode="&#x2008;" horiz-adv-x="230" />
<glyph unicode="&#x2009;" horiz-adv-x="368" />
<glyph unicode="&#x200a;" horiz-adv-x="102" />
<glyph unicode="&#x2010;" horiz-adv-x="391" d="M0 414v129h391v-129h-391z" />
<glyph unicode="&#x2011;" horiz-adv-x="391" d="M0 414v129h391v-129h-391z" />
<glyph unicode="&#x2012;" horiz-adv-x="391" d="M0 414v129h391v-129h-391z" />
<glyph unicode="&#x2013;" horiz-adv-x="1226" d="M180 416v125h867v-125h-867z" />
<glyph unicode="&#x2014;" horiz-adv-x="1515" d="M0 420v117h1516v-117h-1516z" />
<glyph unicode="&#x2018;" horiz-adv-x="550" d="M143 1090q0 82 53.5 161t159.5 140l21 -37q-160 -95 -160 -187q0 -53 35 -53q2 0 10 4t22 8t29 4q38 0 67.5 -29.5t29.5 -66.5q0 -56 -34.5 -88.5t-78.5 -32.5q-68 0 -111 49.5t-43 127.5z" />
<glyph unicode="&#x2019;" horiz-adv-x="550" d="M143 1272q0 55 34 88t77 33q68 0 112 -50t44 -126q0 -81 -55 -161t-160 -141l-19 35q160 96 160 189q0 53 -35 53q-2 0 -10.5 -4t-23 -8t-29.5 -4q-38 0 -66.5 30t-28.5 66z" />
<glyph unicode="&#x201a;" horiz-adv-x="550" d="M143 82q0 56 33.5 88.5t77.5 32.5q68 0 112 -50t44 -126q0 -81 -54.5 -160.5t-160.5 -140.5l-19 34q160 96 160 189q0 53 -35 53q-2 0 -10.5 -4t-23 -8t-29.5 -4q-38 0 -66.5 30t-28.5 66z" />
<glyph unicode="&#x201c;" horiz-adv-x="890" d="M143 1090q0 82 53.5 161t159.5 140l21 -37q-160 -95 -160 -187q0 -53 35 -53q2 0 10 4t22 8t29 4q38 0 67.5 -29.5t29.5 -66.5q0 -56 -34.5 -88.5t-78.5 -32.5q-68 0 -111 49.5t-43 127.5zM481 1092q0 82 54.5 161t160.5 140l19 -37q-78 -47 -119 -91.5t-41 -95.5 q0 -53 35 -53q1 0 9.5 4t23.5 8.5t30 4.5q38 0 66.5 -30t28.5 -67q0 -56 -33.5 -88.5t-77.5 -32.5q-68 0 -112 49.5t-44 127.5z" />
<glyph unicode="&#x201d;" horiz-adv-x="890" d="M143 1270q0 54 33.5 87.5t77.5 33.5q67 0 111.5 -50t44.5 -127q0 -81 -54.5 -160.5t-160.5 -140.5l-19 35q160 97 160 189q0 53 -35 53q-1 0 -9.5 -4t-23.5 -8t-30 -4q-38 0 -66.5 29.5t-28.5 66.5zM481 1272q0 55 35 88t78 33q67 0 110.5 -49.5t43.5 -126.5 q0 -82 -54 -162.5t-159 -139.5l-21 35q160 93 160 189q0 53 -35 53q-2 0 -10 -4t-22 -8t-29 -4q-38 0 -67.5 29.5t-29.5 66.5z" />
<glyph unicode="&#x201e;" horiz-adv-x="890" d="M143 80q0 56 33.5 88.5t77.5 32.5q68 0 112 -50t44 -126q0 -82 -54.5 -162.5t-160.5 -141.5l-19 37q160 97 160 189q0 53 -35 53q-1 0 -10 -4t-23.5 -8t-29.5 -4q-38 0 -66.5 29.5t-28.5 66.5zM481 82q0 55 35 88t78 33q67 0 110.5 -49.5t43.5 -126.5q0 -82 -53.5 -161 t-159.5 -140l-21 34q160 93 160 189q0 53 -35 53q-2 0 -10 -4t-22 -8t-29 -4q-38 0 -67.5 29.5t-29.5 66.5z" />
<glyph unicode="&#x2022;" horiz-adv-x="1024" d="M268 678q0 101 72 172.5t172 71.5t172 -71t72 -171q0 -101 -72 -172.5t-172 -71.5t-172 71t-72 171z" />
<glyph unicode="&#x2026;" horiz-adv-x="1986" d="M150 109q0 51 36 86.5t90 35.5t89.5 -35.5t35.5 -86.5t-36.5 -87t-88.5 -36t-89 36t-37 87zM866 109q0 51 36.5 86.5t90.5 35.5t89.5 -35.5t35.5 -86.5t-36.5 -87t-88.5 -36q-53 0 -90 36t-37 87zM1583 109q0 50 37 86t90 36q52 0 88.5 -35.5t36.5 -86.5t-36.5 -87 t-88.5 -36q-53 0 -90 36.5t-37 86.5z" />
<glyph unicode="&#x202f;" horiz-adv-x="368" />
<glyph unicode="&#x2039;" horiz-adv-x="530" d="M96 469l287 371l39 -9l-160 -362l160 -342l-39 -8z" />
<glyph unicode="&#x203a;" horiz-adv-x="530" d="M109 127l159 342l-159 362l38 9l287 -371l-287 -350z" />
<glyph unicode="&#x205f;" horiz-adv-x="460" />
<glyph unicode="&#x20ac;" horiz-adv-x="1304" d="M35 559v57h153q-2 20 -2 64q0 40 7 98h-158v58h166q21 101 72 199.5t123.5 178.5t171 129.5t204.5 49.5q134 0 240 -84q7 -6 20.5 -17t21 -16.5t17 -12t17 -9.5t14.5 -3q40 0 76 127h28v-463h-35q-23 108 -68 194t-100 137.5t-113.5 78.5t-113.5 27q-56 0 -103 -17.5 t-80.5 -46t-60.5 -71t-44 -86t-29.5 -98t-19 -99.5t-11.5 -98h492v-58h-498q-2 -33 -2 -106v-56h500v-57h-500q1 -61 5.5 -111t15 -108t27 -103t44.5 -88t65.5 -71.5t91 -46t119.5 -17.5q153 0 259.5 109t121.5 278h45q-18 -194 -135.5 -311t-310.5 -117q-116 0 -217.5 49.5 t-172.5 133t-117.5 187t-63.5 216.5h-162z" />
<glyph unicode="&#x2122;" horiz-adv-x="2252" d="M57 1026v340h875v-340h-29q-8 57 -16.5 96t-27.5 84t-44.5 72t-68.5 45t-99 18h-74v-679q0 -6 -0.5 -22t0 -19.5t3 -14.5t7.5 -13.5t15 -9.5t24 -8.5t36 -5t50 -5t66 -3.5v-22h-561v22q39 2 67 3.5t50 5t36 5.5t24 8.5t15 9t7.5 13t2.5 15t-0.5 19.5t-0.5 22v679h-74 q-58 0 -105 -29.5t-76.5 -77.5t-47.5 -100.5t-25 -107.5h-29zM983 541v20q104 13 149.5 56t45.5 153v492q0 28 -2.5 40t-20 22.5t-47.5 14t-94 7.5v20h336l252 -618l249 618h330v-20q-56 -2 -86.5 -6.5t-44.5 -16.5t-16 -23t-2 -38v-637q0 -36 23.5 -45t125.5 -19v-20h-459 v20q72 4 104.5 13t39 20t6.5 37v682l-328 -789l-325 789v-543q0 -110 40.5 -154t143.5 -55v-20h-420z" />
<glyph unicode="&#x25fc;" horiz-adv-x="952" d="M0 0v952h952v-952h-952z" />
</font>
</defs>
</svg>
